<?xml version="1.0" encoding="UTF-8" standalone="no"?>
<svg width="24px" height="21px" viewBox="0 0 24 21" version="1.1" xmlns="http://www.w3.org/2000/svg" xmlns:xlink="http://www.w3.org/1999/xlink" xmlns:sketch="http://www.bohemiancoding.com/sketch/ns">
    <!-- Generator: Sketch 3.2.2 (9983) - http://www.bohemiancoding.com/sketch -->
    <title>Twitter</title>
    <desc>Created with Sketch.</desc>
    <defs></defs>
    <g id="Page-1" stroke="none" stroke-width="1" fill="none" fill-rule="evenodd" sketch:type="MSPage">
        <path d="M11.6161828,6.79235307 C11.6161828,6.79235307 6.53533705,7.05863712 1.53885907,1.65112425 C-0.268280395,3.51296782 1.46917781,7.67072745 2.98861767,8.22771315 C1.82149993,8.22771316 0.826545183,7.65802369 0.826545183,7.65802369 C0.826545183,7.65802369 0.450560675,11.5790315 4.69033793,12.5420426 C3.65621809,13.1043078 2.47653498,12.7053767 2.47653498,12.7053767 C2.47653498,12.7053767 3.86232378,16.2196991 7.14157884,16.2196991 C4.30880529,18.0574549 3.0623785,18.2486713 0,18.2486713 C12.2064323,25.1855851 22.0637792,14.6975575 21.6091385,5.67475202 C22.8310872,4.77212501 24,3.09588841 24,3.09588841 L21.3185014,3.80729906 C21.3185014,3.80729906 22.9183926,2.4856129 23.3237506,1.0853944 C21.6091385,1.94017607 20.5306656,2.55438058 20.1698239,2.21949384 C15.2205072,-2.3738234 10.7537363,3.30574805 11.6161828,6.79235307 Z" id="Twitter" fill="#464646" sketch:type="MSShapeGroup"></path>
    </g>
</svg>