<?xml version="1.0" encoding="UTF-8" standalone="no"?>
<svg width="24px" height="16px" viewBox="0 0 24 16" version="1.1" xmlns="http://www.w3.org/2000/svg" xmlns:xlink="http://www.w3.org/1999/xlink" xmlns:sketch="http://www.bohemiancoding.com/sketch/ns">
    <g id="Page-1" stroke="none" stroke-width="1" fill="none" fill-rule="evenodd" sketch:type="MSPage">
        <g id="Watchers" sketch:type="MSLayerGroup" fill="#D1C4C0">
            <path d="M0.1875,8.87926136 C2.90672836,-0.767045492 17.2389601,-4.69709318 23.8297194,8.52414773 C20.2892219,16.9938445 5.39349494,19.6941286 0.1875,8.87926136 Z M3.06127733,8.31249999 C3.77399953,2.84074016 17.4825125,-0.439720458 20.8536374,8.31249986 C16.1005343,20.2624718 2.52826143,12.4046063 3.06127733,8.31249999 Z" id="Path-27" sketch:type="MSShapeGroup"></path>
            <path d="M11.7553408,4.36363637 C14.1897924,4.3637641 16.1632653,6.31738169 16.1632653,8.72727273 C16.1632653,11.1372425 14.1896634,13.0909091 11.755102,13.0909091 C9.32054069,13.0909091 7.34693878,11.1372425 7.34693878,8.72727273 C7.34693878,7.98452153 7.53440502,7.28511314 7.86505506,6.67288271 C8.04495542,7.83620915 9.06021349,8.72727273 10.2857143,8.72727273 C11.6382484,8.72727273 12.7346939,7.64190242 12.7346939,6.3030303 C12.7346939,5.51001263 12.350036,4.80592912 11.7553408,4.36363637 Z" id="Oval-1" sketch:type="MSShapeGroup"></path>
        </g>
    </g>
</svg>