<?xml version="1.0" encoding="UTF-8" standalone="no"?>
<svg width="1160px" height="732px" viewBox="0 0 1160 732" version="1.1" xmlns="http://www.w3.org/2000/svg" xmlns:xlink="http://www.w3.org/1999/xlink" xmlns:sketch="http://www.bohemiancoding.com/sketch/ns">
    <!-- Generator: Sketch 3.1 (8751) - http://www.bohemiancoding.com/sketch -->
    <title>unselected</title>
    <desc>Created with Sketch.</desc>
    <defs></defs>
    <g id="Page-1" stroke="none" stroke-width="1" fill="none" fill-rule="evenodd" sketch:type="MSPage">
        <g id="unselected" sketch:type="MSLayerGroup" transform="translate(2.000000, 2.000000)">
            <circle id="Oval-12" stroke="#F4C1C8" stroke-width="3" fill="#FFFFFF" sketch:type="MSShapeGroup" cx="572" cy="285" r="16"></circle>
            <circle id="Oval-12" stroke="#F4C1C8" stroke-width="3" fill="#FFFFFF" sketch:type="MSShapeGroup" cx="517" cy="248" r="16"></circle>
            <circle id="Oval-12" stroke="#F4C1C8" stroke-width="3" fill="#FFFFFF" sketch:type="MSShapeGroup" cx="556" cy="148" r="16"></circle>
            <circle id="Oval-12" stroke="#F4C1C8" stroke-width="3" fill="#FFFFFF" sketch:type="MSShapeGroup" cx="498" cy="147" r="16"></circle>
            <circle id="Oval-12" stroke="#F4C1C8" stroke-width="3" fill="#FFFFFF" sketch:type="MSShapeGroup" cx="450" cy="163" r="16"></circle>
            <circle id="Oval-12" stroke="#F4C1C8" stroke-width="3" fill="#FFFFFF" sketch:type="MSShapeGroup" cx="457" cy="94" r="16"></circle>
            <circle id="Oval-12" stroke="#F4C1C8" stroke-width="3" fill="#FFFFFF" sketch:type="MSShapeGroup" cx="539" cy="99" r="16"></circle>
            <path d="M594,125 C602.836556,125 610,117.836556 610,109 C610,100.163444 602.836556,93 594,93 C585.163444,93 578,100.163444 578,109 C578,117.836556 585.163444,125 594,125 Z" id="Oval-12" stroke="#F4C1C8" stroke-width="3" fill="#FFFFFF" sketch:type="MSShapeGroup"></path>
            <path d="M578,73 C586.836556,73 594,65.836556 594,57 C594,48.163444 586.836556,41 578,41 C569.163444,41 562,48.163444 562,57 C562,65.836556 569.163444,73 578,73 Z" id="Oval-12" stroke="#F4C1C8" stroke-width="3" fill="#FFFFFF" sketch:type="MSShapeGroup"></path>
            <path d="M530,72 C538.836556,72 546,64.836556 546,56 C546,47.163444 538.836556,40 530,40 C521.163444,40 514,47.163444 514,56 C514,64.836556 521.163444,72 530,72 Z" id="Oval-12" stroke="#F4C1C8" stroke-width="3" fill="#FFFFFF" sketch:type="MSShapeGroup"></path>
            <path d="M404,69 C412.836556,69 420,61.836556 420,53 C420,44.163444 412.836556,37 404,37 C395.163444,37 388,44.163444 388,53 C388,61.836556 395.163444,69 404,69 Z" id="Oval-12" stroke="#F4C1C8" stroke-width="3" fill="#FFFFFF" sketch:type="MSShapeGroup"></path>
            <path d="M327,104 C335.836556,104 343,96.836556 343,88 C343,79.163444 335.836556,72 327,72 C318.163444,72 311,79.163444 311,88 C311,96.836556 318.163444,104 327,104 Z" id="Oval-12" stroke="#F4C1C8" stroke-width="3" fill="#FFFFFF" sketch:type="MSShapeGroup"></path>
            <path d="M636,543 C644.836556,543 652,535.836556 652,527 C652,518.163444 644.836556,511 636,511 C627.163444,511 620,518.163444 620,527 C620,535.836556 627.163444,543 636,543 Z" id="Oval-12" stroke="#F4C1C8" stroke-width="3" fill="#FFFFFF" sketch:type="MSShapeGroup"></path>
            <path d="M668,596 C676.836556,596 684,588.836556 684,580 C684,571.163444 676.836556,564 668,564 C659.163444,564 652,571.163444 652,580 C652,588.836556 659.163444,596 668,596 Z" id="Oval-12" stroke="#F4C1C8" stroke-width="3" fill="#FFFFFF" sketch:type="MSShapeGroup"></path>
            <path d="M609,595 C617.836556,595 625,587.836556 625,579 C625,570.163444 617.836556,563 609,563 C600.163444,563 593,570.163444 593,579 C593,587.836556 600.163444,595 609,595 Z" id="Oval-12" stroke="#F4C1C8" stroke-width="3" fill="#FFFFFF" sketch:type="MSShapeGroup"></path>
            <path d="M529,593 C537.836556,593 545,585.836556 545,577 C545,568.163444 537.836556,561 529,561 C520.163444,561 513,568.163444 513,577 C513,585.836556 520.163444,593 529,593 Z" id="Oval-12" stroke="#F4C1C8" stroke-width="3" fill="#FFFFFF" sketch:type="MSShapeGroup"></path>
            <path d="M474,570 C482.836556,570 490,562.836556 490,554 C490,545.163444 482.836556,538 474,538 C465.163444,538 458,545.163444 458,554 C458,562.836556 465.163444,570 474,570 Z" id="Oval-12" stroke="#F4C1C8" stroke-width="3" fill="#FFFFFF" sketch:type="MSShapeGroup"></path>
            <path d="M417,552 C425.836556,552 433,544.836556 433,536 C433,527.163444 425.836556,520 417,520 C408.163444,520 401,527.163444 401,536 C401,544.836556 408.163444,552 417,552 Z" id="Oval-12" stroke="#F4C1C8" stroke-width="3" fill="#FFFFFF" sketch:type="MSShapeGroup"></path>
            <path d="M367,525 C375.836556,525 383,517.836556 383,509 C383,500.163444 375.836556,493 367,493 C358.163444,493 351,500.163444 351,509 C351,517.836556 358.163444,525 367,525 Z" id="Oval-12" stroke="#F4C1C8" stroke-width="3" fill="#FFFFFF" sketch:type="MSShapeGroup"></path>
            <path d="M344,458 C352.836556,458 360,450.836556 360,442 C360,433.163444 352.836556,426 344,426 C335.163444,426 328,433.163444 328,442 C328,450.836556 335.163444,458 344,458 Z" id="Oval-12" stroke="#F4C1C8" stroke-width="3" fill="#FFFFFF" sketch:type="MSShapeGroup"></path>
            <path d="M314,415 C322.836556,415 330,407.836556 330,399 C330,390.163444 322.836556,383 314,383 C305.163444,383 298,390.163444 298,399 C298,407.836556 305.163444,415 314,415 Z" id="Oval-12" stroke="#F4C1C8" stroke-width="3" fill="#FFFFFF" sketch:type="MSShapeGroup"></path>
            <path d="M291,354 C299.836556,354 307,346.836556 307,338 C307,329.163444 299.836556,322 291,322 C282.163444,322 275,329.163444 275,338 C275,346.836556 282.163444,354 291,354 Z" id="Oval-12" stroke="#F4C1C8" stroke-width="3" fill="#FFFFFF" sketch:type="MSShapeGroup"></path>
            <path d="M302,310 C310.836556,310 318,302.836556 318,294 C318,285.163444 310.836556,278 302,278 C293.163444,278 286,285.163444 286,294 C286,302.836556 293.163444,310 302,310 Z" id="Oval-12" stroke="#F4C1C8" stroke-width="3" fill="#FFFFFF" sketch:type="MSShapeGroup"></path>
            <path d="M293,266 C301.836556,266 309,258.836556 309,250 C309,241.163444 301.836556,234 293,234 C284.163444,234 277,241.163444 277,250 C277,258.836556 284.163444,266 293,266 Z" id="Oval-12" stroke="#F4C1C8" stroke-width="3" fill="#FFFFFF" sketch:type="MSShapeGroup"></path>
            <path d="M323,188 C331.836556,188 339,180.836556 339,172 C339,163.163444 331.836556,156 323,156 C314.163444,156 307,163.163444 307,172 C307,180.836556 314.163444,188 323,188 Z" id="Oval-12" stroke="#F4C1C8" stroke-width="3" fill="#FFFFFF" sketch:type="MSShapeGroup"></path>
            <path d="M301,144 C309.836556,144 317,136.836556 317,128 C317,119.163444 309.836556,112 301,112 C292.163444,112 285,119.163444 285,128 C285,136.836556 292.163444,144 301,144 Z" id="Oval-12" stroke="#F4C1C8" stroke-width="3" fill="#FFFFFF" sketch:type="MSShapeGroup"></path>
            <path d="M278,208 C286.836556,208 294,200.836556 294,192 C294,183.163444 286.836556,176 278,176 C269.163444,176 262,183.163444 262,192 C262,200.836556 269.163444,208 278,208 Z" id="Oval-12" stroke="#F4C1C8" stroke-width="3" fill="#FFFFFF" sketch:type="MSShapeGroup"></path>
            <path d="M246,246 C254.836556,246 262,238.836556 262,230 C262,221.163444 254.836556,214 246,214 C237.163444,214 230,221.163444 230,230 C230,238.836556 237.163444,246 246,246 Z" id="Oval-12" stroke="#F4C1C8" stroke-width="3" fill="#FFFFFF" sketch:type="MSShapeGroup"></path>
            <path d="M257,309 C265.836556,309 273,301.836556 273,293 C273,284.163444 265.836556,277 257,277 C248.163444,277 241,284.163444 241,293 C241,301.836556 248.163444,309 257,309 Z" id="Oval-12" stroke="#F4C1C8" stroke-width="3" fill="#FFFFFF" sketch:type="MSShapeGroup"></path>
            <path d="M249,372 C257.836556,372 265,364.836556 265,356 C265,347.163444 257.836556,340 249,340 C240.163444,340 233,347.163444 233,356 C233,364.836556 240.163444,372 249,372 Z" id="Oval-12" stroke="#F4C1C8" stroke-width="3" fill="#FFFFFF" sketch:type="MSShapeGroup"></path>
            <path d="M295,469 C303.836556,469 311,461.836556 311,453 C311,444.163444 303.836556,437 295,437 C286.163444,437 279,444.163444 279,453 C279,461.836556 286.163444,469 295,469 Z" id="Oval-12" stroke="#F4C1C8" stroke-width="3" fill="#FFFFFF" sketch:type="MSShapeGroup"></path>
            <path d="M302,527 C310.836556,527 318,519.836556 318,511 C318,502.163444 310.836556,495 302,495 C293.163444,495 286,502.163444 286,511 C286,519.836556 293.163444,527 302,527 Z" id="Oval-12" stroke="#F4C1C8" stroke-width="3" fill="#FFFFFF" sketch:type="MSShapeGroup"></path>
            <path d="M333,559 C341.836556,559 349,551.836556 349,543 C349,534.163444 341.836556,527 333,527 C324.163444,527 317,534.163444 317,543 C317,551.836556 324.163444,559 333,559 Z" id="Oval-12" stroke="#F4C1C8" stroke-width="3" fill="#FFFFFF" sketch:type="MSShapeGroup"></path>
            <path d="M378,588 C386.836556,588 394,580.836556 394,572 C394,563.163444 386.836556,556 378,556 C369.163444,556 362,563.163444 362,572 C362,580.836556 369.163444,588 378,588 Z" id="Oval-12" stroke="#F4C1C8" stroke-width="3" fill="#FFFFFF" sketch:type="MSShapeGroup"></path>
            <path d="M419,603 C427.836556,603 435,595.836556 435,587 C435,578.163444 427.836556,571 419,571 C410.163444,571 403,578.163444 403,587 C403,595.836556 410.163444,603 419,603 Z" id="Oval-12" stroke="#F4C1C8" stroke-width="3" fill="#FFFFFF" sketch:type="MSShapeGroup"></path>
            <path d="M469,625 C477.836556,625 485,617.836556 485,609 C485,600.163444 477.836556,593 469,593 C460.163444,593 453,600.163444 453,609 C453,617.836556 460.163444,625 469,625 Z" id="Oval-12" stroke="#F4C1C8" stroke-width="3" fill="#FFFFFF" sketch:type="MSShapeGroup"></path>
            <path d="M564,632 C572.836556,632 580,624.836556 580,616 C580,607.163444 572.836556,600 564,600 C555.163444,600 548,607.163444 548,616 C548,624.836556 555.163444,632 564,632 Z" id="Oval-12" stroke="#F4C1C8" stroke-width="3" fill="#FFFFFF" sketch:type="MSShapeGroup"></path>
            <path d="M210,402 C218.836556,402 226,394.836556 226,386 C226,377.163444 218.836556,370 210,370 C201.163444,370 194,377.163444 194,386 C194,394.836556 201.163444,402 210,402 Z" id="Oval-12" stroke="#F4C1C8" stroke-width="3" fill="#FFFFFF" sketch:type="MSShapeGroup"></path>
            <path d="M212,327 C220.836556,327 228,319.836556 228,311 C228,302.163444 220.836556,295 212,295 C203.163444,295 196,302.163444 196,311 C196,319.836556 203.163444,327 212,327 Z" id="Oval-12" stroke="#F4C1C8" stroke-width="3" fill="#FFFFFF" sketch:type="MSShapeGroup"></path>
            <path d="M211,278 C219.836556,278 227,270.836556 227,262 C227,253.163444 219.836556,246 211,246 C202.163444,246 195,253.163444 195,262 C195,270.836556 202.163444,278 211,278 Z" id="Oval-12" stroke="#F4C1C8" stroke-width="3" fill="#FFFFFF" sketch:type="MSShapeGroup"></path>
            <path d="M237,183 C245.836556,183 253,175.836556 253,167 C253,158.163444 245.836556,151 237,151 C228.163444,151 221,158.163444 221,167 C221,175.836556 228.163444,183 237,183 Z" id="Oval-12" stroke="#F4C1C8" stroke-width="3" fill="#FFFFFF" sketch:type="MSShapeGroup"></path>
            <path d="M261,120 C269.836556,120 277,112.836556 277,104 C277,95.163444 269.836556,88 261,88 C252.163444,88 245,95.163444 245,104 C245,112.836556 252.163444,120 261,120 Z" id="Oval-12" stroke="#F4C1C8" stroke-width="3" fill="#FFFFFF" sketch:type="MSShapeGroup"></path>
            <path d="M303,60 C311.836556,60 319,52.836556 319,44 C319,35.163444 311.836556,28 303,28 C294.163444,28 287,35.163444 287,44 C287,52.836556 294.163444,60 303,60 Z" id="Oval-12" stroke="#F4C1C8" stroke-width="3" fill="#FFFFFF" sketch:type="MSShapeGroup"></path>
            <path d="M353,32 C361.836556,32 369,24.836556 369,16 C369,7.163444 361.836556,0 353,0 C344.163444,0 337,7.163444 337,16 C337,24.836556 344.163444,32 353,32 Z" id="Oval-12" stroke="#F4C1C8" stroke-width="3" fill="#FFFFFF" sketch:type="MSShapeGroup"></path>
            <path d="M196,142 C204.836556,142 212,134.836556 212,126 C212,117.163444 204.836556,110 196,110 C187.163444,110 180,117.163444 180,126 C180,134.836556 187.163444,142 196,142 Z" id="Oval-12" stroke="#F4C1C8" stroke-width="3" fill="#FFFFFF" sketch:type="MSShapeGroup"></path>
            <path d="M204,218 C212.836556,218 220,210.836556 220,202 C220,193.163444 212.836556,186 204,186 C195.163444,186 188,193.163444 188,202 C188,210.836556 195.163444,218 204,218 Z" id="Oval-12" stroke="#F4C1C8" stroke-width="3" fill="#FFFFFF" sketch:type="MSShapeGroup"></path>
            <path d="M164,259 C172.836556,259 180,251.836556 180,243 C180,234.163444 172.836556,227 164,227 C155.163444,227 148,234.163444 148,243 C148,251.836556 155.163444,259 164,259 Z" id="Oval-12" stroke="#F4C1C8" stroke-width="3" fill="#FFFFFF" sketch:type="MSShapeGroup"></path>
            <path d="M167,315 C175.836556,315 183,307.836556 183,299 C183,290.163444 175.836556,283 167,283 C158.163444,283 151,290.163444 151,299 C151,307.836556 158.163444,315 167,315 Z" id="Oval-12" stroke="#F4C1C8" stroke-width="3" fill="#FFFFFF" sketch:type="MSShapeGroup"></path>
            <path d="M173,371 C181.836556,371 189,363.836556 189,355 C189,346.163444 181.836556,339 173,339 C164.163444,339 157,346.163444 157,355 C157,363.836556 164.163444,371 173,371 Z" id="Oval-12" stroke="#F4C1C8" stroke-width="3" fill="#FFFFFF" sketch:type="MSShapeGroup"></path>
            <path d="M174,447 C182.836556,447 190,439.836556 190,431 C190,422.163444 182.836556,415 174,415 C165.163444,415 158,422.163444 158,431 C158,439.836556 165.163444,447 174,447 Z" id="Oval-12" stroke="#F4C1C8" stroke-width="3" fill="#FFFFFF" sketch:type="MSShapeGroup"></path>
            <path d="M246,472 C254.836556,472 262,464.836556 262,456 C262,447.163444 254.836556,440 246,440 C237.163444,440 230,447.163444 230,456 C230,464.836556 237.163444,472 246,472 Z" id="Oval-12" stroke="#F4C1C8" stroke-width="3" fill="#FFFFFF" sketch:type="MSShapeGroup"></path>
            <path d="M262,543 C270.836556,543 278,535.836556 278,527 C278,518.163444 270.836556,511 262,511 C253.163444,511 246,518.163444 246,527 C246,535.836556 253.163444,543 262,543 Z" id="Oval-12" stroke="#F4C1C8" stroke-width="3" fill="#FFFFFF" sketch:type="MSShapeGroup"></path>
            <path d="M208,519 C216.836556,519 224,511.836556 224,503 C224,494.163444 216.836556,487 208,487 C199.163444,487 192,494.163444 192,503 C192,511.836556 199.163444,519 208,519 Z" id="Oval-12" stroke="#F4C1C8" stroke-width="3" fill="#FFFFFF" sketch:type="MSShapeGroup"></path>
            <path d="M162,494 C170.836556,494 178,486.836556 178,478 C178,469.163444 170.836556,462 162,462 C153.163444,462 146,469.163444 146,478 C146,486.836556 153.163444,494 162,494 Z" id="Oval-12" stroke="#F4C1C8" stroke-width="3" fill="#FFFFFF" sketch:type="MSShapeGroup"></path>
            <path d="M225,572 C233.836556,572 241,564.836556 241,556 C241,547.163444 233.836556,540 225,540 C216.163444,540 209,547.163444 209,556 C209,564.836556 216.163444,572 225,572 Z" id="Oval-12" stroke="#F4C1C8" stroke-width="3" fill="#FFFFFF" sketch:type="MSShapeGroup"></path>
            <path d="M288,583 C296.836556,583 304,575.836556 304,567 C304,558.163444 296.836556,551 288,551 C279.163444,551 272,558.163444 272,567 C272,575.836556 279.163444,583 288,583 Z" id="Oval-12" stroke="#F4C1C8" stroke-width="3" fill="#FFFFFF" sketch:type="MSShapeGroup"></path>
            <path d="M337,626 C345.836556,626 353,618.836556 353,610 C353,601.163444 345.836556,594 337,594 C328.163444,594 321,601.163444 321,610 C321,618.836556 328.163444,626 337,626 Z" id="Oval-12" stroke="#F4C1C8" stroke-width="3" fill="#FFFFFF" sketch:type="MSShapeGroup"></path>
            <path d="M387,639 C395.836556,639 403,631.836556 403,623 C403,614.163444 395.836556,607 387,607 C378.163444,607 371,614.163444 371,623 C371,631.836556 378.163444,639 387,639 Z" id="Oval-12" stroke="#F4C1C8" stroke-width="3" fill="#FFFFFF" sketch:type="MSShapeGroup"></path>
            <path d="M430,661 C438.836556,661 446,653.836556 446,645 C446,636.163444 438.836556,629 430,629 C421.163444,629 414,636.163444 414,645 C414,653.836556 421.163444,661 430,661 Z" id="Oval-12" stroke="#F4C1C8" stroke-width="3" fill="#FFFFFF" sketch:type="MSShapeGroup"></path>
            <path d="M505,676 C513.836556,676 521,668.836556 521,660 C521,651.163444 513.836556,644 505,644 C496.163444,644 489,651.163444 489,660 C489,668.836556 496.163444,676 505,676 Z" id="Oval-12" stroke="#F4C1C8" stroke-width="3" fill="#FFFFFF" sketch:type="MSShapeGroup"></path>
            <path d="M519,635 C527.836556,635 535,627.836556 535,619 C535,610.163444 527.836556,603 519,603 C510.163444,603 503,610.163444 503,619 C503,627.836556 510.163444,635 519,635 Z" id="Oval-12" stroke="#F4C1C8" stroke-width="3" fill="#FFFFFF" sketch:type="MSShapeGroup"></path>
            <path d="M592,684 C600.836556,684 608,676.836556 608,668 C608,659.163444 600.836556,652 592,652 C583.163444,652 576,659.163444 576,668 C576,676.836556 583.163444,684 592,684 Z" id="Oval-12" stroke="#F4C1C8" stroke-width="3" fill="#FFFFFF" sketch:type="MSShapeGroup"></path>
            <path d="M195,628 C203.836556,628 211,620.836556 211,612 C211,603.163444 203.836556,596 195,596 C186.163444,596 179,603.163444 179,612 C179,620.836556 186.163444,628 195,628 Z" id="Oval-12" stroke="#F4C1C8" stroke-width="3" fill="#FFFFFF" sketch:type="MSShapeGroup"></path>
            <path d="M151,575 C159.836556,575 167,567.836556 167,559 C167,550.163444 159.836556,543 151,543 C142.163444,543 135,550.163444 135,559 C135,567.836556 142.163444,575 151,575 Z" id="Oval-12" stroke="#F4C1C8" stroke-width="3" fill="#FFFFFF" sketch:type="MSShapeGroup"></path>
            <path d="M116,500 C124.836556,500 132,492.836556 132,484 C132,475.163444 124.836556,468 116,468 C107.163444,468 100,475.163444 100,484 C100,492.836556 107.163444,500 116,500 Z" id="Oval-12" stroke="#F4C1C8" stroke-width="3" fill="#FFFFFF" sketch:type="MSShapeGroup"></path>
            <path d="M102,454 C110.836556,454 118,446.836556 118,438 C118,429.163444 110.836556,422 102,422 C93.163444,422 86,429.163444 86,438 C86,446.836556 93.163444,454 102,454 Z" id="Oval-12" stroke="#F4C1C8" stroke-width="3" fill="#FFFFFF" sketch:type="MSShapeGroup"></path>
            <path d="M97,362 C105.836556,362 113,354.836556 113,346 C113,337.163444 105.836556,330 97,330 C88.163444,330 81,337.163444 81,346 C81,354.836556 88.163444,362 97,362 Z" id="Oval-12" stroke="#F4C1C8" stroke-width="3" fill="#FFFFFF" sketch:type="MSShapeGroup"></path>
            <path d="M135,405 C143.836556,405 151,397.836556 151,389 C151,380.163444 143.836556,373 135,373 C126.163444,373 119,380.163444 119,389 C119,397.836556 126.163444,405 135,405 Z" id="Oval-12" stroke="#F4C1C8" stroke-width="3" fill="#FFFFFF" sketch:type="MSShapeGroup"></path>
            <path d="M112,284 C120.836556,284 128,276.836556 128,268 C128,259.163444 120.836556,252 112,252 C103.163444,252 96,259.163444 96,268 C96,276.836556 103.163444,284 112,284 Z" id="Oval-12" stroke="#F4C1C8" stroke-width="3" fill="#FFFFFF" sketch:type="MSShapeGroup"></path>
            <path d="M128,220 C136.836556,220 144,212.836556 144,204 C144,195.163444 136.836556,188 128,188 C119.163444,188 112,195.163444 112,204 C112,212.836556 119.163444,220 128,220 Z" id="Oval-12" stroke="#F4C1C8" stroke-width="3" fill="#FFFFFF" sketch:type="MSShapeGroup"></path>
            <path d="M177,183 C185.836556,183 193,175.836556 193,167 C193,158.163444 185.836556,151 177,151 C168.163444,151 161,158.163444 161,167 C161,175.836556 168.163444,183 177,183 Z" id="Oval-12" stroke="#F4C1C8" stroke-width="3" fill="#FFFFFF" sketch:type="MSShapeGroup"></path>
            <path d="M142,125 C150.836556,125 158,117.836556 158,109 C158,100.163444 150.836556,93 142,93 C133.163444,93 126,100.163444 126,109 C126,117.836556 133.163444,125 142,125 Z" id="Oval-12" stroke="#F4C1C8" stroke-width="3" fill="#FFFFFF" sketch:type="MSShapeGroup"></path>
            <path d="M210,93 C218.836556,93 226,85.836556 226,77 C226,68.163444 218.836556,61 210,61 C201.163444,61 194,68.163444 194,77 C194,85.836556 201.163444,93 210,93 Z" id="Oval-12" stroke="#F4C1C8" stroke-width="3" fill="#FFFFFF" sketch:type="MSShapeGroup"></path>
            <path d="M266,643 C274.836556,643 282,635.836556 282,627 C282,618.163444 274.836556,611 266,611 C257.163444,611 250,618.163444 250,627 C250,635.836556 257.163444,643 266,643 Z" id="Oval-12" stroke="#F4C1C8" stroke-width="3" fill="#FFFFFF" sketch:type="MSShapeGroup"></path>
            <path d="M260,417 C268.836556,417 276,409.836556 276,401 C276,392.163444 268.836556,385 260,385 C251.163444,385 244,392.163444 244,401 C244,409.836556 251.163444,417 260,417 Z" id="Oval-12" stroke="#F4C1C8" stroke-width="3" fill="#FFFFFF" sketch:type="MSShapeGroup"></path>
            <path d="M579,572 C587.836556,572 595,564.836556 595,556 C595,547.163444 587.836556,540 579,540 C570.163444,540 563,547.163444 563,556 C563,564.836556 570.163444,572 579,572 Z" id="Oval-12" stroke="#F4C1C8" stroke-width="3" fill="#FFFFFF" sketch:type="MSShapeGroup"></path>
            <path d="M359,150 C367.836556,150 375,142.836556 375,134 C375,125.163444 367.836556,118 359,118 C350.163444,118 343,125.163444 343,134 C343,142.836556 350.163444,150 359,150 Z" id="Oval-12" stroke="#F4C1C8" stroke-width="3" fill="#FFFFFF" sketch:type="MSShapeGroup"></path>
            <path d="M404,223 C412.836556,223 420,215.836556 420,207 C420,198.163444 412.836556,191 404,191 C395.163444,191 388,198.163444 388,207 C388,215.836556 395.163444,223 404,223 Z" id="Oval-12" stroke="#F4C1C8" stroke-width="3" fill="#FFFFFF" sketch:type="MSShapeGroup"></path>
            <path d="M440,222 C448.836556,222 456,214.836556 456,206 C456,197.163444 448.836556,190 440,190 C431.163444,190 424,197.163444 424,206 C424,214.836556 431.163444,222 440,222 Z" id="Oval-12" stroke="#F4C1C8" stroke-width="3" fill="#FFFFFF" sketch:type="MSShapeGroup"></path>
            <path d="M414,304 C422.836556,304 430,296.836556 430,288 C430,279.163444 422.836556,272 414,272 C405.163444,272 398,279.163444 398,288 C398,296.836556 405.163444,304 414,304 Z" id="Oval-12" stroke="#F4C1C8" stroke-width="3" fill="#FFFFFF" sketch:type="MSShapeGroup"></path>
            <path d="M443,327 C451.836556,327 459,319.836556 459,311 C459,302.163444 451.836556,295 443,295 C434.163444,295 427,302.163444 427,311 C427,319.836556 434.163444,327 443,327 Z" id="Oval-12" stroke="#F4C1C8" stroke-width="3" fill="#FFFFFF" sketch:type="MSShapeGroup"></path>
            <path d="M418,260 C426.836556,260 434,252.836556 434,244 C434,235.163444 426.836556,228 418,228 C409.163444,228 402,235.163444 402,244 C402,252.836556 409.163444,260 418,260 Z" id="Oval-12" stroke="#F4C1C8" stroke-width="3" fill="#FFFFFF" sketch:type="MSShapeGroup"></path>
            <path d="M673,121 C681.836556,121 689,113.836556 689,105 C689,96.163444 681.836556,89 673,89 C664.163444,89 657,96.163444 657,105 C657,113.836556 664.163444,121 673,121 Z" id="Oval-12" stroke="#F4C1C8" stroke-width="3" fill="#FFFFFF" sketch:type="MSShapeGroup"></path>
            <path d="M497,121 C505.836556,121 513,113.836556 513,105 C513,96.163444 505.836556,89 497,89 C488.163444,89 481,96.163444 481,105 C481,113.836556 488.163444,121 497,121 Z" id="Oval-12" stroke="#F4C1C8" stroke-width="3" fill="#FFFFFF" sketch:type="MSShapeGroup"></path>
            <circle id="Oval-12" stroke="#F4C1C8" stroke-width="3" fill="#FFFFFF" sketch:type="MSShapeGroup" cx="476" cy="226" r="16"></circle>
            <circle id="Oval-12" stroke="#F4C1C8" stroke-width="3" fill="#FFFFFF" sketch:type="MSShapeGroup" cx="481" cy="185" r="16"></circle>
            <circle id="Oval-12" stroke="#F4C1C8" stroke-width="3" fill="#FFFFFF" sketch:type="MSShapeGroup" cx="459" cy="267" r="16"></circle>
            <circle id="Oval-12" stroke="#F4C1C8" stroke-width="3" fill="#FFFFFF" sketch:type="MSShapeGroup" cx="151" cy="48" r="16"></circle>
            <circle id="Oval-12" stroke="#F4C1C8" stroke-width="3" fill="#FFFFFF" sketch:type="MSShapeGroup" cx="48" cy="40" r="16"></circle>
            <circle id="Oval-12" stroke="#F4C1C8" stroke-width="3" fill="#FFFFFF" sketch:type="MSShapeGroup" cx="100" cy="158" r="16"></circle>
            <circle id="Oval-12" stroke="#F4C1C8" stroke-width="3" fill="#FFFFFF" sketch:type="MSShapeGroup" cx="32" cy="230" r="16"></circle>
            <circle id="Oval-12" stroke="#F4C1C8" stroke-width="3" fill="#FFFFFF" sketch:type="MSShapeGroup" cx="67" cy="318" r="16"></circle>
            <circle id="Oval-12" stroke="#F4C1C8" stroke-width="3" fill="#FFFFFF" sketch:type="MSShapeGroup" cx="16" cy="387" r="16"></circle>
            <circle id="Oval-12" stroke="#F4C1C8" stroke-width="3" fill="#FFFFFF" sketch:type="MSShapeGroup" cx="67" cy="397" r="16"></circle>
            <circle id="Oval-12" stroke="#F4C1C8" stroke-width="3" fill="#FFFFFF" sketch:type="MSShapeGroup" cx="32" cy="471" r="16"></circle>
            <circle id="Oval-12" stroke="#F4C1C8" stroke-width="3" fill="#FFFFFF" sketch:type="MSShapeGroup" cx="92" cy="517" r="16"></circle>
            <circle id="Oval-12" stroke="#F4C1C8" stroke-width="3" fill="#FFFFFF" sketch:type="MSShapeGroup" cx="49" cy="596" r="16"></circle>
            <circle id="Oval-12" stroke="#F4C1C8" stroke-width="3" fill="#FFFFFF" sketch:type="MSShapeGroup" cx="120" cy="642" r="16"></circle>
            <circle id="Oval-12" stroke="#F4C1C8" stroke-width="3" fill="#FFFFFF" sketch:type="MSShapeGroup" cx="210" cy="661" r="16"></circle>
            <circle id="Oval-12" stroke="#F4C1C8" stroke-width="3" fill="#FFFFFF" sketch:type="MSShapeGroup" cx="333" cy="690" r="16"></circle>
            <circle id="Oval-12" stroke="#F4C1C8" stroke-width="3" fill="#FFFFFF" sketch:type="MSShapeGroup" cx="402" cy="712" r="16"></circle>
            <circle id="Oval-12" stroke="#F4C1C8" stroke-width="3" fill="#FFFFFF" sketch:type="MSShapeGroup" cx="107" cy="584" r="16"></circle>
            <circle id="Oval-12" stroke="#F4C1C8" stroke-width="3" fill="#FFFFFF" sketch:type="MSShapeGroup" cx="445" cy="351" r="16"></circle>
            <circle id="Oval-12" stroke="#F4C1C8" stroke-width="3" fill="#FFFFFF" sketch:type="MSShapeGroup" cx="478" cy="397" r="16"></circle>
            <circle id="Oval-12" stroke="#F4C1C8" stroke-width="3" fill="#FFFFFF" sketch:type="MSShapeGroup" cx="436" cy="441" r="16"></circle>
            <circle id="Oval-12" stroke="#F4C1C8" stroke-width="3" fill="#FFFFFF" sketch:type="MSShapeGroup" cx="517" cy="198" r="16"></circle>
            <circle id="Oval-12" stroke="#F4C1C8" stroke-width="3" fill="#FFFFFF" sketch:type="MSShapeGroup" cx="482" cy="306" r="16"></circle>
            <circle id="Oval-12" stroke="#F4C1C8" stroke-width="3" fill="#FFFFFF" sketch:type="MSShapeGroup" cx="668" cy="182" r="16"></circle>
            <circle id="Oval-12" stroke="#F4C1C8" stroke-width="3" fill="#FFFFFF" sketch:type="MSShapeGroup" cx="600" cy="223" r="16"></circle>
            <circle id="Oval-12" stroke="#F4C1C8" stroke-width="3" fill="#FFFFFF" sketch:type="MSShapeGroup" cx="632" cy="322" r="16"></circle>
            <circle id="Oval-12" stroke="#F4C1C8" stroke-width="3" fill="#FFFFFF" sketch:type="MSShapeGroup" cx="700" cy="287" r="16"></circle>
            <circle id="Oval-12" stroke="#F4C1C8" stroke-width="3" fill="#FFFFFF" sketch:type="MSShapeGroup" cx="676" cy="518" r="16"></circle>
            <circle id="Oval-12" stroke="#F4C1C8" stroke-width="3" fill="#FFFFFF" sketch:type="MSShapeGroup" cx="599" cy="517" r="16"></circle>
            <circle id="Oval-12" stroke="#F4C1C8" stroke-width="3" fill="#FFFFFF" sketch:type="MSShapeGroup" cx="544" cy="527" r="16"></circle>
            <circle id="Oval-12" stroke="#F4C1C8" stroke-width="3" fill="#FFFFFF" sketch:type="MSShapeGroup" cx="487" cy="514" r="16"></circle>
            <circle id="Oval-12" stroke="#F4C1C8" stroke-width="3" fill="#FFFFFF" sketch:type="MSShapeGroup" cx="435" cy="397" r="16"></circle>
            <circle id="Oval-12" stroke="#F4C1C8" stroke-width="3" fill="#FFFFFF" sketch:type="MSShapeGroup" cx="403" cy="353" r="16"></circle>
            <circle id="Oval-12" stroke="#F4C1C8" stroke-width="3" fill="#FFFFFF" sketch:type="MSShapeGroup" cx="384" cy="315" r="16"></circle>
            <circle id="Oval-12" stroke="#F4C1C8" stroke-width="3" fill="#FFFFFF" sketch:type="MSShapeGroup" cx="377" cy="252" r="16"></circle>
            <circle id="Oval-12" stroke="#F4C1C8" stroke-width="3" fill="#FFFFFF" sketch:type="MSShapeGroup" cx="409" cy="156" r="16"></circle>
            <circle id="Oval-12" stroke="#F4C1C8" stroke-width="3" fill="#FFFFFF" sketch:type="MSShapeGroup" cx="482" cy="53" r="16"></circle>
            <circle id="Oval-12" stroke="#F4C1C8" stroke-width="3" fill="#FFFFFF" sketch:type="MSShapeGroup" cx="413" cy="112" r="16"></circle>
            <circle id="Oval-12" stroke="#F4C1C8" stroke-width="3" fill="#FFFFFF" sketch:type="MSShapeGroup" cx="368" cy="184" r="16"></circle>
            <circle id="Oval-12" stroke="#F4C1C8" stroke-width="3" fill="#FFFFFF" sketch:type="MSShapeGroup" cx="334" cy="223" r="16"></circle>
            <circle id="Oval-12" stroke="#F4C1C8" stroke-width="3" fill="#FFFFFF" sketch:type="MSShapeGroup" cx="347" cy="285" r="16"></circle>
            <circle id="Oval-12" stroke="#F4C1C8" stroke-width="3" fill="#FFFFFF" sketch:type="MSShapeGroup" cx="345" cy="341" r="16"></circle>
            <circle id="Oval-12" stroke="#F4C1C8" stroke-width="3" fill="#FFFFFF" sketch:type="MSShapeGroup" cx="366" cy="378" r="16"></circle>
            <circle id="Oval-12" stroke="#F4C1C8" stroke-width="3" fill="#FFFFFF" sketch:type="MSShapeGroup" cx="393" cy="416" r="16"></circle>
            <circle id="Oval-12" stroke="#F4C1C8" stroke-width="3" fill="#FFFFFF" sketch:type="MSShapeGroup" cx="394" cy="467" r="16"></circle>
            <circle id="Oval-12" stroke="#F4C1C8" stroke-width="3" fill="#FFFFFF" sketch:type="MSShapeGroup" cx="747" cy="322" r="16"></circle>
            <circle id="Oval-12" stroke="#F4C1C8" stroke-width="3" fill="#FFFFFF" sketch:type="MSShapeGroup" cx="744" cy="370" r="16"></circle>
            <circle id="Oval-12" stroke="#F4C1C8" stroke-width="3" fill="#FFFFFF" sketch:type="MSShapeGroup" cx="668" cy="416" r="16"></circle>
            <circle id="Oval-12" stroke="#F4C1C8" stroke-width="3" fill="#FFFFFF" sketch:type="MSShapeGroup" cx="562" cy="477" r="16"></circle>
            <circle id="Oval-12" stroke="#F4C1C8" stroke-width="3" fill="#FFFFFF" sketch:type="MSShapeGroup" cx="485" cy="464" r="16"></circle>
            <circle id="Oval-12" stroke="#F4C1C8" stroke-width="3" fill="#FFFFFF" sketch:type="MSShapeGroup" cx="783" cy="395" r="16"></circle>
            <circle id="Oval-12" stroke="#F4C1C8" stroke-width="3" fill="#FFFFFF" sketch:type="MSShapeGroup" cx="826" cy="338" r="16"></circle>
            <circle id="Oval-12" stroke="#F4C1C8" stroke-width="3" fill="#FFFFFF" sketch:type="MSShapeGroup" cx="841" cy="255" r="16"></circle>
            <circle id="Oval-12" stroke="#F4C1C8" stroke-width="3" fill="#FFFFFF" sketch:type="MSShapeGroup" cx="442" cy="485" r="16"></circle>
            <circle id="Oval-12" stroke="#F4C1C8" stroke-width="3" fill="#FFFFFF" sketch:type="MSShapeGroup" cx="584" cy="372" r="16"></circle>
            <circle id="Oval-12" stroke="#F4C1C8" stroke-width="3" fill="#FFFFFF" sketch:type="MSShapeGroup" cx="558" cy="415" r="16"></circle>
            <circle id="Oval-12" stroke="#F4C1C8" stroke-width="3" fill="#FFFFFF" sketch:type="MSShapeGroup" cx="524" cy="448" r="16"></circle>
            <circle id="Oval-12" stroke="#F4C1C8" stroke-width="3" fill="#FFFFFF" sketch:type="MSShapeGroup" cx="533" cy="303" r="16"></circle>
            <circle id="Oval-12" stroke="#F4C1C8" stroke-width="3" fill="#FFFFFF" sketch:type="MSShapeGroup" cx="798" cy="230" r="16"></circle>
            <circle id="Oval-12" stroke="#F4C1C8" stroke-width="3" fill="#FFFFFF" sketch:type="MSShapeGroup" cx="762" cy="188" r="16"></circle>
            <circle id="Oval-12" stroke="#F4C1C8" stroke-width="3" fill="#FFFFFF" sketch:type="MSShapeGroup" cx="846" cy="299" r="16"></circle>
            <circle id="Oval-12" stroke="#F4C1C8" stroke-width="3" fill="#FFFFFF" sketch:type="MSShapeGroup" cx="672" cy="248" r="16"></circle>
            <circle id="Oval-12" stroke="#F4C1C8" stroke-width="3" fill="#FFFFFF" sketch:type="MSShapeGroup" cx="902" cy="164" r="16"></circle>
            <circle id="Oval-12" stroke="#F4C1C8" stroke-width="3" fill="#FFFFFF" sketch:type="MSShapeGroup" cx="843" cy="141" r="16"></circle>
            <circle id="Oval-12" stroke="#F4C1C8" stroke-width="3" fill="#FFFFFF" sketch:type="MSShapeGroup" cx="837" cy="397" r="16"></circle>
            <circle id="Oval-12" stroke="#F4C1C8" stroke-width="3" fill="#FFFFFF" sketch:type="MSShapeGroup" cx="973" cy="180" r="16"></circle>
            <circle id="Oval-12" stroke="#F4C1C8" stroke-width="3" fill="#FFFFFF" sketch:type="MSShapeGroup" cx="1043" cy="134" r="16"></circle>
            <circle id="Oval-12" stroke="#F4C1C8" stroke-width="3" fill="#FFFFFF" sketch:type="MSShapeGroup" cx="1108" cy="179" r="16"></circle>
            <circle id="Oval-12" stroke="#F4C1C8" stroke-width="3" fill="#FFFFFF" sketch:type="MSShapeGroup" cx="1140" cy="125" r="16"></circle>
            <circle id="Oval-12" stroke="#F4C1C8" stroke-width="3" fill="#FFFFFF" sketch:type="MSShapeGroup" cx="926" cy="125" r="16"></circle>
            <circle id="Oval-12" stroke="#F4C1C8" stroke-width="3" fill="#FFFFFF" sketch:type="MSShapeGroup" cx="985" cy="136" r="16"></circle>
            <circle id="Oval-12" stroke="#F4C1C8" stroke-width="3" fill="#FFFFFF" sketch:type="MSShapeGroup" cx="843" cy="198" r="16"></circle>
            <circle id="Oval-12" stroke="#F4C1C8" stroke-width="3" fill="#FFFFFF" sketch:type="MSShapeGroup" cx="785" cy="153" r="16"></circle>
            <circle id="Oval-12" stroke="#F4C1C8" stroke-width="3" fill="#FFFFFF" sketch:type="MSShapeGroup" cx="738" cy="122" r="16"></circle>
            <circle id="Oval-12" stroke="#F4C1C8" stroke-width="3" fill="#FFFFFF" sketch:type="MSShapeGroup" cx="636" cy="141" r="16"></circle>
            <circle id="Oval-12" stroke="#F4C1C8" stroke-width="3" fill="#FFFFFF" sketch:type="MSShapeGroup" cx="629" cy="84" r="16"></circle>
            <circle id="Oval-12" stroke="#F4C1C8" stroke-width="3" fill="#FFFFFF" sketch:type="MSShapeGroup" cx="644" cy="216" r="16"></circle>
            <circle id="Oval-12" stroke="#F4C1C8" stroke-width="3" fill="#FFFFFF" sketch:type="MSShapeGroup" cx="764" cy="274" r="16"></circle>
            <circle id="Oval-12" stroke="#F4C1C8" stroke-width="3" fill="#FFFFFF" sketch:type="MSShapeGroup" cx="668" cy="354" r="16"></circle>
            <circle id="Oval-12" stroke="#F4C1C8" stroke-width="3" fill="#FFFFFF" sketch:type="MSShapeGroup" cx="705" cy="389" r="16"></circle>
            <circle id="Oval-12" stroke="#F4C1C8" stroke-width="3" fill="#FFFFFF" sketch:type="MSShapeGroup" cx="732" cy="433" r="16"></circle>
            <circle id="Oval-12" stroke="#F4C1C8" stroke-width="3" fill="#FFFFFF" sketch:type="MSShapeGroup" cx="718" cy="478" r="16"></circle>
            <circle id="Oval-12" stroke="#F4C1C8" stroke-width="3" fill="#FFFFFF" sketch:type="MSShapeGroup" cx="614" cy="476" r="16"></circle>
            <circle id="Oval-12" stroke="#F4C1C8" stroke-width="3" fill="#FFFFFF" sketch:type="MSShapeGroup" cx="675" cy="469" r="16"></circle>
            <circle id="Oval-12" stroke="#F4C1C8" stroke-width="3" fill="#FFFFFF" sketch:type="MSShapeGroup" cx="515" cy="409" r="16"></circle>
            <circle id="Oval-12" stroke="#F4C1C8" stroke-width="3" fill="#FFFFFF" sketch:type="MSShapeGroup" cx="545" cy="353" r="16"></circle>
            <circle id="Oval-12" stroke="#F4C1C8" stroke-width="3" fill="#FFFFFF" sketch:type="MSShapeGroup" cx="588" cy="328" r="16"></circle>
            <circle id="Oval-12" stroke="#F4C1C8" stroke-width="3" fill="#FFFFFF" sketch:type="MSShapeGroup" cx="559" cy="241" r="16"></circle>
            <circle id="Oval-12" stroke="#F4C1C8" stroke-width="3" fill="#FFFFFF" sketch:type="MSShapeGroup" cx="636" cy="370" r="16"></circle>
            <circle id="Oval-12" stroke="#F4C1C8" stroke-width="3" fill="#FFFFFF" sketch:type="MSShapeGroup" cx="715" cy="230" r="16"></circle>
            <path d="M495.5,353.5 L626.5,261.5" id="Line" stroke="#838383" stroke-width="2" stroke-linecap="square" sketch:type="MSShapeGroup"></path>
            <path d="M625,261 L560.5,198.5" id="Line-2" stroke="#838383" stroke-width="2" stroke-linecap="square" sketch:type="MSShapeGroup"></path>
            <path d="M627,261 L715,167" id="Line" stroke="#838383" stroke-width="2" stroke-linecap="square" sketch:type="MSShapeGroup"></path>
            <path d="M561,201 L714,171" id="Line" stroke="#838383" stroke-width="2" stroke-linecap="square" sketch:type="MSShapeGroup"></path>
            <path d="M594,432 L700.5,339.5" id="Line" stroke="#838383" stroke-width="2" stroke-linecap="square" sketch:type="MSShapeGroup"></path>
            <path d="M592.5,431.5 L759,448" id="Line" stroke="#838383" stroke-width="2" stroke-linecap="square" sketch:type="MSShapeGroup"></path>
            <circle id="Oval-12" stroke="#D0011B" stroke-width="3" fill="#FFFFFF" sketch:type="MSShapeGroup" cx="559" cy="198" r="16"></circle>
            <circle id="Oval-12" stroke="#D0011B" stroke-width="3" fill="#FFFFFF" sketch:type="MSShapeGroup" cx="626" cy="262" r="16"></circle>
            <circle id="Oval-12" stroke="#D0011B" stroke-width="3" fill="#FFFFFF" sketch:type="MSShapeGroup" cx="491" cy="354" r="16"></circle>
            <circle id="Oval-12" stroke="#D0011B" stroke-width="3" fill="#FFFFFF" sketch:type="MSShapeGroup" cx="594" cy="432" r="16"></circle>
            <circle id="Oval-12" stroke="#D0011B" stroke-width="3" fill="#FFFFFF" sketch:type="MSShapeGroup" cx="760" cy="448" r="16"></circle>
            <circle id="Oval-12" stroke="#D0011B" stroke-width="3" fill="#FFFFFF" sketch:type="MSShapeGroup" cx="801" cy="294" r="16"></circle>
            <circle id="Oval-12" stroke="#D0011B" stroke-width="3" fill="#FFFFFF" sketch:type="MSShapeGroup" cx="782" cy="345" r="16"></circle>
            <circle id="Oval-12" stroke="#D0011B" stroke-width="3" fill="#FFFFFF" sketch:type="MSShapeGroup" cx="590" cy="161" r="16"></circle>
            <circle id="Oval-12" stroke="#D0011B" stroke-width="3" fill="#FFFFFF" sketch:type="MSShapeGroup" cx="713" cy="166" r="16"></circle>
            <circle id="Oval-12" stroke="#D0011B" stroke-width="3" fill="#FFFFFF" sketch:type="MSShapeGroup" cx="702" cy="336" r="16"></circle>
        </g>
    </g>
</svg>