<?xml version="1.0" encoding="UTF-8" standalone="no"?>
<svg width="26px" height="25px" viewBox="0 0 26 25" version="1.1" xmlns="http://www.w3.org/2000/svg" xmlns:xlink="http://www.w3.org/1999/xlink" xmlns:sketch="http://www.bohemiancoding.com/sketch/ns">
    <!-- Generator: Sketch 3.2.2 (9983) - http://www.bohemiancoding.com/sketch -->
    <title>Github cat</title>
    <desc>Created with Sketch.</desc>
    <defs></defs>
    <g id="Page-1" stroke="none" stroke-width="1" fill="none" fill-rule="evenodd" sketch:type="MSPage">
        <path d="M9.50570568,22.5175399 C9.45707867,23.4871076 9.38719947,24.3483755 9.68148507,25 C4.10929386,23.5660164 0,18.6066068 0,12.708911 C0,5.68997326 5.82029825,0 13,0 C20.1797017,0 26,5.68997326 26,12.708911 C26,18.6066068 21.8907061,23.5660164 16.3185149,25 L16.3185149,25 C16.7023558,24.150077 16.4666667,22.9435014 16.4666667,21.6051487 C16.4666667,20.02911 15.8846143,18.6358111 14.9936984,17.7924754 L15.7378843,17.7924754 C19.0152382,17.7924754 21.6666667,15.1371545 21.6666667,11.8616503 C21.6666667,11.2731423 21.5806297,10.7043043 21.4204278,10.1671288 L21.4204278,10.1671288 L21.6666667,10.1671288 L18.9995931,3.50137118 L18.2524599,6.49022636 C17.4890631,6.13146793 16.6368383,5.93082513 15.7378843,5.93082513 L10.2621157,5.93082513 C9.36270187,5.93082513 8.51042864,6.13080645 7.74716007,6.4887059 L7.0004069,3.50137118 L4.33333333,10.1671288 L4.57861477,10.1671288 L4.57861477,10.1671288 C4.41901603,10.7040459 4.33333333,11.2728273 4.33333333,11.8616503 C4.33333333,15.1304895 6.98773961,17.7924754 10.2621157,17.7924754 L11.0063016,17.7924754 C10.3567602,18.4073274 9.87139375,19.3145098 9.65607235,20.3717108 C9.59702912,20.2936593 9.55564096,20.2493453 9.53777669,20.2493453 C9.3880778,20.2493453 8.18213617,20.5362474 7.70468662,20.2493453 C7.22723708,19.9624433 5.29256999,17.7708595 4.42844238,17.7708595 C3.56431478,17.7708595 4.06408691,18.2653362 4.06408691,18.2653362 C4.06408691,18.2653362 5.62667573,22.2619083 7.70468662,22.2619083 C8.35507503,22.2619083 8.96905529,22.3695867 9.50570568,22.5175399 Z" id="Github-cat" fill="#464646" sketch:type="MSShapeGroup"></path>
    </g>
</svg>