<?xml version="1.0" encoding="UTF-8" standalone="no"?>
<svg width="1298px" height="427px" viewBox="0 0 1298 427" version="1.1" xmlns="http://www.w3.org/2000/svg" xmlns:xlink="http://www.w3.org/1999/xlink" xmlns:sketch="http://www.bohemiancoding.com/sketch/ns">
    <!-- Generator: Sketch 3.1 (8751) - http://www.bohemiancoding.com/sketch -->
    <title>xcode</title>
    <desc>Created with Sketch.</desc>
    <defs></defs>
    <g id="Page-1" stroke="none" stroke-width="1" fill="none" fill-rule="evenodd" sketch:type="MSPage">
        <g id="Artboard-1" sketch:type="MSArtboardGroup" transform="translate(-756.000000, -663.000000)">
            <g id="xcode" sketch:type="MSLayerGroup" transform="translate(756.000000, 663.000000)">
                <g id="Xcode" transform="translate(490.000000, 0.000000)" sketch:type="MSShapeGroup">
                    <rect id="Rectangle-14" stroke="#FFFFFF" stroke-width="3" x="0" y="0" width="808" height="427" rx="9"></rect>
                    <path d="M2.33022745,37.8133515 L806.258697,37.8133515" id="Line" stroke="#FFFFFF" stroke-width="2" stroke-linecap="square"></path>
                    <path d="M2.33022745,54.1021798 L806.258697,54.1021798" id="Line" stroke="#FFFFFF" stroke-width="2" stroke-linecap="square"></path>
                    <path d="M304.475971,38.9768392 L304.475971,422.346049" id="Line-2" stroke="#FFFFFF" stroke-width="2" stroke-linecap="square"></path>
                    <path d="M629.782081,38.9768392 L629.782081,424.000063" id="Line-2" stroke="#FFFFFF" stroke-width="2" stroke-linecap="square"></path>
                    <ellipse id="Oval-1" stroke="#FFFFFF" cx="197.91342" cy="45.9577657" rx="3.4978355" ry="3.49046322"></ellipse>
                    <ellipse id="Oval-1" stroke="#FFFFFF" cx="85.982684" cy="45.9577657" rx="3.4978355" ry="3.49046322"></ellipse>
                    <ellipse id="Oval-1" stroke="#FFFFFF" cx="104.637807" cy="45.9577657" rx="3.4978355" ry="3.49046322"></ellipse>
                    <ellipse id="Oval-1" stroke="#FFFFFF" cx="123.292929" cy="45.9577657" rx="3.4978355" ry="3.49046322"></ellipse>
                    <ellipse id="Oval-1" stroke="#FFFFFF" cx="141.948052" cy="45.9577657" rx="3.4978355" ry="3.49046322"></ellipse>
                    <ellipse id="Oval-1" stroke="#FFFFFF" cx="160.603175" cy="45.9577657" rx="3.4978355" ry="3.49046322"></ellipse>
                    <ellipse id="Oval-1" stroke="#FFFFFF" cx="179.258297" cy="45.9577657" rx="3.4978355" ry="3.49046322"></ellipse>
                    <ellipse id="Oval-1" stroke="#FFFFFF" cx="217.734488" cy="45.9577657" rx="3.4978355" ry="3.49046322"></ellipse>
                    <ellipse id="window" stroke="#FFFFFF" cx="27.3997114" cy="20.106267" rx="6.41269841" ry="6.39918256"></ellipse>
                    <ellipse id="window" stroke="#FFFFFF" cx="47.2207792" cy="20.106267" rx="6.41269841" ry="6.39918256"></ellipse>
                    <ellipse id="window" stroke="#FFFFFF" cx="67.041847" cy="20.106267" rx="6.41269841" ry="6.39918256"></ellipse>
                    <rect id="Rectangle-15" stroke="#FFFFFF" x="96.6266516" y="11.2166213" width="25.3040844" height="18.6158038" rx="2"></rect>
                    <rect id="Rectangle-15" stroke="#FFFFFF" x="659.979759" y="12.2166213" width="58.9149018" height="17.4523161" rx="2"></rect>
                    <rect id="Rectangle-15" stroke="#FFFFFF" x="631" y="12" width="20.8051559" height="17.4523161" rx="2"></rect>
                    <rect id="Rectangle-15" stroke="#FFFFFF" x="731.066767" y="12.2166213" width="58.9149018" height="17.4523161" rx="2"></rect>
                    <rect id="Rectangle-15" stroke="#FFFFFF" x="128.926407" y="11.2166213" width="25.3040844" height="18.6158038" rx="2"></rect>
                    <rect id="Rectangle-15" stroke="#FFFFFF" x="261.171717" y="11.2166213" width="286.822511" height="18.6158038" rx="2"></rect>
                    <polygon id="Triangle-1" fill="#FFFFFF" points="110.271284 17.7541952 114.796381 23.8967119 105.746187 23.8967119 "></polygon>
                    <rect id="Rectangle-17" fill-opacity="0.554121377" fill="#FFFFFF" x="137.088023" y="15.8705722" width="9.32756133" height="9.30790191"></rect>
                </g>
                <g id="Group" transform="translate(514.000000, 77.000000)" sketch:type="MSShapeGroup">
                    <path d="M17.7060547,0 L0,0 L0,30 L26,30 L26,7.78125 L17.7060547,0 Z" id="Rectangle-21" stroke="#FFFFFF"></path>
                    <path d="M17.25,0.5 L17.25,8.5" id="Line" stroke="#FFFFFF" stroke-width="0.5" stroke-linecap="square"></path>
                    <path d="M17.5,8.25 L25.5,8.25" id="Line" stroke="#FFFFFF" stroke-width="0.5" stroke-linecap="square"></path>
                    <path d="M19,23.5 L13.7103825,7.5 L12.2677596,7.5 L7,23.5 L9.09836066,23.5 L9.8852459,21.0542857 L16.0928962,21.0542857 L16.9016393,23.5 L19,23.5 Z M15.4808743,19.1571429 L10.4972678,19.1571429 L13.010929,10.9057143 L15.4808743,19.1571429 Z" id="A" fill="#FFFFFF"></path>
                </g>
                <g id="Group" transform="translate(514.000000, 186.000000)" sketch:type="MSShapeGroup">
                    <path d="M17.7060547,0 L0,0 L0,30 L26,30 L26,7.78125 L17.7060547,0 Z" id="Rectangle-21" stroke="#FFFFFF"></path>
                    <path d="M17.25,0.5 L17.25,8.5" id="Line" stroke="#FFFFFF" stroke-width="0.5" stroke-linecap="square"></path>
                    <path d="M17.5,8.25 L25.5,8.25" id="Line" stroke="#FFFFFF" stroke-width="0.5" stroke-linecap="square"></path>
                    <path d="M19,23.5 L13.7103825,7.5 L12.2677596,7.5 L7,23.5 L9.09836066,23.5 L9.8852459,21.0542857 L16.0928962,21.0542857 L16.9016393,23.5 L19,23.5 Z M15.4808743,19.1571429 L10.4972678,19.1571429 L13.010929,10.9057143 L15.4808743,19.1571429 Z" id="A" fill="#FFFFFF"></path>
                </g>
                <text id="App" sketch:type="MSTextLayer" font-family="GT Walsheim" font-size="14" font-weight="normal" line-spacing="18" fill="#FFFFFF">
                    <tspan x="556" y="91">App</tspan>
                    <tspan x="556" y="109">Controllers</tspan>
                    <tspan x="556" y="127">Storyboards</tspan>
                    <tspan x="556" y="145">Assets</tspan>
                </text>
                <text id="FLKAutoLayout" sketch:type="MSTextLayer" font-family="GT Walsheim" font-size="14" font-weight="normal" line-spacing="18" fill="#FFFFFF">
                    <tspan x="556" y="199">FLKAutoLayout</tspan>
                    <tspan x="556" y="217">ISO8601DateFormatter</tspan>
                    <tspan x="556" y="235">ARCollectionViewMasonryLayout</tspan>
                    <tspan x="556" y="253">Artsy+UIColors</tspan>
                    <tspan x="556" y="271">Artsy+UIFonts</tspan>
                    <tspan x="558.464" y="290.154"></tspan>
                    <tspan x="556" y="307">FBSnapshotTestCase</tspan>
                    <tspan x="556" y="325">Quick</tspan>
                    <tspan x="556" y="343">Nimble</tspan>
                    <tspan x="558.464" y="362.154"></tspan>
                    <tspan x="558.464" y="380.154"></tspan>
                </text>
                <path d="M525.972656,119 L493.500201,151.472455 L-1.77635684e-15,148.6875" id="Path-21" stroke="#FFFFFF" stroke-width="2" sketch:type="MSShapeGroup"></path>
                <path d="M525.972656,229 L493.500201,261.472455 L-1.77635684e-15,258.6875" id="Path-21" stroke="#FFFFFF" stroke-width="2" sketch:type="MSShapeGroup"></path>
                <rect id="Rectangle-28" stroke="#FFFFFF" opacity="0.75" sketch:type="MSShapeGroup" x="500" y="66" width="288" height="95" rx="5"></rect>
                <path d="M504.998779,170 C502.23803,170 500,172.235491 500,175.009959 L500,346.990041 C500,349.756965 502.235989,352 505.007855,352 L536.20683,352 L783.000109,352 C785.761473,352 788,349.764509 788,346.990041 L788,175.009959 C788,172.243035 785.765319,170 783.001221,170 L504.998779,170 Z" id="Rectangle-28" stroke="#FFFFFF" opacity="0.75" sketch:type="MSShapeGroup"></path>
            </g>
        </g>
    </g>
</svg>