<?xml version="1.0" standalone="no"?>
<!DOCTYPE svg PUBLIC "-//W3C//DTD SVG 1.1//EN" "http://www.w3.org/Graphics/SVG/1.1/DTD/svg11.dtd" >
<svg xmlns="http://www.w3.org/2000/svg">
<metadata></metadata>
<defs>
<font id="gt_walsheimregular" horiz-adv-x="1255" >
<font-face units-per-em="2048" ascent="1593" descent="-455" />
<missing-glyph horiz-adv-x="497" />
<glyph unicode=" "  horiz-adv-x="497" />
<glyph unicode="&#x09;" horiz-adv-x="497" />
<glyph unicode="&#xa0;" horiz-adv-x="497" />
<glyph unicode="!" horiz-adv-x="692" d="M133 178q0 43 16.5 81t45 66.5t66.5 45t83 16.5t84 -16.5t68.5 -45t46 -66.5t16.5 -81t-16.5 -81t-46 -67.5t-68.5 -46t-84 -16.5t-83 16.5t-66.5 46t-45 67.5t-16.5 81zM178 496v938h336v-938h-336z" />
<glyph unicode="&#x22;" horiz-adv-x="856" d="M100 1200v256h262v-256l-65 -315h-131zM492 1200v256h264v-256l-68 -315h-129z" />
<glyph unicode="#" horiz-adv-x="1208" d="M53 369v221h207l35 254h-180v221h211l51 369h229l-51 -369h211l51 369h227l-51 -369h164v-221h-194l-35 -254h168v-221h-199l-51 -369h-228l50 369h-209l-53 -369h-228l51 369h-176zM489 590h211l35 254h-211z" />
<glyph unicode="$" horiz-adv-x="1341" d="M131 475h332q0 -117 63.5 -182.5t161.5 -65.5q86 0 139.5 47.5t53.5 124.5q0 43 -17.5 72t-47.5 51.5t-70.5 39t-88.5 34.5q-98 37 -186 74t-154.5 88t-105.5 121.5t-39 175.5q0 84 26.5 150.5t73.5 116.5t112 83t142 49v229h303v-229q86 -20 153 -62t112 -100.5 t68.5 -129t23.5 -148.5h-332q0 96 -47 151.5t-133 55.5q-68 0 -120 -37t-52 -109q0 -70 53 -112.5t152 -77.5q100 -35 192 -73t160.5 -90t109.5 -125t41 -179q0 -172 -102 -288t-279 -150v-230h-303v227q-86 18 -158.5 59.5t-125 105t-82 147.5t-29.5 186z" />
<glyph unicode="%" horiz-adv-x="1961" d="M125 911v256q0 57 21.5 109.5t62.5 91.5t99.5 61.5t131.5 22.5q74 0 132.5 -22.5t100.5 -61.5t64.5 -91t22.5 -110v-256q0 -57 -22.5 -109t-64.5 -91t-100.5 -61.5t-132.5 -22.5t-132 22.5t-99 61.5t-62.5 91t-21.5 109zM344 911q0 -43 25.5 -74.5t70.5 -31.5 q47 0 74 31.5t27 74.5v256q0 43 -27 75t-74 32q-45 0 -70.5 -32t-25.5 -75v-256zM457 0l819 1544l215 -108l-819 -1545zM1202 266v256q0 57 21.5 109.5t62.5 91.5t99.5 61.5t132.5 22.5t132 -22.5t100 -61.5t64.5 -91t22.5 -110v-256q0 -57 -22.5 -109.5t-64.5 -91 t-100.5 -61t-131.5 -22.5q-74 0 -132.5 22.5t-99.5 61t-62.5 91t-21.5 109.5zM1421 266q0 -43 26 -74.5t71 -31.5q47 0 73.5 31.5t26.5 74.5v256q0 43 -26.5 75t-73.5 32q-45 0 -71 -32t-26 -75v-256z" />
<glyph unicode="&#x26;" horiz-adv-x="1296" d="M82 406q0 68 18.5 121t51 95t75.5 71.5t90 51.5q-88 39 -150.5 116t-62.5 204q0 100 41 175t111 125t161 74.5t193 24.5q129 0 223.5 -37.5t156 -100t91 -145.5t29.5 -175h-332q0 92 -38 150t-140 58q-74 0 -121 -37.5t-47 -125.5q0 -72 44 -122t161 -50v-256 q-123 0 -173 -56.5t-50 -134.5q0 -51 17.5 -88t47 -61.5t65.5 -35.5t72 -11q88 0 150.5 61t64.5 176h-122v258h542v-258h-94q0 -115 -40 -208t-110.5 -158.5t-168 -101.5t-215.5 -36q-102 0 -199.5 28t-173.5 83t-122 137t-46 189z" />
<glyph unicode="'" horiz-adv-x="458" d="M98 1200v256h262v-256l-65 -315h-131z" />
<glyph unicode="(" horiz-adv-x="817" d="M156 92v930q0 115 41 218t116.5 180t184 122t243.5 45v-282q-61 0 -110 -22.5t-83 -61.5t-52.5 -90.5t-18.5 -108.5v-930q0 -57 18.5 -108.5t52.5 -90t83 -61t110 -22.5v-283q-135 0 -243.5 45t-184 122t-116.5 180t-41 218z" />
<glyph unicode=")" horiz-adv-x="817" d="M74 -190q61 0 111.5 22.5t84 61t52 90t18.5 108.5v930q0 57 -18.5 108.5t-52 90.5t-84 61.5t-111.5 22.5v282q135 0 244.5 -45t185.5 -122t117 -180t41 -218v-930q0 -115 -41 -218t-117 -180t-185.5 -122t-244.5 -45v283z" />
<glyph unicode="*" horiz-adv-x="954" d="M61 1102l58 170l270 -92v288h180l-4 -288l271 92l57 -170l-268 -86l168 -225l-148 -107l-168 238l-168 -238l-147 107l168 225z" />
<glyph unicode="+" d="M190 457v252h304v311h268v-311h303v-252h-303v-312h-268v312h-304z" />
<glyph unicode="," horiz-adv-x="632" d="M94 184q0 86 58.5 146.5t156.5 60.5q96 0 158.5 -71.5t62.5 -223.5q0 -199 -113.5 -296t-312.5 -97v127q66 0 112 15.5t75 37.5q23 18 40 49t21 66q-4 -4 -19.5 -10t-43.5 -6q-84 0 -139.5 59t-55.5 143z" />
<glyph unicode="-" horiz-adv-x="649" d="M66 483v250h518v-250h-518z" />
<glyph unicode="." horiz-adv-x="618" d="M102 186q0 43 16.5 80t44 64.5t65.5 44t81 16.5t81 -16.5t65.5 -44t44 -64.5t16.5 -80t-16.5 -79.5t-44 -64.5t-65.5 -44t-81 -16t-81 16t-65.5 44t-44 64.5t-16.5 79.5z" />
<glyph unicode="/" horiz-adv-x="1005" d="M14 -23l719 1672l293 -125l-719 -1671z" />
<glyph unicode="0" horiz-adv-x="1261" d="M84 481v471q0 104 38 196.5t108.5 163t172 111.5t226.5 41t226 -41t173 -111.5t111 -162.5t39 -197v-471q0 -104 -39 -196t-111 -163t-173 -112t-226 -41t-226.5 41t-172 112t-108.5 163t-38 196zM416 481q0 -47 14 -89t42 -73.5t68 -50t89 -18.5t90 18.5t68.5 50 t43 73.5t15.5 89v471q0 47 -15.5 89t-43 74t-68.5 50.5t-90 18.5t-89 -18.5t-68 -50.5t-42 -74t-14 -89v-471z" />
<glyph unicode="1" horiz-adv-x="829" d="M59 948v234q104 0 171 15t104 46t51 78t14 113h293v-1434h-338v948h-295z" />
<glyph unicode="2" horiz-adv-x="1181" d="M92 0q0 174 27.5 293t78 200.5t120 138t153.5 109.5q61 39 116.5 72t96.5 67.5t64.5 76.5t23.5 98q0 84 -47 121.5t-117 37.5q-78 0 -130 -48t-52 -160h-330q0 98 34 182t99.5 145.5t158.5 96t214 34.5q100 0 190.5 -25.5t158 -77.5t107.5 -130t40 -182q0 -98 -35 -172 t-89 -131.5t-121 -102.5t-130 -84q-74 -47 -122 -81t-76.5 -65.5t-40 -65.5t-11.5 -79h614v-268h-995z" />
<glyph unicode="3" horiz-adv-x="1230" d="M66 481h331q0 -117 59.5 -181t155.5 -64q92 0 141.5 55t49.5 143q0 78 -47 133.5t-164 55.5h-129v256h129q109 0 149.5 48t40.5 122q0 90 -46 127.5t-122 37.5q-102 0 -140 -58t-38 -150h-332q0 92 30 175t91.5 145.5t155.5 100t223 37.5q100 0 192.5 -24.5t162 -74.5 t110.5 -125t41 -173q0 -127 -62.5 -210t-148.5 -112q49 -18 91 -48.5t74 -73.5t50.5 -99.5t18.5 -124.5q0 -102 -42 -182t-114 -135t-168 -84t-205 -29q-127 0 -226 37t-169 104.5t-106.5 162t-36.5 208.5z" />
<glyph unicode="4" horiz-adv-x="1251" d="M117 395v1039h332v-758h241v395h330v-395h174v-281h-174v-395h-330v395h-573z" />
<glyph unicode="5" horiz-adv-x="1300" d="M109 487h321q0 -100 60.5 -171.5t164.5 -71.5q53 0 95.5 19.5t72 53t46 78.5t16.5 97q0 49 -15.5 93t-45 77.5t-72.5 53t-99 19.5q-137 0 -202 -131h-310v830h969v-258h-664v-320q43 66 125 98.5t177 32.5q113 0 198.5 -42t143 -111.5t87 -158.5t29.5 -183 q0 -106 -38 -201.5t-108.5 -166.5t-172 -113t-230.5 -42t-230 42t-172 113t-108.5 165t-37.5 198z" />
<glyph unicode="6" horiz-adv-x="1228" d="M63 489q0 84 24 159t65 140l413 646h373l-287 -430q115 0 209 -41t160.5 -112t102.5 -164t36 -198q0 -104 -37 -198t-107.5 -165t-172 -113t-230.5 -42t-230 42t-172 113t-109 165t-38 198zM385 492q0 -100 60.5 -172t164.5 -72q51 0 94.5 19.5t73 52t46 77.5t16.5 95 q0 51 -16.5 95t-46 76.5t-72.5 52t-95 19.5q-104 0 -164.5 -70.5t-60.5 -172.5z" />
<glyph unicode="7" horiz-adv-x="1087" d="M72 1155v279h1030l-610 -1434h-355l498 1155h-563z" />
<glyph unicode="8" horiz-adv-x="1261" d="M92 406q0 61 17.5 116.5t48 100.5t73.5 77.5t93 47.5q-92 35 -143.5 119.5t-51.5 189.5q0 82 34 155.5t98.5 130t157.5 89t212 32.5t213 -32.5t158.5 -89t98.5 -130t34 -155.5q0 -104 -51.5 -189.5t-143.5 -119.5q51 -16 93 -50t73 -79.5t47 -100.5t16 -115 q0 -86 -35.5 -163.5t-104 -138t-169 -96.5t-229.5 -36q-127 0 -227.5 35t-170 95.5t-105.5 139t-36 167.5zM414 418q0 -80 57.5 -139.5t161.5 -59.5q51 0 92 16.5t68.5 44t42 62.5t14.5 74t-14.5 74.5t-42 63.5t-68.5 44t-94 16q-51 0 -92 -16t-69 -43t-42 -62.5t-14 -74.5z M442 1036q0 -72 49.5 -125t139.5 -53t139 53.5t49 124.5q0 72 -49 125t-139 53q-88 0 -138.5 -53t-50.5 -125z" />
<glyph unicode="9" horiz-adv-x="1228" d="M70 944q0 104 36.5 198.5t107.5 165t172 112.5t230 42t230.5 -42t172.5 -112.5t108.5 -164.5t37.5 -199q0 -84 -23.5 -158.5t-64.5 -140.5l-413 -645h-373l287 430q-115 0 -209.5 41t-161 111.5t-102 164t-35.5 197.5zM389 942q0 -51 16.5 -95t46 -77t71.5 -52.5 t95 -19.5q104 0 165 71t61 173q0 100 -61 172t-165 72q-53 0 -95 -19.5t-71.5 -52.5t-46 -78t-16.5 -94z" />
<glyph unicode=":" horiz-adv-x="620" d="M102 186q0 43 16.5 80t44 64.5t65.5 44t81 16.5t82 -16.5t66.5 -44t44 -64.5t16.5 -80t-16.5 -79.5t-44 -64.5t-66.5 -44t-82 -16t-81 16t-65.5 44t-44 64.5t-16.5 79.5zM102 844q0 43 16.5 80t44 64.5t65.5 44t81 16.5t81 -16.5t65.5 -44t44 -64.5t16.5 -80t-16.5 -80 t-44 -64.5t-65.5 -44t-81 -16.5t-81 16.5t-65.5 44t-44 64.5t-16.5 80z" />
<glyph unicode=";" horiz-adv-x="632" d="M102 184q0 41 14.5 79t42 66.5t67.5 45t89 16.5q98 0 161 -71.5t63 -223.5q0 -199 -114 -296t-312 -97v127q66 0 110.5 15.5t73.5 37.5q53 43 63 115q-4 -4 -19 -10t-44 -6q-86 0 -140.5 59t-54.5 143zM102 844q0 43 16.5 80t44 64.5t65.5 44t81 16.5t81 -16.5t65.5 -44 t44 -64.5t16.5 -80t-16.5 -80t-44 -64.5t-65.5 -44t-81 -16.5t-81 16.5t-65.5 44t-44 64.5t-16.5 80z" />
<glyph unicode="&#x3c;" d="M84 459v246l1075 362v-283l-663 -202l663 -203v-285z" />
<glyph unicode="=" d="M190 270v250h875v-250h-875zM190 641v250h875v-250h-875z" />
<glyph unicode="&#x3e;" d="M98 94v285l662 203l-662 202v283l1073 -362v-246z" />
<glyph unicode="?" horiz-adv-x="1110" d="M39 1006q0 98 33.5 182t97 145.5t157 96t212.5 34.5q100 0 190 -25.5t158.5 -76.5t109.5 -127t41 -176q0 -78 -23.5 -135.5t-57 -100.5t-71.5 -73.5t-67 -53.5q-41 -33 -66.5 -59.5t-40 -54t-19.5 -60.5t-5 -76h-328q0 68 8.5 122.5t29 98.5t55 81.5t88.5 74.5 q31 20 62.5 45t56 52.5t40 62.5t15.5 78q0 78 -49.5 115.5t-118.5 37.5q-78 0 -129 -48t-51 -160h-328zM311 178q0 43 16.5 81t45 66.5t67.5 45t84 16.5t84 -16.5t68 -45t45 -66.5t16 -81t-16 -81t-45 -67.5t-68 -46t-84 -16.5t-84 16.5t-67.5 46t-45 67.5t-16.5 81z" />
<glyph unicode="@" horiz-adv-x="1783" d="M41 471q0 168 56.5 321.5t167 270.5t275.5 185.5t382 68.5q178 0 334.5 -50t272.5 -150.5t182.5 -251t66.5 -349.5q0 -131 -30 -233.5t-82 -172t-127 -105.5t-163 -36q-123 0 -199.5 60.5t-107.5 150.5q-29 -49 -94.5 -92t-163.5 -43q-80 0 -150.5 32t-123 88t-83 132 t-30.5 162q0 88 30.5 163.5t84 132t124 88t150.5 31.5q92 0 159.5 -39.5t96.5 -93.5v115h238v-483q0 -104 26.5 -149.5t67.5 -45.5q61 0 101 82t40 236q0 162 -48 276.5t-131 188t-195.5 108.5t-243.5 35q-170 0 -293 -52.5t-202 -139.5t-116 -200.5t-37 -236.5 q0 -133 42 -253t128 -211t216.5 -144t306.5 -53q51 0 117.5 6t138 20.5t145.5 39t141 61.5l103 -183q-80 -45 -167 -74.5t-172 -48t-165 -25.5t-147 -7q-227 0 -399.5 70.5t-288 190.5t-175 277.5t-59.5 329.5zM674 459q0 -43 13 -81t39 -66.5t62.5 -46t81.5 -17.5t82 16.5 t63.5 46t41 67.5t14.5 81q0 90 -56.5 151.5t-144.5 61.5q-90 0 -143 -62.5t-53 -150.5z" />
<glyph unicode="A" horiz-adv-x="1351" d="M8 0l512 1434h305l518 -1434h-360l-55 174h-510l-56 -174h-354zM498 434h348l-172 590z" />
<glyph unicode="B" horiz-adv-x="1296" d="M129 0v1434h594q147 0 238.5 -42t141.5 -103.5t67.5 -130t17.5 -122.5q0 -74 -21.5 -127t-55.5 -91t-74 -60.5t-76 -32.5q31 -8 72.5 -28.5t78.5 -57.5t62.5 -94.5t25.5 -136.5q0 -55 -17.5 -126t-67.5 -133.5t-141 -105.5t-239 -43h-606zM459 254h207q61 0 99 17.5 t60.5 44t30.5 57t8 57.5q0 25 -8 55.5t-29.5 57t-60.5 45t-98 18.5h-209v-352zM459 850h198q61 0 99.5 16.5t61 42t30.5 56t8 57.5q0 25 -7 53.5t-28.5 54t-60.5 43t-103 17.5h-198v-340z" />
<glyph unicode="C" horiz-adv-x="1613" d="M66 717q0 147 50 283.5t147 241t239.5 166.5t326.5 62q158 0 284 -46t218 -126.5t147.5 -189.5t69.5 -231h-346q-12 63 -40.5 116.5t-76 93t-110 62t-141.5 22.5q-102 0 -182.5 -37.5t-135.5 -100t-84 -145.5t-29 -171q0 -94 32 -177t88.5 -144.5t136 -97.5t178.5 -36 q145 0 237 73t123 179h352q-20 -115 -78.5 -214t-149.5 -175t-215 -119t-273 -43q-180 0 -322.5 61.5t-242 165t-151.5 239.5t-52 288z" />
<glyph unicode="D" horiz-adv-x="1474" d="M137 0v1434h527q178 0 316 -60.5t233.5 -161t145.5 -229.5t50 -266t-49 -266t-144.5 -229.5t-234.5 -161t-317 -60.5h-527zM469 287h178q100 0 179 35.5t133.5 96t83 137.5t28.5 161q0 82 -28.5 159.5t-83 138t-133 96.5t-179.5 36h-178v-860z" />
<glyph unicode="E" horiz-adv-x="1136" d="M137 0v1434h875v-267h-543v-325h543v-260h-543v-316h543v-266h-875z" />
<glyph unicode="F" horiz-adv-x="1126" d="M137 0v1434h875v-279h-543v-387h543v-272h-543v-496h-332z" />
<glyph unicode="G" horiz-adv-x="1710" d="M66 709q0 152 51 290t148 242.5t236.5 166.5t315.5 62q141 0 259 -39.5t204 -108.5t137 -160t62 -193h-355q-8 41 -31.5 79.5t-63.5 68.5t-93 48.5t-121 18.5q-98 0 -175 -39t-129 -104.5t-78.5 -151.5t-26.5 -178q0 -94 27.5 -178t81.5 -149t135 -102.5t188 -37.5 q80 0 140 21.5t103 57t69 84t36 103.5h-254v248h743v-248h-147q-23 -125 -80 -226.5t-147.5 -172t-210 -109.5t-263.5 -39q-184 0 -326.5 61.5t-239.5 164t-146 237.5t-49 283z" />
<glyph unicode="H" horiz-adv-x="1431" d="M137 0v1434h332v-580h496v580h329v-1434h-329v569h-496v-569h-332z" />
<glyph unicode="I" horiz-adv-x="610" d="M137 0v1434h336v-1434h-336z" />
<glyph unicode="J" horiz-adv-x="1193" d="M25 496h331q0 -106 47.5 -176t145.5 -70q92 0 142 64.5t50 179.5v940h330v-940q0 -256 -139 -392.5t-379 -136.5q-133 0 -232.5 41t-165 112.5t-98 168t-32.5 209.5z" />
<glyph unicode="K" horiz-adv-x="1349" d="M137 0v1434h332v-609l463 609h399l-567 -717l567 -717h-399l-463 606v-606h-332z" />
<glyph unicode="L" horiz-adv-x="927" d="M137 0v1434h332v-1147h408v-287h-740z" />
<glyph unicode="M" horiz-adv-x="1796" d="M137 0v1434h383l383 -998l379 998h377v-1434h-324v889l-309 -889h-246l-319 889v-889h-324z" />
<glyph unicode="N" horiz-adv-x="1468" d="M137 0v1434h346l518 -934v934h330v-1434h-346l-516 922v-922h-332z" />
<glyph unicode="O" horiz-adv-x="1648" d="M66 717q0 147 51 283.5t149.5 241t239.5 166.5t319 62t318.5 -62t239 -166.5t149.5 -241t51 -283.5t-51 -283.5t-149.5 -241t-239 -167t-318.5 -62.5t-319 62.5t-239.5 167t-149.5 240.5t-51 284zM406 717q0 -88 28.5 -170t82.5 -145.5t132 -101.5t176 -38t176 38 t132.5 101.5t83 145.5t28.5 170t-28.5 170t-83 145.5t-132 101t-176.5 37.5q-98 0 -176 -37.5t-132 -101t-82.5 -145.5t-28.5 -170z" />
<glyph unicode="P" horiz-adv-x="1300" d="M137 0v1434h600q119 0 215.5 -42t165 -113t105.5 -165t37 -199q0 -104 -37 -198t-105.5 -165t-165 -113t-215.5 -42h-268v-397h-332zM469 668h227q51 0 94.5 20.5t73 54t46 78.5t16.5 94t-16.5 94.5t-46 79t-72.5 54t-95 20.5h-227v-495z" />
<glyph unicode="Q" horiz-adv-x="1648" d="M66 717q0 147 51 283.5t149.5 241t239.5 166.5t319 62t318.5 -62t239 -166.5t149.5 -240t51 -282.5q0 -109 -28.5 -211t-82 -191.5t-131 -160t-178.5 -113.5l123 -166q-18 -8 -59 -29.5t-86 -44t-86 -44t-60 -29.5l-172 233q-178 0 -319.5 62.5t-238.5 167t-148 240.5 t-51 284zM406 717q0 -88 28.5 -170t82.5 -145.5t132 -101.5t176 -38t176 38t132.5 101.5t83 145.5t28.5 170t-28.5 170t-83 145.5t-132 101t-176.5 37.5q-98 0 -176 -37.5t-132 -101t-82.5 -145.5t-28.5 -170z" />
<glyph unicode="R" horiz-adv-x="1339" d="M137 0v1434h602q119 0 215.5 -42t165 -113t105.5 -165t37 -199q0 -152 -75 -275.5t-210 -186.5l287 -453h-385l-254 397h-156v-397h-332zM469 668h227q51 0 94.5 20.5t73 54t46 78.5t16.5 94t-16.5 94.5t-46 79t-72.5 54t-95 20.5h-227v-495z" />
<glyph unicode="S" horiz-adv-x="1241" d="M78 475h332q0 -117 64.5 -182.5t162.5 -65.5q84 0 137 46t53 122q0 43 -17 73t-47 52.5t-71 40t-88 35.5q-96 35 -183 72t-154.5 88t-107.5 122.5t-40 176.5q0 106 42 185t111.5 130t161.5 75.5t191 24.5q125 0 220 -36.5t159.5 -100t96.5 -145.5t32 -174h-332 q0 96 -46 151.5t-134 55.5q-70 0 -121 -37t-51 -109q0 -70 53 -112.5t151 -77.5q94 -33 185.5 -70t162 -89t113.5 -127t43 -185q0 -104 -40 -188.5t-110.5 -142.5t-168 -89t-211.5 -31q-121 0 -221.5 34t-173 99.5t-113.5 160.5t-41 218z" />
<glyph unicode="T" horiz-adv-x="1042" d="M31 1147v287h981v-287h-326v-1147h-332v1147h-323z" />
<glyph unicode="U" horiz-adv-x="1345" d="M115 489v945h331v-942q0 -49 16.5 -93.5t46.5 -77t71 -52t92 -19.5t93 19.5t71.5 52t46 76.5t16.5 94v942h332v-945q0 -111 -39 -207t-111.5 -166.5t-176 -111.5t-232.5 -41t-231.5 41t-175 111.5t-111.5 167t-39 206.5z" />
<glyph unicode="V" horiz-adv-x="1318" d="M-8 1434h354l311 -1012l310 1012h360l-518 -1434h-305z" />
<glyph unicode="W" horiz-adv-x="2119" d="M-2 1434h350l293 -940l291 940h256l293 -940l291 940h350l-506 -1434h-270l-285 901l-285 -901h-272z" />
<glyph unicode="X" horiz-adv-x="1247" d="M8 0l426 717l-426 717h365l250 -463l249 463h367l-426 -717l426 -717h-367l-249 461l-250 -461h-365z" />
<glyph unicode="Y" horiz-adv-x="1312" d="M8 1434h387l305 -564l263 564h366l-711 -1434h-366l264 539z" />
<glyph unicode="Z" horiz-adv-x="1294" d="M35 0l700 1155h-643v279h1172l-703 -1155h680v-279h-1206z" />
<glyph unicode="[" horiz-adv-x="788" d="M137 -457v2044h529v-272h-215v-1501h215v-271h-529z" />
<glyph unicode="\" horiz-adv-x="1005" d="M-8 1524l293 125l719 -1672l-293 -124z" />
<glyph unicode="]" horiz-adv-x="788" d="M123 -186h215v1499h-215v274h528v-2044h-528v271z" />
<glyph unicode="^" horiz-adv-x="1302" d="M86 614l475 922h178l478 -922h-306l-260 555l-266 -555h-299z" />
<glyph unicode="_" horiz-adv-x="1193" d="M45 -82h1106v-188h-1106v188z" />
<glyph unicode="`" horiz-adv-x="1050" d="M170 1292l98 217l566 -262l-99 -217z" />
<glyph unicode="a" horiz-adv-x="1300" d="M72 494q0 111 35.5 206t99 163.5t148.5 108.5t184 40q111 0 192.5 -47t122.5 -119v141h313v-987h-313v139q-37 -68 -119 -116t-196 -48q-98 0 -183.5 40t-149 109t-99 164t-35.5 206zM383 494q0 -51 17.5 -97.5t48 -80t73.5 -54t96 -20.5t96.5 20.5t74 54t48 79.5 t17.5 98q0 51 -17.5 96t-48 80t-73.5 55t-97 20q-53 0 -96 -20t-73.5 -55t-48 -80t-17.5 -96z" />
<glyph unicode="b" horiz-adv-x="1304" d="M133 0v1434h313v-588q37 68 119 117t199 49q98 0 183 -39t148.5 -108.5t99.5 -165t36 -205.5q0 -111 -36 -206t-99.5 -164t-148.5 -109t-185 -40q-119 0 -200 50.5t-116 113.5v-139h-313zM446 494q0 -53 17.5 -98.5t48.5 -80t74 -54t96 -19.5t96 20.5t74 54t48.5 79.5 t17.5 98q0 49 -16.5 95t-47.5 81t-75 55t-97 20t-96 -20t-74 -55t-48.5 -80t-17.5 -96z" />
<glyph unicode="c" horiz-adv-x="1177" d="M68 494q0 102 33.5 196t101 166t168 115t233.5 43q123 0 214 -35t153.5 -93.5t96.5 -133t40 -152.5h-313q-8 63 -53.5 105.5t-133.5 42.5q-61 0 -104 -20.5t-70.5 -55.5t-40 -81t-12.5 -97t13.5 -97.5t41 -81t72.5 -55t106 -20.5q80 0 121 33.5t62 97.5h313 q-10 -84 -48 -156t-101.5 -126t-153.5 -85t-203 -31q-133 0 -233.5 43t-168 115t-101 166t-33.5 197z" />
<glyph unicode="d" horiz-adv-x="1300" d="M72 494q0 111 35.5 206t99 163.5t148.5 108.5t184 40q111 0 192.5 -47t122.5 -119v588h313v-1434h-313v139q-37 -68 -119 -116t-196 -48q-98 0 -183.5 40t-149 109t-99 164t-35.5 206zM383 494q0 -51 17.5 -97.5t48 -80t73.5 -54t96 -20.5t96.5 20.5t74 54t48 79.5 t17.5 98q0 51 -17.5 96t-48 80t-73.5 55t-97 20q-53 0 -96 -20t-73.5 -55t-48 -80t-17.5 -96z" />
<glyph unicode="e" horiz-adv-x="1181" d="M70 494q0 109 33.5 203t100 164.5t163 111.5t221.5 41q119 0 214 -37t161.5 -101.5t102.5 -153.5t36 -192q0 -29 -2 -50t-8 -62h-707q0 -45 11.5 -85t36 -70t65.5 -47t100 -17q84 0 126 32.5t58 79.5h308q-12 -70 -50.5 -131t-99.5 -107t-146 -73t-192 -27 q-129 0 -228.5 40t-167 111t-102 166t-34.5 204zM385 598h410q0 90 -56.5 142.5t-148.5 52.5q-88 0 -146.5 -50.5t-58.5 -144.5z" />
<glyph unicode="f" horiz-adv-x="778" d="M33 754v233h178v86q0 133 37 210t90 115t115.5 48t115.5 10q72 0 114 -8t71 -18v-226q-25 6 -46.5 9.5t-54.5 3.5q-25 0 -48 -3.5t-41.5 -16.5t-30 -37.5t-11.5 -67.5v-105h232v-233h-230v-754h-313v754h-178z" />
<glyph unicode="g" horiz-adv-x="1296" d="M72 496q0 111 34.5 205t97 162.5t148.5 108.5t189 40q104 0 187 -42t128 -124v141h313v-981q0 -254 -133 -366.5t-405 -112.5q-152 0 -255.5 31.5t-167 85t-92 126t-32.5 154.5h313q8 -66 60.5 -116t163.5 -50q102 0 168.5 54.5t66.5 175.5v155q-39 -63 -118 -108 t-195 -45q-100 0 -186.5 36.5t-150 104.5t-99 161t-35.5 204zM385 494q0 -51 17.5 -97.5t48 -80t73.5 -54t97 -20.5q51 0 95 19.5t74.5 54t48 79.5t17.5 99q0 51 -17.5 96t-48 80t-73.5 55t-96 20t-97.5 -20t-75 -55t-47 -81t-16.5 -95z" />
<glyph unicode="h" horiz-adv-x="1222" d="M133 0v1434h303v-590q41 78 123 123t199 45q96 0 160.5 -30t105.5 -83q47 -57 63.5 -133t16.5 -182v-584h-303v506q0 104 -38 171.5t-134 67.5q-98 0 -145.5 -67.5t-47.5 -181.5v-496h-303z" />
<glyph unicode="i" horiz-adv-x="653" d="M125 1315q0 84 57.5 141t143.5 57q43 0 79.5 -15t64.5 -41.5t43 -63.5t15 -78t-15 -77t-43 -63.5t-64.5 -43t-79.5 -15.5t-79 15.5t-63.5 43t-43 63.5t-15.5 77zM170 0v987h313v-987h-313z" />
<glyph unicode="j" horiz-adv-x="659" d="M16 -213q29 -8 45.5 -10t30.5 -2q45 0 65.5 21.5t20.5 76.5v1114h314v-1141q0 -98 -21.5 -159.5t-58.5 -96t-86.5 -48t-104.5 -13.5q-27 0 -56.5 2t-57 5t-52 8t-39.5 10v233zM133 1315q0 84 57.5 141t143.5 57q43 0 80 -15t64.5 -41.5t43 -63.5t15.5 -78t-15.5 -77 t-43 -63.5t-64.5 -43t-80 -15.5t-79 15.5t-63.5 43t-43 63.5t-15.5 77z" />
<glyph unicode="k" horiz-adv-x="1134" d="M133 0v1434h313v-865l306 418h372l-385 -493l383 -494h-372l-304 414v-414h-313z" />
<glyph unicode="l" horiz-adv-x="579" d="M133 0v1434h313v-1434h-313z" />
<glyph unicode="m" horiz-adv-x="1798" d="M133 0v987h303v-143q33 66 103.5 117t189.5 51q111 0 184.5 -48.5t106.5 -129.5q18 35 46 67.5t66.5 57t91 39t117.5 14.5q102 0 168 -35t103 -92.5t50 -130t13 -146.5v-608h-301v532q0 100 -35.5 156.5t-115.5 56.5q-35 0 -66 -12t-53.5 -40.5t-34.5 -77t-12 -119.5 v-496h-303v535q0 100 -35 155t-115 55q-72 0 -120 -55t-48 -201v-489h-303z" />
<glyph unicode="n" horiz-adv-x="1243" d="M133 0v987h313v-143q41 80 125 124t201 44q102 0 168 -32t107 -81q47 -57 62 -132t15 -181v-586h-313v506q0 104 -38 171.5t-134 67.5q-98 0 -145.5 -67.5t-47.5 -181.5v-496h-313z" />
<glyph unicode="o" horiz-adv-x="1226" d="M66 494q0 106 37.5 200t108.5 165t172 113t230 42t230.5 -42t172 -113t107.5 -165t37 -200t-37 -200.5t-107.5 -165.5t-172 -113t-230.5 -42t-230 42t-172 113t-108.5 165t-37.5 201zM379 494q0 -53 16.5 -98.5t47 -80t73.5 -54t96 -19.5t97.5 19.5t75 54t48 79.5 t17.5 99q0 51 -17.5 97t-48 80t-74.5 54t-98 20q-53 0 -96 -20t-73.5 -54t-47 -80t-16.5 -97z" />
<glyph unicode="p" horiz-adv-x="1304" d="M133 -446v1433h313v-141q37 68 119 117t199 49q98 0 183 -40t148.5 -108.5t99.5 -164t36 -205.5q0 -111 -36 -206t-99.5 -164t-148.5 -109t-183 -40q-117 0 -199 49.5t-119 116.5v-587h-313zM446 494q0 -51 17.5 -97.5t48.5 -80t74 -54t96 -20.5t96 20.5t74 54t48.5 79.5 t17.5 98q0 51 -17.5 97t-48.5 80t-74 54t-96 20t-96 -20t-74 -54t-48.5 -80t-17.5 -97z" />
<glyph unicode="q" horiz-adv-x="1304" d="M74 494q0 111 35.5 206t99 163.5t148.5 108.5t184 40q119 0 199.5 -50.5t117.5 -115.5v141h311v-1433h-311v587q-37 -66 -118 -116t-199 -50q-98 0 -183.5 40t-149 109t-99 164t-35.5 206zM387 494q0 -51 17.5 -97.5t48 -80t73.5 -54t97 -20.5q53 0 96 20.5t73.5 54 t48 79.5t17.5 98q0 51 -17.5 97t-48 80t-73.5 54t-96 20t-96.5 -20t-74 -54t-48 -80t-17.5 -97z" />
<glyph unicode="r" horiz-adv-x="854" d="M133 0v987h313v-160q35 70 116 123.5t190 53.5q51 0 90 -17v-285q-33 8 -55.5 11.5t-51.5 3.5q-133 0 -211 -75t-78 -257v-385h-313z" />
<glyph unicode="s" horiz-adv-x="1044" d="M68 330h307q0 -78 44 -112t113 -34q57 0 93.5 21.5t36.5 70.5q0 29 -15.5 47.5t-47.5 33t-82 29.5t-120 38q-63 20 -118.5 41.5t-97.5 53.5t-65.5 78t-23.5 114q0 78 31 135t87 94t134 55.5t172 18.5q115 0 198 -26t136 -71t78.5 -106t25.5 -131h-309q0 61 -31.5 95 t-95.5 34q-49 0 -84 -21.5t-35 -64.5q0 -29 16.5 -46.5t48.5 -31.5t79 -28.5t108 -34.5q66 -18 123 -40t100.5 -53.5t69 -79t25.5 -120.5q0 -86 -36 -146.5t-96.5 -98.5t-140.5 -54.5t-168 -16.5q-219 0 -339.5 91.5t-120.5 265.5z" />
<glyph unicode="t" horiz-adv-x="784" d="M35 754v233h155v293h312v-293h225v-233h-225v-353q0 -55 10 -87.5t28.5 -51t45 -24t59.5 -5.5q20 0 51 1.5t54 5.5v-240q-35 -6 -87.5 -11t-123.5 -5q-55 0 -116 8t-113 42t-86 104.5t-34 193.5v422h-155z" />
<glyph unicode="u" horiz-adv-x="1243" d="M121 401v586h311v-506q0 -106 38 -172.5t136 -66.5t144.5 67.5t46.5 182.5v495h313v-987h-313v141q-41 -78 -125 -122t-201 -44q-102 0 -167.5 32t-106.5 81q-47 57 -61.5 132t-14.5 181z" />
<glyph unicode="v" horiz-adv-x="1128" d="M-4 987h328l239 -620l242 620h328l-447 -987h-250z" />
<glyph unicode="w" horiz-adv-x="1644" d="M-2 987h324l182 -588l174 588h289l174 -588l182 588h324l-369 -987h-254l-201 629l-202 -629h-254z" />
<glyph unicode="x" horiz-adv-x="1052" d="M2 0l340 498l-334 489h363l155 -278l156 278h362l-331 -489l338 -498h-363l-162 287l-161 -287h-363z" />
<glyph unicode="y" horiz-adv-x="1259" d="M121 -76h307q2 -72 46 -119t149 -47q98 0 146 53.5t48 178.5v168q-41 -80 -125 -124t-200 -44q-102 0 -168 31.5t-107 80.5q-47 57 -61.5 132t-14.5 182v571h312v-506q0 -106 37.5 -172.5t136.5 -66.5q98 0 144 67.5t46 182.5v495h313v-981q0 -252 -119.5 -365.5 t-379.5 -113.5q-137 0 -233.5 28.5t-158 81t-90 126t-28.5 161.5z" />
<glyph unicode="z" horiz-adv-x="983" d="M37 0l436 721h-410v266h893l-434 -721h420v-266h-905z" />
<glyph unicode="{" horiz-adv-x="976" d="M123 410v276q29 0 60.5 8t57 27.5t43 51.5t17.5 77v410q0 80 25.5 141t70.5 102t105.5 62.5t130.5 21.5h207v-254h-86q-41 0 -68 -14t-43 -38t-22.5 -53.5t-6.5 -60.5v-385q0 -66 -23.5 -109.5t-55 -70.5t-66.5 -39t-57 -14q23 -4 57.5 -14.5t66 -38t55 -73.5t23.5 -120 v-342q0 -29 6.5 -58.5t22.5 -53t43 -39t68 -15.5h86v-252h-207q-70 0 -130.5 20.5t-105.5 62.5t-70.5 102.5t-25.5 140.5v367q0 49 -17.5 81.5t-43 53t-57 30t-60.5 9.5z" />
<glyph unicode="|" horiz-adv-x="587" d="M137 -334v1921h314v-1921h-314z" />
<glyph unicode="}" horiz-adv-x="976" d="M137 -205h84q41 0 68.5 15.5t43 39t21.5 53t6 58.5v342q0 74 23 120t55.5 73.5t67.5 38t57 14.5q-23 2 -57.5 14t-67 39t-55.5 71t-23 109v385q0 31 -6 60.5t-21.5 53.5t-43 38t-68.5 14h-84v254h207q70 0 130.5 -21.5t105.5 -62.5t70.5 -102.5t25.5 -140.5v-410 q0 -45 16.5 -77t43 -51.5t58 -27.5t60.5 -8v-276q-29 0 -60.5 -9.5t-58 -30t-43 -53t-16.5 -81.5v-367q0 -80 -25.5 -140.5t-70.5 -102.5t-105.5 -62.5t-130.5 -20.5h-207v252z" />
<glyph unicode="~" horiz-adv-x="1150" d="M72 395v246q59 72 127.5 96.5t124.5 24.5q59 0 126.5 -19.5t137.5 -46.5q90 -35 145 -54t105 -19q70 0 132 35.5t107 76.5v-246q-55 -68 -122.5 -94t-131.5 -26q-66 0 -121 19.5t-116 47.5q-61 29 -127 50.5t-133 21.5q-78 0 -136.5 -31t-117.5 -82z" />
<glyph unicode="&#xa1;" horiz-adv-x="692" d="M139 1243q0 43 16.5 80t44 65.5t66.5 45t82 16.5t82 -16.5t66.5 -45t44 -65.5t16.5 -80t-16.5 -80t-44 -65.5t-66.5 -45t-82 -16.5t-82 16.5t-66.5 45t-44 65.5t-16.5 80zM180 -10v932h336v-932h-336z" />
<glyph unicode="&#xa2;" horiz-adv-x="1241" d="M92 651q0 86 24.5 168t72 148.5t119 114.5t163.5 71v238h303v-238q86 -18 150.5 -57t108.5 -92.5t68.5 -116t31.5 -129.5h-314q-8 63 -53 105t-133 42q-61 0 -104.5 -20.5t-71 -55t-39.5 -81t-12 -97.5t13 -97t40.5 -81t71.5 -55.5t106 -20.5q82 0 123 35t61 96h314 q-20 -139 -108.5 -241.5t-252.5 -136.5v-234h-303v234q-92 20 -163.5 69t-119 115.5t-72 148.5t-24.5 168z" />
<glyph unicode="&#xa3;" horiz-adv-x="1286" d="M72 606v246h143q0 51 -1 98t-1 66q0 98 39 181t106.5 142.5t160.5 92t204 32.5q115 0 209 -35.5t161.5 -99t105.5 -151.5t38 -191h-332q0 86 -43 141.5t-141 55.5q-78 0 -127 -40t-49 -126q0 -14 1 -63.5t1 -102.5h297v-246h-299q0 -57 -3 -111.5t-9.5 -99.5t-15.5 -78.5 t-21 -48.5h645v-268h-1016v225q31 33 48 77t26.5 95.5t11.5 104.5t2 104h-141z" />
<glyph unicode="&#xa4;" horiz-adv-x="1550" d="M150 344l122 123q-84 127 -84 291q0 158 82 286l-120 121l176 176l131 -133q59 33 128.5 51.5t149.5 18.5q82 0 151.5 -18.5t129.5 -51.5l131 133l178 -176l-123 -123q82 -127 82 -284q0 -158 -82 -285l121 -121l-176 -178l-131 131q-59 -33 -129 -50t-150 -17t-147.5 17 t-126.5 48l-137 -135zM502 758q0 -51 16.5 -97.5t47 -80t73.5 -54t96 -20.5t97.5 20.5t75 54t48 80t17.5 97.5t-17.5 97t-48 81t-75 54.5t-97.5 19.5t-96 -19.5t-73.5 -54.5t-47 -81t-16.5 -97z" />
<glyph unicode="&#xa5;" horiz-adv-x="1290" d="M-47 1434h385l309 -564l305 564h385l-485 -807h238v-193h-283v-104h283v-193h-283v-137h-315v137h-279v193h279v104h-279v193h225z" />
<glyph unicode="&#xa6;" horiz-adv-x="917" d="M137 -334v834h314v-834h-314zM137 766v821h314v-821h-314z" />
<glyph unicode="&#xa7;" horiz-adv-x="1177" d="M78 545q0 111 55 189.5t172 119.5q-78 49 -119 122t-41 167q0 92 38 161.5t102.5 116.5t148.5 71t176 24q109 0 196 -32t147.5 -88.5t92 -132t31.5 -163.5h-280q0 92 -51.5 146t-139.5 54q-72 0 -126 -36.5t-54 -108.5t57.5 -110.5t141.5 -67.5t170 -61.5t156.5 -78.5 t114.5 -113t44 -163q0 -61 -18.5 -114.5t-51 -95.5t-74.5 -69.5t-87 -37.5q78 -51 120.5 -124t42.5 -169q0 -88 -36.5 -159t-99 -121t-148.5 -76.5t-185 -26.5q-104 0 -193 30.5t-153.5 87t-100.5 136.5t-36 178h285q0 -96 54 -152.5t146 -56.5q74 0 129.5 39t55.5 111 q0 74 -60.5 112.5t-148.5 69.5q-96 33 -181 67.5t-150.5 81.5t-103.5 113t-38 160zM342 573q0 -53 27.5 -86.5t70.5 -60.5q39 -23 91.5 -42t113.5 -36q39 2 75 16.5t63.5 38t44 56t16.5 71.5q0 84 -84 134q-41 23 -97.5 42t-125.5 42q-80 -4 -137.5 -50.5t-57.5 -124.5z" />
<glyph unicode="&#xa8;" horiz-adv-x="1191" d="M166 1264q0 39 14.5 72.5t40 59t59 40t72.5 14.5t74 -15.5t61.5 -41t41 -59.5t14.5 -70q0 -39 -14.5 -73t-41 -59.5t-61.5 -40t-74 -14.5q-78 0 -132 54.5t-54 132.5zM657 1264q0 39 14.5 72.5t40 59t59.5 40t75 14.5q39 0 73.5 -14.5t60.5 -40t40 -59t14 -72.5t-14 -73 t-40 -59.5t-60.5 -40t-73.5 -14.5q-41 0 -75 14.5t-59.5 40t-40 59.5t-14.5 73z" />
<glyph unicode="&#xa9;" horiz-adv-x="1654" d="M68 717q0 147 51 283.5t149.5 241t239.5 166.5t319 62t319.5 -62t240 -166.5t149.5 -241t51 -283.5t-51 -283.5t-149.5 -241t-240 -167t-319.5 -62.5t-319 62.5t-239.5 167t-149.5 240.5t-51 284zM289 717q0 -111 36.5 -213.5t105.5 -180t169 -124.5t227 -47t227.5 47 t169 124.5t105.5 180t37 213.5t-37 213t-105.5 180t-169 125t-227.5 47t-227 -47t-169 -125t-105.5 -180.5t-36.5 -212.5zM395 719q0 86 29 165t85 139t139 96t190 36q92 0 165.5 -27.5t126 -74.5t83 -109.5t38.5 -132.5h-204q-16 70 -69.5 118t-143.5 48 q-57 0 -101.5 -21.5t-75 -57.5t-46 -83t-15.5 -96q0 -53 17.5 -100.5t49 -83t76.5 -57t101 -21.5q78 0 130 39t74 98h209q-12 -66 -45.5 -123t-88 -100t-125 -67.5t-156.5 -24.5q-102 0 -184.5 35.5t-139.5 96t-88 140.5t-31 168z" />
<glyph unicode="&#xaa;" horiz-adv-x="1300" d="M72 494q0 111 35.5 206t99 163.5t148.5 108.5t184 40q111 0 192.5 -47t122.5 -119v141h313v-987h-313v139q-37 -68 -119 -116t-196 -48q-98 0 -183.5 40t-149 109t-99 164t-35.5 206zM383 494q0 -51 17.5 -97.5t48 -80t73.5 -54t96 -20.5t96.5 20.5t74 54t48 79.5 t17.5 98q0 51 -17.5 96t-48 80t-73.5 55t-97 20q-53 0 -96 -20t-73.5 -55t-48 -80t-17.5 -96z" />
<glyph unicode="&#xab;" horiz-adv-x="1048" d="M76 514v164l436 354v-272l-211 -164l211 -164v-272zM526 514v164l437 354v-272l-211 -164l211 -164v-272z" />
<glyph unicode="&#xac;" d="M190 641v250h875v-617h-266v367h-609z" />
<glyph unicode="&#xad;" horiz-adv-x="649" d="M66 483v250h518v-250h-518z" />
<glyph unicode="&#xae;" horiz-adv-x="1654" d="M68 717q0 147 51 283.5t149.5 241t239.5 166.5t319 62t319.5 -62t240 -166.5t149.5 -241t51 -283.5t-51 -283.5t-149.5 -241t-240 -167t-319.5 -62.5t-319 62.5t-239.5 167t-149.5 240.5t-51 284zM289 717q0 -111 36.5 -213.5t105.5 -180t169 -124.5t227 -47t227.5 47 t169 124.5t105.5 180t37 213.5t-37 213t-105.5 180t-169 125t-227.5 47t-227 -47t-169 -125t-105.5 -180.5t-36.5 -212.5zM532 342v805h363q66 0 120 -23.5t92 -63.5t58.5 -93.5t20.5 -110.5q0 -86 -42 -154.5t-118 -103.5l160 -256h-223l-144 225h-90v-225h-197zM729 725 h133q55 0 87 39t32 92t-31.5 92t-87.5 39h-133v-262z" />
<glyph unicode="&#xaf;" horiz-adv-x="1062" d="M154 1444v235h753v-235h-753z" />
<glyph unicode="&#xb0;" horiz-adv-x="704" d="M41 1176q0 66 24.5 122t66.5 98t98.5 66.5t121.5 24.5q66 0 122 -24.5t98 -66.5t67 -98t25 -122t-25 -122.5t-67 -98.5t-98 -66.5t-122 -24.5t-122 24.5t-98 66.5t-66.5 98.5t-24.5 122.5zM233 1176q0 -49 36 -84t83 -35t83 35t36 84q0 47 -36 83.5t-83 36.5t-83 -36.5 t-36 -83.5z" />
<glyph unicode="&#xb1;" d="M188 0v250h877v-250h-877zM188 762v250h306v313h266v-313h305v-250h-305v-313h-266v313h-306z" />
<glyph unicode="&#xb2;" horiz-adv-x="813" d="M111 645q0 98 15 165t42 113t64.5 77.5t84.5 60.5q37 23 69 40t55.5 35.5t35.5 40t12 50.5q0 39 -21.5 56t-53.5 17q-35 0 -57.5 -23.5t-22.5 -80.5h-219q0 49 17.5 95t53 82t91 57.5t133.5 21.5q57 0 110 -13.5t94 -42t66 -71.5t25 -104q0 -51 -17.5 -91t-46.5 -72 t-64.5 -57.5t-72.5 -46.5q-39 -23 -65.5 -40t-44 -32.5t-25 -30.5t-7.5 -36h336v-170h-587z" />
<glyph unicode="&#xb3;" horiz-adv-x="827" d="M96 911h219q0 -119 95 -118q45 0 66.5 27.5t21.5 68.5t-22.5 64.5t-76.5 23.5h-84v162h84q53 0 73 21.5t20 58.5q0 45 -21.5 63t-56.5 18q-47 0 -63.5 -28.5t-16.5 -75.5h-219q0 47 14 93t49 82t91.5 58.5t140.5 22.5q59 0 113.5 -12.5t95 -39t65.5 -67.5t25 -98 q0 -72 -36 -119t-87 -63q55 -18 93 -68.5t38 -124.5q0 -59 -24.5 -102t-66.5 -73t-97.5 -44t-118.5 -14q-80 0 -139.5 21.5t-98.5 60.5t-57.5 91t-18.5 111z" />
<glyph unicode="&#xb4;" horiz-adv-x="1050" d="M117 1247l565 262l98 -217l-565 -262z" />
<glyph unicode="&#xb5;" d="M133 -446v1433h311v-510q0 -104 38 -169.5t136 -65.5t144.5 67.5t46.5 182.5v495h313v-987h-313v141q-80 -145 -281 -161q-47 0 -84 12v-438h-311z" />
<glyph unicode="&#xb6;" horiz-adv-x="1390" d="M29 1036q0 123 49 206t123.5 133t163 71.5t167.5 21.5h744v-219h-115v-1589h-246v1589h-180v-1589h-248v950q-98 0 -182 29t-145.5 83t-96 133t-34.5 181z" />
<glyph unicode="&#xb7;" horiz-adv-x="606" d="M96 639q0 43 16.5 80t44 64.5t65.5 44t81 16.5t81 -16.5t65.5 -44t44 -64.5t16.5 -80t-16.5 -80t-44 -64.5t-65.5 -44t-81 -16.5t-81 16.5t-65.5 44t-44 64.5t-16.5 80z" />
<glyph unicode="&#xb8;" horiz-adv-x="968" d="M264 -281h152q6 -29 23.5 -45t45.5 -16q33 0 52.5 21.5t19.5 54.5t-19.5 52t-52.5 19q-39 0 -57 -32h-133v252h160v-138q27 31 82 31q72 0 123 -52t51 -130q0 -41 -14.5 -78t-42 -65.5t-68.5 -46t-92 -17.5q-31 0 -68 8t-70.5 28.5t-59.5 57.5t-32 96z" />
<glyph unicode="&#xb9;" horiz-adv-x="610" d="M94 1143v147q59 0 97 9.5t59.5 28t30 45t8.5 61.5h188v-789h-221v498h-162z" />
<glyph unicode="&#xba;" horiz-adv-x="1226" d="M66 494q0 106 37.5 200t108.5 165t172 113t230 42t230.5 -42t172 -113t107.5 -165t37 -200t-37 -200.5t-107.5 -165.5t-172 -113t-230.5 -42t-230 42t-172 113t-108.5 165t-37.5 201zM379 494q0 -53 16.5 -98.5t47 -80t73.5 -54t96 -19.5t97.5 19.5t75 54t48 79.5 t17.5 99q0 51 -17.5 97t-48 80t-74.5 54t-98 20q-53 0 -96 -20t-73.5 -54t-47 -80t-16.5 -97z" />
<glyph unicode="&#xbb;" horiz-adv-x="1048" d="M86 160v272l209 164l-209 164v272l436 -354v-164zM537 160v272l208 164l-208 164v272l436 -354v-164z" />
<glyph unicode="&#xbc;" horiz-adv-x="1961" d="M176 1143v147q59 0 97 9.5t59.5 28t30 45t8.5 61.5h188v-789h-221v498h-162zM422 0l819 1544l215 -108l-819 -1545zM1145 205v583h219v-403h115v205h217v-205h88v-180h-88v-205h-217v205h-334z" />
<glyph unicode="&#xbd;" horiz-adv-x="1961" d="M190 1143v147q59 0 97.5 9.5t60 28t29.5 45t8 61.5h188v-789h-221v498h-162zM436 0l819 1544l215 -108l-819 -1545zM1178 0q0 98 15 164.5t42 113t64.5 78t84.5 60.5q37 23 69 40t55.5 35.5t35.5 40t12 50.5q0 39 -21.5 56t-53.5 17q-35 0 -57.5 -23.5t-22.5 -80.5h-219 q0 49 17.5 95t53 82t91 57.5t133.5 21.5q57 0 110 -13.5t94 -42t66 -71.5t25 -105q0 -51 -17.5 -91t-46.5 -71.5t-64.5 -57t-72.5 -46.5q-39 -23 -65.5 -40t-44 -32.5t-24.5 -31t-7 -35.5h335v-170h-587z" />
<glyph unicode="&#xbe;" horiz-adv-x="1961" d="M145 911h220q0 -119 94 -118q45 0 66.5 27.5t21.5 68.5t-22.5 64.5t-75.5 23.5h-84v162h84q53 0 72.5 21.5t19.5 58.5q0 45 -21.5 63t-56.5 18q-47 0 -63.5 -28.5t-16.5 -75.5h-219q0 47 14.5 93t49 82t91 58.5t140.5 22.5q59 0 113.5 -12.5t95.5 -39t65.5 -67.5 t24.5 -98q0 -72 -36 -119t-87 -63q55 -18 93 -68.5t38 -124.5q0 -59 -24.5 -102t-66.5 -73t-97.5 -44t-118.5 -14q-80 0 -139.5 21.5t-98.5 60.5t-57.5 91t-18.5 111zM434 0l819 1544l215 -108l-819 -1545zM1178 205v583h219v-403h114v205h218v-205h88v-180h-88v-205h-218 v205h-333z" />
<glyph unicode="&#xbf;" horiz-adv-x="1110" d="M72 377q0 78 23.5 136t57 101t71.5 74t67 53q41 33 66.5 59.5t40 54.5t19.5 59.5t5 74.5h328q0 -66 -8.5 -119t-29 -97t-55 -83t-88.5 -76q-29 -20 -59.5 -43.5t-56 -52.5t-42 -63.5t-16.5 -77.5q0 -78 49.5 -116t118.5 -38q78 0 129 48t51 159h328q0 -98 -33.5 -181 t-97 -144.5t-157 -96.5t-212.5 -35q-100 0 -191 26t-159.5 77t-108.5 127t-40 174zM373 1260q0 43 16.5 80.5t45 67.5t67.5 46t84 16t84 -16t67.5 -46t45 -67.5t16.5 -80.5t-16.5 -81t-45 -68t-67.5 -46t-84 -16t-84 16t-67.5 46t-45 68t-16.5 81z" />
<glyph unicode="&#xc0;" horiz-adv-x="1351" d="M8 0l512 1434h305l518 -1434h-360l-55 174h-510l-56 -174h-354zM371 1772l98 217l565 -263l-98 -217zM498 434h348l-172 590z" />
<glyph unicode="&#xc1;" horiz-adv-x="1351" d="M8 0l512 1434h305l518 -1434h-360l-55 174h-510l-56 -174h-354zM344 1706l565 262l101 -217l-566 -262zM498 434h348l-172 590z" />
<glyph unicode="&#xc2;" horiz-adv-x="1351" d="M8 0l512 1434h305l518 -1434h-360l-55 174h-510l-56 -174h-354zM274 1714l400 322l403 -322l-162 -178l-239 190l-238 -190zM498 434h348l-172 590z" />
<glyph unicode="&#xc3;" horiz-adv-x="1351" d="M8 0l512 1434h305l518 -1434h-360l-55 174h-510l-56 -174h-354zM281 1784q92 55 138 66.5t64 11.5q33 0 80 -8.5t95.5 -19.5t93.5 -19.5t75 -8.5q12 0 24.5 2t30 8.5t43 16.5t64.5 29l94 -183q-84 -66 -146.5 -79t-80.5 -13q-33 0 -77 8.5t-90 18.5t-89 18t-70 8 q-35 0 -71.5 -13t-73.5 -30zM498 434h348l-172 590z" />
<glyph unicode="&#xc4;" horiz-adv-x="1351" d="M8 0l512 1434h305l518 -1434h-360l-55 174h-510l-56 -174h-354zM233 1745q0 39 15.5 74.5t41 61.5t61.5 41t77 15q39 0 75 -15t62.5 -41t42 -61.5t15.5 -74.5t-15.5 -74t-41 -60.5t-61.5 -41t-77 -15.5t-77 15.5t-62.5 41t-41 60.5t-14.5 74zM498 434h348l-172 590z M727 1745q0 80 55.5 136t137.5 56q41 0 76.5 -15t61 -41t41 -61.5t15.5 -74.5t-15.5 -74t-41 -60.5t-61 -41t-76.5 -15.5t-76 15.5t-61.5 41t-41 60.5t-14.5 74z" />
<glyph unicode="&#xc5;" horiz-adv-x="1351" d="M8 0l512 1434h305l518 -1434h-360l-55 174h-510l-56 -174h-354zM401 1761q0 55 21.5 105.5t58.5 88.5t87.5 59.5t107.5 21.5t107.5 -22.5t87 -60.5t58 -88t21.5 -106q0 -55 -21.5 -105t-58 -88t-87 -59.5t-107.5 -21.5t-107.5 21.5t-87.5 59.5t-58.5 88t-21.5 107z M498 434h348l-172 590zM584 1761q0 -37 27.5 -63.5t64.5 -26.5t64.5 26.5t27.5 63.5t-26.5 64.5t-65.5 27.5t-65.5 -27.5t-26.5 -64.5z" />
<glyph unicode="&#xc6;" horiz-adv-x="1882" d="M2 0l688 1434h1059v-267h-543v-325h543v-260h-543v-316h543v-266h-875v176h-434l-78 -176h-360zM555 436h319v701z" />
<glyph unicode="&#xc7;" horiz-adv-x="1613" d="M66 717q0 147 50 283.5t147 241t239.5 166.5t326.5 62q158 0 284 -46t218 -126.5t147.5 -189.5t69.5 -231h-346q-12 63 -40.5 116.5t-76 93t-110 62t-141.5 22.5q-102 0 -182.5 -37.5t-135.5 -100t-84 -145.5t-29 -171q0 -94 32 -177t88.5 -144.5t136 -97.5t178.5 -36 q145 0 237 73t123 179h352q-20 -109 -74.5 -204t-138.5 -168.5t-194.5 -120t-245.5 -54.5v-67q12 12 32.5 21t51.5 9q35 0 65.5 -13t54 -37.5t38 -58.5t14.5 -73t-14.5 -76t-42 -66.5t-68.5 -47t-92 -17.5q-33 0 -70 8.5t-70.5 30t-58 58t-30.5 94.5h151q6 -29 24.5 -45.5 t47.5 -16.5q31 0 50 20.5t19 55.5t-20.5 53.5t-48.5 18.5q-16 0 -32.5 -7.5t-27.5 -27.5h-133v186q-160 16 -284.5 83t-210.5 168.5t-131 229.5t-45 267z" />
<glyph unicode="&#xc8;" horiz-adv-x="1136" d="M137 0v1434h875v-267h-543v-325h543v-260h-543v-316h543v-266h-875zM268 1753l99 217l565 -262l-98 -217z" />
<glyph unicode="&#xc9;" horiz-adv-x="1136" d="M137 0v1434h875v-267h-543v-325h543v-260h-543v-316h543v-266h-875zM242 1733l565 262l98 -217l-565 -262z" />
<glyph unicode="&#xca;" horiz-adv-x="1136" d="M137 0v1434h875v-267h-543v-325h543v-260h-543v-316h543v-266h-875zM180 1688l400 321l403 -321l-162 -179l-239 191l-238 -191z" />
<glyph unicode="&#xcb;" horiz-adv-x="1136" d="M137 0v1434h875v-267h-543v-325h543v-260h-543v-316h543v-266h-875zM156 1745q0 39 15 74.5t41 61.5t61.5 41t76.5 15q39 0 75 -15t62.5 -41t42 -61.5t15.5 -74.5t-15.5 -74t-41 -60.5t-61.5 -41t-77 -15.5t-76.5 15.5t-62.5 41t-41 60.5t-14 74zM649 1745q0 80 55.5 136 t137.5 56q41 0 76.5 -15t61.5 -41t41 -61.5t15 -74.5t-15 -74t-41 -60.5t-61.5 -41t-76.5 -15.5t-76 15.5t-61.5 41t-41 60.5t-14.5 74z" />
<glyph unicode="&#xcc;" horiz-adv-x="610" d="M-27 1751l99 217l565 -262l-98 -217zM137 0v1434h336v-1434h-336z" />
<glyph unicode="&#xcd;" horiz-adv-x="610" d="M-27 1706l566 262l98 -217l-565 -262zM137 0v1434h336v-1434h-336z" />
<glyph unicode="&#xce;" horiz-adv-x="610" d="M-94 1688l399 321l404 -321l-164 -179l-238 191l-237 -191zM137 0v1434h336v-1434h-336z" />
<glyph unicode="&#xcf;" horiz-adv-x="610" d="M-111 1745q0 80 55.5 136t137.5 56q41 0 77 -15t61.5 -41t40.5 -61.5t15 -74.5t-15 -74t-40.5 -60.5t-61.5 -41t-77 -15.5t-76 15.5t-61.5 41t-41 60.5t-14.5 74zM137 0v1434h336v-1434h-336zM381 1745q0 39 15.5 74.5t41 61.5t61.5 41t76 15q39 0 75 -15t61.5 -41 t41 -61.5t15.5 -74.5t-14.5 -74t-41 -60.5t-61.5 -41t-76 -15.5t-76.5 15.5t-62 41t-41 60.5t-14.5 74z" />
<glyph unicode="&#xd0;" horiz-adv-x="1474" d="M-88 592v250h225v592h527q176 0 315 -60.5t234.5 -161t145.5 -229.5t50 -266t-50 -266t-145.5 -229.5t-233.5 -161t-316 -60.5h-527v592h-225zM469 287h178q100 0 179 35.5t133.5 96t83 137.5t28.5 161q0 82 -28.5 159.5t-83 138t-133 96.5t-179.5 36h-178v-305h231v-250 h-231v-305z" />
<glyph unicode="&#xd1;" horiz-adv-x="1468" d="M137 0v1434h346l518 -934v934h330v-1434h-346l-516 922v-922h-332zM322 1786q92 55 137 66.5t63 11.5q33 0 80 -8.5t96.5 -19.5t94.5 -19.5t75 -8.5q12 0 23.5 2t29 8.5t43 16.5t64.5 29l94 -185q-84 -66 -146.5 -79t-80.5 -13q-33 0 -77 8.5t-90 18.5t-88 18t-69 8 q-35 0 -72.5 -13t-74.5 -30z" />
<glyph unicode="&#xd2;" horiz-adv-x="1648" d="M66 717q0 147 51 283.5t149.5 241t239.5 166.5t319 62t318.5 -62t239 -166.5t149.5 -241t51 -283.5t-51 -283.5t-149.5 -241t-239 -167t-318.5 -62.5t-319 62.5t-239.5 167t-149.5 240.5t-51 284zM406 717q0 -88 28.5 -170t82.5 -145.5t132 -101.5t176 -38t176 38 t132.5 101.5t83 145.5t28.5 170t-28.5 170t-83 145.5t-132 101t-176.5 37.5q-98 0 -176 -37.5t-132 -101t-82.5 -145.5t-28.5 -170zM516 1778l98 217l566 -262l-99 -217z" />
<glyph unicode="&#xd3;" horiz-adv-x="1648" d="M66 717q0 147 51 283.5t149.5 241t239.5 166.5t319 62t318.5 -62t239 -166.5t149.5 -241t51 -283.5t-51 -283.5t-149.5 -241t-239 -167t-318.5 -62.5t-319 62.5t-239.5 167t-149.5 240.5t-51 284zM406 717q0 -88 28.5 -170t82.5 -145.5t132 -101.5t176 -38t176 38 t132.5 101.5t83 145.5t28.5 170t-28.5 170t-83 145.5t-132 101t-176.5 37.5q-98 0 -176 -37.5t-132 -101t-82.5 -145.5t-28.5 -170zM463 1733l565 262l98 -217l-565 -262z" />
<glyph unicode="&#xd4;" horiz-adv-x="1648" d="M66 717q0 147 51 283.5t149.5 241t239.5 166.5t319 62t318.5 -62t239 -166.5t149.5 -241t51 -283.5t-51 -283.5t-149.5 -241t-239 -167t-318.5 -62.5t-319 62.5t-239.5 167t-149.5 240.5t-51 284zM406 717q0 -88 28.5 -170t82.5 -145.5t132 -101.5t176 -38t176 38 t132.5 101.5t83 145.5t28.5 170t-28.5 170t-83 145.5t-132 101t-176.5 37.5q-98 0 -176 -37.5t-132 -101t-82.5 -145.5t-28.5 -170zM424 1688l401 321l402 -321l-162 -179l-240 191l-237 -191z" />
<glyph unicode="&#xd5;" horiz-adv-x="1648" d="M66 717q0 147 51 283.5t149.5 241t239.5 166.5t319 62t318.5 -62t239 -166.5t149.5 -241t51 -283.5t-51 -283.5t-149.5 -241t-239 -167t-318.5 -62.5t-319 62.5t-239.5 167t-149.5 240.5t-51 284zM406 717q0 -88 28.5 -170t82.5 -145.5t132 -101.5t176 -38t176 38 t132.5 101.5t83 145.5t28.5 170t-28.5 170t-83 145.5t-132 101t-176.5 37.5q-98 0 -176 -37.5t-132 -101t-82.5 -145.5t-28.5 -170zM422 1784q92 55 138 66.5t65 11.5q33 0 80 -8.5t95 -19.5t93 -19.5t76 -8.5q12 0 24.5 2t29.5 8.5t43 16.5t64 29l95 -183 q-84 -66 -146.5 -79t-81.5 -13q-33 0 -76.5 8.5t-90 18.5t-89.5 18t-69 8q-35 0 -72 -13t-74 -30z" />
<glyph unicode="&#xd6;" horiz-adv-x="1648" d="M66 717q0 147 51 283.5t149.5 241t239.5 166.5t319 62t318.5 -62t239 -166.5t149.5 -241t51 -283.5t-51 -283.5t-149.5 -241t-239 -167t-318.5 -62.5t-319 62.5t-239.5 167t-149.5 240.5t-51 284zM381 1749q0 39 15.5 75t41 61.5t61.5 41t76 15.5q39 0 75 -15.5t61.5 -41 t41 -61.5t15.5 -75t-14.5 -74t-41 -60.5t-61.5 -40.5t-76 -15t-76.5 15t-62 40.5t-41 60.5t-14.5 74zM406 717q0 -88 28.5 -170t82.5 -145.5t132 -101.5t176 -38t176 38t132.5 101.5t83 145.5t28.5 170t-28.5 170t-83 145.5t-132 101t-176.5 37.5q-98 0 -176 -37.5 t-132 -101t-82.5 -145.5t-28.5 -170zM874 1749q0 80 55.5 136.5t137.5 56.5q41 0 77 -15.5t61.5 -41t41 -61.5t15.5 -75t-15.5 -74t-41 -60.5t-61.5 -40.5t-77 -15t-76 15t-61.5 40.5t-41 60.5t-14.5 74z" />
<glyph unicode="&#xd7;" d="M223 369l221 219l-215 215l177 178l215 -215l221 221l188 -188l-221 -221l217 -216l-178 -176l-215 213l-221 -219z" />
<glyph unicode="&#xd8;" horiz-adv-x="1648" d="M66 717q0 147 51 283.5t149.5 241t239.5 166.5t319 62q76 0 144 -12l71 164l293 -125l-67 -158q154 -104 235.5 -270t81.5 -352q0 -147 -51 -283.5t-149.5 -241t-238.5 -167t-319 -62.5q-78 0 -147 12l-64 -149l-292 125l61 141q-154 104 -235.5 270t-81.5 355zM406 717 q0 -88 28.5 -170t81.5 -146l330 770h-21q-98 0 -176 -37.5t-132 -101t-82.5 -145.5t-28.5 -170zM803 262h22q98 0 176 38t132.5 100.5t83 144.5t28.5 170q0 90 -29.5 171t-82.5 144z" />
<glyph unicode="&#xd9;" horiz-adv-x="1345" d="M115 489v945h331v-942q0 -49 16.5 -93.5t46.5 -77t71 -52t92 -19.5t93 19.5t71.5 52t46 76.5t16.5 94v942h332v-945q0 -111 -39 -207t-111.5 -166.5t-176 -111.5t-232.5 -41t-231.5 41t-175 111.5t-111.5 167t-39 206.5zM360 1778l99 217l565 -262l-98 -217z" />
<glyph unicode="&#xda;" horiz-adv-x="1345" d="M115 489v945h331v-942q0 -49 16.5 -93.5t46.5 -77t71 -52t92 -19.5t93 19.5t71.5 52t46 76.5t16.5 94v942h332v-945q0 -111 -39 -207t-111.5 -166.5t-176 -111.5t-232.5 -41t-231.5 41t-175 111.5t-111.5 167t-39 206.5zM307 1733l565 262l99 -217l-565 -262z" />
<glyph unicode="&#xdb;" horiz-adv-x="1345" d="M115 489v945h331v-942q0 -49 16.5 -93.5t46.5 -77t71 -52t92 -19.5t93 19.5t71.5 52t46 76.5t16.5 94v942h332v-945q0 -111 -39 -207t-111.5 -166.5t-176 -111.5t-232.5 -41t-231.5 41t-175 111.5t-111.5 167t-39 206.5zM264 1688l400 321l403 -321l-162 -179l-239 191 l-238 -191z" />
<glyph unicode="&#xdc;" horiz-adv-x="1345" d="M115 489v945h331v-942q0 -49 16.5 -93.5t46.5 -77t71 -52t92 -19.5t93 19.5t71.5 52t46 76.5t16.5 94v942h332v-945q0 -111 -39 -207t-111.5 -166.5t-176 -111.5t-232.5 -41t-231.5 41t-175 111.5t-111.5 167t-39 206.5zM227 1745q0 39 15.5 74.5t41 61.5t61.5 41t77 15 q39 0 74.5 -15t61.5 -41t41 -61.5t15 -74.5t-14 -74t-41 -60.5t-61.5 -41t-75.5 -15.5t-77 15.5t-62.5 41t-41 60.5t-14.5 74zM721 1745q0 80 55 136t137 56q41 0 77 -15t61.5 -41t41 -61.5t15.5 -74.5t-15.5 -74t-41 -60.5t-61.5 -41t-77 -15.5t-75.5 15.5t-61 41t-41 60.5 t-14.5 74z" />
<glyph unicode="&#xdd;" horiz-adv-x="1312" d="M8 1434h387l305 -564l263 564h366l-711 -1434h-366l264 539zM406 1726l565 263l98 -215l-565 -263z" />
<glyph unicode="&#xde;" horiz-adv-x="1103" d="M131 0v1434h303v-236h90q129 0 228.5 -41t167 -108.5t102.5 -156.5t35 -185t-35 -185.5t-102.5 -157t-167 -108.5t-228.5 -41h-90v-215h-303zM434 475h90q55 0 97.5 19.5t71 51.5t44 74t15.5 87t-15.5 87t-44 73.5t-70.5 51t-98 19.5h-90v-463z" />
<glyph unicode="&#xdf;" horiz-adv-x="1214" d="M111 0v1006q0 92 29.5 175t91 145.5t154.5 100t222 37.5q100 0 192.5 -24.5t163 -74.5t111.5 -125t41 -175q0 -129 -65.5 -208t-157.5 -112q47 -18 91 -47.5t79 -73.5t55.5 -102.5t20.5 -134.5q0 -98 -36 -176t-99.5 -130t-147.5 -80t-178 -28q-59 0 -106.5 8.5 t-77.5 18.5v244q31 -8 67.5 -12.5t59.5 -4.5q37 0 72.5 13.5t63 39t44 61.5t16.5 81q0 37 -12 72.5t-37 64.5t-63.5 47.5t-92.5 18.5h-59v249h55q102 0 145.5 53.5t43.5 121.5q0 86 -54.5 130t-126.5 44q-88 0 -135 -59.5t-47 -157.5v-1006h-323z" />
<glyph unicode="&#xe0;" horiz-adv-x="1300" d="M72 494q0 111 35.5 206t99 163.5t148.5 108.5t184 40q111 0 192.5 -47t122.5 -119v141h313v-987h-313v139q-37 -68 -119 -116t-196 -48q-98 0 -183.5 40t-149 109t-99 164t-35.5 206zM246 1305l98 217l565 -262l-98 -218zM383 494q0 -51 17.5 -97.5t48 -80t73.5 -54 t96 -20.5t96.5 20.5t74 54t48 79.5t17.5 98q0 51 -17.5 96t-48 80t-73.5 55t-97 20q-53 0 -96 -20t-73.5 -55t-48 -80t-17.5 -96z" />
<glyph unicode="&#xe1;" horiz-adv-x="1300" d="M72 494q0 111 35.5 206t99 163.5t148.5 108.5t184 40q111 0 192.5 -47t122.5 -119v141h313v-987h-313v139q-37 -68 -119 -116t-196 -48q-98 0 -183.5 40t-149 109t-99 164t-35.5 206zM203 1260l565 262l100 -217l-565 -263zM383 494q0 -51 17.5 -97.5t48 -80t73.5 -54 t96 -20.5t96.5 20.5t74 54t48 79.5t17.5 98q0 51 -17.5 96t-48 80t-73.5 55t-97 20q-53 0 -96 -20t-73.5 -55t-48 -80t-17.5 -96z" />
<glyph unicode="&#xe2;" horiz-adv-x="1300" d="M72 494q0 111 35.5 206t99 163.5t148.5 108.5t184 40q111 0 192.5 -47t122.5 -119v141h313v-987h-313v139q-37 -68 -119 -116t-196 -48q-98 0 -183.5 40t-149 109t-99 164t-35.5 206zM209 1245l399 322l404 -322l-162 -178l-240 190l-237 -190zM383 494q0 -51 17.5 -97.5 t48 -80t73.5 -54t96 -20.5t96.5 20.5t74 54t48 79.5t17.5 98q0 51 -17.5 96t-48 80t-73.5 55t-97 20q-53 0 -96 -20t-73.5 -55t-48 -80t-17.5 -96z" />
<glyph unicode="&#xe3;" horiz-adv-x="1300" d="M72 494q0 111 35.5 206t99 163.5t148.5 108.5t184 40q111 0 192.5 -47t122.5 -119v141h313v-987h-313v139q-37 -68 -119 -116t-196 -48q-98 0 -183.5 40t-149 109t-99 164t-35.5 206zM203 1391q92 55 138 66t65 11q33 0 78.5 -8t94 -19t93.5 -19.5t73 -8.5q23 0 57 10.5 t109 44.5l95 -184q-41 -33 -80 -51.5t-71 -27.5t-54.5 -11t-30.5 -2q-29 0 -72 8t-88 18.5t-88 18.5t-69 8q-35 0 -72 -13t-76 -30zM383 494q0 -51 17.5 -97.5t48 -80t73.5 -54t96 -20.5t96.5 20.5t74 54t48 79.5t17.5 98q0 51 -17.5 96t-48 80t-73.5 55t-97 20 q-53 0 -96 -20t-73.5 -55t-48 -80t-17.5 -96z" />
<glyph unicode="&#xe4;" horiz-adv-x="1300" d="M72 494q0 111 35.5 206t99 163.5t148.5 108.5t184 40q111 0 192.5 -47t122.5 -119v141h313v-987h-313v139q-37 -68 -119 -116t-196 -48q-98 0 -183.5 40t-149 109t-99 164t-35.5 206zM174 1290q0 39 15.5 75t41 61.5t61.5 41t77 15.5q39 0 74.5 -15.5t61 -41t41 -61.5 t15.5 -75t-14.5 -73.5t-41 -60.5t-61 -41t-75.5 -15t-77 15t-62.5 41t-41 60.5t-14.5 73.5zM383 494q0 -51 17.5 -97.5t48 -80t73.5 -54t96 -20.5t96.5 20.5t74 54t48 79.5t17.5 98q0 51 -17.5 96t-48 80t-73.5 55t-97 20q-53 0 -96 -20t-73.5 -55t-48 -80t-17.5 -96z M668 1290q0 80 55 136.5t137 56.5q41 0 77 -15.5t61.5 -41t41 -61.5t15.5 -75t-15.5 -73.5t-41 -60.5t-61.5 -41t-77 -15t-75.5 15t-61.5 41t-41 60.5t-14 73.5z" />
<glyph unicode="&#xe5;" horiz-adv-x="1300" d="M72 494q0 111 35.5 206t99 163.5t148.5 108.5t184 40q111 0 192.5 -47t122.5 -119v141h313v-987h-313v139q-37 -68 -119 -116t-196 -48q-98 0 -183.5 40t-149 109t-99 164t-35.5 206zM362 1333q0 57 22 107.5t58.5 87.5t87 58.5t107.5 21.5t107.5 -21.5t88 -59.5t59 -88 t21.5 -106q0 -55 -21.5 -105t-58 -88t-87 -60.5t-107.5 -22.5t-107.5 22.5t-88 60.5t-59.5 88t-22 105zM383 494q0 -51 17.5 -97.5t48 -80t73.5 -54t96 -20.5t96.5 20.5t74 54t48 79.5t17.5 98q0 51 -17.5 96t-48 80t-73.5 55t-97 20q-53 0 -96 -20t-73.5 -55t-48 -80 t-17.5 -96zM547 1333q0 -37 27.5 -63.5t64.5 -26.5t63.5 27.5t26.5 64.5t-25.5 63.5t-64.5 26.5q-41 0 -66.5 -28.5t-25.5 -63.5z" />
<glyph unicode="&#xe6;" horiz-adv-x="1968" d="M72 494q0 111 35.5 206t99 163.5t148.5 108.5t184 40q111 0 192.5 -47t122.5 -119v141h283v-24q51 23 112.5 37t132.5 14q115 0 208 -37t160 -101.5t102.5 -152.5t35.5 -188q0 -33 -2 -54.5t-8 -62.5h-709q2 -92 51.5 -155.5t163.5 -63.5q84 0 126 32.5t59 79.5h307 q-12 -72 -51 -133t-101.5 -106t-146.5 -72t-186 -27q-78 0 -139.5 14.5t-114.5 39.5v-27h-283v139q-37 -68 -119 -116t-196 -48q-98 0 -183.5 40t-149 109t-99 164t-35.5 206zM383 494q0 -51 17.5 -97.5t48 -80t73.5 -54t96 -20.5t96.5 20.5t74 54t48 79.5t17.5 98 q0 51 -17.5 97t-48 81t-74.5 54t-96 19q-53 0 -96 -20t-73.5 -55t-48 -80t-17.5 -96zM1171 598h408q0 88 -55.5 141.5t-147.5 53.5q-86 0 -144 -50.5t-61 -144.5z" />
<glyph unicode="&#xe7;" horiz-adv-x="1177" d="M68 494q0 102 33.5 196t101 166t168 115t233.5 43q123 0 214 -35t153.5 -93.5t96.5 -133t40 -152.5h-313q-8 63 -53.5 105.5t-133.5 42.5q-61 0 -104 -20.5t-70.5 -55.5t-40 -81t-12.5 -97t13.5 -97.5t41 -81t72.5 -55t106 -20.5q80 0 121 33.5t62 97.5h313 q-12 -80 -46 -149.5t-92.5 -122t-139 -85t-187.5 -39.5v-63q10 10 29.5 21.5t54.5 11.5t66.5 -13.5t55 -38t37 -58.5t13.5 -73t-14.5 -75.5t-42 -66.5t-68.5 -47t-92 -17q-29 0 -65.5 7t-70.5 28.5t-59.5 57.5t-31.5 95h151q12 -59 70 -59q31 0 51.5 20.5t20.5 54.5 q0 35 -20.5 53.5t-51.5 18.5q-16 0 -32.5 -7t-27.5 -28h-133v187q-102 18 -181 65t-131 115.5t-78.5 152.5t-26.5 177z" />
<glyph unicode="&#xe8;" horiz-adv-x="1181" d="M70 494q0 109 33.5 203t100 164.5t163 111.5t221.5 41q119 0 214 -37t161.5 -101.5t102.5 -153.5t36 -192q0 -29 -2 -50t-8 -62h-707q0 -45 11.5 -85t36 -70t65.5 -47t100 -17q84 0 126 32.5t58 79.5h308q-12 -70 -50.5 -131t-99.5 -107t-146 -73t-192 -27 q-129 0 -228.5 40t-167 111t-102 166t-34.5 204zM305 1305l98 217l566 -262l-99 -218zM385 598h410q0 90 -56.5 142.5t-148.5 52.5q-88 0 -146.5 -50.5t-58.5 -144.5z" />
<glyph unicode="&#xe9;" horiz-adv-x="1181" d="M70 494q0 109 33.5 203t100 164.5t163 111.5t221.5 41q119 0 214 -37t161.5 -101.5t102.5 -153.5t36 -192q0 -29 -2 -50t-8 -62h-707q0 -45 11.5 -85t36 -70t65.5 -47t100 -17q84 0 126 32.5t58 79.5h308q-12 -70 -50.5 -131t-99.5 -107t-146 -73t-192 -27 q-129 0 -228.5 40t-167 111t-102 166t-34.5 204zM246 1260l565 262l98 -217l-565 -263zM385 598h410q0 90 -56.5 142.5t-148.5 52.5q-88 0 -146.5 -50.5t-58.5 -144.5z" />
<glyph unicode="&#xea;" horiz-adv-x="1181" d="M70 494q0 109 33.5 203t100 164.5t163 111.5t221.5 41q119 0 214 -37t161.5 -101.5t102.5 -153.5t36 -192q0 -29 -2 -50t-8 -62h-707q0 -45 11.5 -85t36 -70t65.5 -47t100 -17q84 0 126 32.5t58 79.5h308q-12 -70 -50.5 -131t-99.5 -107t-146 -73t-192 -27 q-129 0 -228.5 40t-167 111t-102 166t-34.5 204zM193 1245l399 322l403 -322l-161 -178l-240 190l-238 -190zM385 598h410q0 90 -56.5 142.5t-148.5 52.5q-88 0 -146.5 -50.5t-58.5 -144.5z" />
<glyph unicode="&#xeb;" horiz-adv-x="1181" d="M70 494q0 109 33.5 203t100 164.5t163 111.5t221.5 41q119 0 214 -37t161.5 -101.5t102.5 -153.5t36 -192q0 -29 -2 -50t-8 -62h-707q0 -45 11.5 -85t36 -70t65.5 -47t100 -17q84 0 126 32.5t58 79.5h308q-12 -70 -50.5 -131t-99.5 -107t-146 -73t-192 -27 q-129 0 -228.5 40t-167 111t-102 166t-34.5 204zM150 1290q0 80 55 136.5t137 56.5q41 0 77 -15.5t61.5 -41t41 -61.5t15.5 -75t-15.5 -73.5t-41 -60.5t-61.5 -41t-77 -15t-76 15t-61.5 41t-40.5 60.5t-14 73.5zM385 598h410q0 90 -56.5 142.5t-148.5 52.5 q-88 0 -146.5 -50.5t-58.5 -144.5zM641 1290q0 39 15.5 75t41 61.5t61.5 41t77 15.5q39 0 74.5 -15.5t61 -41t41 -61.5t15.5 -75t-14.5 -73.5t-41 -60.5t-61 -41t-75.5 -15t-77 15t-62.5 41t-41 60.5t-14.5 73.5z" />
<glyph unicode="&#xec;" horiz-adv-x="653" d="M-4 1331l98 217l565 -262l-98 -217zM170 0v987h313v-987h-313z" />
<glyph unicode="&#xed;" horiz-adv-x="653" d="M-4 1286l565 262l98 -217l-565 -262zM170 0v987h313v-987h-313z" />
<glyph unicode="&#xee;" horiz-adv-x="653" d="M-74 1245l400 322l403 -322l-162 -178l-239 190l-238 -190zM172 0v987h313v-987h-313z" />
<glyph unicode="&#xef;" horiz-adv-x="653" d="M-113 1290q0 39 15.5 75t41 61.5t61.5 41t77 15.5q39 0 75 -15.5t62.5 -41t41.5 -61.5t15 -75t-15 -73.5t-40.5 -60.5t-61.5 -41t-77 -15t-77 15t-62.5 41t-41 60.5t-14.5 73.5zM160 0v987h311v-987h-311zM381 1290q0 80 55.5 136.5t136.5 56.5q41 0 77 -15.5t61.5 -41 t41 -61.5t15.5 -75t-15.5 -73.5t-41 -60.5t-61.5 -41t-77 -15t-75.5 15t-61 41t-41 60.5t-14.5 73.5z" />
<glyph unicode="&#xf0;" horiz-adv-x="1220" d="M61 492q0 121 45.5 216t116 160.5t159.5 100.5t177 35l-45 69l-225 -102l-94 209l188 90l-125 198h373l43 -73l190 86l97 -207l-158 -76l266 -412q41 -66 64.5 -139.5t23.5 -159.5q0 -104 -38 -198t-108.5 -165t-172 -113t-230.5 -42q-127 0 -228 41t-172 113t-109 166 t-38 203zM375 489q0 -51 16.5 -97t47 -79.5t73.5 -54t96 -20.5t97.5 20.5t75 54t48 79.5t17.5 97t-17.5 97.5t-48 81t-74.5 54t-98 19.5q-53 0 -96 -19.5t-73.5 -54t-47 -80.5t-16.5 -98z" />
<glyph unicode="&#xf1;" horiz-adv-x="1243" d="M133 0v987h313v-143q41 80 125 124t201 44q102 0 168 -32t107 -81q47 -57 62 -132t15 -181v-586h-313v506q0 104 -38 171.5t-134 67.5q-98 0 -145.5 -67.5t-47.5 -181.5v-496h-313zM215 1382q92 55 137 66.5t64 11.5q33 0 80 -8t96 -19.5t94 -19.5t76 -8q12 0 23.5 2 t28.5 8t43 16.5t65 28.5l94 -182q-84 -66 -146.5 -79t-81.5 -13q-33 0 -76.5 8t-90 18.5t-88 18.5t-68.5 8q-35 0 -73 -13.5t-75 -29.5z" />
<glyph unicode="&#xf2;" horiz-adv-x="1226" d="M66 494q0 106 37.5 200t108.5 165t172 113t230 42t230.5 -42t172 -113t107.5 -165t37 -200t-37 -200.5t-107.5 -165.5t-172 -113t-230.5 -42t-230 42t-172 113t-108.5 165t-37.5 201zM301 1305l98 217l566 -262l-99 -218zM379 494q0 -53 16.5 -98.5t47 -80t73.5 -54 t96 -19.5t97.5 19.5t75 54t48 79.5t17.5 99q0 51 -17.5 97t-48 80t-74.5 54t-98 20q-53 0 -96 -20t-73.5 -54t-47 -80t-16.5 -97z" />
<glyph unicode="&#xf3;" horiz-adv-x="1226" d="M66 494q0 106 37.5 200t108.5 165t172 113t230 42t230.5 -42t172 -113t107.5 -165t37 -200t-37 -200.5t-107.5 -165.5t-172 -113t-230.5 -42t-230 42t-172 113t-108.5 165t-37.5 201zM233 1260l566 262l100 -217l-565 -263zM379 494q0 -53 16.5 -98.5t47 -80t73.5 -54 t96 -19.5t97.5 19.5t75 54t48 79.5t17.5 99q0 51 -17.5 97t-48 80t-74.5 54t-98 20q-53 0 -96 -20t-73.5 -54t-47 -80t-16.5 -97z" />
<glyph unicode="&#xf4;" horiz-adv-x="1226" d="M66 494q0 106 37.5 200t108.5 165t172 113t230 42t230.5 -42t172 -113t107.5 -165t37 -200t-37 -200.5t-107.5 -165.5t-172 -113t-230.5 -42t-230 42t-172 113t-108.5 165t-37.5 201zM213 1245l401 322l402 -322l-162 -178l-240 190l-237 -190zM379 494q0 -53 16.5 -98.5 t47 -80t73.5 -54t96 -19.5t97.5 19.5t75 54t48 79.5t17.5 99q0 51 -17.5 97t-48 80t-74.5 54t-98 20q-53 0 -96 -20t-73.5 -54t-47 -80t-16.5 -97z" />
<glyph unicode="&#xf5;" horiz-adv-x="1226" d="M66 494q0 106 37.5 200t108.5 165t172 113t230 42t230.5 -42t172 -113t107.5 -165t37 -200t-37 -200.5t-107.5 -165.5t-172 -113t-230.5 -42t-230 42t-172 113t-108.5 165t-37.5 201zM201 1356q92 55 138 66.5t64 11.5q33 0 79 -8.5t94.5 -19.5t93.5 -19.5t73 -8.5 q23 0 57 10.5t109 45.5l95 -183q-41 -33 -80 -51t-71 -27.5t-54.5 -11.5t-30.5 -2q-29 0 -72 8.5t-88 18.5t-88 18t-69 8q-35 0 -72 -13t-76 -30zM379 494q0 -53 16.5 -98.5t47 -80t73.5 -54t96 -19.5t97.5 19.5t75 54t48 79.5t17.5 99q0 51 -17.5 97t-48 80t-74.5 54 t-98 20q-53 0 -96 -20t-73.5 -54t-47 -80t-16.5 -97z" />
<glyph unicode="&#xf6;" horiz-adv-x="1226" d="M66 494q0 106 37.5 200t108.5 165t172 113t230 42t230.5 -42t172 -113t107.5 -165t37 -200t-37 -200.5t-107.5 -165.5t-172 -113t-230.5 -42t-230 42t-172 113t-108.5 165t-37.5 201zM170 1290q0 39 15.5 75t41 61.5t61.5 41t77 15.5q39 0 74.5 -15.5t61 -41t41 -61.5 t15.5 -75t-14.5 -73.5t-41 -60.5t-61 -41t-75.5 -15t-77 15t-62.5 41t-41 60.5t-14.5 73.5zM379 494q0 -53 16.5 -98.5t47 -80t73.5 -54t96 -19.5t97.5 19.5t75 54t48 79.5t17.5 99q0 51 -17.5 97t-48 80t-74.5 54t-98 20q-53 0 -96 -20t-73.5 -54t-47 -80t-16.5 -97z M664 1290q0 80 55 136.5t137 56.5q41 0 77 -15.5t61.5 -41t41 -61.5t15.5 -75t-15.5 -73.5t-41 -60.5t-61.5 -41t-77 -15t-76 15t-61.5 41t-40.5 60.5t-14 73.5z" />
<glyph unicode="&#xf7;" d="M190 389v250h875v-250h-875zM434 145q0 80 56.5 135.5t136.5 55.5q82 0 138 -55.5t56 -135.5q0 -39 -15 -73.5t-41 -60t-61.5 -41t-76.5 -15.5t-76 15.5t-60.5 41t-41 60t-15.5 73.5zM434 895q0 39 15.5 75t41 61.5t60.5 40.5t76 15t76.5 -15t61.5 -40.5t41 -61.5t15 -75 t-15 -74t-41 -60.5t-61.5 -40.5t-76.5 -15t-76 15t-60.5 40.5t-41 60.5t-15.5 74z" />
<glyph unicode="&#xf8;" horiz-adv-x="1226" d="M66 492q0 106 37.5 201t108.5 166t171 113t225 42q33 0 59.5 -3t53.5 -7l70 161l184 -78l-64 -149q121 -70 185.5 -186.5t64.5 -257.5q0 -106 -38 -200.5t-108.5 -165.5t-171 -113t-227.5 -42q-35 0 -61.5 3.5t-52.5 7.5l-68 -162l-186 84l61 143q-117 70 -180 186.5 t-63 256.5zM379 494q0 -96 51 -164l180 415q-106 -2 -168.5 -75.5t-62.5 -175.5zM612 242q53 0 97.5 19.5t75 54t48 80t17.5 98.5q0 98 -57 168z" />
<glyph unicode="&#xf9;" horiz-adv-x="1243" d="M121 401v586h311v-506q0 -106 38 -172.5t136 -66.5t144.5 67.5t46.5 182.5v495h313v-987h-313v141q-41 -78 -125 -122t-201 -44q-102 0 -167.5 32t-106.5 81q-47 57 -61.5 132t-14.5 181zM299 1305l98 217l566 -262l-99 -218z" />
<glyph unicode="&#xfa;" horiz-adv-x="1243" d="M121 401v586h311v-506q0 -106 38 -172.5t136 -66.5t144.5 67.5t46.5 182.5v495h313v-987h-313v141q-41 -78 -125 -122t-201 -44q-102 0 -167.5 32t-106.5 81q-47 57 -61.5 132t-14.5 181zM291 1260l565 262l98 -217l-565 -263z" />
<glyph unicode="&#xfb;" horiz-adv-x="1243" d="M121 401v586h311v-506q0 -106 38 -172.5t136 -66.5t144.5 67.5t46.5 182.5v495h313v-987h-313v141q-41 -78 -125 -122t-201 -44q-102 0 -167.5 32t-106.5 81q-47 57 -61.5 132t-14.5 181zM211 1260l399 321l404 -321l-162 -181l-240 193l-237 -191z" />
<glyph unicode="&#xfc;" horiz-adv-x="1243" d="M121 401v586h311v-506q0 -106 38 -172.5t136 -66.5t144.5 67.5t46.5 182.5v495h313v-987h-313v141q-41 -78 -125 -122t-201 -44q-102 0 -167.5 32t-106.5 81q-47 57 -61.5 132t-14.5 181zM170 1290q0 39 15.5 75t41 61.5t61.5 41t77 15.5q39 0 74.5 -15.5t62 -41 t42 -61.5t15.5 -75t-15.5 -73.5t-41 -60.5t-61 -41t-76.5 -15t-77 15t-62.5 41t-41 60.5t-14.5 73.5zM664 1290q0 80 55 136.5t137 56.5q41 0 77 -15.5t61.5 -41t41 -61.5t15.5 -75t-15.5 -73.5t-41 -60.5t-61.5 -41t-77 -15t-76 15t-61.5 41t-40.5 60.5t-14 73.5z" />
<glyph unicode="&#xfd;" horiz-adv-x="1259" d="M121 -76h307q2 -72 46 -119t149 -47q98 0 146 53.5t48 178.5v168q-41 -80 -125 -124t-200 -44q-102 0 -168 31.5t-107 80.5q-47 57 -61.5 132t-14.5 182v571h312v-506q0 -106 37.5 -172.5t136.5 -66.5q98 0 144 67.5t46 182.5v495h313v-981q0 -252 -119.5 -365.5 t-379.5 -113.5q-137 0 -233.5 28.5t-158 81t-90 126t-28.5 161.5zM297 1260l565 262l101 -217l-566 -263z" />
<glyph unicode="&#xfe;" horiz-adv-x="1294" d="M137 -446v1880h314v-588q41 72 122.5 119t192.5 47q98 0 183 -40t148.5 -108.5t99.5 -164t36 -205.5q0 -111 -36 -206t-99.5 -164t-148.5 -109t-183 -40q-115 0 -197 48.5t-118 115.5v-585h-314zM451 494q0 -51 17 -97.5t48 -80t74 -54t96 -20.5t96 20.5t74 54t48.5 79.5 t17.5 98q0 51 -17.5 96t-48.5 80t-74 55t-96 20t-96 -20t-74 -55t-48 -80t-17 -96z" />
<glyph unicode="&#xff;" horiz-adv-x="1273" d="M121 -76h307q2 -72 46 -119t149 -47q98 0 146 53.5t48 178.5v168q-41 -80 -125 -124t-200 -44q-102 0 -168 31.5t-107 80.5q-47 57 -61.5 132t-14.5 182v571h312v-506q0 -106 37.5 -172.5t136.5 -66.5q98 0 144 67.5t46 182.5v495h313v-981q0 -252 -119.5 -365.5 t-379.5 -113.5q-137 0 -233.5 28.5t-158 81t-90 126t-28.5 161.5zM223 1290q0 39 14.5 73t40 59.5t60.5 40t74 14.5t73.5 -14.5t60 -40t40 -59.5t14.5 -73t-14.5 -72.5t-40 -59t-60 -40t-73.5 -14.5t-74 14.5t-60.5 40t-40 59t-14.5 72.5zM717 1290q0 39 14 73t40 59.5 t59.5 40t72.5 14.5t74 -14.5t61.5 -40t41 -59.5t14.5 -73t-14.5 -72.5t-41 -59t-61.5 -40t-74 -14.5t-72.5 14.5t-59.5 40t-40 59t-14 72.5z" />
<glyph unicode="&#x100;" horiz-adv-x="1351" d="M8 0l512 1434h305l518 -1434h-360l-55 174h-510l-56 -174h-354zM295 1626v236h754v-236h-754zM498 434h348l-172 590z" />
<glyph unicode="&#x101;" horiz-adv-x="1300" d="M72 494q0 111 35.5 206t99 163.5t148.5 108.5t184 40q111 0 192.5 -47t122.5 -119v141h313v-987h-313v139q-37 -68 -119 -116t-196 -48q-98 0 -183.5 40t-149 109t-99 164t-35.5 206zM211 1174v233h754v-233h-754zM383 494q0 -51 17.5 -97.5t48 -80t73.5 -54t96 -20.5 t96.5 20.5t74 54t48 79.5t17.5 98q0 51 -17.5 96t-48 80t-73.5 55t-97 20q-53 0 -96 -20t-73.5 -55t-48 -80t-17.5 -96z" />
<glyph unicode="&#x102;" horiz-adv-x="1351" d="M8 0l512 1434h305l518 -1434h-360l-55 174h-510l-56 -174h-354zM219 1870h250q25 -53 73 -88t130 -35q86 0 135 36t72 87h251q-12 -80 -53 -145.5t-102.5 -111.5t-138 -70.5t-162.5 -24.5t-162 24.5t-136.5 70.5t-101.5 111.5t-55 145.5zM498 434h348l-172 590z" />
<glyph unicode="&#x103;" horiz-adv-x="1300" d="M72 494q0 111 35.5 206t99 163.5t148.5 108.5t184 40q111 0 192.5 -47t122.5 -119v141h313v-987h-313v139q-37 -68 -119 -116t-196 -48q-98 0 -183.5 40t-149 109t-99 164t-35.5 206zM143 1460h250q25 -53 73 -88t130 -35q86 0 135 36t72 87h252q-12 -80 -53 -145.5 t-102.5 -111.5t-138.5 -70.5t-163 -24.5t-162 24.5t-136 70.5t-101 111.5t-56 145.5zM383 494q0 -51 17.5 -97.5t48 -80t73.5 -54t96 -20.5t96.5 20.5t74 54t48 79.5t17.5 98q0 51 -17.5 96t-48 80t-73.5 55t-97 20q-53 0 -96 -20t-73.5 -55t-48 -80t-17.5 -96z" />
<glyph unicode="&#x104;" horiz-adv-x="1351" d="M8 0l512 1434h305l518 -1434h-161q-20 -14 -41 -29.5t-37.5 -34t-26.5 -42t-10 -54.5q0 -43 24.5 -75.5t73.5 -32.5q20 0 51 6t60 18l-4 -159q-41 -14 -88 -22.5t-99 -8.5q-139 0 -201.5 58.5t-62.5 139.5q0 66 40 121.5t122 114.5l-55 174h-510l-56 -174h-354zM498 434 h348l-172 590z" />
<glyph unicode="&#x105;" horiz-adv-x="1300" d="M72 494q0 111 35.5 206t99 163.5t148.5 108.5t184 40q111 0 192.5 -47t122.5 -119v141h313v-987h-112q-20 -14 -41 -29.5t-37 -34t-26.5 -42t-10.5 -54.5q0 -43 24.5 -75.5t73.5 -32.5q20 0 51 6t60 18l-4 -159q-41 -14 -88 -22.5t-99 -8.5q-139 0 -202.5 58.5 t-63.5 139.5q0 66 40 121.5t122 114.5v139q-37 -68 -119 -116t-196 -48q-98 0 -183.5 40t-149 109t-99 164t-35.5 206zM383 494q0 -51 17.5 -97.5t48 -80t73.5 -54t96 -20.5t96.5 20.5t74 54t48 79.5t17.5 98q0 51 -17.5 96t-48 80t-73.5 55t-97 20q-53 0 -96 -20t-73.5 -55 t-48 -80t-17.5 -96z" />
<glyph unicode="&#x106;" horiz-adv-x="1613" d="M66 717q0 147 50 283.5t147 241t239.5 166.5t326.5 62q158 0 284 -46t218 -126.5t147.5 -189.5t69.5 -231h-346q-12 63 -40.5 116.5t-76 93t-110 62t-141.5 22.5q-102 0 -182.5 -37.5t-135.5 -100t-84 -145.5t-29 -171q0 -94 32 -177t88.5 -144.5t136 -97.5t178.5 -36 q145 0 237 73t123 179h352q-20 -115 -78.5 -214t-149.5 -175t-215 -119t-273 -43q-180 0 -322.5 61.5t-242 165t-151.5 239.5t-52 288zM475 1731l565 262l99 -215l-566 -262z" />
<glyph unicode="&#x107;" horiz-adv-x="1177" d="M68 494q0 102 33.5 196t101 166t168 115t233.5 43q123 0 214 -35t153.5 -93.5t96.5 -133t40 -152.5h-313q-8 63 -53.5 105.5t-133.5 42.5q-61 0 -104 -20.5t-70.5 -55.5t-40 -81t-12.5 -97t13.5 -97.5t41 -81t72.5 -55t106 -20.5q80 0 121 33.5t62 97.5h313 q-10 -84 -48 -156t-101.5 -126t-153.5 -85t-203 -31q-133 0 -233.5 43t-168 115t-101 166t-33.5 197zM256 1260l565 262l99 -217l-566 -263z" />
<glyph unicode="&#x108;" horiz-adv-x="1613" d="M66 717q0 147 50 283.5t147 241t239.5 166.5t326.5 62q158 0 284 -46t218 -126.5t147.5 -189.5t69.5 -231h-346q-12 63 -40.5 116.5t-76 93t-110 62t-141.5 22.5q-102 0 -182.5 -37.5t-135.5 -100t-84 -145.5t-29 -171q0 -94 32 -177t88.5 -144.5t136 -97.5t178.5 -36 q145 0 237 73t123 179h352q-20 -115 -78.5 -214t-149.5 -175t-215 -119t-273 -43q-180 0 -322.5 61.5t-242 165t-151.5 239.5t-52 288zM418 1716l401 322l402 -322l-162 -180l-240 193l-237 -191z" />
<glyph unicode="&#x109;" horiz-adv-x="1177" d="M68 494q0 102 33.5 196t101 166t168 115t233.5 43q123 0 214 -35t153.5 -93.5t96.5 -133t40 -152.5h-313q-8 63 -53.5 105.5t-133.5 42.5q-61 0 -104 -20.5t-70.5 -55.5t-40 -81t-12.5 -97t13.5 -97.5t41 -81t72.5 -55t106 -20.5q80 0 121 33.5t62 97.5h313 q-10 -84 -48 -156t-101.5 -126t-153.5 -85t-203 -31q-133 0 -233.5 43t-168 115t-101 166t-33.5 197zM188 1245l402 322l401 -322l-164 -178l-237 190l-238 -190z" />
<glyph unicode="&#x10a;" horiz-adv-x="1613" d="M66 717q0 147 50 283.5t147 241t239.5 166.5t326.5 62q158 0 284 -46t218 -126.5t147.5 -189.5t69.5 -231h-346q-12 63 -40.5 116.5t-76 93t-110 62t-141.5 22.5q-102 0 -182.5 -37.5t-135.5 -100t-84 -145.5t-29 -171q0 -94 32 -177t88.5 -144.5t136 -97.5t178.5 -36 q145 0 237 73t123 179h352q-20 -115 -78.5 -214t-149.5 -175t-215 -119t-273 -43q-180 0 -322.5 61.5t-242 165t-151.5 239.5t-52 288zM625 1763q0 39 14 74t41 61.5t61.5 42t75.5 15.5t77 -15.5t61.5 -42t41 -61.5t15.5 -74t-15.5 -73.5t-41 -61t-61.5 -42t-77 -15.5 t-75.5 15.5t-61.5 42t-41 61t-14 73.5z" />
<glyph unicode="&#x10b;" horiz-adv-x="1177" d="M68 494q0 102 33.5 196t101 166t168 115t233.5 43q123 0 214 -35t153.5 -93.5t96.5 -133t40 -152.5h-313q-8 63 -53.5 105.5t-133.5 42.5q-61 0 -104 -20.5t-70.5 -55.5t-40 -81t-12.5 -97t13.5 -97.5t41 -81t72.5 -55t106 -20.5q80 0 121 33.5t62 97.5h313 q-10 -84 -48 -156t-101.5 -126t-153.5 -85t-203 -31q-133 0 -233.5 43t-168 115t-101 166t-33.5 197zM403 1288q0 39 15.5 75t41 61.5t61.5 41t77 15.5q39 0 75 -15.5t62.5 -41t42 -61.5t15.5 -75t-15.5 -73.5t-41 -60.5t-61.5 -41t-77 -15t-77 15t-62.5 41t-41 60.5 t-14.5 73.5z" />
<glyph unicode="&#x10c;" horiz-adv-x="1613" d="M66 717q0 147 50 283.5t147 241t239.5 166.5t326.5 62q158 0 284 -46t218 -126.5t147.5 -189.5t69.5 -231h-346q-12 63 -40.5 116.5t-76 93t-110 62t-141.5 22.5q-102 0 -182.5 -37.5t-135.5 -100t-84 -145.5t-29 -171q0 -94 32 -177t88.5 -144.5t136 -97.5t178.5 -36 q145 0 237 73t123 179h352q-20 -115 -78.5 -214t-149.5 -175t-215 -119t-273 -43q-180 0 -322.5 61.5t-242 165t-151.5 239.5t-52 288zM432 1841l150 178l223 -198l225 198l152 -178l-377 -321z" />
<glyph unicode="&#x10d;" horiz-adv-x="1177" d="M68 494q0 102 33.5 196t101 166t168 115t233.5 43q123 0 214 -35t153.5 -93.5t96.5 -133t40 -152.5h-313q-8 63 -53.5 105.5t-133.5 42.5q-61 0 -104 -20.5t-70.5 -55.5t-40 -81t-12.5 -97t13.5 -97.5t41 -81t72.5 -55t106 -20.5q80 0 121 33.5t62 97.5h313 q-10 -84 -48 -156t-101.5 -126t-153.5 -85t-203 -31q-133 0 -233.5 43t-168 115t-101 166t-33.5 197zM225 1389l148 178l225 -199l225 199l150 -178l-375 -322z" />
<glyph unicode="&#x10e;" horiz-adv-x="1474" d="M137 0v1434h527q178 0 316 -60.5t233.5 -161t145.5 -229.5t50 -266t-49 -266t-144.5 -229.5t-234.5 -161t-317 -60.5h-527zM336 1831l147 178l226 -199l225 199l149 -178l-374 -322zM469 287h178q100 0 179 35.5t133.5 96t83 137.5t28.5 161q0 82 -28.5 159.5t-83 138 t-133 96.5t-179.5 36h-178v-860z" />
<glyph unicode="&#x10f;" horiz-adv-x="1728" d="M72 494q0 111 35.5 206t99 163.5t148.5 108.5t184 40q111 0 192.5 -47t122.5 -119v588h313v-1434h-313v139q-37 -68 -119 -116t-196 -48q-98 0 -183.5 40t-149 109t-99 164t-35.5 206zM383 494q0 -51 17.5 -97.5t48 -80t73.5 -54t96 -20.5t96.5 20.5t74 54t48 79.5 t17.5 98q0 51 -17.5 96t-48 80t-73.5 55t-97 20q-53 0 -96 -20t-73.5 -55t-48 -80t-17.5 -96zM1294 1313q0 80 54.5 139t148.5 59q92 0 151.5 -69.5t59.5 -210.5q0 -182 -103.5 -278.5t-301.5 -96.5v121q63 0 105 14.5t71 36.5q53 43 59 107q-12 -12 -59 -13q-41 0 -75 15.5 t-58.5 41t-38 60.5t-13.5 74z" />
<glyph unicode="&#x110;" horiz-adv-x="1474" d="M-70 600v234h207v600h527q178 0 316 -60.5t233.5 -161t145.5 -229.5t50 -266t-49 -266t-144.5 -229.5t-234.5 -161t-317 -60.5h-527v600h-207zM469 287h178q100 0 179 35.5t133.5 96t83 137.5t28.5 161q0 82 -28.5 159.5t-83 138t-133 96.5t-179.5 36h-178v-313h215v-234 h-215v-313z" />
<glyph unicode="&#x111;" horiz-adv-x="1300" d="M72 494q0 111 35.5 206t99 163.5t148.5 108.5t184 40q111 0 192.5 -47t122.5 -119v201h-141v249h141v138h313v-138h84v-249h-84v-1047h-313v139q-37 -68 -119 -116t-196 -48q-98 0 -183.5 40t-149 109t-99 164t-35.5 206zM383 494q0 -51 17.5 -97.5t48 -80t73.5 -54 t96 -20.5t96.5 20.5t74 54t48 79.5t17.5 98q0 51 -17.5 96t-48 80t-73.5 55t-97 20q-53 0 -96 -20t-73.5 -55t-48 -80t-17.5 -96z" />
<glyph unicode="&#x112;" horiz-adv-x="1136" d="M137 0v1434h875v-267h-543v-325h543v-260h-543v-316h543v-266h-875zM193 1626v236h753v-236h-753z" />
<glyph unicode="&#x113;" horiz-adv-x="1181" d="M70 494q0 109 33.5 203t100 164.5t163 111.5t221.5 41q119 0 214 -37t161.5 -101.5t102.5 -153.5t36 -192q0 -29 -2 -50t-8 -62h-707q0 -45 11.5 -85t36 -70t65.5 -47t100 -17q84 0 126 32.5t58 79.5h308q-12 -70 -50.5 -131t-99.5 -107t-146 -73t-192 -27 q-129 0 -228.5 40t-167 111t-102 166t-34.5 204zM215 1223v235h754v-235h-754zM385 598h410q0 90 -56.5 142.5t-148.5 52.5q-88 0 -146.5 -50.5t-58.5 -144.5z" />
<glyph unicode="&#x114;" horiz-adv-x="1136" d="M113 1870h252q25 -55 72.5 -90t129.5 -35q90 0 137.5 39t67.5 86h254q-12 -80 -53 -145.5t-102.5 -111.5t-139.5 -70.5t-162 -24.5q-86 0 -161.5 24.5t-137 70.5t-102.5 111.5t-55 145.5zM137 0v1434h875v-267h-543v-325h543v-260h-543v-316h543v-266h-875z" />
<glyph unicode="&#x115;" horiz-adv-x="1181" d="M70 494q0 109 33.5 203t100 164.5t163 111.5t221.5 41q119 0 214 -37t161.5 -101.5t102.5 -153.5t36 -192q0 -29 -2 -50t-8 -62h-707q0 -45 11.5 -85t36 -70t65.5 -47t100 -17q84 0 126 32.5t58 79.5h308q-12 -70 -50.5 -131t-99.5 -107t-146 -73t-192 -27 q-129 0 -228.5 40t-167 111t-102 166t-34.5 204zM135 1460h252q23 -53 72 -88t131 -35q90 0 137 38t68 85h252q-12 -80 -52.5 -145.5t-102 -111.5t-139 -70.5t-161.5 -24.5q-86 0 -162 24.5t-137.5 70.5t-102 111.5t-55.5 145.5zM385 598h410q0 90 -56.5 142.5t-148.5 52.5 q-88 0 -146.5 -50.5t-58.5 -144.5z" />
<glyph unicode="&#x116;" horiz-adv-x="1136" d="M137 0v1434h875v-267h-543v-325h543v-260h-543v-316h543v-266h-875zM375 1763q0 39 14 74t41 61.5t61.5 42t75.5 15.5t77 -15.5t61.5 -42t41 -61.5t15.5 -74t-15.5 -73.5t-41 -61t-61.5 -42t-77 -15.5t-75.5 15.5t-61.5 42t-41 61t-14 73.5z" />
<glyph unicode="&#x117;" horiz-adv-x="1181" d="M70 494q0 109 33.5 203t100 164.5t163 111.5t221.5 41q119 0 214 -37t161.5 -101.5t102.5 -153.5t36 -192q0 -29 -2 -50t-8 -62h-707q0 -45 11.5 -85t36 -70t65.5 -47t100 -17q84 0 126 32.5t58 79.5h308q-12 -70 -50.5 -131t-99.5 -107t-146 -73t-192 -27 q-129 0 -228.5 40t-167 111t-102 166t-34.5 204zM385 598h410q0 90 -56.5 142.5t-148.5 52.5q-88 0 -146.5 -50.5t-58.5 -144.5zM397 1288q0 80 55.5 136.5t137.5 56.5q41 0 76.5 -15.5t61.5 -41t41 -61.5t15 -75t-15 -73.5t-41 -60.5t-61.5 -41t-76.5 -15t-76 15t-61.5 41 t-41 60.5t-14.5 73.5z" />
<glyph unicode="&#x118;" horiz-adv-x="1136" d="M137 0v1434h875v-267h-543v-325h543v-260h-543v-316h543v-266q-20 -14 -41 -29.5t-37 -34t-26.5 -42t-10.5 -54.5q0 -43 24.5 -75.5t73.5 -32.5q20 0 51 6t60 18l-4 -159q-41 -14 -88 -22.5t-99 -8.5q-139 0 -201.5 58.5t-62.5 139.5q0 66 40 121.5t122 114.5h-676z" />
<glyph unicode="&#x119;" horiz-adv-x="1181" d="M70 494q0 109 33.5 203t100 164.5t163 111.5t221.5 41q119 0 214 -37t161.5 -101.5t102.5 -153.5t36 -192q0 -29 -2 -50t-8 -62h-707q0 -45 11.5 -85t36 -70t65.5 -47t100 -17q84 0 126 32.5t58 79.5h308q-23 -125 -125.5 -218t-276.5 -113q-33 -25 -58.5 -58t-25.5 -82 q0 -43 24.5 -75.5t73.5 -32.5q20 0 51 6t60 18l-4 -159q-41 -14 -88 -22.5t-98 -8.5q-139 0 -202 58.5t-63 139.5q0 61 33 112.5t103 105.5q-104 16 -183.5 61t-132.5 112.5t-80.5 153.5t-27.5 185zM385 598h410q0 90 -56.5 142.5t-148.5 52.5q-88 0 -146.5 -50.5 t-58.5 -144.5z" />
<glyph unicode="&#x11a;" horiz-adv-x="1136" d="M137 0v1434h875v-267h-543v-325h543v-260h-543v-316h543v-266h-875zM195 1831l147 178l225 -199l226 199l149 -178l-375 -322z" />
<glyph unicode="&#x11b;" horiz-adv-x="1181" d="M70 494q0 109 33.5 203t100 164.5t163 111.5t221.5 41q119 0 214 -37t161.5 -101.5t102.5 -153.5t36 -192q0 -29 -2 -50t-8 -62h-707q0 -45 11.5 -85t36 -70t65.5 -47t100 -17q84 0 126 32.5t58 79.5h308q-12 -70 -50.5 -131t-99.5 -107t-146 -73t-192 -27 q-129 0 -228.5 40t-167 111t-102 166t-34.5 204zM215 1389l150 178l223 -199l225 199l152 -178l-377 -322zM385 598h410q0 90 -56.5 142.5t-148.5 52.5q-88 0 -146.5 -50.5t-58.5 -144.5z" />
<glyph unicode="&#x11c;" horiz-adv-x="1710" d="M66 709q0 152 51 290t148 242.5t236.5 166.5t315.5 62q141 0 259 -39.5t204 -108.5t137 -160t62 -193h-355q-8 41 -31.5 79.5t-63.5 68.5t-93 48.5t-121 18.5q-98 0 -175 -39t-129 -104.5t-78.5 -151.5t-26.5 -178q0 -94 27.5 -178t81.5 -149t135 -102.5t188 -37.5 q80 0 140 21.5t103 57t69 84t36 103.5h-254v248h743v-248h-147q-23 -125 -80 -226.5t-147.5 -172t-210 -109.5t-263.5 -39q-184 0 -326.5 61.5t-239.5 164t-146 237.5t-49 283zM416 1694l401 321l402 -321l-162 -181l-240 193l-237 -190z" />
<glyph unicode="&#x11d;" horiz-adv-x="1296" d="M72 496q0 111 34.5 205t97 162.5t148.5 108.5t189 40q104 0 187 -42t128 -124v141h313v-981q0 -254 -133 -366.5t-405 -112.5q-152 0 -255.5 31.5t-167 85t-92 126t-32.5 154.5h313q8 -66 60.5 -116t163.5 -50q102 0 168.5 54.5t66.5 175.5v155q-39 -63 -118 -108 t-195 -45q-100 0 -186.5 36.5t-150 104.5t-99 161t-35.5 204zM209 1245l401 322l402 -322l-164 -178l-238 190l-237 -190zM385 494q0 -51 17.5 -97.5t48 -80t73.5 -54t97 -20.5q51 0 95 19.5t74.5 54t48 79.5t17.5 99q0 51 -17.5 96t-48 80t-73.5 55t-96 20t-97.5 -20 t-75 -55t-47 -81t-16.5 -95z" />
<glyph unicode="&#x11e;" horiz-adv-x="1710" d="M66 709q0 152 51 290t148 242.5t236.5 166.5t315.5 62q141 0 259 -39.5t204 -108.5t137 -160t62 -193h-355q-8 41 -31.5 79.5t-63.5 68.5t-93 48.5t-121 18.5q-98 0 -175 -39t-129 -104.5t-78.5 -151.5t-26.5 -178q0 -94 27.5 -178t81.5 -149t135 -102.5t188 -37.5 q80 0 140 21.5t103 57t69 84t36 103.5h-254v248h743v-248h-147q-23 -125 -80 -226.5t-147.5 -172t-210 -109.5t-263.5 -39q-184 0 -326.5 61.5t-239.5 164t-146 237.5t-49 283zM360 1872h252q23 -55 72 -90t131 -35q90 0 137 39t68 86h252q-12 -80 -52 -145.5t-101.5 -111.5 t-139.5 -70.5t-162 -24.5q-86 0 -161.5 24.5t-137 70.5t-102.5 111.5t-56 145.5z" />
<glyph unicode="&#x11f;" horiz-adv-x="1296" d="M72 496q0 111 34.5 205t97 162.5t148.5 108.5t189 40q104 0 187 -42t128 -124v141h313v-981q0 -254 -133 -366.5t-405 -112.5q-152 0 -255.5 31.5t-167 85t-92 126t-32.5 154.5h313q8 -66 60.5 -116t163.5 -50q102 0 168.5 54.5t66.5 175.5v155q-39 -63 -118 -108 t-195 -45q-100 0 -186.5 36.5t-150 104.5t-99 161t-35.5 204zM158 1460h250q25 -53 72.5 -88t129.5 -35q86 0 135.5 36t71.5 87h252q-12 -80 -53 -145.5t-102.5 -111.5t-138.5 -70.5t-163 -24.5t-161.5 24.5t-136 70.5t-101.5 111.5t-55 145.5zM385 494q0 -51 17.5 -97.5 t48 -80t73.5 -54t97 -20.5q51 0 95 19.5t74.5 54t48 79.5t17.5 99q0 51 -17.5 96t-48 80t-73.5 55t-96 20t-97.5 -20t-75 -55t-47 -81t-16.5 -95z" />
<glyph unicode="&#x120;" horiz-adv-x="1710" d="M66 709q0 152 51 290t148 242.5t236.5 166.5t315.5 62q141 0 259 -39.5t204 -108.5t137 -160t62 -193h-355q-8 41 -31.5 79.5t-63.5 68.5t-93 48.5t-121 18.5q-98 0 -175 -39t-129 -104.5t-78.5 -151.5t-26.5 -178q0 -94 27.5 -178t81.5 -149t135 -102.5t188 -37.5 q80 0 140 21.5t103 57t69 84t36 103.5h-254v248h743v-248h-147q-23 -125 -80 -226.5t-147.5 -172t-210 -109.5t-263.5 -39q-184 0 -326.5 61.5t-239.5 164t-146 237.5t-49 283zM625 1763q0 39 14 74t41 61.5t61.5 42t75.5 15.5t77 -15.5t61.5 -42t41 -61.5t15.5 -74 t-15.5 -73.5t-41 -61t-61.5 -42t-77 -15.5t-75.5 15.5t-61.5 42t-41 61t-14 73.5z" />
<glyph unicode="&#x121;" horiz-adv-x="1296" d="M72 496q0 111 34.5 205t97 162.5t148.5 108.5t189 40q104 0 187 -42t128 -124v141h313v-981q0 -254 -133 -366.5t-405 -112.5q-152 0 -255.5 31.5t-167 85t-92 126t-32.5 154.5h313q8 -66 60.5 -116t163.5 -50q102 0 168.5 54.5t66.5 175.5v155q-39 -63 -118 -108 t-195 -45q-100 0 -186.5 36.5t-150 104.5t-99 161t-35.5 204zM385 494q0 -51 17.5 -97.5t48 -80t73.5 -54t97 -20.5q51 0 95 19.5t74.5 54t48 79.5t17.5 99q0 51 -17.5 96t-48 80t-73.5 55t-96 20t-97.5 -20t-75 -55t-47 -81t-16.5 -95zM408 1288q0 39 15 74t40.5 61.5 t61.5 42t77 15.5t77 -15.5t61.5 -42t41 -61.5t15.5 -74t-15.5 -73.5t-41 -61.5t-61.5 -42t-77 -15t-77 15t-61.5 41t-40.5 60.5t-15 75.5z" />
<glyph unicode="&#x122;" horiz-adv-x="1710" d="M66 709q0 152 51 290t148 242.5t236.5 166.5t315.5 62q141 0 259 -39.5t204 -108.5t137 -160t62 -193h-355q-8 41 -31.5 79.5t-63.5 68.5t-93 48.5t-121 18.5q-98 0 -175 -39t-129 -104.5t-78.5 -151.5t-26.5 -178q0 -94 27.5 -178t81.5 -149t135 -102.5t188 -37.5 q80 0 140 21.5t103 57t69 84t36 103.5h-254v248h743v-248h-147q-23 -125 -80 -226.5t-147.5 -172t-210 -109.5t-263.5 -39q-184 0 -326.5 61.5t-239.5 164t-146 237.5t-49 283zM666 -211q0 66 45 112t116 46q74 0 122 -55.5t48 -170.5q0 -152 -87 -226.5t-236 -74.5v99 q49 0 84 11t57 30q23 18 33 40.5t14 45.5q-4 -4 -15 -8.5t-34 -4.5q-61 0 -104 45t-43 111z" />
<glyph unicode="&#x123;" horiz-adv-x="1296" d="M72 496q0 111 34.5 205t97 162.5t148.5 108.5t189 40q104 0 187 -42t128 -124v141h313v-981q0 -254 -133 -366.5t-405 -112.5q-152 0 -255.5 31.5t-167 85t-92 126t-32.5 154.5h313q8 -66 60.5 -116t163.5 -50q102 0 168.5 54.5t66.5 175.5v155q-39 -63 -118 -108 t-195 -45q-100 0 -186.5 36.5t-150 104.5t-99 161t-35.5 204zM385 494q0 -51 17.5 -97.5t48 -80t74 -54t96.5 -20.5q51 0 95 19.5t74.5 54t48 79.5t17.5 99q0 51 -17.5 96t-48 80t-73.5 55t-96 20t-97.5 -20t-75 -55t-47 -81t-16.5 -95zM401 1360q0 180 101.5 266t277.5 86 v-115q-59 0 -99 -12t-67 -35t-39 -48t-16 -54q4 4 18.5 9t36.5 5q76 0 126.5 -53t50.5 -127t-51.5 -130t-139.5 -56t-143.5 64.5t-55.5 199.5z" />
<glyph unicode="&#x124;" horiz-adv-x="1431" d="M137 0v1434h332v-580h496v580h329v-1434h-329v569h-496v-569h-332zM313 1690l402 321l401 -321l-162 -181l-239 193l-238 -191z" />
<glyph unicode="&#x125;" horiz-adv-x="1222" d="M133 0v1434h303v-590q41 78 123 123t199 45q96 0 160.5 -30t105.5 -83q47 -57 63.5 -133t16.5 -182v-584h-303v506q0 104 -38 171.5t-134 67.5q-98 0 -145.5 -67.5t-47.5 -181.5v-496h-303zM244 1688l401 321l402 -321l-162 -181l-240 193l-237 -191z" />
<glyph unicode="&#x126;" horiz-adv-x="1431" d="M137 0v1434h332v-179h496v179h329v-1434h-329v569h-496v-569h-332zM469 854h496v166h-496v-166z" />
<glyph unicode="&#x127;" horiz-adv-x="1222" d="M0 1047v249h133v138h303v-138h273v-249h-273v-203q41 78 123 123t199 45q96 0 160.5 -30t105.5 -83q47 -57 63.5 -133t16.5 -182v-584h-303v506q0 104 -38 171.5t-134 67.5q-98 0 -145.5 -67.5t-47.5 -181.5v-496h-303v1047h-133z" />
<glyph unicode="&#x128;" horiz-adv-x="610" d="M-96 1784q92 55 138 66.5t64 11.5q33 0 80 -8.5t95.5 -19.5t93.5 -19.5t76 -8.5q12 0 24 2t29.5 8.5t43 16.5t64.5 29l95 -183q-84 -66 -146.5 -79t-81.5 -13q-33 0 -77 8.5t-90 18.5t-89 18t-69 8q-35 0 -72 -13t-74 -30zM137 0v1434h336v-1434h-336z" />
<glyph unicode="&#x129;" horiz-adv-x="653" d="M-74 1343q92 55 138.5 66.5t64.5 11.5q33 0 79 -8t94 -19.5t93 -19.5t74 -8q23 0 56.5 10t109.5 45l94 -184q-41 -33 -80 -51.5t-70.5 -27.5t-54 -11t-30.5 -2q-29 0 -72 8t-88 18.5t-88 18.5t-70 8q-35 0 -71.5 -13.5t-75.5 -29.5zM170 0v987h313v-987h-313z" />
<glyph unicode="&#x12a;" horiz-adv-x="610" d="M-70 1626v236h754v-236h-754zM137 0v1434h336v-1434h-336z" />
<glyph unicode="&#x12b;" horiz-adv-x="653" d="M-49 1171v236h754v-236h-754zM172 0v987h313v-987h-313z" />
<glyph unicode="&#x12c;" horiz-adv-x="610" d="M-150 1870h252q23 -53 72 -88t131 -35q90 0 137 38t68 85h252q-12 -80 -52 -145.5t-101.5 -111.5t-139.5 -70.5t-162 -24.5q-86 0 -161.5 24.5t-137 70.5t-102.5 111.5t-56 145.5zM137 0v1434h336v-1434h-336z" />
<glyph unicode="&#x12d;" horiz-adv-x="653" d="M-129 1460h252q25 -53 73 -88t130 -35q90 0 137 38t67 85h254q-12 -80 -53 -145.5t-102.5 -111.5t-139 -70.5t-161.5 -24.5q-86 0 -162 24.5t-137.5 70.5t-102.5 111.5t-55 145.5zM172 0v987h313v-987h-313z" />
<glyph unicode="&#x12e;" horiz-adv-x="610" d="M-25 -236q0 66 40 121.5t122 114.5v1434h336v-1434h-135q-20 -14 -41 -29.5t-37 -34t-26.5 -42t-10.5 -54.5q0 -43 24.5 -75.5t74.5 -32.5q20 0 50.5 6t59.5 18q-2 -39 -3 -78.5t-1 -80.5q-41 -14 -88 -22.5t-98 -8.5q-139 0 -203 58.5t-64 139.5z" />
<glyph unicode="&#x12f;" horiz-adv-x="653" d="M68 -236q0 66 39.5 121.5t121.5 114.5v987h312v-987h-113q-20 -14 -40.5 -29.5t-37 -34t-27 -42t-10.5 -54.5q0 -43 24.5 -75.5t74.5 -32.5q20 0 51 6t59 18l-4 -159q-41 -14 -88 -22.5t-98 -8.5q-139 0 -201.5 58.5t-62.5 139.5zM184 1315q0 84 57.5 141t143.5 57 q84 0 142.5 -57t58.5 -141q0 -41 -15.5 -77t-43 -63.5t-63.5 -43t-79 -15.5t-80 15.5t-63.5 43t-42 63.5t-15.5 77z" />
<glyph unicode="&#x130;" horiz-adv-x="610" d="M111 1763q0 39 15 75t41 61.5t61.5 41t76.5 15.5q39 0 75 -15.5t62.5 -41t42 -61.5t15.5 -75t-15.5 -73.5t-41 -60t-61.5 -41t-77 -15.5t-76.5 15.5t-62.5 41t-41 60t-14 73.5zM137 0v1434h336v-1434h-336z" />
<glyph unicode="&#x131;" horiz-adv-x="528" d="M109 0v987h313v-987h-313z" />
<glyph unicode="&#x132;" horiz-adv-x="1804" d="M137 0v1434h336v-1434h-336zM635 496h332q0 -106 47 -176t145 -70q92 0 142.5 64.5t50.5 179.5v940h331v-940q0 -256 -139 -392.5t-381 -136.5q-133 0 -232.5 41t-165 112.5t-98 168t-32.5 209.5z" />
<glyph unicode="&#x133;" horiz-adv-x="1314" d="M125 1315q0 84 57.5 141t143.5 57q43 0 79.5 -15t64.5 -41.5t43 -63.5t15 -78t-15 -77t-43 -63.5t-64.5 -43t-79.5 -15.5t-79 15.5t-63.5 43t-43 63.5t-15.5 77zM170 0v987h313v-987h-313zM670 -213q29 -8 46 -10t29 -2q45 0 67 21.5t22 76.5v1114h311v-1141 q0 -98 -21.5 -159.5t-58.5 -96t-86 -48t-105 -13.5q-27 0 -56.5 2t-57 5t-52 8t-38.5 10v233zM788 1315q0 84 57.5 141t143.5 57q84 0 142.5 -57t58.5 -141q0 -41 -15.5 -77t-43 -63.5t-63.5 -43t-79 -15.5t-80 15.5t-63.5 43t-42 63.5t-15.5 77z" />
<glyph unicode="&#x134;" horiz-adv-x="1193" d="M25 496h331q0 -106 47.5 -176t145.5 -70q92 0 142 64.5t50 179.5v940h330v-940q0 -256 -139 -392.5t-379 -136.5q-133 0 -232.5 41t-165 112.5t-98 168t-32.5 209.5zM504 1688l401 321l402 -321l-162 -179l-240 191l-237 -191z" />
<glyph unicode="&#x135;" horiz-adv-x="659" d="M-66 1323l402 322l401 -322l-164 -178l-237 190l-238 -190zM16 -213q29 -8 45.5 -10t30.5 -2q45 0 65.5 21.5t20.5 76.5v1114h314v-1141q0 -98 -21.5 -159.5t-58.5 -96t-86.5 -48t-104.5 -13.5q-27 0 -56.5 2t-57 5t-52 8t-39.5 10v233z" />
<glyph unicode="&#x136;" horiz-adv-x="1349" d="M137 0v1434h332v-609l463 609h399l-567 -717l567 -717h-399l-463 606v-606h-332zM518 -190q0 66 45 111.5t117 45.5q74 0 122 -55t48 -170q0 -152 -87 -226.5t-237 -74.5v98q49 0 84 11.5t58 29.5t33 41t14 45q-4 -4 -15.5 -8t-33.5 -4q-63 0 -105.5 45t-42.5 111z" />
<glyph unicode="&#x137;" horiz-adv-x="1134" d="M133 0v1434h313v-865l306 418h372l-385 -493l383 -494h-372l-304 414v-414h-313zM403 -190q0 66 45.5 111.5t116.5 45.5q72 0 121 -55t49 -170q0 -150 -87 -225.5t-238 -75.5v98q51 0 84.5 11.5t56.5 29.5q23 16 34 40t13 46q-4 -4 -14.5 -8t-32.5 -4q-63 0 -105.5 45 t-42.5 111z" />
<glyph unicode="&#x138;" horiz-adv-x="1134" d="M133 0v987h313v-418l306 418h372l-385 -493l383 -494h-372l-304 414v-414h-313z" />
<glyph unicode="&#x139;" horiz-adv-x="927" d="M-27 1733l566 262l98 -217l-565 -262zM137 0v1434h332v-1147h408v-287h-740z" />
<glyph unicode="&#x13a;" horiz-adv-x="579" d="M-41 1747l565 262l99 -217l-566 -262zM133 0v1434h313v-1434h-313z" />
<glyph unicode="&#x13b;" horiz-adv-x="927" d="M137 0v1434h332v-1147h408v-287h-740zM297 -190q0 66 45 111.5t117 45.5q74 0 122 -55t48 -170q0 -152 -87 -226.5t-237 -74.5v98q49 0 84 11.5t57 29.5q23 18 33 41t15 45q-4 -4 -15.5 -8t-34.5 -4q-61 0 -104 45t-43 111z" />
<glyph unicode="&#x13c;" horiz-adv-x="579" d="M125 -190q0 66 45 111.5t117 45.5t121 -55t49 -170q0 -150 -87 -225.5t-239 -75.5v98q51 0 85 11.5t56 29.5q23 16 34 40t13 46q-4 -4 -14 -8t-33 -4q-63 0 -105 45t-42 111zM133 0v1434h313v-1434h-313z" />
<glyph unicode="&#x13d;" horiz-adv-x="927" d="M-74 1831l150 178l223 -199l225 199l152 -178l-377 -322zM137 0v1434h332v-1147h408v-287h-740z" />
<glyph unicode="&#x13e;" horiz-adv-x="1007" d="M133 0v1434h313v-1434h-313zM573 1317q0 80 54.5 139.5t148.5 59.5q92 0 151.5 -70t59.5 -211q0 -182 -103.5 -278.5t-301.5 -96.5v121q63 0 105 14.5t71 36.5q53 43 59 107q-12 -12 -59 -13q-41 0 -75 15.5t-58.5 41t-38 60.5t-13.5 74z" />
<glyph unicode="&#x13f;" horiz-adv-x="978" d="M137 0v1434h332v-1147h408v-287h-740zM584 676q0 43 16 80t44 64.5t66 44t81 16.5t81.5 -16.5t66.5 -44t44 -64.5t16 -80t-16 -80t-44 -64.5t-66.5 -44t-81.5 -16.5t-81 16.5t-66 44t-44 64.5t-16 80z" />
<glyph unicode="&#x140;" horiz-adv-x="948" d="M133 0v1434h313v-1434h-313zM520 639q0 43 16.5 80t44 64.5t65.5 44t81 16.5t81 -16.5t65.5 -44t44 -64.5t16.5 -80t-16.5 -80t-44 -64.5t-65.5 -44t-81 -16.5t-81 16.5t-65.5 44t-44 64.5t-16.5 80z" />
<glyph unicode="&#x141;" horiz-adv-x="933" d="M57 479v252l86 33v670h332v-547l281 112v-251l-281 -113v-348h408v-287h-740v512z" />
<glyph unicode="&#x142;" horiz-adv-x="593" d="M6 479v252l129 60v643h336v-498l135 63v-251l-135 -64v-684h-336v539z" />
<glyph unicode="&#x143;" horiz-adv-x="1468" d="M137 0v1434h346l518 -934v934h330v-1434h-346l-516 922v-922h-332zM401 1733l566 262l98 -217l-565 -262z" />
<glyph unicode="&#x144;" horiz-adv-x="1243" d="M133 0v987h313v-143q41 80 125 124t201 44q102 0 168 -32t107 -81q47 -57 62 -132t15 -181v-586h-313v506q0 104 -38 171.5t-134 67.5q-98 0 -145.5 -67.5t-47.5 -181.5v-496h-313zM289 1260l565 262l100 -217l-565 -263z" />
<glyph unicode="&#x145;" horiz-adv-x="1468" d="M137 0v1434h346l518 -934v934h330v-1434h-346l-516 922v-922h-332zM567 -190q0 66 45 111.5t117 45.5q74 0 122 -55t48 -170q0 -152 -87 -226.5t-237 -74.5v98q49 0 84 11.5t58 29.5t33 41t14 45q-4 -4 -15.5 -8t-33.5 -4q-61 0 -104.5 45t-43.5 111z" />
<glyph unicode="&#x146;" horiz-adv-x="1243" d="M133 0v987h313v-143q41 80 125 124t201 44q102 0 168 -32t107 -81q47 -57 62 -132t15 -181v-586h-313v506q0 104 -38 171.5t-134 67.5q-98 0 -145.5 -67.5t-47.5 -181.5v-496h-313zM477 -190q0 66 45 111.5t117 45.5t121 -55t49 -170q0 -150 -87 -225.5t-239 -75.5v98 q51 0 85 11.5t57 29.5q23 16 34 40t13 46q-4 -4 -14.5 -8t-32.5 -4q-63 0 -105.5 45t-42.5 111z" />
<glyph unicode="&#x147;" horiz-adv-x="1468" d="M137 0v1434h346l518 -934v934h330v-1434h-346l-516 922v-922h-332zM360 1831l150 178l223 -199l225 199l150 -178l-375 -322z" />
<glyph unicode="&#x148;" horiz-adv-x="1243" d="M133 0v987h313v-143q41 80 125 124t201 44q102 0 168 -32t107 -81q47 -57 62 -132t15 -181v-586h-313v506q0 104 -38 171.5t-134 67.5q-98 0 -145.5 -67.5t-47.5 -181.5v-496h-313zM268 1464l148 181l225 -201l225 201l150 -181l-375 -321z" />
<glyph unicode="&#x149;" horiz-adv-x="1243" d="M113 1470q0 70 48 119t126 49t129 -59t51 -180q0 -156 -90 -239t-256 -83v107q53 0 90 11t61 30q45 39 52 92q-4 -4 -16.5 -8t-35.5 -4q-68 0 -113.5 47.5t-45.5 117.5zM133 0v987h313v-143q41 80 125 124t201 44q102 0 168 -32t107 -81q47 -57 62 -132t15 -181v-586 h-313v506q0 104 -38 171.5t-134 67.5q-98 0 -145.5 -67.5t-47.5 -181.5v-496h-313z" />
<glyph unicode="&#x14a;" horiz-adv-x="1468" d="M137 0v1434h332l532 -934v934h330v-1409q0 -127 -37 -225.5t-103.5 -165t-160.5 -101.5t-209 -35q-127 0 -210 41t-150 115l192 205q39 -35 72 -56.5t84 -21.5q45 0 80 17.5t59.5 48t36.5 70.5t12 85l-528 920v-922h-332z" />
<glyph unicode="&#x14b;" horiz-adv-x="1243" d="M133 0v987h313v-143q41 80 125 124t201 44q102 0 168 -32t107 -81q47 -57 62 -132t15 -181v-611q0 -217 -111.5 -332.5t-307.5 -115.5q-109 0 -184 33.5t-132 89.5l121 194q31 -29 59.5 -47t73.5 -18q84 0 126 58.5t42 150.5v518q0 104 -38 171.5t-134 67.5 q-98 0 -145.5 -67.5t-47.5 -181.5v-496h-313z" />
<glyph unicode="&#x14c;" horiz-adv-x="1648" d="M66 717q0 147 51 283.5t149.5 241t239.5 166.5t319 62t318.5 -62t239 -166.5t149.5 -241t51 -283.5t-51 -283.5t-149.5 -241t-239 -167t-318.5 -62.5t-319 62.5t-239.5 167t-149.5 240.5t-51 284zM406 717q0 -88 28.5 -170t82.5 -145.5t132 -101.5t176 -38t176 38 t132.5 101.5t83 145.5t28.5 170t-28.5 170t-83 145.5t-132 101t-176.5 37.5q-98 0 -176 -37.5t-132 -101t-82.5 -145.5t-28.5 -170zM449 1626v236h753v-236h-753z" />
<glyph unicode="&#x14d;" horiz-adv-x="1226" d="M66 494q0 106 37.5 200t108.5 165t172 113t230 42t230.5 -42t172 -113t107.5 -165t37 -200t-37 -200.5t-107.5 -165.5t-172 -113t-230.5 -42t-230 42t-172 113t-108.5 165t-37.5 201zM238 1171v236h753v-236h-753zM379 494q0 -53 16.5 -98.5t47 -80t73.5 -54t96 -19.5 t97.5 19.5t75 54t48 79.5t17.5 99q0 51 -17.5 97t-48 80t-74.5 54t-98 20q-53 0 -96 -20t-73.5 -54t-47 -80t-16.5 -97z" />
<glyph unicode="&#x14e;" horiz-adv-x="1648" d="M66 717q0 147 51 283.5t149.5 241t239.5 166.5t319 62t318.5 -62t239 -166.5t149.5 -241t51 -283.5t-51 -283.5t-149.5 -241t-239 -167t-318.5 -62.5t-319 62.5t-239.5 167t-149.5 240.5t-51 284zM369 1870h252q23 -55 71.5 -90t130.5 -35q90 0 137.5 39t67.5 86h252 q-12 -80 -52 -145.5t-101.5 -111.5t-139.5 -70.5t-162 -24.5q-86 0 -161.5 24.5t-137 70.5t-102.5 111.5t-55 145.5zM406 717q0 -88 28.5 -170t82.5 -145.5t132 -101.5t176 -38t176 38t132.5 101.5t83 145.5t28.5 170t-28.5 170t-83 145.5t-132 101t-176.5 37.5 q-98 0 -176 -37.5t-132 -101t-82.5 -145.5t-28.5 -170z" />
<glyph unicode="&#x14f;" horiz-adv-x="1226" d="M66 494q0 106 37.5 200t108.5 165t172 113t230 42t230.5 -42t172 -113t107.5 -165t37 -200t-37 -200.5t-107.5 -165.5t-172 -113t-230.5 -42t-230 42t-172 113t-108.5 165t-37.5 201zM158 1460h252q23 -53 71.5 -88t130.5 -35q90 0 137.5 38t67.5 85h252 q-12 -80 -52 -145.5t-101.5 -111.5t-139.5 -70.5t-162 -24.5q-86 0 -161.5 24.5t-137 70.5t-102.5 111.5t-55 145.5zM379 494q0 -53 16.5 -98.5t47 -80t73.5 -54t96 -19.5t97.5 19.5t75 54t48 79.5t17.5 99q0 51 -17.5 97t-48 80t-74.5 54t-98 20q-53 0 -96 -20t-73.5 -54 t-47 -80t-16.5 -97z" />
<glyph unicode="&#x150;" horiz-adv-x="1648" d="M66 717q0 147 51 283.5t149.5 241t239.5 166.5t319 62t318.5 -62t239 -166.5t149.5 -241t51 -283.5t-51 -283.5t-149.5 -241t-239 -167t-318.5 -62.5t-319 62.5t-239.5 167t-149.5 240.5t-51 284zM406 717q0 -88 28.5 -170t82.5 -145.5t132 -101.5t176 -38t176 38 t132.5 101.5t83 145.5t28.5 170t-28.5 170t-83 145.5t-132 101t-176.5 37.5q-98 0 -176 -37.5t-132 -101t-82.5 -145.5t-28.5 -170zM559 1634l256 369l217 -127l-346 -299zM969 1634l256 369l217 -127l-346 -299z" />
<glyph unicode="&#x151;" horiz-adv-x="1226" d="M66 494q0 106 37.5 200t108.5 165t172 113t230 42t230.5 -42t172 -113t107.5 -165t37 -200t-37 -200.5t-107.5 -165.5t-172 -113t-230.5 -42t-230 42t-172 113t-108.5 165t-37.5 201zM252 1178l256 366l217 -125l-346 -299zM379 494q0 -53 16.5 -98.5t47 -80t73.5 -54 t96 -19.5t97.5 19.5t75 54t48 79.5t17.5 99q0 51 -17.5 97t-48 80t-74.5 54t-98 20q-53 0 -96 -20t-73.5 -54t-47 -80t-16.5 -97zM651 1178l256 366l217 -125l-346 -299z" />
<glyph unicode="&#x152;" horiz-adv-x="2246" d="M66 715q0 147 52 283.5t148 240.5t235.5 166.5t315.5 62.5q135 0 241.5 -36.5t188.5 -100.5v103h875v-267h-545v-325h545v-260h-545v-316h545v-266h-875v96q-82 -63 -187.5 -99t-238.5 -36q-176 0 -316 62.5t-237.5 167t-149.5 240.5t-52 284zM406 715q0 -88 28.5 -170 t82.5 -145.5t132 -101.5t176 -38t176 38t132.5 101.5t83 145.5t28.5 170t-28.5 169t-83 144.5t-132 101t-176.5 37.5q-98 0 -176 -37.5t-132 -101t-82.5 -144.5t-28.5 -169z" />
<glyph unicode="&#x153;" horiz-adv-x="1961" d="M66 494q0 106 37.5 200t108.5 165t171 113t227 42q125 0 221.5 -40t165.5 -106q66 68 160 107t217 39q117 0 211 -36t160.5 -98.5t102.5 -146.5t36 -180q0 -20 -2 -55t-10 -80h-707q2 -94 51.5 -156.5t163.5 -62.5q84 0 126 32.5t59 79.5h307q-12 -74 -52 -135 t-103.5 -106t-147.5 -71t-185 -26q-127 0 -223 39t-162 107q-70 -66 -167 -106t-222 -40q-127 0 -227 42t-171 113t-108.5 165t-37.5 201zM379 494q0 -53 16.5 -98.5t47 -80t73.5 -54t96 -19.5q106 0 172 71.5t66 180.5q0 106 -65.5 178.5t-172.5 72.5q-53 0 -96 -20 t-73.5 -54t-47 -80t-16.5 -97zM1167 598h408q0 90 -55.5 142.5t-147.5 52.5q-88 0 -146.5 -50.5t-58.5 -144.5z" />
<glyph unicode="&#x154;" horiz-adv-x="1339" d="M137 0v1434h602q119 0 215.5 -42t165 -113t105.5 -165t37 -199q0 -152 -75 -275.5t-210 -186.5l287 -453h-385l-254 397h-156v-397h-332zM338 1733l565 262l98 -217l-565 -262zM469 668h227q51 0 94.5 20.5t73 54t46 78.5t16.5 94t-16.5 94.5t-46 79t-72.5 54t-95 20.5 h-227v-495z" />
<glyph unicode="&#x155;" horiz-adv-x="854" d="M96 1286l566 262l98 -217l-565 -262zM133 0v987h313v-160q35 70 116 123.5t190 53.5q51 0 90 -17v-285q-33 8 -55.5 11.5t-51.5 3.5q-133 0 -211 -75t-78 -257v-385h-313z" />
<glyph unicode="&#x156;" horiz-adv-x="1339" d="M137 0v1434h602q119 0 215.5 -42t165 -113t105.5 -165t37 -199q0 -152 -75 -275.5t-210 -186.5l287 -453h-385l-254 397h-156v-397h-332zM469 668h227q51 0 94.5 20.5t73 54t46 78.5t16.5 94t-16.5 94.5t-46 79t-72.5 54t-95 20.5h-227v-495zM504 -190q0 66 45 111.5 t117 45.5t121 -55t49 -170q0 -150 -87 -225.5t-239 -75.5v98q49 0 84 11.5t57.5 30t33.5 41t13 44.5q-4 -4 -14 -8t-33 -4q-63 0 -105 45t-42 111z" />
<glyph unicode="&#x157;" horiz-adv-x="854" d="M125 -190q0 66 44 111.5t116 45.5q74 0 123 -55t49 -170q0 -152 -88 -225.5t-238 -73.5v98q94 0 141 39q43 35 47 88q-4 -4 -14 -9t-33 -5q-66 0 -106.5 46.5t-40.5 109.5zM133 0v987h313v-160q35 70 116 123.5t190 53.5q51 0 90 -17v-285q-33 8 -55.5 11.5t-51.5 3.5 q-133 0 -211 -75t-78 -257v-385h-313z" />
<glyph unicode="&#x158;" horiz-adv-x="1339" d="M137 0v1434h602q119 0 215.5 -42t165 -113t105.5 -165t37 -199q0 -152 -75 -275.5t-210 -186.5l287 -453h-385l-254 397h-156v-397h-332zM266 1833l150 180l223 -201l225 201l152 -180l-377 -322zM469 668h227q51 0 94.5 20.5t73 54t46 78.5t16.5 94t-16.5 94.5t-46 79 t-72.5 54t-95 20.5h-227v-495z" />
<glyph unicode="&#x159;" horiz-adv-x="854" d="M53 1466l150 179l223 -199l225 199l150 -179l-375 -321zM133 0v987h313v-160q35 70 116 123.5t190 53.5q51 0 90 -17v-285q-33 8 -55.5 11.5t-51.5 3.5q-133 0 -211 -75t-78 -257v-385h-313z" />
<glyph unicode="&#x15a;" horiz-adv-x="1241" d="M78 475h332q0 -117 64.5 -182.5t162.5 -65.5q84 0 137 46t53 122q0 43 -17 73t-47 52.5t-71 40t-88 35.5q-96 35 -183 72t-154.5 88t-107.5 122.5t-40 176.5q0 106 42 185t111.5 130t161.5 75.5t191 24.5q125 0 220 -36.5t159.5 -100t96.5 -145.5t32 -174h-332 q0 96 -46 151.5t-134 55.5q-70 0 -121 -37t-51 -109q0 -70 53 -112.5t151 -77.5q94 -33 185.5 -70t162 -89t113.5 -127t43 -185q0 -104 -40 -188.5t-110.5 -142.5t-168 -89t-211.5 -31q-121 0 -221.5 34t-173 99.5t-113.5 160.5t-41 218zM287 1733l565 262l100 -217 l-565 -262z" />
<glyph unicode="&#x15b;" horiz-adv-x="1044" d="M68 332h307q0 -78 44 -113t116 -35q55 0 91 21.5t36 70.5q0 29 -15.5 47.5t-47.5 33t-82 29.5t-120 38q-63 20 -118.5 41.5t-97.5 53.5t-65.5 78t-23.5 114q0 78 31 135t87 94t134 55.5t172 18.5q115 0 198 -25.5t136 -71t78.5 -106.5t25.5 -131h-309q0 61 -31.5 95 t-95.5 34q-49 0 -84 -21.5t-35 -64.5q0 -29 16.5 -46.5t48.5 -31.5t79 -28.5t108 -34.5q66 -18 123 -40t100.5 -53.5t69 -79t25.5 -118.5q0 -88 -36 -148.5t-96.5 -98.5t-140.5 -54.5t-168 -16.5q-219 0 -339.5 92.5t-120.5 266.5zM190 1260l566 262l98 -217l-565 -263z" />
<glyph unicode="&#x15c;" horiz-adv-x="1241" d="M78 475h332q0 -117 64.5 -182.5t162.5 -65.5q84 0 137 46t53 122q0 43 -17 73t-47 52.5t-71 40t-88 35.5q-96 35 -183 72t-154.5 88t-107.5 122.5t-40 176.5q0 106 42 185t111.5 130t161.5 75.5t191 24.5q125 0 220 -36.5t159.5 -100t96.5 -145.5t32 -174h-332 q0 96 -46 151.5t-134 55.5q-70 0 -121 -37t-51 -109q0 -70 53 -112.5t151 -77.5q94 -33 185.5 -70t162 -89t113.5 -127t43 -185q0 -104 -40 -188.5t-110.5 -142.5t-168 -89t-211.5 -31q-121 0 -221.5 34t-173 99.5t-113.5 160.5t-41 218zM223 1690l402 321l401 -321 l-162 -181l-239 193l-238 -191z" />
<glyph unicode="&#x15d;" horiz-adv-x="1044" d="M68 332h307q0 -78 44 -113t116 -35q55 0 91 21.5t36 70.5q0 29 -15.5 47.5t-47.5 33t-82 29.5t-120 38q-63 20 -118.5 41.5t-97.5 53.5t-65.5 78t-23.5 114q0 78 31 135t87 94t134 55.5t172 18.5q115 0 198 -25.5t136 -71t78.5 -106.5t25.5 -131h-309q0 61 -31.5 95 t-95.5 34q-49 0 -84 -21.5t-35 -64.5q0 -29 16.5 -46.5t48.5 -31.5t79 -28.5t108 -34.5q66 -18 123 -40t100.5 -53.5t69 -79t25.5 -118.5q0 -88 -36 -148.5t-96.5 -98.5t-140.5 -54.5t-168 -16.5q-219 0 -339.5 92.5t-120.5 266.5zM121 1245l401 322l402 -322l-162 -178 l-240 190l-237 -190z" />
<glyph unicode="&#x15e;" horiz-adv-x="1241" d="M78 475h332q0 -117 64.5 -182.5t162.5 -65.5q84 0 137 46t53 122q0 43 -17 73t-47 52.5t-71 40t-88 35.5q-96 35 -183 72t-154.5 88t-107.5 122.5t-40 176.5q0 106 42 185t111.5 130t161.5 75.5t191 24.5q125 0 220 -36.5t159.5 -100t96.5 -145.5t32 -174h-332 q0 96 -46 151.5t-134 55.5q-70 0 -121 -37t-51 -109q0 -70 53 -112.5t151 -77.5t188.5 -72t161 -89t112.5 -127t42 -183q0 -96 -33.5 -174t-94 -135.5t-144.5 -93.5t-187 -44v-88q12 12 33 21.5t51 9.5q35 0 67 -13.5t55.5 -38t36.5 -58t13 -72.5t-14 -76t-42 -66.5t-69 -47 t-92 -17.5q-29 0 -65.5 7t-70.5 28.5t-59.5 58.5t-31.5 96h152q6 -29 23 -45t46 -16q31 0 51.5 20.5t20.5 55.5t-20.5 53t-51.5 18q-16 0 -32.5 -7t-26.5 -28h-133v205q-100 12 -185.5 50t-147 102.5t-95 153.5t-33.5 202z" />
<glyph unicode="&#x15f;" horiz-adv-x="1044" d="M68 332h307q0 -78 44 -113t116 -35q55 0 91 21.5t36 70.5q0 29 -15.5 47.5t-47.5 33t-82 29.5t-120 38q-63 20 -118.5 41.5t-97.5 53.5t-65.5 78t-23.5 114q0 78 31 135t87 94t134 55.5t172 18.5q115 0 198 -25.5t136 -71t78.5 -106.5t25.5 -131h-309q0 61 -31.5 95 t-95.5 34q-49 0 -84 -21.5t-35 -64.5q0 -29 16.5 -46.5t48.5 -31.5t79 -28.5t108 -34.5q63 -20 121.5 -41t102 -52.5t69 -79t25.5 -120.5q0 -80 -30 -136.5t-82 -94.5t-123.5 -57t-153.5 -24v-94q12 12 32.5 21.5t51.5 9.5q35 0 66.5 -13.5t55 -38t37 -58t13.5 -72.5 t-14.5 -76t-42 -66.5t-68.5 -47t-93 -17.5q-29 0 -65.5 7t-70 28.5t-59.5 58.5t-32 96h152q6 -29 23.5 -45t45.5 -16q31 0 51.5 20.5t20.5 55.5t-20.5 53t-51.5 18q-16 0 -32.5 -7t-26.5 -27h-133v215q-168 23 -260 111.5t-92 238.5z" />
<glyph unicode="&#x160;" horiz-adv-x="1241" d="M78 475h332q0 -117 64.5 -182.5t162.5 -65.5q84 0 137 46t53 122q0 43 -17 73t-47 52.5t-71 40t-88 35.5q-96 35 -184 73t-154.5 89t-106.5 121.5t-40 175.5q0 106 43 185t113.5 130t162.5 75.5t191 24.5q125 0 220 -36.5t157.5 -100t94.5 -145.5t32 -174h-332 q0 96 -46 151.5t-134 55.5q-70 0 -121 -37t-51 -109q0 -70 53 -112.5t151 -77.5q94 -33 185.5 -70t162 -89t113.5 -127t43 -185q0 -104 -40 -188.5t-110.5 -142.5t-168 -89t-211.5 -31q-121 0 -221.5 34t-173 99.5t-113.5 160.5t-41 218zM254 1862l149 178l224 -199l225 199 l152 -178l-377 -324z" />
<glyph unicode="&#x161;" horiz-adv-x="1044" d="M68 332h307q0 -78 44 -113t116 -35q55 0 91 21.5t36 70.5q0 29 -15.5 47.5t-47.5 33t-82 29.5t-120 38q-63 20 -118.5 41.5t-97.5 53.5t-65.5 78t-23.5 114q0 78 31 135t87 94t134 55.5t172 18.5q115 0 198 -25.5t136 -71t78.5 -106.5t25.5 -131h-309q0 61 -31.5 95 t-95.5 34q-49 0 -84 -21.5t-35 -64.5q0 -29 16.5 -46.5t48.5 -31.5t79 -28.5t108 -34.5q66 -18 123 -40t100.5 -53.5t69 -79t25.5 -118.5q0 -88 -36 -148.5t-96.5 -98.5t-140.5 -54.5t-168 -16.5q-219 0 -339.5 92.5t-120.5 266.5zM147 1382l150 181l223 -201l225 201 l152 -181l-377 -321z" />
<glyph unicode="&#x162;" horiz-adv-x="1042" d="M31 1147v287h981v-287h-326v-1147h-332v1147h-323zM360 -190q0 66 45.5 111.5t116.5 45.5q72 0 121 -55t49 -170q0 -150 -87 -225.5t-238 -75.5v98q49 0 83.5 11.5t57 30t34 41t13.5 44.5q-4 -4 -14.5 -8t-32.5 -4q-63 0 -105.5 45t-42.5 111z" />
<glyph unicode="&#x163;" horiz-adv-x="784" d="M35 754v233h155v293h312v-293h225v-233h-225v-353q0 -55 10 -87.5t28.5 -51t45 -24t59.5 -5.5q20 0 51 1.5t54 5.5v-240q-35 -6 -87.5 -11t-123.5 -5q-55 0 -116 8t-113 42t-86 104.5t-34 193.5v422h-155zM244 -190q0 66 45 111.5t117 45.5t120.5 -55t48.5 -170 q0 -150 -87 -225.5t-238 -75.5v98q51 0 85 11.5t56 29.5q23 16 34 40t13 46q-4 -4 -14 -8t-33 -4q-63 0 -105 45t-42 111z" />
<glyph unicode="&#x164;" horiz-adv-x="1042" d="M31 1147v287h981v-287h-326v-1147h-332v1147h-323zM147 1833l148 180l225 -201l225 201l150 -180l-375 -322z" />
<glyph unicode="&#x165;" horiz-adv-x="1300" d="M35 754v233h155v293h312v-293h225v-233h-225v-353q0 -55 10 -87.5t28.5 -51t45 -24t59.5 -5.5q20 0 51 1.5t54 5.5v-240q-35 -6 -87.5 -11t-123.5 -5q-55 0 -116 8t-113 42t-86 104.5t-34 193.5v422h-155zM776 1286q0 80 55.5 139.5t147.5 59.5t151.5 -69.5t59.5 -213.5 q0 -184 -103.5 -279.5t-300.5 -95.5v123q61 0 104.5 14.5t72.5 36.5q25 20 40 46t19 63q-4 -4 -18.5 -9t-40.5 -5q-41 0 -75 15t-58.5 41t-39 60.5t-14.5 73.5z" />
<glyph unicode="&#x166;" horiz-adv-x="1042" d="M31 1147v287h981v-287h-326v-182h211v-236h-211v-729h-332v729h-211v236h211v182h-323z" />
<glyph unicode="&#x167;" horiz-adv-x="784" d="M35 393v211h155v150h-155v233h155v293h312v-293h225v-233h-225v-150h225v-211h-221v-12q0 -49 10 -79t28.5 -45t44 -19.5t56.5 -4.5q23 0 52.5 1.5t52.5 5.5v-240q-35 -6 -87.5 -11t-123.5 -5q-55 0 -116 8t-113 42t-86 104.5t-34 193.5v61h-155z" />
<glyph unicode="&#x168;" horiz-adv-x="1345" d="M115 489v945h331v-942q0 -49 16.5 -93.5t46.5 -77t71 -52t92 -19.5t93 19.5t71.5 52t46 76.5t16.5 94v942h332v-945q0 -111 -39 -207t-111.5 -166.5t-176 -111.5t-232.5 -41t-231.5 41t-175 111.5t-111.5 167t-39 206.5zM270 1784q92 55 138.5 66.5t64.5 11.5 q33 0 79 -8.5t94 -19.5t93 -19.5t74 -8.5q23 0 56.5 10.5t109.5 45.5l94 -183q-41 -33 -80 -51t-70.5 -27.5t-54 -11.5t-30.5 -2q-29 0 -72 8.5t-88 18.5t-88 18t-70 8q-35 0 -71.5 -13t-75.5 -30z" />
<glyph unicode="&#x169;" horiz-adv-x="1243" d="M121 401v586h311v-506q0 -106 38 -172.5t136 -66.5t144.5 67.5t46.5 182.5v495h313v-987h-313v141q-41 -78 -125 -122t-201 -44q-102 0 -167.5 32t-106.5 81q-47 57 -61.5 132t-14.5 181zM221 1341q92 55 137 66.5t64 11.5q33 0 80 -8t96 -19.5t94 -19.5t76 -8 q12 0 23.5 2t29 8t43 16.5t64.5 28.5l94 -182q-84 -66 -146.5 -79t-80.5 -13q-33 0 -77 8t-90 18.5t-88 18.5t-69 8q-35 0 -73 -13.5t-74 -29.5z" />
<glyph unicode="&#x16a;" horiz-adv-x="1345" d="M115 489v945h331v-942q0 -49 16.5 -93.5t46.5 -77t71 -52t92 -19.5t93 19.5t71.5 52t46 76.5t16.5 94v942h332v-945q0 -111 -39 -207t-111.5 -166.5t-176 -111.5t-232.5 -41t-231.5 41t-175 111.5t-111.5 167t-39 206.5zM295 1663v233h754v-233h-754z" />
<glyph unicode="&#x16b;" horiz-adv-x="1243" d="M121 401v586h311v-506q0 -106 38 -172.5t136 -66.5t144.5 67.5t46.5 182.5v495h313v-987h-313v141q-41 -78 -125 -122t-201 -44q-102 0 -167.5 32t-106.5 81q-47 57 -61.5 132t-14.5 181zM244 1171v236h753v-236h-753z" />
<glyph unicode="&#x16c;" horiz-adv-x="1345" d="M115 489v945h331v-942q0 -49 16.5 -93.5t46.5 -77t71 -52t92 -19.5t93 19.5t71.5 52t46 76.5t16.5 94v942h332v-945q0 -111 -39 -207t-111.5 -166.5t-176 -111.5t-232.5 -41t-231.5 41t-175 111.5t-111.5 167t-39 206.5zM217 1874h250q25 -55 73 -90t130 -35q86 0 135 36 t72 89h251q-12 -80 -53 -145.5t-102.5 -111.5t-138 -70.5t-162.5 -24.5t-162 24.5t-136.5 70.5t-101.5 111.5t-55 145.5z" />
<glyph unicode="&#x16d;" horiz-adv-x="1243" d="M121 401v586h311v-506q0 -106 38 -172.5t136 -66.5t144.5 67.5t46.5 182.5v495h313v-987h-313v141q-41 -78 -125 -122t-201 -44q-102 0 -167.5 32t-106.5 81q-47 57 -61.5 132t-14.5 181zM166 1460h250q25 -53 73 -88t129 -35q86 0 135.5 36t71.5 87h252 q-12 -80 -53 -145.5t-102.5 -111.5t-138 -70.5t-162.5 -24.5t-162 24.5t-136.5 70.5t-101.5 111.5t-55 145.5z" />
<glyph unicode="&#x16e;" horiz-adv-x="1345" d="M115 489v945h331v-942q0 -49 16.5 -93.5t46.5 -77t71 -52t92 -19.5t93 19.5t71.5 52t46 76.5t16.5 94v942h332v-945q0 -111 -39 -207t-111.5 -166.5t-176 -111.5t-232.5 -41t-231.5 41t-175 111.5t-111.5 167t-39 206.5zM397 1761q0 57 21.5 107.5t58.5 87.5t87.5 58.5 t107.5 21.5t107 -22.5t88 -60.5t59.5 -88t21.5 -106q0 -55 -21.5 -105t-59.5 -88t-88 -59.5t-107 -21.5t-107.5 21.5t-87.5 59.5t-58.5 88t-21.5 107zM582 1761q0 -37 26.5 -63.5t63.5 -26.5t64.5 26.5t27.5 63.5t-25.5 64.5t-66.5 27.5q-39 0 -64.5 -27.5t-25.5 -64.5z" />
<glyph unicode="&#x16f;" horiz-adv-x="1243" d="M121 401v586h311v-506q0 -106 38 -172.5t136 -66.5t144.5 67.5t46.5 182.5v495h313v-987h-313v141q-41 -78 -125 -122t-201 -44q-102 0 -167.5 32t-106.5 81q-47 57 -61.5 132t-14.5 181zM336 1333q0 57 21.5 107.5t58.5 87.5t87 58.5t107 21.5t107.5 -21.5t88.5 -59.5 t59.5 -88t21.5 -106q0 -55 -21.5 -105t-59.5 -88t-88 -60.5t-108 -22.5q-57 0 -107 22.5t-87 60.5t-58.5 88t-21.5 105zM520 1333q0 -37 26.5 -63.5t63.5 -26.5t64.5 27.5t27.5 64.5t-26.5 63.5t-65.5 26.5t-64.5 -27.5t-25.5 -64.5z" />
<glyph unicode="&#x170;" horiz-adv-x="1345" d="M115 489v945h331v-942q0 -49 16.5 -93.5t46.5 -77t71 -52t92 -19.5t93 19.5t71.5 52t46 76.5t16.5 94v942h332v-945q0 -111 -39 -207t-111.5 -166.5t-176 -111.5t-232.5 -41t-231.5 41t-175 111.5t-111.5 167t-39 206.5zM293 1634l256 369l217 -127l-346 -299zM692 1634 l256 369l217 -127l-346 -299z" />
<glyph unicode="&#x171;" horiz-adv-x="1243" d="M121 401v586h311v-506q0 -106 38 -172.5t136 -66.5t144.5 67.5t46.5 182.5v495h313v-987h-313v141q-41 -78 -125 -122t-201 -44q-102 0 -167.5 32t-106.5 81q-47 57 -61.5 132t-14.5 181zM248 1145l256 368l217 -127l-346 -299zM647 1145l256 368l217 -127l-346 -299z " />
<glyph unicode="&#x172;" horiz-adv-x="1345" d="M115 489v945h331v-942q0 -49 16.5 -93.5t46.5 -77t71 -52t92 -19.5t93 19.5t71.5 52t46 76.5t16.5 94v942h332v-945q0 -102 -33 -192t-95.5 -158.5t-151.5 -112.5t-199 -57q-29 -23 -50.5 -53.5t-21.5 -75.5q0 -43 24.5 -75.5t73.5 -32.5q20 0 51 6t60 18l-4 -159 q-41 -14 -88 -22.5t-99 -8.5q-139 0 -201.5 58.5t-62.5 139.5q0 113 125 207q-104 16 -186 62.5t-139.5 115t-88 155.5t-30.5 185z" />
<glyph unicode="&#x173;" horiz-adv-x="1243" d="M121 401v586h311v-506q0 -106 38 -172.5t136 -66.5t144.5 67.5t46.5 182.5v495h313v-987h-113q-20 -14 -40.5 -29.5t-37 -34t-26.5 -42t-10 -54.5q0 -43 24.5 -75.5t73.5 -32.5q20 0 51 6t60 18l-5 -159q-41 -14 -88 -22.5t-98 -8.5q-139 0 -202.5 58.5t-63.5 139.5 q0 66 40 121.5t122 114.5v141q-41 -78 -125 -122t-201 -44q-102 0 -167.5 32t-106.5 81q-47 57 -61.5 132t-14.5 181z" />
<glyph unicode="&#x174;" horiz-adv-x="2119" d="M-2 1434h350l293 -940l291 940h256l293 -940l291 940h350l-506 -1434h-270l-285 901l-285 -901h-272zM657 1690l402 321l401 -321l-162 -181l-239 193l-238 -191z" />
<glyph unicode="&#x175;" horiz-adv-x="1644" d="M-2 987h324l182 -588l174 588h289l174 -588l182 588h324l-369 -987h-254l-201 629l-202 -629h-254zM420 1245l401 322l402 -322l-162 -178l-240 190l-237 -190z" />
<glyph unicode="&#x176;" horiz-adv-x="1312" d="M8 1434h387l305 -564l263 564h366l-711 -1434h-366l264 539zM254 1690l401 321l402 -321l-162 -181l-240 193l-237 -191z" />
<glyph unicode="&#x177;" horiz-adv-x="1259" d="M121 -76h307q2 -72 46 -119t149 -47q98 0 146 53.5t48 178.5v168q-41 -80 -125 -124t-200 -44q-102 0 -168 31.5t-107 80.5q-47 57 -61.5 132t-14.5 182v571h312v-506q0 -106 37.5 -172.5t136.5 -66.5q98 0 144 67.5t46 182.5v495h313v-981q0 -252 -119.5 -365.5 t-379.5 -113.5q-137 0 -233.5 28.5t-158 81t-90 126t-28.5 161.5zM227 1245l402 322l401 -322l-162 -178l-239 190l-238 -190z" />
<glyph unicode="&#x178;" horiz-adv-x="1312" d="M8 1434h387l305 -564l263 564h366l-711 -1434h-366l264 539zM264 1747q0 39 14.5 72.5t40 59.5t60.5 40t74 14t73.5 -15t60 -41t40 -59.5t14.5 -70.5q0 -39 -14.5 -73t-40 -59.5t-60 -39.5t-73.5 -14t-74 14t-60.5 39.5t-40 59.5t-14.5 73zM758 1747q0 39 14 72.5 t40 59.5t59.5 40t72.5 14t74 -15t61.5 -41t41 -59.5t14.5 -70.5q0 -39 -14.5 -73t-41 -59.5t-61.5 -39.5t-74 -14q-78 0 -132 54t-54 132z" />
<glyph unicode="&#x179;" horiz-adv-x="1294" d="M35 0l700 1155h-643v279h1172l-703 -1155h680v-279h-1206zM324 1733l565 262l98 -217l-565 -262z" />
<glyph unicode="&#x17a;" horiz-adv-x="983" d="M37 0l436 721h-410v266h893l-434 -721h420v-266h-905zM160 1257l565 263l100 -217l-565 -263z" />
<glyph unicode="&#x17b;" horiz-adv-x="1294" d="M35 0l700 1155h-643v279h1172l-703 -1155h680v-279h-1206zM459 1763q0 39 14 74t41 61.5t61.5 42t75.5 15.5t77 -15.5t61.5 -42t41 -61.5t15.5 -74t-15.5 -73.5t-41 -61t-61.5 -42t-77 -15.5t-75.5 15.5t-61.5 42t-41 61t-14 73.5z" />
<glyph unicode="&#x17c;" horiz-adv-x="983" d="M37 0l436 721h-410v266h893l-434 -721h420v-266h-905zM299 1288q0 80 55.5 136.5t137.5 56.5q41 0 76.5 -15.5t61 -41t41 -61.5t15.5 -75t-15.5 -73.5t-41 -60.5t-61.5 -41t-76 -15q-41 0 -76 15t-61.5 41t-41 60.5t-14.5 73.5z" />
<glyph unicode="&#x17d;" horiz-adv-x="1294" d="M35 0l700 1155h-643v279h1172l-703 -1155h680v-279h-1206zM287 1804l149 178l223 -198l226 198l149 -178l-375 -323z" />
<glyph unicode="&#x17e;" horiz-adv-x="983" d="M37 0l436 721h-410v266h893l-434 -721h420v-266h-905zM139 1354l148 178l225 -199l225 199l150 -178l-375 -324z" />
<glyph unicode="&#x17f;" horiz-adv-x="778" d="M33 754v233h178v86q0 133 37 210t90 115t115.5 48t115.5 10q72 0 114 -8t71 -18v-226q-25 6 -46.5 9.5t-54.5 3.5q-25 0 -48 -3.5t-41.5 -16.5t-30 -37.5t-11.5 -67.5v-1092h-311v754h-178z" />
<glyph unicode="&#x192;" horiz-adv-x="974" d="M-113 -360l39 225q23 -6 45.5 -9t51.5 -3q25 0 48 4t42.5 17t36 39t28.5 71l135 770h-178l41 233h178l15 86q23 131 70.5 207t109 115t127 50t123.5 11q68 0 108.5 -8t65.5 -18l-39 -226q-23 6 -45.5 9.5t-52.5 3.5q-25 0 -48.5 -3.5t-44 -16.5t-36 -37.5t-23.5 -67.5 l-18 -105h229l-41 -233h-229l-133 -758q-23 -129 -71 -206t-107.5 -116t-126 -50t-128.5 -11q-66 0 -103.5 7t-68.5 20z" />
<glyph unicode="&#x1fa;" horiz-adv-x="1351" d="M8 0l510 1432h35q-51 45 -51 118q0 70 49 119t119 49q35 0 65.5 -13t54 -36.5t37 -54.5t13.5 -64q0 -35 -13.5 -64.5t-35.5 -51.5h34l518 -1434h-360l-55 174h-510l-56 -174h-354zM379 1788l481 233l64 -133l-482 -235zM498 434h348l-172 590zM614 1550q0 -23 17.5 -39 t40.5 -16t38 16.5t15 38.5q0 23 -15 39.5t-38 16.5q-25 0 -41.5 -17.5t-16.5 -38.5z" />
<glyph unicode="&#x1fb;" horiz-adv-x="1300" d="M72 494q0 111 35.5 206t99 163.5t148.5 108.5t184 40q111 0 192.5 -47t122.5 -119v141h313v-987h-313v139q-37 -68 -119 -116t-196 -48q-98 0 -183.5 40t-149 109t-99 164t-35.5 206zM252 1677l526 250l94 -198l-526 -248zM328 1276q0 53 20.5 99t55 81t81 55.5 t99.5 20.5t99 -20.5t81 -55.5t55.5 -82t20.5 -98q0 -53 -20.5 -99.5t-55.5 -81t-81 -55t-99 -20.5t-99.5 20.5t-81 55t-55 81t-20.5 99.5zM383 494q0 -51 17.5 -97.5t48 -80t73.5 -54t96 -20.5t96.5 20.5t74 54t48 79.5t17.5 98q0 51 -17.5 96t-48 80t-73.5 55t-97 20 q-53 0 -96 -20t-73.5 -55t-48 -80t-17.5 -96zM500 1278q0 -37 24.5 -61.5t59.5 -24.5t60.5 25.5t25.5 60.5t-24.5 60.5t-61.5 25.5t-60.5 -25.5t-23.5 -60.5z" />
<glyph unicode="&#x1fc;" horiz-adv-x="1882" d="M2 0l688 1434h1059v-267h-543v-325h543v-260h-543v-316h543v-266h-875v176h-434l-78 -176h-360zM555 436h319v701zM752 1733l565 262l100 -217l-565 -262z" />
<glyph unicode="&#x1fd;" horiz-adv-x="1968" d="M72 494q0 111 35.5 206t99 163.5t148.5 108.5t184 40q111 0 192.5 -47t122.5 -119v141h283v-24q51 23 112.5 37t132.5 14q115 0 208 -37t160 -101.5t102.5 -152.5t35.5 -188q0 -33 -2 -54.5t-8 -62.5h-709q2 -92 51.5 -155.5t163.5 -63.5q84 0 126 32.5t59 79.5h307 q-12 -72 -51 -133t-101.5 -106t-146.5 -72t-186 -27q-78 0 -139.5 14.5t-114.5 39.5v-27h-283v139q-37 -68 -119 -116t-196 -48q-98 0 -183.5 40t-149 109t-99 164t-35.5 206zM383 494q0 -51 17.5 -97.5t48 -80t73.5 -54t96 -20.5t96.5 20.5t74 54t48 79.5t17.5 98 q0 51 -17.5 97t-48 81t-74.5 54t-96 19q-53 0 -96 -20t-73.5 -55t-48 -80t-17.5 -96zM651 1235l566 262l98 -215l-565 -262zM1171 598h408q0 88 -55.5 141.5t-147.5 53.5q-86 0 -144 -50.5t-61 -144.5z" />
<glyph unicode="&#x1fe;" horiz-adv-x="1648" d="M66 717q0 147 51 283.5t149.5 241t239.5 166.5t319 62q76 0 144 -12l71 164l293 -125l-67 -158q154 -104 235.5 -270t81.5 -352q0 -147 -51 -283.5t-149.5 -241t-238.5 -167t-319 -62.5q-78 0 -147 12l-64 -149l-292 125l61 141q-154 104 -235.5 270t-81.5 355zM406 717 q0 -88 28.5 -170t81.5 -146l330 770h-21q-98 0 -176 -37.5t-132 -101t-82.5 -145.5t-28.5 -170zM492 1733l565 262l98 -217l-565 -262zM803 262h22q98 0 176 38t132.5 100.5t83 144.5t28.5 170q0 90 -29.5 171t-82.5 144z" />
<glyph unicode="&#x1ff;" horiz-adv-x="1226" d="M66 492q0 106 37.5 201t108.5 166t171 113t225 42q33 0 59.5 -3t53.5 -7l70 161l184 -78l-64 -149q121 -70 185.5 -186.5t64.5 -257.5q0 -106 -38 -200.5t-108.5 -165.5t-171 -113t-227.5 -42q-35 0 -61.5 3.5t-52.5 7.5l-68 -162l-186 84l61 143q-117 70 -180 186.5 t-63 256.5zM281 1260l565 262l98 -217l-565 -263zM379 494q0 -96 51 -164l180 415q-106 -2 -168.5 -75.5t-62.5 -175.5zM612 242q53 0 97.5 19.5t75 54t48 80t17.5 98.5q0 98 -57 168z" />
<glyph unicode="&#x218;" horiz-adv-x="1241" d="M78 475h332q0 -117 64.5 -182.5t162.5 -65.5q84 0 137 46t53 122q0 43 -17 73t-47 52.5t-71 40t-88 35.5q-96 35 -183 72t-154.5 88t-107.5 122.5t-40 176.5q0 106 42 185t111.5 130t161.5 75.5t191 24.5q125 0 220 -36.5t159.5 -100t96.5 -145.5t32 -174h-332 q0 96 -46 151.5t-134 55.5q-70 0 -121 -37t-51 -109q0 -70 53 -112.5t151 -77.5q94 -33 185.5 -70t162 -89t113.5 -127t43 -185q0 -104 -40 -188.5t-110.5 -142.5t-168 -89t-211.5 -31q-121 0 -221.5 34t-173 99.5t-113.5 160.5t-41 218zM461 -211q0 66 45 112t117 46 t121 -55.5t49 -170.5q0 -150 -87.5 -225.5t-238.5 -75.5v99q49 0 84 11t57.5 29.5t33.5 41t13 45.5q-4 -4 -14 -8.5t-33 -4.5q-63 0 -105 45t-42 111z" />
<glyph unicode="&#x219;" horiz-adv-x="1044" d="M68 332l307 -2q0 -78 44 -112t113 -34q57 0 93.5 21.5t36.5 70.5q0 29 -15.5 47.5t-47.5 33t-82 29.5t-120 38q-63 20 -118.5 41.5t-97.5 53.5t-65.5 78t-23.5 114q0 78 31 135t87 94t134 55.5t172 18.5q115 0 198 -25.5t136 -71t78.5 -106.5t25.5 -131h-309 q0 61 -31.5 95t-95.5 34q-49 0 -84 -21.5t-35 -64.5q0 -29 16.5 -46.5t48.5 -31.5t79 -28.5t108 -34.5q66 -20 123 -42t100.5 -52.5t69 -78t25.5 -118.5q0 -88 -36 -148.5t-96.5 -98.5t-140.5 -54.5t-168 -16.5q-219 0 -339.5 92.5t-120.5 266.5zM360 -195q0 66 45.5 112 t116.5 46q74 0 122 -55t48 -170q0 -154 -88 -226.5t-235 -72.5v98q49 0 83.5 10.5t57.5 28.5q16 14 29.5 36.5t17.5 51.5q-4 -4 -15.5 -9t-33.5 -5q-61 0 -104.5 46t-43.5 109z" />
<glyph unicode="&#x21a;" horiz-adv-x="1042" d="M31 1147v287h981v-287h-326v-1147h-332v1147h-323zM360 -190q0 66 45.5 111.5t116.5 45.5q72 0 121 -55t49 -170q0 -150 -87 -225.5t-238 -75.5v98q49 0 83.5 11.5t57 30t34 41t13.5 44.5q-4 -4 -14.5 -8t-32.5 -4q-63 0 -105.5 45t-42.5 111z" />
<glyph unicode="&#x21b;" horiz-adv-x="784" d="M35 754v233h155v293h312v-293h225v-233h-225v-353q0 -55 10 -87.5t28.5 -51t45 -24t59.5 -5.5q20 0 51 1.5t54 5.5v-240q-35 -6 -87.5 -11t-123.5 -5q-55 0 -116 8t-113 42t-86 104.5t-34 193.5v422h-155zM240 -190q0 66 45 111.5t116 45.5q74 0 122 -55t48 -170 q0 -152 -87 -226.5t-236 -74.5v98q49 0 84 11.5t57 29.5q23 18 33 41t14 45q-4 -4 -15 -8t-34 -4q-63 0 -105 45t-42 111z" />
<glyph unicode="&#x2bc;" horiz-adv-x="610" d="M94 1319q0 80 55.5 138.5t147.5 58.5t151.5 -69t59.5 -212q0 -182 -102.5 -278.5t-301.5 -96.5v121q61 0 104.5 14.5t72.5 36.5q29 23 42 51.5t17 57.5q-4 -4 -18.5 -9.5t-40.5 -5.5q-82 0 -134.5 56.5t-52.5 136.5z" />
<glyph unicode="&#x2c6;" horiz-adv-x="999" d="M94 1403l402 321l401 -321l-162 -180l-239 192l-238 -190z" />
<glyph unicode="&#x2c7;" horiz-adv-x="944" d="M98 1559l150 180l223 -201l225 201l150 -180l-375 -322z" />
<glyph unicode="&#x2d8;" horiz-adv-x="1118" d="M102 1751h252q23 -55 72 -90t131 -35q90 0 137 39t68 86h252q-12 -80 -52 -145.5t-101.5 -111.5t-139.5 -70.5t-162 -24.5q-86 0 -161.5 24.5t-137 70.5t-102.5 111.5t-56 145.5z" />
<glyph unicode="&#x2d9;" horiz-adv-x="1015" d="M313 1274q0 39 15.5 74.5t41 61.5t61.5 41t77 15q39 0 74.5 -15t62.5 -41t42 -61.5t15 -74.5t-15 -74t-40.5 -60.5t-61.5 -41t-77 -15.5t-77 15.5t-62.5 41t-41 60.5t-14.5 74z" />
<glyph unicode="&#x2da;" horiz-adv-x="1015" d="M231 1458q0 57 21.5 107.5t58.5 87.5t87.5 58.5t107.5 21.5t107.5 -21.5t88 -59.5t59 -88.5t21.5 -105.5t-21.5 -105t-58 -88t-87 -59.5t-107.5 -21.5t-107.5 21.5t-88.5 59.5t-59.5 88t-21.5 105zM416 1460q0 -37 27.5 -64.5t64.5 -27.5t63.5 27.5t26.5 64.5t-25.5 64.5 t-64.5 27.5q-41 0 -66.5 -28.5t-25.5 -63.5z" />
<glyph unicode="&#x2db;" horiz-adv-x="976" d="M260 -236q0 66 40 121.5t122 114.5h201q-20 -14 -41 -29.5t-37.5 -34t-26.5 -42t-10 -54.5q0 -43 24.5 -75.5t73.5 -32.5q20 0 51 6t60 18l-4 -159q-41 -14 -88 -22.5t-99 -8.5q-139 0 -202.5 58.5t-63.5 139.5z" />
<glyph unicode="&#x2dc;" horiz-adv-x="1050" d="M125 1356q92 55 137 66.5t64 11.5q33 0 80 -8.5t96 -19.5t94 -19.5t76 -8.5q12 0 23.5 2t28.5 8.5t43 16.5t64 29l95 -185q-84 -66 -146.5 -79t-81.5 -13q-33 0 -76.5 8.5t-90 18.5t-88.5 18t-68 8q-35 0 -73 -13t-75 -30z" />
<glyph unicode="&#x2dd;" horiz-adv-x="1042" d="M131 1163l256 367l217 -125l-346 -299zM530 1163l256 367l218 -125l-347 -299z" />
<glyph unicode="&#x394;" horiz-adv-x="1351" d="M8 0l512 1434h305l518 -1434h-1335zM446 260h451l-223 764z" />
<glyph unicode="&#x3a9;" horiz-adv-x="1480" d="M80 827q0 125 45 239t131 201t209 139t276 52q154 0 276 -52t208 -139t131 -201t45 -239q0 -88 -22.5 -170t-66.5 -150.5t-107.5 -123.5t-143.5 -92v-31h307v-260h-563v446q72 16 122 53.5t81.5 87.5t46 108.5t14.5 115.5q0 72 -20.5 135.5t-61.5 111.5t-102.5 75.5 t-143.5 27.5t-143 -27.5t-103 -75.5t-62.5 -111.5t-20.5 -135.5q0 -57 14 -115.5t46 -108.5t82 -87t122 -54v-446h-563v260h307v31q-162 74 -251 216t-89 320z" />
<glyph unicode="&#x3bc;" d="M133 -446v1433h311v-510q0 -104 38 -169.5t136 -65.5t144.5 67.5t46.5 182.5v495h313v-987h-313v141q-80 -145 -281 -161q-47 0 -84 12v-438h-311z" />
<glyph unicode="&#x3c0;" d="M43 752v235h1169v-235h-143v-752h-313v752h-256v-752h-314v752h-143z" />
<glyph unicode="&#x1e80;" horiz-adv-x="2119" d="M-2 1434h350l293 -940l291 940h256l293 -940l291 940h350l-506 -1434h-270l-285 901l-285 -901h-272zM727 1778l100 217l566 -262l-101 -217z" />
<glyph unicode="&#x1e81;" horiz-adv-x="1644" d="M-2 987h324l182 -588l174 588h289l174 -588l182 588h324l-369 -987h-254l-201 629l-202 -629h-254zM489 1305l101 217l565 -262l-100 -218z" />
<glyph unicode="&#x1e82;" horiz-adv-x="2119" d="M-2 1434h350l293 -940l291 940h256l293 -940l291 940h350l-506 -1434h-270l-285 901l-285 -901h-272zM727 1733l565 262l101 -217l-566 -262z" />
<glyph unicode="&#x1e83;" horiz-adv-x="1644" d="M-2 987h324l182 -588l174 588h289l174 -588l182 588h324l-369 -987h-254l-201 629l-202 -629h-254zM489 1260l566 262l100 -217l-565 -263z" />
<glyph unicode="&#x1e84;" horiz-adv-x="2119" d="M-2 1434h350l293 -940l291 940h256l293 -940l291 940h350l-506 -1434h-270l-285 901l-285 -901h-272zM625 1769q0 39 14 73t40 59.5t59.5 40t74.5 14.5q39 0 74 -15.5t60.5 -41t39.5 -59.5t14 -71q0 -39 -14 -72.5t-39.5 -59t-60.5 -40t-74 -14.5q-80 0 -134 54t-54 132z M1118 1769q0 39 14.5 73t40 59.5t59.5 40t73 14.5t73.5 -15.5t60 -41t40 -59.5t14.5 -71q0 -39 -14.5 -72.5t-40 -59t-60.5 -40t-73 -14.5q-78 0 -132.5 54t-54.5 132z" />
<glyph unicode="&#x1e85;" horiz-adv-x="1644" d="M-2 987h324l182 -588l174 588h289l174 -588l182 588h324l-369 -987h-254l-201 629l-202 -629h-254zM387 1290q0 39 14.5 73t40 59.5t59.5 40t74 14.5q39 0 74 -15.5t60.5 -41t40 -59.5t14.5 -71q0 -39 -14.5 -72.5t-40 -59t-60.5 -40t-74 -14.5q-80 0 -134 54t-54 132z M881 1290q0 39 14 73t40 59.5t59.5 40t72.5 14.5t74 -15.5t60.5 -41t39.5 -59.5t14 -71q0 -39 -14 -72.5t-39.5 -59t-60.5 -40t-74 -14.5q-78 0 -132 54t-54 132z" />
<glyph unicode="&#x1ef2;" horiz-adv-x="1312" d="M8 1434h387l305 -564l263 564h366l-711 -1434h-366l264 539zM324 1778l98 217l565 -262l-98 -217z" />
<glyph unicode="&#x1ef3;" horiz-adv-x="1259" d="M121 -76h307q2 -72 46 -119t149 -47q98 0 146 53.5t48 178.5v168q-41 -80 -125 -124t-200 -44q-102 0 -168 31.5t-107 80.5q-47 57 -61.5 132t-14.5 182v571h312v-506q0 -106 37.5 -172.5t136.5 -66.5q98 0 144 67.5t46 182.5v495h313v-981q0 -252 -119.5 -365.5 t-379.5 -113.5q-137 0 -233.5 28.5t-158 81t-90 126t-28.5 161.5zM297 1305l98 217l566 -262l-99 -218z" />
<glyph unicode="&#x2000;" horiz-adv-x="1020" />
<glyph unicode="&#x2001;" horiz-adv-x="2040" />
<glyph unicode="&#x2002;" horiz-adv-x="1020" />
<glyph unicode="&#x2003;" horiz-adv-x="2040" />
<glyph unicode="&#x2004;" horiz-adv-x="680" />
<glyph unicode="&#x2005;" horiz-adv-x="510" />
<glyph unicode="&#x2006;" horiz-adv-x="340" />
<glyph unicode="&#x2007;" horiz-adv-x="340" />
<glyph unicode="&#x2008;" horiz-adv-x="255" />
<glyph unicode="&#x2009;" horiz-adv-x="408" />
<glyph unicode="&#x200a;" horiz-adv-x="113" />
<glyph unicode="&#x2010;" horiz-adv-x="649" d="M66 483v250h518v-250h-518z" />
<glyph unicode="&#x2011;" horiz-adv-x="649" d="M66 483v250h518v-250h-518z" />
<glyph unicode="&#x2012;" horiz-adv-x="649" d="M66 483v250h518v-250h-518z" />
<glyph unicode="&#x2013;" horiz-adv-x="1030" d="M82 483v250h866v-250h-866z" />
<glyph unicode="&#x2014;" horiz-adv-x="2060" d="M92 483v250h1876v-250h-1876z" />
<glyph unicode="&#x2018;" horiz-adv-x="610" d="M102 1141q0 186 105.5 280.5t298.5 94.5v-123q-61 0 -104.5 -13.5t-71.5 -36.5q-23 -16 -39.5 -44.5t-20.5 -63.5q27 14 58 14q82 0 135 -56t53 -136q0 -82 -55 -139.5t-148 -57.5q-92 0 -151.5 68.5t-59.5 212.5z" />
<glyph unicode="&#x2019;" horiz-adv-x="610" d="M94 1319q0 80 55.5 138.5t147.5 58.5t151.5 -69t59.5 -212q0 -182 -102.5 -278.5t-301.5 -96.5v121q61 0 104.5 14.5t72.5 36.5q29 23 42 51.5t17 57.5q-4 -4 -18.5 -9.5t-40.5 -5.5q-82 0 -134.5 56.5t-52.5 136.5z" />
<glyph unicode="&#x201a;" horiz-adv-x="610" d="M94 156q0 80 55.5 138t147.5 58t151.5 -68.5t59.5 -211.5q0 -182 -102.5 -278.5t-301.5 -96.5v121q61 0 104.5 14t72.5 37t42 51.5t17 56.5q-4 -4 -19.5 -9t-39.5 -5q-82 0 -134.5 56.5t-52.5 136.5z" />
<glyph unicode="&#x201c;" horiz-adv-x="1071" d="M102 1141q0 186 105.5 280.5t298.5 94.5v-123q-61 0 -104.5 -13.5t-71.5 -36.5q-23 -16 -39.5 -44.5t-20.5 -63.5q27 14 58 14q82 0 135 -56t53 -136q0 -82 -55 -139.5t-148 -57.5q-92 0 -151.5 68.5t-59.5 212.5zM563 1141q0 184 103.5 279.5t300.5 95.5v-123 q-61 0 -104.5 -13.5t-71.5 -36.5q-23 -18 -39.5 -46.5t-20.5 -61.5q4 4 18.5 9t43.5 5q39 0 72.5 -15t58 -41t39 -61.5t14.5 -74.5q0 -80 -55.5 -138.5t-147.5 -58.5t-151.5 68.5t-59.5 212.5z" />
<glyph unicode="&#x201d;" horiz-adv-x="1071" d="M94 1319q0 80 55.5 138.5t147.5 58.5t151.5 -69t59.5 -212q0 -182 -102.5 -278.5t-301.5 -96.5v121q61 0 104.5 14.5t72.5 36.5q53 43 59 107q-12 -12 -59 -13q-82 0 -134.5 56.5t-52.5 136.5zM555 1319q0 80 55.5 138.5t147.5 58.5t151.5 -69t59.5 -212 q0 -184 -104.5 -279.5t-299.5 -95.5v121q61 0 104.5 14.5t71.5 36.5q29 23 42.5 51.5t17.5 57.5q-4 -4 -19.5 -9.5t-40.5 -5.5q-80 0 -133 56.5t-53 136.5z" />
<glyph unicode="&#x201e;" horiz-adv-x="1071" d="M94 156q0 80 55.5 138t147.5 58t151.5 -68.5t59.5 -211.5q0 -182 -102.5 -278.5t-301.5 -96.5v121q61 0 104.5 14t72.5 37t42 51.5t17 56.5q-4 -4 -19.5 -9t-39.5 -5q-82 0 -134.5 56.5t-52.5 136.5zM555 156q0 80 55.5 138t147.5 58t151.5 -68.5t59.5 -211.5 q0 -184 -104.5 -279.5t-299.5 -95.5v121q61 0 104.5 14t71.5 37q29 23 42.5 51.5t17.5 56.5q-4 -4 -19.5 -9t-40.5 -5q-80 0 -133 56.5t-53 136.5z" />
<glyph unicode="&#x2020;" horiz-adv-x="954" d="M113 715v229h237v524h254v-524h236v-229h-236v-1088h-254v1088h-237z" />
<glyph unicode="&#x2021;" horiz-adv-x="954" d="M113 0v223h237v539h-237v225h237v481h254v-481h236v-225h-236v-539h236v-223h-236v-373h-254v373h-237z" />
<glyph unicode="&#x2022;" horiz-adv-x="743" d="M96 639q0 57 21.5 107.5t58.5 87t87 58t108 21.5q57 0 108 -21.5t88 -58t58.5 -87t21.5 -107.5q0 -55 -21.5 -105.5t-58.5 -87t-88 -58t-108 -21.5t-107.5 21.5t-87.5 58t-58.5 87t-21.5 105.5z" />
<glyph unicode="&#x2026;" horiz-adv-x="2019" d="M102 186q0 43 16.5 81t44 65.5t65.5 44t81 16.5t81 -16.5t65.5 -44t44 -65.5t16.5 -81t-16.5 -79.5t-44 -64.5t-65.5 -44t-81 -16t-81 16t-65.5 44t-44 64.5t-16.5 79.5zM803 184q0 43 16.5 81t44 65.5t65.5 44t81 16.5t80.5 -16.5t65.5 -44t44.5 -65.5t16.5 -81 t-16.5 -79.5t-44.5 -64.5t-65.5 -44t-80.5 -16t-81 16t-65.5 44t-44 64.5t-16.5 79.5zM1503 184q0 43 16.5 80t44 64.5t65.5 44t81 16.5t81 -16.5t65.5 -44t44 -64.5t16.5 -80t-16.5 -79.5t-44 -64.5t-65.5 -44t-81 -16t-81 16t-65.5 44t-44 64.5t-16.5 79.5z" />
<glyph unicode="&#x202f;" horiz-adv-x="408" />
<glyph unicode="&#x2030;" horiz-adv-x="2715" d="M125 911v256q0 57 21.5 109.5t62.5 91.5t99.5 61.5t131.5 22.5q74 0 132.5 -22.5t100.5 -61.5t64.5 -91t22.5 -110v-256q0 -57 -22.5 -109t-64.5 -91t-100.5 -61.5t-132.5 -22.5t-132 22.5t-99 61.5t-62.5 91t-21.5 109zM344 911q0 -43 25.5 -74.5t70.5 -31.5 q47 0 74 31.5t27 74.5v256q0 43 -27 75t-74 32q-45 0 -70.5 -32t-25.5 -75v-256zM457 0l819 1544l215 -108l-819 -1545zM1202 266v256q0 57 21.5 109.5t62.5 91.5t99.5 61.5t132.5 22.5t132 -22.5t100 -61.5t64.5 -91t22.5 -110v-256q0 -57 -22.5 -109.5t-64.5 -91 t-100.5 -61t-131.5 -22.5q-74 0 -132.5 22.5t-99.5 61t-62.5 91t-21.5 109.5zM1421 266q0 -43 26 -74.5t71 -31.5q47 0 73.5 31.5t26.5 74.5v256q0 43 -26.5 75t-73.5 32q-45 0 -71 -32t-26 -75v-256zM1956 266v256q0 57 21.5 109.5t62.5 91.5t99.5 61.5t131.5 22.5 q74 0 132.5 -22.5t100.5 -61.5t64.5 -91t22.5 -110v-256q0 -57 -22.5 -109.5t-64.5 -91t-100.5 -61t-132.5 -22.5t-132 22.5t-99 61t-62.5 91t-21.5 109.5zM2175 266q0 -43 25.5 -74.5t70.5 -31.5q47 0 74 31.5t27 74.5v256q0 43 -27 75t-74 32q-45 0 -70.5 -32t-25.5 -75 v-256z" />
<glyph unicode="&#x2039;" horiz-adv-x="598" d="M76 514v164l436 354v-272l-211 -164l211 -164v-272z" />
<glyph unicode="&#x203a;" horiz-adv-x="598" d="M86 160v272l209 164l-209 164v272l436 -354v-164z" />
<glyph unicode="&#x2044;" horiz-adv-x="419" d="M-307 0l819 1544l215 -108l-819 -1545z" />
<glyph unicode="&#x205f;" horiz-adv-x="510" />
<glyph unicode="&#x20ac;" horiz-adv-x="1290" d="M16 483l41 181h86v108h-127l41 178h86q0 104 38 197.5t109.5 164t172 111.5t227.5 41q119 0 217.5 -37.5t169 -102t111.5 -152t47 -185.5h-332q-10 84 -66.5 140.5t-148.5 56.5q-49 0 -89 -18.5t-67.5 -50.5t-42 -75t-14.5 -90h350l-41 -178h-309v-108h350l-41 -181h-309 q0 -47 14.5 -90t42 -74.5t67.5 -50t89 -18.5t90 18.5t68.5 50t43 74.5t15.5 90h332q0 -104 -39 -197t-110.5 -164t-173 -112t-226.5 -41t-226.5 41t-172 112t-108.5 164t-38 197h-127z" />
<glyph unicode="&#x2113;" horiz-adv-x="976" d="M4 422l240 158v458q0 205 96 317.5t270 112.5q96 0 163 -33.5t107 -88t57 -121t17 -133.5q0 -100 -33.5 -184.5t-92 -159t-135.5 -141t-165 -130.5v-119q0 -49 15.5 -77.5t40 -43t56.5 -18.5t67 -4q47 0 90 4t69 10v-233q-35 -12 -94.5 -18.5t-155.5 -6.5 q-53 0 -113.5 6.5t-114.5 37t-92 94t-46 178.5l-129 -88zM528 784q92 80 133 151t41 161q0 27 -4 52.5t-13 45.5t-23 32.5t-37 12.5q-45 0 -71 -47t-26 -119v-289z" />
<glyph unicode="&#x2116;" horiz-adv-x="2373" d="M137 0v1434h346l518 -934v934h330v-1434h-346l-516 922v-922h-332zM1419 352v223h905v-223h-905zM1419 1034q0 86 31 163t88 134.5t141 91t193 33.5q106 0 191 -33.5t142.5 -91t88 -134.5t30.5 -163t-30.5 -162.5t-88 -134t-142.5 -91.5t-191 -34q-109 0 -193 34 t-141 91.5t-88 134t-31 162.5zM1698 1034q0 -78 48 -132t126 -54t126 54t48 132t-48 131.5t-126 53.5t-126 -53.5t-48 -131.5z" />
<glyph unicode="&#x2122;" horiz-adv-x="1714" d="M66 1266v168h561v-168h-185v-666h-192v666h-184zM737 600v834h285l172 -543l172 543h274v-834h-188v598l-188 -598h-138l-202 619v-619h-187z" />
<glyph unicode="&#x2126;" horiz-adv-x="1480" d="M80 827q0 125 45 239t131 201t209 139t276 52q154 0 276 -52t208 -139t131 -201t45 -239q0 -88 -22.5 -170t-66.5 -150.5t-107.5 -123.5t-143.5 -92v-31h307v-260h-563v446q72 16 122 53.5t81.5 87.5t46 108.5t14.5 115.5q0 72 -20.5 135.5t-61.5 111.5t-102.5 75.5 t-143.5 27.5t-143 -27.5t-103 -75.5t-62.5 -111.5t-20.5 -135.5q0 -57 14 -115.5t46 -108.5t82 -87t122 -54v-446h-563v260h307v31q-162 74 -251 216t-89 320z" />
<glyph unicode="&#x212e;" horiz-adv-x="1091" d="M70 500q0 111 33.5 204t95 162.5t149.5 108.5t197 39q100 0 186 -34t149.5 -94.5t98.5 -142t35 -176.5v-24.5t-2 -36.5h-670v-430q45 -27 99.5 -41.5t119.5 -14.5q76 0 140.5 20.5t114.5 54.5t84 80t50 95h45q-16 -63 -54 -116.5t-94 -93.5t-129 -62.5t-161 -22.5 q-123 0 -214 43t-151.5 116t-91 168t-30.5 198zM342 551h406v369q-41 23 -90.5 36t-106.5 13q-119 0 -209 -54v-364z" />
<glyph unicode="&#x2190;" d="M-88 717l532 491l144 -157l-248 -222h1006v-227h-1004l246 -219l-144 -158z" />
<glyph unicode="&#x2191;" d="M137 901l492 533l491 -533l-157 -145l-222 248v-1004h-227v1001l-221 -245z" />
<glyph unicode="&#x2192;" d="M-88 604v227h1001l-245 220q39 43 71 77q27 29 49.5 54.5t24.5 25.5l533 -491l-533 -492l-145 158l247 221h-1003z" />
<glyph unicode="&#x2193;" d="M137 532l156 146l223 -250v1006h225v-1004l222 248l157 -146l-491 -532z" />
<glyph unicode="&#x2196;" d="M82 1223l723 -27l-10 -215l-332 18l711 -708l-160 -162l-709 709l19 -330l-215 -8z" />
<glyph unicode="&#x2197;" d="M82 291l706 708l-327 -18q-4 59 -6 106q-2 41 -3 74t-1 35l723 27l-27 -723l-215 8l20 332l-710 -711z" />
<glyph unicode="&#x2198;" d="M82 1143l160 162l708 -709l-18 330l215 8l27 -723l-723 27l10 215l332 -19z" />
<glyph unicode="&#x2199;" d="M82 211l27 723l215 -8l-19 -332l709 711l160 -162l-707 -709l328 19l4 -107q2 -41 4 -73.5t2 -34.5z" />
<glyph unicode="&#x2202;" d="M86 428q0 109 37 200t102.5 156.5t154.5 102.5t193 37q86 0 154 -22.5t117 -53.5q-4 109 -19.5 181.5t-42 115.5t-63.5 61.5t-86 18.5q-102 0 -155.5 -66.5t-53.5 -177.5h-332q0 94 32 183t98.5 157t166.5 108.5t238 40.5q117 0 216 -35.5t171.5 -123.5t113.5 -235.5 t41 -370.5q0 -209 -36.5 -352.5t-106.5 -230.5t-171 -125t-228 -38q-129 0 -229.5 34t-169 95.5t-105.5 148.5t-37 191zM408 436q0 -43 12 -82t37.5 -68.5t64.5 -47t94 -17.5q47 0 88 16.5t72 58.5t50.5 114.5t21.5 185.5q-47 37 -102.5 54.5t-108.5 17.5 q-61 0 -104.5 -20.5t-71 -52.5t-40.5 -74t-13 -85z" />
<glyph unicode="&#x2206;" horiz-adv-x="1351" d="M8 0l512 1434h305l518 -1434h-1335zM446 260h451l-223 764z" />
<glyph unicode="&#x220f;" horiz-adv-x="1433" d="M-6 1337v289h1446v-289h-144v-1783h-331v1783h-496v-1783h-332v1783h-143z" />
<glyph unicode="&#x2211;" d="M39 -158l731 758l-731 750v276h1178v-287h-768l729 -708l-729 -778h768v-299h-1178v288z" />
<glyph unicode="&#x2212;" d="M190 457v252h875v-252h-875z" />
<glyph unicode="&#x221a;" horiz-adv-x="1583" d="M-8 248v278h506l180 -583l559 1683h362l-770 -2105h-305l-266 727h-266z" />
<glyph unicode="&#x221e;" horiz-adv-x="1732" d="M43 592q0 84 29.5 163t86 140t138.5 98t186 37q117 0 206 -51t177 -162q86 111 177 162t208 51q102 0 183.5 -36t138.5 -95t87 -139t30 -168t-30 -167t-87 -139.5t-138 -96t-186 -35.5q-111 0 -202 48t-181 165q-92 -117 -182 -165t-201 -48q-104 0 -186 36.5t-138.5 98 t-86 140.5t-29.5 163zM309 592q0 -78 49.5 -133.5t130.5 -55.5q63 0 126 43t122 146q-59 100 -121.5 144t-128.5 44q-78 0 -128 -55t-50 -133zM995 592q55 -100 119 -144.5t129 -44.5q84 0 132 56.5t48 132.5q0 78 -49 133t-131 55q-66 0 -128 -44t-120 -144z" />
<glyph unicode="&#x222b;" horiz-adv-x="669" d="M16 -242q29 -8 45.5 -10t30.5 -2q45 0 65.5 21.5t20.5 76.5v1465q0 98 21.5 159.5t58.5 96t86 48t105 13.5q27 0 56.5 -2t57 -5t52 -8t38.5 -9v-234q-29 8 -46 10t-29 2q-45 0 -67 -21.5t-22 -76.5v-1464q0 -98 -20 -159.5t-57 -96.5t-86.5 -48.5t-104.5 -13.5 q-27 0 -56.5 2t-57 5.5t-52 8.5t-39.5 9v233z" />
<glyph unicode="&#x2248;" d="M160 156v243q53 68 116.5 94.5t116.5 26.5q55 0 117.5 -19.5t128.5 -45.5q66 -27 123 -50.5t110 -23.5q63 0 122 36t100 77v-244q-51 -68 -113.5 -94.5t-122.5 -26.5q-57 0 -109.5 19.5t-111.5 48.5t-119.5 50t-122.5 21q-78 0 -130 -32.5t-105 -79.5zM160 526v244 q53 68 116.5 94.5t116.5 26.5q55 0 117.5 -19.5t128.5 -46.5t123 -50t110 -23q63 0 122 35.5t100 76.5v-243q-51 -68 -113.5 -94.5t-122.5 -26.5q-57 0 -109.5 19.5t-111.5 47.5q-59 29 -119.5 50.5t-122.5 21.5q-78 0 -130 -33t-105 -80z" />
<glyph unicode="&#x2260;" d="M190 270v250h265l53 121h-318v250h424l93 213h280l-90 -213h168v-250h-277l-53 -121h330v-250h-436l-90 -213h-283l92 213h-158z" />
<glyph unicode="&#x2264;" d="M190 0v250h875v-250h-875zM190 801v246l875 294v-276l-477 -141l477 -142v-276z" />
<glyph unicode="&#x2265;" d="M190 0v250h875v-250h-875zM190 506v276l478 142l-478 141v276l875 -294v-246z" />
<glyph unicode="&#x25ca;" horiz-adv-x="1142" d="M6 811l389 815h353l387 -815l-385 -811h-355zM342 811l229 -504l230 504l-230 504z" />
<glyph unicode="&#xe000;" horiz-adv-x="983" d="M0 0v983h983v-983h-983z" />
<glyph unicode="&#xfb01;" horiz-adv-x="1429" d="M33 754v233h176v86q0 133 37 210t90 115t115.5 48t115.5 10q72 0 115 -8t70 -18v-226q-25 6 -47.5 9.5t-53.5 3.5q-25 0 -47 -3.5t-40.5 -16.5t-30 -37.5t-11.5 -67.5v-105h230v-233h-230v-754h-313v754h-176zM907 1313q0 82 56.5 138t138.5 56q84 0 140 -56t56 -138 q0 -41 -15 -76t-42 -60.5t-62.5 -41t-76.5 -15.5t-77 15.5t-61.5 41t-41 60.5t-15.5 76zM946 0v987h314v-987h-314z" />
<glyph unicode="&#xfb02;" horiz-adv-x="1355" d="M33 754v233h176v86q0 133 37 210t90 115t115.5 48t115.5 10q72 0 115 -8t70 -18v-226q-25 6 -47.5 9.5t-53.5 3.5q-25 0 -47 -3.5t-40.5 -16.5t-30 -37.5t-11.5 -67.5v-105h230v-233h-230v-754h-313v754h-176zM909 0v1434h314v-1434h-314z" />
<glyph horiz-adv-x="1452" d="M68 674q0 29 2 60.5t6 58t12 44t21 17.5q8 0 16 -7t15 -16.5t13.5 -16.5t10.5 -7q2 0 4 46t15.5 115.5t45 151.5t94 151.5t160 116t244.5 46.5q145 0 243.5 -46.5t161 -116t94 -151.5t45 -151.5t15.5 -115.5t4 -46q4 0 10.5 7t13.5 16.5t15 16.5t17 7q12 0 20 -19.5 t13 -47t6 -58.5t1 -55q0 -14 -1 -43t-6 -58.5t-14 -51t-26 -21.5q-16 0 -25 11t-11 15q-14 -61 -44 -150t-92.5 -173t-168 -143.5t-271.5 -59.5q-162 0 -265.5 55.5t-166 137t-94 173t-49.5 164.5q-4 -8 -11 -16q-10 -14 -26 -14t-26.5 21.5t-14.5 51t-5 58t-1 43.5z M287 788q20 -27 47 -47q23 -18 57.5 -32.5t77.5 -14.5q51 0 85 20.5t56 45.5q25 29 39 65q-10 14 -26 29q-14 12 -36 25.5t-55 23.5q16 -14 28.5 -35.5t12.5 -48.5q0 -43 -29.5 -72.5t-74.5 -29.5q-41 0 -72.5 27.5t-31.5 82.5q0 16 5 34t21 32q-29 -10 -49 -27.5t-33 -34.5 q-14 -20 -22 -43zM436 377q12 -59 49 -105q31 -41 91.5 -72.5t166.5 -31.5q104 0 161 32.5t78.5 71.5t17 72t-16.5 33q-8 0 -34.5 8t-30.5 10q10 16 16 37t6 39q0 12 -3 31.5t-10 38t-17.5 32t-24.5 13.5q-8 0 -17.5 -6.5t-9.5 -22.5q0 -6 1 -7t3 -5q10 -12 16.5 -24.5 t6.5 -41.5q0 -39 -15 -65q-35 16 -65.5 30.5t-77.5 14.5t-80 -14.5t-63 -30.5q-14 27 -15 65q0 20 4.5 35.5t16.5 30.5q6 2 6 14q0 27 -27 27q-14 0 -24 -13.5t-17.5 -32t-10.5 -40t-3 -35.5t4 -33.5t14 -36.5q-20 -8 -43.5 -13t-52.5 -5zM803 825q14 -37 39 -65 q23 -25 56.5 -45.5t86.5 -20.5q43 0 77 14.5t56 32.5q27 20 49 47q-10 23 -24 43q-12 16 -32.5 35t-49.5 29q29 -29 29 -74q0 -47 -30 -75.5t-75 -28.5t-74.5 29.5t-29.5 72.5q0 18 7 39t23 35q-29 -10 -50 -21.5t-34 -21.5q-16 -12 -24 -25z" />
<glyph horiz-adv-x="497" d="M90 94q0 66 44 112t116 46q74 0 123 -55.5t49 -169.5q0 -152 -88 -225.5t-238 -73.5v98q94 0 142 39q43 35 47 88q-4 -4 -14.5 -9t-32.5 -5q-66 0 -107 46t-41 109z" />
<glyph horiz-adv-x="497" d="M88 1368q0 152 87 226.5t237 74.5v-98q-49 0 -84 -11.5t-58 -29.5t-33 -41t-14 -45q4 4 15.5 8t33.5 4q63 0 105.5 -45t42.5 -111t-45 -111.5t-117 -45.5q-74 0 -122 55t-48 170z" />
</font>
</defs>
</svg>
