<?xml version="1.0" standalone="no"?>
<!DOCTYPE svg PUBLIC "-//W3C//DTD SVG 1.1//EN" "http://www.w3.org/Graphics/SVG/1.1/DTD/svg11.dtd" >
<svg xmlns="http://www.w3.org/2000/svg">
<metadata></metadata>
<defs>
<font id="gt_walsheimregular" horiz-adv-x="1157" >
<font-face units-per-em="2048" ascent="1622" descent="-426" />
<missing-glyph horiz-adv-x="518" />
<glyph unicode=" "  horiz-adv-x="518" />
<glyph unicode="&#x09;" horiz-adv-x="518" />
<glyph unicode="&#xa0;" horiz-adv-x="518" />
<glyph unicode="!" horiz-adv-x="606" d="M166 111q0 33 13.5 62.5t36 51t52 33.5t62.5 12q59 0 98 -38.5t39 -96.5q0 -33 -13.5 -62.5t-37 -52t-53 -36t-62.5 -13.5q-59 0 -97 41.5t-38 98.5zM252 436l106 1006h193l-107 -1006h-192z" />
<glyph unicode="&#x22;" horiz-adv-x="724" d="M256 1272l20 196h168l-20 -196l-72 -318h-88zM567 1272l21 196h168l-21 -196l-71 -318h-91z" />
<glyph unicode="#" horiz-adv-x="1126" d="M104 428l15 139h215l72 299h-195l16 140h215l105 428h147l-104 -428h258l104 428h148l-105 -428h179l-17 -140h-199l-71 -299h178l-14 -139h-199l-104 -428h-146l105 428h-261l-104 -428h-145l104 428h-197zM481 567h258l72 299h-258z" />
<glyph unicode="$" horiz-adv-x="1280" d="M201 457h186q-8 -74 9.5 -133.5t55 -101.5t95 -64.5t129.5 -22.5q68 0 125 19.5t99 55.5t65.5 85t23.5 108q0 57 -21.5 96.5t-56 65t-80 43t-90.5 31.5q-84 27 -160.5 57.5t-136 74.5t-95.5 107.5t-36 159.5q0 88 31 160t85 125t129 88t161 47l22 217h166l-22 -217 q162 -25 251 -138.5t72 -291.5h-186q10 129 -53.5 199.5t-186.5 70.5q-59 0 -110 -16t-89 -47t-59.5 -75t-21.5 -97t19.5 -89t53 -61.5t77.5 -43t91 -33.5q84 -29 163 -60t139.5 -76t96.5 -110.5t36 -161.5q0 -92 -33 -170t-93.5 -137.5t-142.5 -97t-180 -50.5l-22 -215 h-166l22 217q-88 12 -159.5 50t-121 100.5t-71 145.5t-10.5 186z" />
<glyph unicode="%" horiz-adv-x="1884" d="M227 901l29 277q6 57 32.5 106t67.5 86t96.5 57.5t118.5 20.5q68 0 119 -21.5t85 -59.5t48.5 -88t7.5 -105l-30 -277q-6 -55 -32 -104.5t-68 -86t-97 -58t-121 -21.5t-117 22.5t-83.5 59t-47 87t-8.5 105.5zM373 901q-6 -61 27.5 -105t99.5 -44t108.5 44t48.5 105l29 273 q6 61 -27.5 106t-99.5 45t-108.5 -45t-49.5 -106zM406 -12l1056 1542l135 -82l-1060 -1542zM1206 258l29 277q6 57 32.5 106t67.5 86t96.5 57.5t118.5 20.5q68 0 119 -21.5t85 -59.5t48.5 -88t7.5 -106l-30 -276q-6 -55 -32 -104.5t-68 -86t-97 -58t-121 -21.5t-117 22.5 t-83.5 59t-47 87t-8.5 105.5zM1352 258q-6 -61 27.5 -105t99.5 -44t108.5 44t48.5 105l27 272q6 61 -26.5 106.5t-98.5 45.5t-110 -45t-50 -107z" />
<glyph unicode="&#x26;" horiz-adv-x="1226" d="M137 377q0 74 21.5 131t60.5 102t92.5 79t116.5 59q-92 37 -141 107.5t-49 176.5q0 96 39.5 175t107.5 134.5t156 85t184 29.5q98 0 177 -30.5t132 -88t78 -136.5t14 -173h-186q12 117 -45 188.5t-193 71.5q-123 0 -199.5 -63.5t-76.5 -184.5q0 -90 55.5 -149.5 t194.5 -59.5h31l-19 -165h-31q-86 0 -149.5 -24t-104.5 -62.5t-60 -90t-19 -104.5q0 -117 77.5 -178.5t188.5 -61.5q72 0 130 25t101 70t70 106.5t35 132.5h-168l16 166h477l-16 -166h-123q-12 -115 -59 -208t-119 -158.5t-164 -100.5t-195 -35q-90 0 -169.5 28t-139 79 t-94.5 126t-35 167z" />
<glyph unicode="'" horiz-adv-x="413" d="M256 1272l20 196h168l-20 -196l-72 -318h-88z" />
<glyph unicode="(" horiz-adv-x="753" d="M209 -8l119 1147q10 98 54 187t114.5 155.5t165 105.5t204.5 39l-16 -168q-68 0 -126 -25.5t-103.5 -68.5t-73 -101.5t-33.5 -123.5l-119 -1147q-6 -66 8.5 -124t49 -101t88 -69t121.5 -26l-17 -168q-111 0 -197 39t-143 105.5t-81.5 156t-14.5 187.5z" />
<glyph unicode=")" horiz-adv-x="753" d="M6 -496l19 168q68 0 126 26t102 69t71.5 101t33.5 124l121 1147q6 66 -9 124t-50 101t-88 68.5t-121 25.5l18 168q111 0 197 -39t142.5 -105.5t82 -155.5t15.5 -187l-121 -1147q-10 -98 -54.5 -187.5t-115 -156t-164.5 -105.5t-205 -39z" />
<glyph unicode="*" horiz-adv-x="937" d="M203 1145l49 110l285 -98l30 311h119l-37 -311l303 98l25 -110l-307 -94l159 -250l-102 -68l-154 252l-206 -252l-91 68l213 250z" />
<glyph unicode="+" horiz-adv-x="1177" d="M233 504l17 158h319l35 331h178l-34 -331h319l-16 -158h-320l-35 -328h-178l35 328h-320z" />
<glyph unicode="," horiz-adv-x="552" d="M104 -238l11 88q61 0 96 17.5t57 46.5q20 25 28.5 47.5t10.5 42.5q-6 -6 -19.5 -11t-33.5 -5q-55 0 -89 39t-34 92q0 63 47 110t119 47q66 0 106.5 -47t40.5 -151q0 -158 -95 -237t-245 -79z" />
<glyph unicode="-" horiz-adv-x="602" d="M115 504l16 160h479l-16 -160h-479z" />
<glyph unicode="." horiz-adv-x="522" d="M131 121q0 66 47 110.5t111 44.5q57 0 94 -38.5t37 -92.5q0 -33 -13.5 -60.5t-36 -49t-51 -33.5t-59.5 -12q-55 0 -92 37t-37 94z" />
<glyph unicode="/" horiz-adv-x="892" d="M2 -76l928 1733l153 -70l-927 -1732z" />
<glyph unicode="0" horiz-adv-x="1185" d="M150 463l55 508q10 98 54 187t114.5 155.5t165 105.5t206.5 39q111 0 198 -39t143.5 -105.5t82 -155.5t15.5 -187l-54 -508q-10 -98 -54 -186.5t-115.5 -156t-167 -106.5t-205.5 -39q-113 0 -199 39t-143.5 106.5t-82 156t-13.5 186.5zM336 463q-6 -66 9 -123t50 -101 t88.5 -70t122.5 -26q70 0 128.5 26t103.5 70t72.5 101t33.5 123l55 508q6 66 -9 124t-51 101t-89 68.5t-123 25.5t-128 -25.5t-103 -68.5t-73 -101.5t-34 -123.5z" />
<glyph unicode="1" horiz-adv-x="706" d="M174 1047l16 149q96 0 157 13.5t97.5 41t53 72.5t22.5 111h178l-151 -1434h-193l111 1047h-291z" />
<glyph unicode="2" horiz-adv-x="1079" d="M96 0q18 174 58.5 290t100.5 195.5t141 132t179 97.5q51 23 110.5 52.5t111 71.5t86.5 100t35 138q0 104 -60.5 157.5t-165.5 53.5q-123 0 -206 -71.5t-97 -208.5h-186q10 104 55 188t114.5 141.5t156.5 88t184 30.5q176 0 283.5 -97t107.5 -272q0 -115 -47 -198.5 t-115 -144t-143.5 -101.5t-132.5 -68q-98 -49 -161 -90t-99.5 -86t-53 -100t-24.5 -131h682l-19 -168h-895z" />
<glyph unicode="3" horiz-adv-x="1144" d="M115 453h186q-6 -72 11.5 -128.5t54 -96.5t91 -61.5t122.5 -21.5q70 0 127 22.5t97 62.5t62.5 92.5t22.5 113.5q0 98 -62.5 164t-203.5 66h-103l19 165h102q76 0 131 20.5t89 56.5t50.5 81t16.5 94q0 104 -63.5 154.5t-170.5 50.5q-135 0 -205.5 -71.5t-82.5 -188.5h-189 q10 94 50 173t104.5 136.5t150.5 88t185 30.5q86 0 160.5 -24.5t130 -70.5t86 -112.5t30.5 -150.5q0 -68 -19.5 -125.5t-54 -101.5t-82 -75.5t-102.5 -47.5q100 -33 160.5 -110t60.5 -200q0 -102 -42 -186t-113.5 -145.5t-167 -95.5t-199.5 -34q-100 0 -186 32t-146.5 93.5 t-90.5 149.5t-17 201z" />
<glyph unicode="4" horiz-adv-x="1130" d="M188 461l103 973h186l-84 -805h346l45 442h187l-45 -442h215l-19 -168h-215l-49 -461h-186l49 461h-533z" />
<glyph unicode="5" horiz-adv-x="1224" d="M184 465h187q-6 -66 9 -123t50 -101t88 -70t123 -26q76 0 138.5 29t107.5 78t69.5 113.5t24.5 134.5q0 57 -18.5 109.5t-53.5 90t-86 60t-118 22.5q-90 0 -163 -43t-122 -129h-191l86 824h844l-16 -168h-676l-51 -480q59 90 157.5 127t192.5 37q96 0 171 -34.5t127 -93 t78.5 -137.5t26.5 -167q0 -111 -41 -209t-113.5 -172t-172 -117t-217.5 -43q-115 0 -202 40t-143.5 108t-81 156t-14.5 184z" />
<glyph unicode="6" horiz-adv-x="1138" d="M121 418q0 96 31.5 178t85.5 154l499 684h215l-381 -504q20 14 46 19t61 5q98 0 177 -35.5t135.5 -96t87 -141.5t30.5 -171q0 -106 -41 -202.5t-112.5 -170.5t-172 -117t-217.5 -43q-104 0 -187 36t-140.5 95.5t-87 139.5t-29.5 170zM309 434q0 -57 17.5 -109.5t52.5 -92 t86 -63.5t117 -24q74 0 135 29t107 77t72 111.5t26 135.5q0 59 -19.5 111.5t-54.5 91t-87 61t-116 22.5q-74 0 -135 -28.5t-105.5 -76.5t-70 -111.5t-25.5 -133.5z" />
<glyph unicode="7" horiz-adv-x="956" d="M131 0l703 1266h-623l18 168h889l-788 -1434h-199z" />
<glyph unicode="8" horiz-adv-x="1187" d="M152 365q0 61 17 121.5t52 112.5t86 92t121 59q-94 35 -135 111.5t-41 166.5q0 86 35 164t99.5 136t155.5 93t201 35q100 0 177 -28.5t129.5 -78t80 -115t27.5 -140.5q0 -53 -14.5 -105.5t-44 -98.5t-74.5 -83t-109 -57q53 -16 91 -48t63 -74t37 -91.5t12 -98.5 q0 -92 -38 -175t-106.5 -146.5t-165.5 -101.5t-216 -38q-106 0 -188 31t-138.5 83t-85 123t-28.5 151zM338 383q0 -100 70.5 -169t201.5 -69q72 0 131.5 22.5t101.5 60.5t65.5 89.5t23.5 108.5q0 49 -17.5 91t-51.5 75t-85 51.5t-119 18.5q-74 0 -133 -23t-101 -60.5 t-64.5 -89t-22.5 -106.5zM440 1028q0 -92 61.5 -153.5t178.5 -61.5q66 0 119 20.5t90 56.5t57.5 82t20.5 99q0 92 -61.5 154.5t-178.5 62.5q-66 0 -118 -21.5t-90 -56t-58.5 -83t-20.5 -99.5z" />
<glyph unicode="9" horiz-adv-x="1138" d="M180 922q0 106 40 203.5t113 171t172 116.5t218 43q106 0 188 -35t139.5 -95t87 -140t29.5 -170q0 -98 -32.5 -178t-85.5 -154l-498 -684h-215l381 504q-16 -14 -32.5 -18.5t-47.5 -4.5q-104 0 -188 34t-143.5 92.5t-92.5 139t-33 175.5zM369 938q0 -59 18.5 -112.5 t54 -92.5t86 -61.5t115.5 -22.5q74 0 135.5 29t106.5 77t70.5 111.5t25.5 134.5q0 59 -18.5 111.5t-53.5 91.5t-85.5 61.5t-116.5 22.5q-74 0 -136.5 -28.5t-106.5 -76.5t-69.5 -111.5t-25.5 -133.5z" />
<glyph unicode=":" horiz-adv-x="522" d="M131 119q0 66 47 111.5t111 45.5q57 0 94 -38.5t37 -92.5q0 -66 -48 -111.5t-112 -45.5q-57 0 -93 39t-36 92zM205 805q0 66 46 111t109 45q57 0 94.5 -39t37.5 -93q0 -33 -13.5 -60.5t-35 -49t-50 -33.5t-59.5 -12q-55 0 -92 37t-37 94z" />
<glyph unicode=";" horiz-adv-x="538" d="M104 -238l11 88q61 0 96 17.5t57 46.5q20 25 28.5 47.5t10.5 42.5q-6 -6 -19.5 -11t-33.5 -5q-55 0 -89 39t-34 92q0 63 47 110t119 47q66 0 106.5 -47t40.5 -151q0 -158 -95 -237t-245 -79zM205 805q0 66 47 111t108 45q57 0 95.5 -38t38.5 -94q0 -66 -49.5 -110.5 t-112.5 -44.5q-55 0 -91 38t-36 93z" />
<glyph unicode="&#x3c;" horiz-adv-x="1177" d="M123 516l14 129l1077 371l-18 -170l-805 -264l750 -267l-19 -168z" />
<glyph unicode="=" horiz-adv-x="1177" d="M211 336l16 160h828l-17 -160h-827zM246 668l16 157h828l-17 -157h-827z" />
<glyph unicode="&#x3e;" horiz-adv-x="1177" d="M86 147l18 168l803 267l-747 264l18 170l1000 -371l-15 -129z" />
<glyph unicode="?" horiz-adv-x="1032" d="M154 1010q10 102 53 185t110.5 141.5t154.5 90t185 31.5q86 0 159 -24.5t127 -70.5t84 -112.5t30 -150.5t-29 -148.5t-69.5 -112.5t-87 -82t-78.5 -57q-53 -37 -89 -65.5t-57.5 -62t-34 -77.5t-18.5 -110h-180q8 78 24.5 135.5t43 101.5t63.5 80.5t90 71.5q33 23 74 50.5 t76.5 64.5t60 86t24.5 112q0 102 -63.5 152.5t-165.5 50.5q-123 0 -205 -71.5t-96 -208.5h-186zM328 109q0 68 48 114.5t113 46.5q59 0 99.5 -38.5t40.5 -96.5q0 -33 -14.5 -62.5t-37 -52t-53 -36t-63.5 -13.5q-59 0 -96 41.5t-37 96.5z" />
<glyph unicode="@" horiz-adv-x="1748" d="M94 350q0 160 55.5 320.5t172 292t295 213t423.5 81.5q164 0 299.5 -41.5t232.5 -129t150.5 -221.5t53.5 -320q0 -129 -27 -244t-78 -200t-126 -134t-171 -49q-109 0 -175 58.5t-56 150.5l4 37q-49 -78 -131 -120t-178 -42q-82 0 -148.5 30.5t-115 83t-74 121 t-25.5 146.5q0 92 36 176t97.5 146.5t143.5 100.5t174 38q102 0 172.5 -44t101.5 -118l17 143h149l-61 -579q-10 -90 16.5 -140.5t81.5 -50.5q45 0 86 35t69.5 97.5t46 147.5t17.5 187q0 162 -44 276.5t-124 186.5t-189.5 104.5t-240.5 32.5q-209 0 -356.5 -70.5 t-241.5 -181t-137 -244.5t-43 -264q0 -127 41 -241.5t126 -201.5t213 -138t302 -51q55 0 122.5 6t141.5 21.5t151.5 41t153.5 66.5l59 -117q-84 -45 -171 -74.5t-171 -47t-160.5 -25t-140.5 -7.5q-209 0 -363.5 61.5t-255.5 166t-150.5 241t-49.5 287.5zM627 393 q0 -53 16 -99t47 -81t76 -55.5t104 -20.5q66 0 121.5 25.5t96 68.5t64.5 100.5t24 119.5q0 53 -17.5 100t-49.5 82t-78 55.5t-103 20.5q-66 0 -120 -26t-95 -69t-63.5 -100t-22.5 -121z" />
<glyph unicode="A" horiz-adv-x="1144" d="M10 0l645 1434h136l344 -1434h-197l-53 219h-582l-96 -219h-197zM379 389h467l-154 739z" />
<glyph unicode="B" horiz-adv-x="1210" d="M160 0l151 1434h490q117 0 193.5 -34t121.5 -87t62.5 -116.5t17.5 -123.5q0 -80 -24.5 -140.5t-63.5 -103.5t-88 -69.5t-96 -36.5q35 -8 73.5 -28.5t70.5 -56.5t52.5 -85t20.5 -115q0 -61 -22.5 -137t-78 -142.5t-147.5 -112.5t-234 -46h-499zM365 168h313q76 0 128 25.5 t85 63.5t47 83t14 84q0 35 -11 73t-37.5 69.5t-68.5 52t-104 20.5h-317zM432 809h307q76 0 128.5 24.5t84 61.5t45 81t13.5 83q0 35 -11.5 71.5t-37 66.5t-69.5 49.5t-110 19.5h-303z" />
<glyph unicode="C" horiz-adv-x="1587" d="M156 647q0 158 57 305.5t164.5 262t259 183t342.5 68.5q147 0 261 -42t192.5 -113.5t122.5 -170t51 -208.5h-197q-8 78 -40 145.5t-88 116.5t-135 76.5t-179 27.5q-141 0 -256 -54t-196 -143t-125 -204t-44 -235q0 -109 35 -204.5t100.5 -167t159.5 -113.5t213 -42 q88 0 166 23.5t140.5 64.5t110.5 97.5t79 121.5h204q-35 -94 -101.5 -180t-159.5 -151.5t-209.5 -104.5t-254.5 -39q-162 0 -286.5 54.5t-210.5 147.5t-131 217t-45 261z" />
<glyph unicode="D" horiz-adv-x="1427" d="M160 0l151 1434h443q166 0 290.5 -55.5t209.5 -145.5t128 -208t43 -243q0 -145 -57 -285.5t-163.5 -251t-259 -178t-343.5 -67.5h-442zM365 168h256q141 0 253.5 52t192.5 136t122 192.5t42 219.5q0 96 -32 186t-94.5 159t-154.5 111t-215 42h-256z" />
<glyph unicode="E" horiz-adv-x="1114" d="M160 0l151 1434h805l-18 -168h-619l-49 -469h619l-19 -168h-618l-47 -461h618l-18 -168h-805z" />
<glyph unicode="F" horiz-adv-x="1101" d="M160 0l151 1434h805l-18 -168h-619l-53 -512h618l-18 -168h-618l-62 -586h-186z" />
<glyph unicode="G" horiz-adv-x="1712" d="M154 639q0 160 59 309.5t166.5 264t256 184t329.5 69.5q123 0 225 -33.5t176 -92t116 -137.5t46 -169h-189q-8 55 -38.5 103.5t-81 84t-118 56t-151.5 20.5q-135 0 -246.5 -54t-191.5 -144t-123 -206t-43 -239q0 -102 31 -196t94.5 -166t158.5 -115t222 -43q106 0 192 31 t149.5 83t105.5 122.5t63 150.5h-338l16 168h691l-17 -168h-153q-33 -125 -99.5 -227t-160 -175t-213 -113t-261.5 -40q-170 0 -295.5 55.5t-209.5 148.5t-126 215t-42 253z" />
<glyph unicode="H" horiz-adv-x="1359" d="M160 0l151 1434h187l-68 -637h668l67 637h187l-152 -1434h-186l65 629h-667l-66 -629h-186z" />
<glyph unicode="I" horiz-adv-x="512" d="M160 0l151 1434h193l-152 -1434h-192z" />
<glyph unicode="J" horiz-adv-x="1097" d="M76 455h186q-2 -25 -2 -48q0 -110 54 -183q67 -89 196 -89t208 87t95 233l102 979h187l-103 -979q-10 -104 -51 -194.5t-106.5 -155t-154.5 -101.5t-195 -37q-109 0 -191 37t-136 102.5t-77 154.5q-15 62 -15 131q0 31 3 63z" />
<glyph unicode="K" horiz-adv-x="1208" d="M160 0l151 1434h187l-70 -652l672 652h235l-731 -717l580 -717h-236l-534 651l-68 -651h-186z" />
<glyph unicode="L" horiz-adv-x="870" d="M160 0l151 1434h187l-133 -1266h469l-19 -168h-655z" />
<glyph unicode="M" horiz-adv-x="1662" d="M160 0l151 1434h181l370 -1147l613 1147h180l-152 -1434h-188l104 999l-516 -999h-143l-309 999l-105 -999h-186z" />
<glyph unicode="N" horiz-adv-x="1357" d="M160 0l151 1434h207l529 -1108l116 1108h187l-152 -1434h-207l-528 1108l-117 -1108h-186z" />
<glyph unicode="O" horiz-adv-x="1644" d="M156 645q0 158 59 305.5t166.5 262t258.5 184t333 69.5q162 0 287.5 -55t209.5 -149.5t128 -216t44 -254.5q0 -158 -59 -306.5t-166.5 -263.5t-257.5 -184.5t-332 -69.5q-164 0 -288.5 56.5t-209.5 149.5t-129 216t-44 256zM350 659q0 -102 32 -196t94.5 -167t154.5 -117 t211 -44q133 0 244.5 54.5t191.5 144.5t124 204.5t44 237.5q0 102 -32 196.5t-94.5 167t-154.5 115.5t-211 43q-133 0 -243.5 -54t-190.5 -143t-125 -204t-45 -238z" />
<glyph unicode="P" horiz-adv-x="1220" d="M160 0l151 1434h504q104 0 186 -36t139.5 -96.5t87 -140.5t29.5 -170q0 -106 -39.5 -202.5t-112.5 -170t-173.5 -117.5t-220.5 -44h-318l-47 -457h-186zM412 627h317q76 0 138.5 28.5t107.5 76.5t70.5 111.5t25.5 133.5q0 59 -18.5 111.5t-54 92.5t-87 62.5t-114.5 22.5 h-318z" />
<glyph unicode="Q" horiz-adv-x="1644" d="M156 645q0 158 59 305.5t166.5 262t258.5 184t333 69.5q162 0 287.5 -56t209.5 -149.5t128 -216.5t44 -258q0 -139 -46 -267t-128 -232.5t-195.5 -180t-248.5 -108.5l109 -178q-41 -18 -87.5 -40t-87.5 -42l-139 229q-160 0 -283.5 56.5t-208.5 150.5t-128 216t-43 255z M350 659q0 -102 32 -196t94.5 -167t154.5 -117t211 -44q133 0 244.5 54.5t191.5 144.5t124 204.5t44 237.5q0 102 -32 196.5t-94.5 167t-153.5 115.5t-210 43q-133 0 -244.5 -54t-191.5 -143t-125 -204t-45 -238z" />
<glyph unicode="R" horiz-adv-x="1241" d="M160 0l151 1434h504q104 0 186 -36t139.5 -96.5t87 -140.5t29.5 -170q0 -86 -26.5 -164.5t-74.5 -144.5t-115.5 -117t-151.5 -78l250 -487h-213l-238 457h-295l-47 -457h-186zM412 627h317q76 0 138.5 28.5t107.5 76.5t70.5 111.5t25.5 133.5q0 59 -18.5 111.5t-54 92.5 t-87 62.5t-114.5 22.5h-318z" />
<glyph unicode="S" horiz-adv-x="1169" d="M141 457h187q-3 -25 -3 -48q1 -115 67 -187q80 -88 224 -87q68 0 125.5 18.5t99.5 53.5t65.5 84t23.5 108q0 57 -20.5 95t-55.5 65t-79 45.5t-93 34.5q-90 31 -168 61.5t-136.5 73.5t-91 105.5t-32.5 154.5q0 100 39 181t105.5 136.5t154.5 85t184 29.5q100 0 181 -31.5 t135.5 -89t80.5 -138.5q18 -58 17 -125q0 -26 -2 -54h-186q1 18 1 34q0 104 -54 166q-62 70 -187 70q-121 0 -201 -63.5t-80 -171.5q0 -53 19.5 -89t53.5 -61.5t78 -43t91 -33.5q84 -29 162 -60t138 -76t97 -110.5t37 -163.5q0 -104 -43 -189t-114.5 -145.5t-167 -92.5 t-201.5 -32q-109 0 -197 34t-148.5 96.5t-88.5 153.5q-20 64 -21 140q0 32 4 66z" />
<glyph unicode="T" horiz-adv-x="978" d="M158 1266l18 168h930l-19 -168h-372l-133 -1266h-187l133 1266h-370z" />
<glyph unicode="U" horiz-adv-x="1288" d="M195 465l102 969h186l-102 -969q-2 -18 -1 -36q0 -46 10 -90q16 -60 51.5 -105.5t90 -72t125.5 -26.5q70 0 131.5 26.5t107.5 70.5t74.5 104.5t35.5 128.5l102 969h186l-102 -969q-10 -102 -55 -192.5t-118 -158t-170 -107.5t-210 -40q-115 0 -202 40t-144 107.5 t-83 157.5q-18 63 -18 133q0 29 3 60z" />
<glyph unicode="V" horiz-adv-x="1153" d="M160 1434h196l254 -1127l490 1127h196l-651 -1434h-135z" />
<glyph unicode="W" horiz-adv-x="1974" d="M164 1434h196l244 -1110l465 1110h141l232 -1110l477 1110h197l-643 -1434h-138l-231 1110l-463 -1110h-139z" />
<glyph unicode="X" horiz-adv-x="1122" d="M20 0l510 717l-358 717h211l270 -555l389 555h213l-512 -717l361 -717h-213l-273 555l-387 -555h-211z" />
<glyph unicode="Y" horiz-adv-x="1193" d="M172 1434h217l350 -670l408 670h205l-873 -1434h-205l349 569z" />
<glyph unicode="Z" d="M29 0l929 1266h-753l18 168h1067l-930 -1266h803l-18 -168h-1116z" />
<glyph unicode="[" horiz-adv-x="686" d="M109 -479l221 2107h403l-16 -160h-225l-189 -1790h225l-16 -157h-403z" />
<glyph unicode="\" horiz-adv-x="892" d="M156 1587l170 70l563 -1733l-170 -69z" />
<glyph unicode="]" horiz-adv-x="686" d="M72 -479l16 157h225l189 1788h-226l17 160h403l-221 -2105h-403z" />
<glyph unicode="^" horiz-adv-x="1306" d="M193 662l555 874h126l379 -874h-200l-265 651l-401 -651h-194z" />
<glyph unicode="_" horiz-adv-x="1146" d="M37 -227l12 125h1024l-12 -125h-1024z" />
<glyph unicode="`" horiz-adv-x="1013" d="M326 1360l100 139l481 -280l-100 -140z" />
<glyph unicode="a" horiz-adv-x="1222" d="M129 420q0 106 41 203.5t112.5 171t166 116.5t202.5 43q115 0 197 -49t119 -135l16 160h176l-96 -930h-176l16 162q-55 -86 -148 -135.5t-206 -49.5q-96 0 -173 36t-132.5 96.5t-85 140.5t-29.5 170zM305 432q0 -61 19.5 -114.5t55.5 -93.5t89 -63.5t121 -23.5 q76 0 139.5 30t109.5 79t71.5 114.5t25.5 137.5q0 61 -18.5 114.5t-55.5 94.5t-89 64.5t-120 23.5q-76 0 -139 -30t-109.5 -80t-73 -115.5t-26.5 -137.5z" />
<glyph unicode="b" horiz-adv-x="1226" d="M160 0l151 1434h178l-69 -664q51 80 141 132t209 52q94 0 172 -35.5t133 -96t86 -140.5t31 -170q0 -106 -41 -202.5t-111.5 -170t-166 -118t-203.5 -44.5q-121 0 -201 52.5t-115 132.5l-16 -162h-178zM385 432q0 -61 19.5 -114.5t55.5 -93.5t88 -63.5t120 -23.5 q76 0 139 30t109.5 80t72 114.5t25.5 136.5q0 59 -18.5 113.5t-54.5 95.5t-88 64.5t-120 23.5q-74 0 -138.5 -30t-110.5 -79t-72.5 -114.5t-26.5 -139.5z" />
<glyph unicode="c" horiz-adv-x="1083" d="M133 414q0 100 34 197.5t101.5 174t165.5 122.5t228 46q104 0 178.5 -30.5t123.5 -81.5q48 -52 70 -116q20 -59 19 -122v-12h-179q0 86 -54 144.5t-173 58.5q-86 0 -148.5 -32t-104.5 -83t-62.5 -117.5t-20.5 -136.5q0 -59 15.5 -112.5t49.5 -92.5t85 -61.5t125 -22.5 q111 0 171 49.5t91 132.5h178q-16 -72 -55 -133t-97.5 -108t-137.5 -74t-173 -27q-111 0 -191.5 36t-134 95.5t-79 139.5t-25.5 166z" />
<glyph unicode="d" horiz-adv-x="1222" d="M129 420q0 106 41 203.5t112.5 171t166 116.5t202.5 43q115 0 197 -49t119 -135l69 664h176l-149 -1434h-176l16 162q-55 -86 -148 -135.5t-206 -49.5q-96 0 -173 36t-132.5 96.5t-85 140.5t-29.5 170zM305 432q0 -61 19.5 -114.5t55.5 -93.5t89 -63.5t121 -23.5 q76 0 139.5 30t109.5 79t71.5 114.5t25.5 137.5q0 61 -18.5 114.5t-55.5 94.5t-89 64.5t-120 23.5q-76 0 -139 -30t-109.5 -80t-73 -115.5t-26.5 -137.5z" />
<glyph unicode="e" horiz-adv-x="1075" d="M133 418q0 111 37 209t102.5 170.5t158.5 114.5t204 42q90 0 163.5 -28.5t126 -79.5t81 -123t28.5 -158q0 -41 -6 -74.5t-16 -72.5h-699q-2 -21 -2 -42q1 -36 7 -70q10 -52 39.5 -92t80.5 -63.5t125 -23.5q106 0 165.5 44t88.5 103h180q-18 -59 -57 -112t-96.5 -94 t-132 -66t-162.5 -25q-106 0 -185 36t-130.5 95.5t-76 139.5t-24.5 170zM330 553h532q2 18 2 34q0 91 -56 149q-66 68 -183 67q-111 0 -195 -63.5t-100 -186.5z" />
<glyph unicode="f" horiz-adv-x="710" d="M125 780l16 150h201l16 162q12 125 54.5 196.5t93.5 106.5t104.5 43t89.5 8q55 0 87 -7t51 -18l-17 -151q-23 8 -46 12t-64 4q-25 0 -52.5 -4t-52 -21.5t-43 -53.5t-24.5 -97l-19 -180h266l-16 -150h-266l-82 -780h-178l82 780h-201z" />
<glyph unicode="g" horiz-adv-x="1218" d="M84 -119h180q0 -49 12.5 -94t45 -79t85 -54.5t132.5 -20.5q70 0 128 17.5t103 54.5t73.5 95.5t37.5 140.5l22 221q-51 -80 -142 -132.5t-210 -52.5q-96 0 -173 36t-132.5 96.5t-85 140.5t-29.5 170q0 106 41 203.5t111.5 171t165 116.5t202.5 43q121 0 202 -52t116 -132 l16 160h176l-104 -989q-12 -125 -57.5 -213t-114 -144.5t-159.5 -82t-198 -25.5q-133 0 -220 35.5t-138 93t-70 129.5q-16 66 -16 133v14zM307 432q0 -59 18.5 -113.5t55.5 -94.5t89 -63.5t120 -23.5q76 0 139.5 30t109.5 79t72.5 114.5t26.5 137.5q0 61 -18.5 114.5 t-55.5 94.5t-89 64.5t-120 23.5q-76 0 -139 -30t-109.5 -80t-73 -115.5t-26.5 -137.5z" />
<glyph unicode="h" d="M160 0l151 1434h178l-71 -668q51 86 139 137t211 51q90 0 156.5 -30.5t107.5 -92.5q37 -57 44 -123q3 -27 3 -60q0 -45 -6 -99l-57 -549h-178l51 494q3 32 3 62t-3 58q-6 56 -29.5 96t-65.5 63.5t-106 23.5q-68 0 -121 -27t-91 -71t-59.5 -101t-27.5 -119l-51 -479h-178z " />
<glyph unicode="i" horiz-adv-x="565" d="M195 0l98 930h176l-98 -930h-176zM272 1270q0 66 48.5 111.5t111.5 45.5q57 0 93 -38.5t36 -94.5q0 -63 -46 -108t-109 -45q-59 0 -96.5 38t-37.5 91z" />
<glyph unicode="j" horiz-adv-x="561" d="M-43 -498l16 150q29 -10 48.5 -13.5t35.5 -3.5q47 0 75 30t36 95l123 1170h178l-125 -1180q-16 -152 -82.5 -212t-161.5 -60q-35 0 -77.5 7t-65.5 17zM272 1270q0 33 13.5 61.5t35 50t50 33.5t59.5 12q57 0 94 -38.5t37 -94.5q0 -63 -47 -108t-111 -45q-59 0 -95 38 t-36 91z" />
<glyph unicode="k" horiz-adv-x="976" d="M160 0l151 1434h178l-98 -928l434 424h226l-473 -465l374 -465h-225l-344 422l-45 -422h-178z" />
<glyph unicode="l" horiz-adv-x="497" d="M160 0l151 1434h178l-151 -1434h-178z" />
<glyph unicode="m" horiz-adv-x="1687" d="M160 0l98 930h178l-18 -166q39 80 113.5 135t191.5 55q113 0 182.5 -53t85.5 -145q39 80 122 139t212 59q82 0 138.5 -26.5t90.5 -74.5q34 -47 46 -115q8 -41 7 -88q0 -30 -3 -62l-62 -588h-178l55 535q3 32 3 60q0 85 -32 135q-42 66 -139 67q-104 0 -174.5 -80 t-87.5 -244l-49 -473h-178l55 524q4 38 4 70q0 89 -32 137q-44 66 -136 66q-104 0 -177 -79t-89 -245l-49 -473h-178z" />
<glyph unicode="n" d="M160 0l98 930h178l-18 -164q51 86 139 137t211 51q90 0 156.5 -30.5t107.5 -92.5q37 -57 44 -123q3 -27 3 -60q0 -45 -6 -99l-57 -549h-178l51 494q3 32 3 62t-3 58q-6 56 -29.5 96t-65.5 63.5t-106 23.5q-68 0 -121 -27t-91 -71t-59.5 -101t-27.5 -119l-51 -479h-178z " />
<glyph unicode="o" horiz-adv-x="1146" d="M129 418q0 106 40 203.5t112.5 171t171 117.5t215.5 44q104 0 187 -35.5t140.5 -96t88 -141.5t30.5 -171q0 -106 -40 -202.5t-112.5 -170.5t-172 -117t-216.5 -43q-106 0 -189 35t-139.5 95.5t-86 140.5t-29.5 170zM305 432q0 -61 19.5 -114.5t55.5 -93.5t89 -63.5 t121 -23.5q76 0 139.5 30t109.5 79t71.5 114.5t25.5 137.5q0 61 -18.5 114.5t-55.5 94.5t-89 64.5t-120 23.5q-76 0 -139 -30t-109.5 -80t-73 -115.5t-26.5 -137.5z" />
<glyph unicode="p" horiz-adv-x="1226" d="M106 -504l152 1434h178l-18 -160q55 86 147 135t205 49q94 0 172 -35.5t133 -96t86 -140.5t31 -170q0 -106 -41 -202.5t-111.5 -170t-166 -118t-203.5 -44.5q-121 0 -201 52.5t-115 132.5l-69 -666h-179zM385 432q0 -61 19.5 -114.5t55.5 -93.5t88 -63.5t120 -23.5 q76 0 139 30t109.5 80t72 114.5t25.5 136.5q0 59 -18.5 113.5t-54.5 95.5t-88 64.5t-120 23.5q-74 0 -138.5 -30t-110.5 -79t-72.5 -114.5t-26.5 -139.5z" />
<glyph unicode="q" horiz-adv-x="1226" d="M131 420q0 106 41 202.5t111.5 170t167 117.5t204.5 44q121 0 200 -52t114 -132l16 160h178l-149 -1434h-178l69 666q-55 -86 -147 -135.5t-207 -49.5q-96 0 -173 36t-132.5 96.5t-85 140.5t-29.5 170zM309 432q0 -59 18.5 -113.5t55.5 -94.5t89 -63.5t120 -23.5 q74 0 137.5 29t109.5 78t72.5 114.5t26.5 139.5q0 61 -19.5 115.5t-55.5 94.5t-88 63.5t-120 23.5q-76 0 -139 -30t-109.5 -80t-72 -115.5t-25.5 -137.5z" />
<glyph unicode="r" horiz-adv-x="747" d="M160 0l98 930h178l-20 -182q47 88 138 142t194 54q51 0 86 -14l-19 -164q-27 6 -44 8t-36 2q-162 0 -250 -100.5t-104 -267.5l-43 -408h-178z" />
<glyph unicode="s" horiz-adv-x="925" d="M117 313h174q-2 -18 -2 -35q0 -79 48 -115q58 -44 155 -44q90 0 144 34.5t54 104.5q0 35 -16.5 56.5t-50 38t-87 32.5t-124.5 41q-45 16 -86 34.5t-72 44t-49.5 64.5t-18.5 95q0 72 30 126t81 91t116.5 55t137.5 18q82 0 147.5 -22.5t110.5 -64.5t67 -99q16 -42 15 -90 q0 -18 -2 -37h-172q2 15 2 29q0 61 -36 97q-44 44 -136 44q-78 0 -133.5 -34t-55.5 -99q0 -31 13.5 -50.5t44 -34.5t78.5 -30.5t116 -38.5q43 -14 88 -31.5t81 -45t58.5 -69.5t22.5 -104q0 -72 -30.5 -127t-84 -93t-124 -57.5t-148.5 -19.5q-82 0 -150.5 20.5t-117.5 62.5 t-74 106q-17 44 -17 98q0 23 3 49z" />
<glyph unicode="t" horiz-adv-x="696" d="M123 780l16 150h172l33 313h178l-33 -313h242l-16 -150h-242l-45 -428q-3 -31 -3 -57q0 -31 4 -51q7 -40 25.5 -61t45 -27t61.5 -6q29 0 65 2t56 6l-16 -158q-27 -4 -72 -8t-92 -4q-43 0 -92.5 8t-90 40t-63.5 98q-15 42 -15 103q0 35 5 76l49 467h-172z" />
<glyph unicode="u" d="M179 216q-3 28 -3 60q0 47 6 105l58 549h178l-51 -492q-3 -33 -3 -63.5t3 -57.5q6 -55 28.5 -95t64.5 -63.5t105 -23.5q68 0 121 25.5t91 69.5t60.5 101.5t28.5 121.5l49 477h181l-99 -930h-178l19 166q-51 -86 -140.5 -137.5t-212.5 -51.5q-88 0 -155.5 30t-108.5 91 q-35 51 -42 118z" />
<glyph unicode="v" horiz-adv-x="987" d="M106 930h193l219 -676l367 676h192l-524 -930h-123z" />
<glyph unicode="w" horiz-adv-x="1503" d="M106 930h191l162 -656l303 656h176l162 -656l303 656h190l-458 -930h-123l-183 735l-337 -735h-123z" />
<glyph unicode="x" horiz-adv-x="901" d="M33 0l364 469l-262 461h205l174 -324l244 324h205l-361 -461l266 -469h-204l-179 330l-247 -330h-205z" />
<glyph unicode="y" horiz-adv-x="1173" d="M131 -121h174q-2 -18 -2 -34q0 -86 44 -143q52 -69 194 -69q131 0 204.5 69t90.5 232l24 232q-53 -86 -140 -137.5t-212 -51.5q-96 0 -161.5 31t-102.5 88q-35 53 -42 121q-3 28 -3 62q0 48 6 108l57 543h178l-51 -488q-3 -36 -3 -69q0 -28 2 -53q5 -56 26.5 -97 t63.5 -64.5t110 -23.5q70 0 124 25.5t91 69.5t58.5 101.5t27.5 121.5l49 477h180l-104 -996q-12 -123 -53 -209.5t-104.5 -142t-148 -81t-182.5 -25.5q-115 0 -193.5 30.5t-125.5 85t-65 128.5q-13 54 -13 116q0 21 2 43z" />
<glyph unicode="z" horiz-adv-x="888" d="M49 0l580 772h-482l17 158h782l-579 -770h499l-16 -160h-801z" />
<glyph unicode="{" horiz-adv-x="860" d="M188 475l17 148q25 0 58.5 10t64 31.5t54.5 55.5t30 83l55 538q8 72 39 125.5t75 89t96 53t101 17.5h135l-14 -135h-94q-78 0 -116 -53.5t-46 -122.5l-55 -535q-6 -61 -32 -102t-58.5 -67.5t-67.5 -41t-59 -18.5q25 -6 56.5 -19.5t58 -41t43 -72.5t8.5 -115l-50 -471 q-4 -35 1.5 -66.5t19.5 -56t39.5 -39t64.5 -14.5h95l-15 -135h-135q-49 0 -97 17.5t-85 52t-56.5 89t-11.5 125.5l49 476q6 53 -10 90t-43 60.5t-58.5 33.5t-56.5 10z" />
<glyph unicode="|" horiz-adv-x="497" d="M109 -479l221 2105h178l-221 -2105h-178z" />
<glyph unicode="}" horiz-adv-x="860" d="M68 -479l14 135h92q78 0 116 54t46 122l49 471q6 68 31.5 113t58.5 73.5t68 42t61 19.5q-25 4 -56.5 18.5t-58 41t-43 67.5t-10.5 102l56 535q8 70 -21 123t-104 53h-93l15 135h135q49 0 97 -17.5t85 -53t56.5 -89t11.5 -125.5l-56 -538q-6 -49 11.5 -83t44 -55.5 t58.5 -31.5t56 -10l-16 -148q-25 0 -58.5 -10t-65.5 -33.5t-55.5 -60.5t-29.5 -90l-49 -476q-8 -72 -39 -126t-75 -88.5t-96 -52t-101 -17.5h-135z" />
<glyph unicode="~" horiz-adv-x="1060" d="M121 438l16 158q55 61 117.5 86t116.5 25q53 0 112.5 -19.5t118.5 -46.5q66 -29 119 -51.5t102 -22.5q63 0 124 36t106 77l-17 -156q-55 -61 -118.5 -88.5t-122.5 -27.5q-53 0 -102.5 19t-112.5 52q-51 27 -109.5 47.5t-116.5 20.5q-72 0 -128 -32t-105 -77z" />
<glyph unicode="&#xa1;" horiz-adv-x="606" d="M209 -6l104 999h195l-105 -999h-194zM299 1298q0 33 13.5 62t36 50.5t51 33.5t59.5 12q57 0 94 -39t37 -92q0 -66 -49 -112t-113 -46q-55 0 -92 38t-37 93z" />
<glyph unicode="&#xa2;" horiz-adv-x="1155" d="M180 592q0 92 30 181t85 162t136 123t183 66l25 224h168l-25 -222q88 -12 149.5 -47t99.5 -83t53.5 -106.5t13.5 -119.5h-178q2 84 -53.5 143.5t-174.5 59.5q-86 0 -148.5 -32t-103.5 -84t-61.5 -118.5t-20.5 -136.5q0 -59 15.5 -111.5t48.5 -91.5t84 -61.5t125 -22.5 q111 0 173 49.5t91 133.5h178q-35 -129 -131 -222.5t-260 -113.5l-23 -221h-167l22 223q-84 12 -146.5 51t-104.5 97.5t-62.5 130t-20.5 149.5z" />
<glyph unicode="&#xa3;" horiz-adv-x="1204" d="M127 0l14 141q57 49 90 171t50 280l10 96h-139l18 168h139l21 193q8 90 52 164.5t110.5 129t151.5 84t177 29.5q98 0 178 -33.5t133.5 -93t78 -141.5t14.5 -180h-187q6 59 -5 110t-40.5 88t-77 58.5t-114.5 21.5q-119 0 -194 -60.5t-85 -150.5l-26 -219h342l-19 -168 h-340l-10 -96q-16 -160 -44 -271.5t-67 -152.5h664l-18 -168h-877z" />
<glyph unicode="&#xa4;" horiz-adv-x="1531" d="M231 334l154 139q-31 49 -46 111.5t-15 128.5q0 92 30.5 175t89.5 154l-122 140l122 112l123 -139q63 43 138 67.5t161 24.5t157 -24.5t124 -65.5l151 137l103 -112l-154 -138q31 -51 47.5 -114.5t16.5 -128.5q0 -92 -32 -175t-91 -155l121 -137l-123 -113l-123 137 q-63 -41 -138 -64.5t-161 -23.5t-155.5 23.5t-123.5 64.5l-153 -137zM504 725q0 -59 18.5 -113.5t54 -94.5t87.5 -63.5t120 -23.5q74 0 138.5 28.5t110.5 78t73 115t27 139.5q0 61 -19.5 115.5t-55.5 94t-88 63t-120 23.5q-76 0 -139.5 -29.5t-109.5 -79.5t-71.5 -115.5 t-25.5 -137.5z" />
<glyph unicode="&#xa5;" horiz-adv-x="1214" d="M106 1434h218l366 -676l504 676h215l-618 -832h299l-15 -149h-332l-16 -146h332l-15 -149h-331l-19 -158h-170l19 158h-326l14 149h326l16 146h-325l14 149h293z" />
<glyph unicode="&#xa6;" horiz-adv-x="497" d="M109 -479l100 952h178l-100 -952h-178zM229 672l101 954h178l-100 -954h-179z" />
<glyph unicode="&#xa7;" horiz-adv-x="1187" d="M113 -6h188q-12 -117 56.5 -192.5t207.5 -75.5q53 0 103.5 13t88.5 39.5t61.5 67.5t23.5 97q0 49 -18.5 81.5t-52.5 57t-81 44.5t-106 38q-92 31 -172 60.5t-138.5 70.5t-92.5 96t-34 137q0 121 73 211t196 123q-66 43 -96.5 109.5t-30.5 144.5q0 92 40 165t107.5 125 t154.5 79.5t183 27.5q100 0 182 -30.5t137.5 -86t82 -131t16.5 -167.5h-188q12 113 -52.5 185.5t-193.5 72.5q-55 0 -105.5 -14.5t-88.5 -42t-61.5 -68.5t-23.5 -94q0 -51 20.5 -86t54.5 -59.5t79 -42t92 -31.5q86 -29 166 -59t139.5 -69.5t95 -95t35.5 -135.5 q0 -66 -23.5 -123t-61.5 -103t-85 -76t-96 -40q137 -86 137 -254q0 -92 -40 -165.5t-106.5 -124t-154.5 -77t-184 -26.5q-104 0 -189.5 30.5t-142.5 87t-85 134.5t-17 172zM340 555q0 -57 34 -100t120 -72l239 -84q43 2 86 19.5t77 48t54.5 71.5t20.5 90q0 61 -37 96 t-111 64l-243 90q-53 -2 -97.5 -20.5t-76 -49t-49 -70.5t-17.5 -83z" />
<glyph unicode="&#xa8;" horiz-adv-x="1138" d="M322 1303q0 31 12 58.5t33.5 48t49 32.5t58.5 12q53 0 88 -37t35 -90q0 -61 -46 -104t-106 -43q-53 0 -88.5 35t-35.5 88zM793 1303q0 63 45 107t106 44q53 0 89 -37t36 -90q0 -61 -46 -104t-108 -43q-53 0 -87.5 35t-34.5 88z" />
<glyph unicode="&#xa9;" horiz-adv-x="1650" d="M158 643q0 158 59 306.5t168 264t258.5 185t331.5 69.5q162 0 288 -56t209.5 -149.5t128 -216t44.5 -255.5q0 -158 -59.5 -307.5t-167 -264.5t-258.5 -184.5t-331 -69.5q-164 0 -288.5 56.5t-209.5 149.5t-129 216t-44 256zM324 655q0 -109 33.5 -208t99 -175.5t162 -123 t223.5 -46.5q141 0 258 57.5t201.5 152t131 217t46.5 251.5q0 106 -34 206.5t-98.5 176.5t-162 122t-221.5 46q-141 0 -259 -57t-202 -151.5t-131 -216.5t-47 -251zM453 674q0 96 34.5 186t100 161t160 114t210.5 43q92 0 163 -27t118 -73t72.5 -105.5t29.5 -124.5h-137 q-14 88 -79.5 148.5t-182.5 60.5q-82 0 -146.5 -31t-110.5 -83t-70.5 -119.5t-24.5 -139.5q0 -63 19.5 -118.5t56 -97.5t90 -66.5t123.5 -24.5q100 0 177 49t111 121h142q-20 -57 -61.5 -110.5t-97.5 -93.5t-128 -63.5t-156 -23.5q-98 0 -176 34t-130 91t-79.5 133 t-27.5 160z" />
<glyph unicode="&#xaa;" horiz-adv-x="1222" d="M129 420q0 106 41 203.5t112.5 171t166 116.5t202.5 43q115 0 197 -49t119 -135l16 160h176l-96 -930h-176l16 162q-55 -86 -148 -135.5t-206 -49.5q-96 0 -173 36t-132.5 96.5t-85 140.5t-29.5 170zM305 432q0 -61 19.5 -114.5t55.5 -93.5t89 -63.5t121 -23.5 q76 0 139.5 30t109.5 79t71.5 114.5t25.5 137.5q0 61 -18.5 114.5t-55.5 94.5t-89 64.5t-120 23.5q-76 0 -139 -30t-109.5 -80t-73 -115.5t-26.5 -137.5z" />
<glyph unicode="&#xab;" horiz-adv-x="966" d="M139 543l13 108l436 342l-19 -176l-280 -221l233 -221l-18 -174zM541 543l12 108l436 342l-18 -176l-281 -221l234 -221l-19 -174z" />
<glyph unicode="&#xac;" horiz-adv-x="1177" d="M242 623l16 159h827l-49 -465h-178l33 306h-649z" />
<glyph unicode="&#xad;" horiz-adv-x="602" d="M115 504l16 160h479l-16 -160h-479z" />
<glyph unicode="&#xae;" horiz-adv-x="1654" d="M158 643q0 158 59 306.5t168 264t259.5 185t332.5 69.5q164 0 289 -56t210 -149.5t129 -216t44 -255.5q0 -158 -59.5 -307.5t-167 -264.5t-258.5 -184.5t-333 -69.5q-164 0 -289.5 56.5t-210.5 149.5t-129 216t-44 256zM324 655q0 -109 33.5 -208t99 -175.5t163 -123 t224.5 -46.5q141 0 259 57.5t203 152t131 216t46 250.5q0 109 -34 208t-99.5 176t-162.5 123t-224 46q-141 0 -259 -57t-203 -151.5t-131 -216.5t-46 -251zM596 332l88 833h324q59 0 107 -20.5t81 -55t50.5 -81.5t17.5 -101q0 -100 -58.5 -179t-156.5 -112l147 -284h-145 l-138 266h-159l-29 -266h-129zM766 711h182q80 0 129 56t49 130q0 63 -36.5 109.5t-106.5 46.5h-182z" />
<glyph unicode="&#xaf;" horiz-adv-x="1110" d="M344 1481l16 159h734l-17 -159h-733z" />
<glyph unicode="&#xb0;" horiz-adv-x="673" d="M164 1149q0 66 26.5 124t70.5 101t102.5 68.5t123.5 25.5q57 0 106.5 -20.5t85.5 -56t55.5 -85t19.5 -104.5q0 -66 -27 -124t-71 -101t-103 -68.5t-123 -25.5q-59 0 -107.5 20.5t-84 56t-55 85t-19.5 104.5zM293 1161q0 -63 42 -107t107 -44q37 0 70 14t57.5 38.5 t40 57.5t15.5 70q0 63 -41 108t-107 45q-37 0 -69.5 -15t-58 -39.5t-41 -57.5t-15.5 -70z" />
<glyph unicode="&#xb1;" horiz-adv-x="1177" d="M186 49l17 160h817l-16 -160h-818zM262 776l19 160h319l33 330h178l-33 -330h320l-19 -160h-319l-35 -327h-178l35 327h-320z" />
<glyph unicode="&#xb2;" horiz-adv-x="757" d="M180 645q10 94 31.5 159.5t54.5 111t77 75t99 56.5q39 18 74 36.5t60.5 40t41 48t15.5 63.5q0 51 -29 75.5t-76 24.5q-55 0 -95 -33.5t-48 -103.5h-145q12 109 91 179.5t208 70.5q104 0 170.5 -51t66.5 -154q0 -59 -23.5 -104t-58.5 -78t-75.5 -56.5t-77.5 -41.5 q-49 -25 -82 -45.5t-53.5 -42t-30.5 -47t-15 -62.5h367l-12 -121h-535z" />
<glyph unicode="&#xb3;" horiz-adv-x="782" d="M193 897h145q-8 -70 28.5 -108.5t100.5 -38.5q68 0 105.5 40.5t37.5 98.5q0 49 -30.5 79.5t-96.5 30.5h-67l12 115h68q78 0 108.5 38t30.5 87q0 51 -28.5 73.5t-78.5 22.5q-66 0 -98.5 -34.5t-38.5 -94.5h-145q10 100 82.5 171t206.5 71q104 0 175.5 -49t71.5 -148 q0 -72 -41 -126t-106 -70q55 -16 88 -61.5t33 -112.5q0 -57 -24.5 -103.5t-65.5 -79t-96.5 -50t-118.5 -17.5q-135 0 -203 73.5t-55 192.5z" />
<glyph unicode="&#xb4;" horiz-adv-x="1013" d="M252 1219l539 280l71 -139l-538 -281z" />
<glyph unicode="&#xb5;" horiz-adv-x="1177" d="M106 -504l152 1434h176l-51 -492q-6 -66 0 -121t30.5 -96t66.5 -63.5t106 -22.5q68 0 121 25.5t90 69.5t59.5 101.5t28.5 121.5l49 477h180l-98 -930h-178l16 166q-53 -88 -142 -138.5t-202 -50.5q-111 0 -168 58l-57 -539h-179z" />
<glyph unicode="&#xb6;" horiz-adv-x="1337" d="M139 1034q0 141 60.5 227.5t147.5 132.5t182.5 60t164.5 14h654l-17 -147h-108l-170 -1624h-170l170 1622h-275l-170 -1622h-168l103 977q-88 0 -162 20.5t-128 63.5t-84 111.5t-30 164.5z" />
<glyph unicode="&#xb7;" horiz-adv-x="522" d="M184 627q0 66 47.5 111.5t110.5 45.5q57 0 94 -38.5t37 -94.5q0 -63 -48 -108t-112 -45q-55 0 -92 38t-37 91z" />
<glyph unicode="&#xb8;" horiz-adv-x="978" d="M266 -301h109q2 -37 23.5 -59.5t60.5 -22.5q47 0 76.5 30.5t29.5 78.5q0 41 -23.5 62.5t-60.5 21.5q-23 0 -45 -10.5t-41 -41.5h-94l25 242h118l-14 -145q16 20 40 30.5t52 10.5q59 0 106.5 -44.5t47.5 -115.5q0 -41 -16.5 -80t-46 -68.5t-69.5 -48t-87 -18.5 q-23 0 -54.5 6t-61.5 25.5t-51.5 54.5t-23.5 92z" />
<glyph unicode="&#xb9;" horiz-adv-x="548" d="M221 1192l10 106q111 0 149 32t44 104h131l-82 -789h-149l57 547h-160z" />
<glyph unicode="&#xba;" horiz-adv-x="1146" d="M129 418q0 106 40 203.5t112.5 171t171 117.5t215.5 44q104 0 187 -35.5t140.5 -96t88 -141.5t30.5 -171q0 -106 -40 -202.5t-112.5 -170.5t-172 -117t-216.5 -43q-106 0 -189 35t-139.5 95.5t-86 140.5t-29.5 170zM305 432q0 -61 19.5 -114.5t55.5 -93.5t89 -63.5 t121 -23.5q76 0 139.5 30t109.5 79t71.5 114.5t25.5 137.5q0 61 -18.5 114.5t-55.5 94.5t-89 64.5t-120 23.5q-76 0 -139 -30t-109.5 -80t-73 -115.5t-26.5 -137.5z" />
<glyph unicode="&#xbb;" horiz-adv-x="966" d="M102 201l19 174l280 221l-233 221l18 176l365 -342l-10 -108zM504 201l18 174l281 221l-234 221l19 176l364 -342l-10 -108z" />
<glyph unicode="&#xbc;" horiz-adv-x="1884" d="M283 1192l10 106q111 0 148.5 32t43.5 104h131l-81 -789h-150l57 547h-159zM305 -12l1057 1542l135 -82l-1059 -1542zM1186 238l57 550h146l-46 -428h166l25 230h147l-24 -230h106l-12 -122h-106l-25 -238h-147l24 238h-311z" />
<glyph unicode="&#xbd;" horiz-adv-x="1884" d="M299 1192l10 106q111 0 149 32t44 104h131l-82 -789h-150l58 547h-160zM322 -12l1056 1542l135 -82l-1058 -1542zM1176 0q10 94 31.5 159.5t54 110.5t75.5 75t99 56q39 18 73.5 37t61 40.5t42 48t15.5 63.5q0 49 -28.5 74.5t-77.5 25.5q-55 0 -94 -33.5t-48 -103.5h-145 q12 109 91 179.5t208 70.5q102 0 170 -51.5t68 -153.5q0 -59 -24 -104t-58.5 -78t-75.5 -56.5t-78 -42.5q-47 -25 -79 -43t-53.5 -39.5t-32.5 -48t-15 -65.5h366l-12 -121h-534z" />
<glyph unicode="&#xbe;" horiz-adv-x="1884" d="M215 897h145q-8 -70 29 -108.5t100 -38.5q68 0 106 40.5t38 98.5q0 49 -31 79.5t-96 30.5h-68l13 115h67q78 0 108.5 38t30.5 87q0 51 -28.5 73.5t-77.5 22.5q-66 0 -98.5 -34.5t-38.5 -94.5h-146q10 100 83 171t206 71q104 0 176 -49t72 -148q0 -72 -41 -126t-107 -70 q55 -16 88 -61.5t33 -112.5q0 -57 -24.5 -103.5t-65.5 -79t-96 -50t-119 -17.5q-135 0 -202.5 73.5t-55.5 192.5zM342 -12l1059 1542l133 -82l-1059 -1542zM1223 238l59 550h145l-45 -428h166l23 230h147l-22 -230h106l-14 -122h-107l-24 -238h-148l25 238h-311z" />
<glyph unicode="&#xbf;" horiz-adv-x="1032" d="M127 336q0 84 28.5 148.5t69.5 112.5t86 82t80 56q55 37 90 66.5t56.5 63.5t34 77t18.5 109h180q-8 -74 -23.5 -131.5t-42 -102.5t-64.5 -83t-91 -72q-41 -27 -83 -58t-76 -67.5t-55.5 -82.5t-21.5 -104q0 -104 64.5 -154.5t165.5 -50.5q123 0 204.5 73t96.5 208h186 q-10 -102 -53 -185t-110.5 -141.5t-154.5 -90.5t-186 -32q-86 0 -158.5 25t-127 71t-84 112.5t-29.5 150.5zM555 1303q0 33 14.5 62.5t37 51t53 34.5t63.5 13q59 0 96 -40t37 -95q0 -33 -13.5 -62.5t-35 -52t-51 -36t-62.5 -13.5q-59 0 -99 40t-40 98z" />
<glyph unicode="&#xc0;" horiz-adv-x="1144" d="M10 0l645 1434h136l344 -1434h-197l-53 219h-582l-96 -219h-197zM379 389h467l-154 739zM500 1815l100 141l481 -281l-100 -141z" />
<glyph unicode="&#xc1;" horiz-adv-x="1144" d="M10 0l645 1434h136l344 -1434h-197l-53 219h-582l-96 -219h-197zM379 389h467l-154 739zM449 1645l540 280l70 -139l-541 -281z" />
<glyph unicode="&#xc2;" horiz-adv-x="1144" d="M10 0l645 1434h136l344 -1434h-197l-53 219h-582l-96 -219h-197zM379 389h467l-154 739zM379 1663l399 297l338 -297l-123 -125l-235 209l-279 -207z" />
<glyph unicode="&#xc3;" horiz-adv-x="1144" d="M10 0l645 1434h136l344 -1434h-197l-53 219h-582l-96 -219h-197zM379 389h467l-154 739zM397 1747q47 29 82 44t59.5 23.5t43 9.5t34.5 1q23 0 62 -8.5t81 -19.5t83 -19.5t69 -8.5q10 0 22.5 2.5t29 8.5t42 16t64.5 29l57 -115q-41 -31 -77.5 -47t-65.5 -24.5 t-48.5 -10.5t-27.5 -2q-31 0 -68.5 8t-77.5 18.5t-78 18.5t-67 8q-33 0 -68.5 -12t-84.5 -37z" />
<glyph unicode="&#xc4;" horiz-adv-x="1144" d="M10 0l645 1434h136l344 -1434h-197l-53 219h-582l-96 -219h-197zM377 1714q0 66 47 112t111 46q57 0 94 -39t37 -92q0 -66 -48.5 -111t-111.5 -45q-57 0 -93 38t-36 91zM379 389h467l-154 739zM846 1714q0 33 13 61.5t34.5 50t50.5 34t60 12.5q57 0 94 -39t37 -94 q0 -63 -47.5 -108.5t-110.5 -45.5q-59 0 -95 38t-36 91z" />
<glyph unicode="&#xc5;" horiz-adv-x="1144" d="M10 0l645 1434h136l344 -1434h-197l-53 219h-582l-96 -219h-197zM379 389h467l-154 739zM504 1726q0 55 23.5 104.5t61.5 87.5t88 59.5t105 21.5q49 0 91 -18.5t73 -49t47.5 -72.5t16.5 -90q0 -55 -22.5 -105t-61.5 -87t-88.5 -59.5t-104.5 -22.5q-49 0 -91 18.5 t-72.5 50t-48 73.5t-17.5 89zM635 1737q0 -45 31.5 -77t78.5 -32q53 0 92.5 40t39.5 93q0 45 -30 77t-77 32q-27 0 -51.5 -11.5t-43 -30t-29.5 -42t-11 -49.5z" />
<glyph unicode="&#xc6;" horiz-adv-x="1771" d="M4 0l858 1434h903l-18 -168h-617l-49 -469h617l-19 -168h-616l-47 -461h616l-18 -168h-805l22 221h-493l-129 -221h-205zM436 389h414l90 856z" />
<glyph unicode="&#xc7;" horiz-adv-x="1587" d="M156 647q0 156 57 304.5t163.5 262t259 183t343.5 69.5q147 0 261 -42t192.5 -113.5t122.5 -170t51 -208.5h-197q-8 78 -40 145.5t-88 116.5t-135 76.5t-179 27.5q-141 0 -256 -54t-195 -143t-124 -204t-44 -235q0 -109 35 -204.5t100.5 -167t158.5 -113.5t212 -42 q88 0 166 23.5t140.5 64.5t110.5 97.5t79 121.5h204q-35 -96 -103.5 -175t-160.5 -140t-201.5 -101t-226.5 -55l-16 -2l-8 -84q33 37 90 37q59 0 105 -42t46 -116q0 -41 -15 -78.5t-44 -67.5t-69 -48.5t-89 -18.5q-25 0 -56.5 7.5t-60 26t-49 52t-22.5 87.5h108 q10 -76 80 -76q47 0 78 29.5t31 76.5q0 39 -23.5 61.5t-62.5 22.5q-23 0 -44.5 -10t-37.5 -39h-92l18 184q-139 16 -245.5 76t-179.5 151t-110.5 205.5t-37.5 241.5z" />
<glyph unicode="&#xc8;" horiz-adv-x="1114" d="M160 0l151 1434h805l-18 -168h-619l-49 -469h619l-19 -168h-618l-47 -461h618l-18 -168h-805zM485 1788l99 139l481 -280l-100 -140z" />
<glyph unicode="&#xc9;" horiz-adv-x="1114" d="M160 0l151 1434h805l-18 -168h-619l-49 -469h619l-19 -168h-618l-47 -461h618l-18 -168h-805zM446 1675l539 281l72 -141l-539 -281z" />
<glyph unicode="&#xca;" horiz-adv-x="1114" d="M160 0l151 1434h805l-18 -168h-619l-49 -469h619l-19 -168h-618l-47 -461h618l-18 -168h-805zM375 1663l399 297l338 -297l-123 -125l-235 209l-279 -207z" />
<glyph unicode="&#xcb;" horiz-adv-x="1114" d="M160 0l151 1434h805l-18 -168h-619l-49 -469h619l-19 -168h-618l-47 -461h618l-18 -168h-805zM387 1714q0 33 13.5 61.5t35 50t50 34t59.5 12.5q57 0 94 -39t37 -94q0 -63 -47 -108.5t-111 -45.5q-59 0 -95 38t-36 91zM858 1714q0 66 47 112t111 46q57 0 94 -39t37 -92 q0 -66 -48 -111t-112 -45q-57 0 -93 38t-36 91z" />
<glyph unicode="&#xcc;" horiz-adv-x="512" d="M147 1786l101 139l481 -280l-100 -140zM160 0l151 1434h193l-152 -1434h-192z" />
<glyph unicode="&#xcd;" horiz-adv-x="512" d="M131 1645l539 280l71 -139l-538 -281zM160 0l149 1434h193l-150 -1434h-192z" />
<glyph unicode="&#xce;" horiz-adv-x="512" d="M61 1663l400 297l340 -297l-123 -125l-238 209l-276 -207zM160 0l149 1434h193l-150 -1434h-192z" />
<glyph unicode="&#xcf;" horiz-adv-x="512" d="M78 1714q0 33 13 61.5t34.5 50t50.5 34t60 12.5q57 0 94 -39t37 -94q0 -63 -47.5 -108.5t-112.5 -45.5q-57 0 -93 38t-36 91zM160 0l151 1434h193l-152 -1434h-192zM547 1714q0 33 13 61.5t34.5 50t50.5 34t60 12.5q57 0 94 -39t37 -94q0 -63 -47.5 -108.5t-110.5 -45.5 q-59 0 -95 38t-36 91z" />
<glyph unicode="&#xd0;" horiz-adv-x="1427" d="M-8 639l16 158h236l67 637h443q164 0 289.5 -55.5t210.5 -146.5t128 -209t43 -243q0 -145 -57 -285.5t-164.5 -250t-260 -177t-341.5 -67.5h-442l67 639h-235zM365 168h256q141 0 254.5 52t192.5 137t122 192.5t43 220.5q0 94 -32 184t-94.5 159t-155.5 111t-216 42h-256 l-49 -469h248l-16 -158h-248z" />
<glyph unicode="&#xd1;" horiz-adv-x="1357" d="M160 0l151 1434h207l529 -1108l116 1108h187l-152 -1434h-207l-528 1108l-117 -1108h-186zM483 1747q47 29 82 44t59.5 23.5t43 9.5t34.5 1q23 0 62 -8.5t81 -19.5t83 -19.5t69 -8.5q10 0 22.5 2.5t29 8.5t42 16t64.5 29l57 -115q-41 -31 -77.5 -47t-65.5 -24.5 t-48.5 -10.5t-27.5 -2q-31 0 -68.5 8t-77.5 18.5t-78 18.5t-67 8q-33 0 -68.5 -12t-84.5 -37z" />
<glyph unicode="&#xd2;" horiz-adv-x="1644" d="M156 645q0 158 59 305.5t166.5 262t258.5 184t333 69.5q162 0 287.5 -55t209.5 -149.5t128 -216t44 -254.5q0 -158 -59 -306.5t-166.5 -263.5t-257.5 -184.5t-332 -69.5q-164 0 -288.5 56.5t-209.5 149.5t-129 216t-44 256zM350 659q0 -102 32 -196t94.5 -167t154.5 -117 t211 -44q133 0 244.5 54.5t191.5 144.5t124 204.5t44 237.5q0 102 -32 196.5t-94.5 167t-154.5 115.5t-211 43q-133 0 -243.5 -54t-190.5 -143t-125 -204t-45 -238zM743 1815l101 141l479 -281l-100 -141z" />
<glyph unicode="&#xd3;" horiz-adv-x="1644" d="M156 645q0 158 59 305.5t166.5 262t258.5 184t333 69.5q162 0 287.5 -55t209.5 -149.5t128 -216t44 -254.5q0 -158 -59 -306.5t-166.5 -263.5t-257.5 -184.5t-332 -69.5q-164 0 -288.5 56.5t-209.5 149.5t-129 216t-44 256zM350 659q0 -102 32 -196t94.5 -167t154.5 -117 t211 -44q133 0 244.5 54.5t191.5 144.5t124 204.5t44 237.5q0 102 -32 196.5t-94.5 167t-154.5 115.5t-211 43q-133 0 -243.5 -54t-190.5 -143t-125 -204t-45 -238zM668 1675l540 281l72 -141l-541 -281z" />
<glyph unicode="&#xd4;" horiz-adv-x="1644" d="M156 645q0 158 59 305.5t166.5 262t258.5 184t333 69.5q162 0 287.5 -55t209.5 -149.5t128 -216t44 -254.5q0 -158 -59 -306.5t-166.5 -263.5t-257.5 -184.5t-332 -69.5q-164 0 -288.5 56.5t-209.5 149.5t-129 216t-44 256zM350 659q0 -102 32 -196t94.5 -167t154.5 -117 t211 -44q133 0 244.5 54.5t191.5 144.5t124 204.5t44 237.5q0 102 -32 196.5t-94.5 167t-154.5 115.5t-211 43q-133 0 -243.5 -54t-190.5 -143t-125 -204t-45 -238zM631 1663l399 297l338 -297l-125 -125l-235 209l-279 -207z" />
<glyph unicode="&#xd5;" horiz-adv-x="1644" d="M156 645q0 158 59 305.5t166.5 262t258.5 184t333 69.5q162 0 287.5 -55t209.5 -149.5t128 -216t44 -254.5q0 -158 -59 -306.5t-166.5 -263.5t-257.5 -184.5t-332 -69.5q-164 0 -288.5 56.5t-209.5 149.5t-129 216t-44 256zM350 659q0 -102 32 -196t94.5 -167t154.5 -117 t211 -44q133 0 244.5 54.5t191.5 144.5t124 204.5t44 237.5q0 102 -32 196.5t-94.5 167t-154.5 115.5t-211 43q-133 0 -243.5 -54t-190.5 -143t-125 -204t-45 -238zM639 1747q47 29 82 44t59.5 23.5t43 9.5t34.5 1q23 0 61.5 -8.5t80.5 -19.5t83 -19.5t70 -8.5 q10 0 22.5 2.5t30 8.5t43 16t62.5 29l57 -115q-84 -59 -137 -71.5t-76 -12.5q-35 0 -74 8t-78.5 18.5t-76.5 18.5t-66 8q-33 0 -68.5 -12t-86.5 -37z" />
<glyph unicode="&#xd6;" horiz-adv-x="1644" d="M156 645q0 158 59 305.5t166.5 262t258.5 184t333 69.5q162 0 287.5 -55t209.5 -149.5t128 -216t44 -254.5q0 -158 -59 -306.5t-166.5 -263.5t-257.5 -184.5t-332 -69.5q-164 0 -288.5 56.5t-209.5 149.5t-129 216t-44 256zM350 659q0 -102 32 -196t94.5 -167t154.5 -117 t211 -44q133 0 244.5 54.5t191.5 144.5t124 204.5t44 237.5q0 102 -32 196.5t-94.5 167t-154.5 115.5t-211 43q-133 0 -243.5 -54t-190.5 -143t-125 -204t-45 -238zM627 1714q0 66 47 112t108 46q57 0 94 -39t37 -94q0 -63 -47 -108.5t-110 -45.5q-59 0 -94 38t-35 91z M1096 1714q0 66 47 112t110 46q57 0 93 -39t36 -94q0 -63 -47 -108.5t-110 -45.5q-57 0 -93 38t-36 91z" />
<glyph unicode="&#xd7;" horiz-adv-x="1177" d="M270 354l258 236l-202 229l125 113l204 -230l260 238l115 -125l-264 -237l209 -232l-127 -110l-205 229l-260 -236z" />
<glyph unicode="&#xd8;" horiz-adv-x="1644" d="M156 647q0 158 59 305.5t166.5 262t259.5 183t334 68.5q59 0 109.5 -7t97.5 -21l96 178l154 -68l-95 -176q74 -43 131.5 -106.5t96.5 -140t58 -164t19 -175.5q0 -156 -59 -303t-166.5 -262t-260.5 -184.5t-337 -69.5q-121 0 -217 33l-84 -164l-153 66l86 164 q-145 90 -220 246.5t-75 334.5zM350 662q0 -127 48 -241t141 -185l559 1044q-61 18 -137 18q-135 0 -248 -54t-194 -143t-125 -203.5t-44 -235.5zM686 158q35 -10 73 -16.5t81 -6.5q135 0 246.5 54.5t191.5 143.5t124 203.5t44 235.5q0 129 -50 246t-149 184z" />
<glyph unicode="&#xd9;" horiz-adv-x="1288" d="M195 465l102 969h186l-102 -969q-6 -66 9.5 -126t51 -105.5t90 -72t125.5 -26.5q70 0 131.5 26.5t107.5 70.5t74.5 104.5t35.5 128.5l102 969h186l-102 -969q-10 -102 -55 -192.5t-118 -158t-170 -107.5t-210 -40q-115 0 -202 40t-144 107.5t-83 157.5t-15 193zM559 1815 l100 141l482 -281l-101 -141z" />
<glyph unicode="&#xda;" horiz-adv-x="1288" d="M195 465l102 969h186l-102 -969q-6 -66 9.5 -126t51 -105.5t90 -72t125.5 -26.5q70 0 131.5 26.5t107.5 70.5t74.5 104.5t35.5 128.5l102 969h186l-102 -969q-10 -102 -55 -192.5t-118 -158t-170 -107.5t-210 -40q-115 0 -202 40t-144 107.5t-83 157.5t-15 193zM485 1675 l539 281l70 -141l-539 -281z" />
<glyph unicode="&#xdb;" horiz-adv-x="1288" d="M195 465l102 969h186l-102 -969q-6 -66 9.5 -126t51 -105.5t90 -72t125.5 -26.5q70 0 131.5 26.5t107.5 70.5t74.5 104.5t35.5 128.5l102 969h186l-102 -969q-10 -102 -55 -192.5t-118 -158t-170 -107.5t-210 -40q-115 0 -202 40t-144 107.5t-83 157.5t-15 193zM442 1665 l400 297l338 -297l-123 -125l-236 207l-278 -207z" />
<glyph unicode="&#xdc;" horiz-adv-x="1288" d="M195 465l102 969h186l-102 -969q-6 -66 9.5 -126t51 -105.5t90 -72t125.5 -26.5q70 0 131.5 26.5t107.5 70.5t74.5 104.5t35.5 128.5l102 969h186l-102 -969q-10 -102 -55 -192.5t-118 -158t-170 -107.5t-210 -40q-115 0 -202 40t-144 107.5t-83 157.5t-15 193zM444 1714 q0 33 13.5 61.5t35 50t50 34t59.5 12.5q57 0 94 -39t37 -94q0 -63 -47 -108.5t-113 -45.5q-57 0 -93 38t-36 91zM913 1714q0 33 13.5 61.5t35 50t50 34t59.5 12.5q57 0 94 -39t37 -94q0 -63 -47 -108.5t-111 -45.5q-59 0 -95 38t-36 91z" />
<glyph unicode="&#xdd;" horiz-adv-x="1193" d="M172 1434h217l350 -670l408 670h205l-873 -1434h-205l349 569zM551 1665l539 281l71 -142l-538 -280z" />
<glyph unicode="&#xde;" horiz-adv-x="1024" d="M160 0l151 1434h168l-28 -271h159q104 0 184 -34.5t134.5 -92t82 -132.5t27.5 -156q0 -94 -36.5 -183.5t-104.5 -159t-165 -111.5t-218 -42h-160l-26 -252h-168zM371 401h159q78 0 140.5 29t106.5 75t67.5 106.5t23.5 123.5q0 55 -17 105.5t-52 88.5t-86 61.5t-119 23.5 h-160z" />
<glyph unicode="&#xdf;" horiz-adv-x="1150" d="M145 0l109 1030q8 92 47 170t102.5 135.5t147.5 90t184 32.5q86 0 160 -24.5t129 -70.5t86 -113.5t31 -151.5q0 -135 -75 -225.5t-202 -124.5q104 -33 172 -113t68 -213q0 -106 -45 -189t-118 -140.5t-165 -87.5t-186 -30q-51 0 -95 7.5t-67 17.5l16 156q37 -10 82 -15.5 t80 -5.5q59 0 116.5 19.5t102.5 56.5t73 89t28 118q0 45 -15.5 90t-48.5 81t-84 57.5t-123 21.5h-88l17 159h82q76 0 131 22.5t92 58.5t54.5 82t17.5 95q0 102 -67 158.5t-171 56.5q-123 0 -202 -74.5t-91 -195.5l-108 -1030h-177z" />
<glyph unicode="&#xe0;" horiz-adv-x="1222" d="M129 420q0 106 41 203.5t112.5 171t166 116.5t202.5 43q115 0 197 -49t119 -135l16 160h176l-96 -930h-176l16 162q-55 -86 -148 -135.5t-206 -49.5q-96 0 -173 36t-132.5 96.5t-85 140.5t-29.5 170zM305 432q0 -61 19.5 -114.5t55.5 -93.5t89 -63.5t121 -23.5 q76 0 139.5 30t109.5 79t71.5 114.5t25.5 137.5q0 61 -18.5 114.5t-55.5 94.5t-89 64.5t-120 23.5q-76 0 -139 -30t-109.5 -80t-73 -115.5t-26.5 -137.5zM408 1311l100 139l481 -281l-102 -139z" />
<glyph unicode="&#xe1;" horiz-adv-x="1222" d="M129 420q0 106 41 203.5t112.5 171t166 116.5t202.5 43q115 0 197 -49t119 -135l16 160h176l-96 -930h-176l16 162q-55 -86 -148 -135.5t-206 -49.5q-96 0 -173 36t-132.5 96.5t-85 140.5t-29.5 170zM305 432q0 -61 19.5 -114.5t55.5 -93.5t89 -63.5t121 -23.5 q76 0 139.5 30t109.5 79t71.5 114.5t25.5 137.5q0 61 -18.5 114.5t-55.5 94.5t-89 64.5t-120 23.5q-76 0 -139 -30t-109.5 -80t-73 -115.5t-26.5 -137.5zM348 1169l539 281l71 -139l-540 -281z" />
<glyph unicode="&#xe2;" horiz-adv-x="1222" d="M129 420q0 106 41 203.5t112.5 171t166 116.5t202.5 43q115 0 197 -49t119 -135l16 160h176l-96 -930h-176l16 162q-55 -86 -148 -135.5t-206 -49.5q-96 0 -173 36t-132.5 96.5t-85 140.5t-29.5 170zM305 432q0 -61 19.5 -114.5t55.5 -93.5t89 -63.5t121 -23.5 q76 0 139.5 30t109.5 79t71.5 114.5t25.5 137.5q0 61 -18.5 114.5t-55.5 94.5t-89 64.5t-120 23.5q-76 0 -139 -30t-109.5 -80t-73 -115.5t-26.5 -137.5zM330 1198l397 297l340 -297l-123 -125l-237 207l-277 -207z" />
<glyph unicode="&#xe3;" horiz-adv-x="1222" d="M129 420q0 106 41 203.5t112.5 171t166 116.5t202.5 43q115 0 197 -49t119 -135l16 160h176l-96 -930h-176l16 162q-55 -86 -148 -135.5t-206 -49.5q-96 0 -173 36t-132.5 96.5t-85 140.5t-29.5 170zM305 432q0 -61 19.5 -114.5t55.5 -93.5t89 -63.5t121 -23.5 q76 0 139.5 30t109.5 79t71.5 114.5t25.5 137.5q0 61 -18.5 114.5t-55.5 94.5t-89 64.5t-120 23.5q-76 0 -139 -30t-109.5 -80t-73 -115.5t-26.5 -137.5zM352 1333q47 29 82 44.5t59.5 23.5t43 9t34.5 1q23 0 62 -8t81 -19.5t83 -19.5t69 -8q10 0 22.5 2t30 8t43 16.5 t62.5 28.5l57 -115q-51 -35 -101 -59.5t-110 -24.5q-35 0 -74.5 8.5t-80.5 18.5t-78 18.5t-66 8.5q-33 0 -67.5 -12.5t-85.5 -39.5z" />
<glyph unicode="&#xe4;" horiz-adv-x="1222" d="M129 420q0 106 41 203.5t112.5 171t166 116.5t202.5 43q115 0 197 -49t119 -135l16 160h176l-96 -930h-176l16 162q-55 -86 -148 -135.5t-206 -49.5q-96 0 -173 36t-132.5 96.5t-85 140.5t-29.5 170zM305 432q0 -61 19.5 -114.5t55.5 -93.5t89 -63.5t121 -23.5 q76 0 139.5 30t109.5 79t71.5 114.5t25.5 137.5q0 61 -18.5 114.5t-55.5 94.5t-89 64.5t-120 23.5q-76 0 -139 -30t-109.5 -80t-73 -115.5t-26.5 -137.5zM319 1237q0 66 47.5 111t110.5 45q57 0 94 -38t37 -93q0 -66 -47 -111t-110 -45q-57 0 -94.5 38t-37.5 93zM791 1237 q0 66 47 111t110 45q57 0 94 -38t37 -93q0 -66 -47 -111t-110 -45q-57 0 -94 38t-37 93z" />
<glyph unicode="&#xe5;" horiz-adv-x="1222" d="M129 420q0 106 41 203.5t112.5 171t166 116.5t202.5 43q115 0 197 -49t119 -135l16 160h176l-96 -930h-176l16 162q-55 -86 -148 -135.5t-206 -49.5q-96 0 -173 36t-132.5 96.5t-85 140.5t-29.5 170zM305 432q0 -61 19.5 -114.5t55.5 -93.5t89 -63.5t121 -23.5 q76 0 139.5 30t109.5 79t71.5 114.5t25.5 137.5q0 61 -18.5 114.5t-55.5 94.5t-89 64.5t-120 23.5q-76 0 -139 -30t-109.5 -80t-73 -115.5t-26.5 -137.5zM473 1264q0 55 22.5 104t61.5 87t88.5 59.5t104.5 21.5q49 0 91 -18.5t72.5 -49t48 -72.5t17.5 -89 q0 -55 -22.5 -105.5t-61.5 -87.5t-88 -59.5t-105 -22.5q-49 0 -91 18.5t-72.5 50.5t-48 74t-17.5 89zM606 1274q0 -45 31 -77t78 -32q53 0 93 40t40 93q0 45 -31 77t-78 32q-53 0 -93 -40t-40 -93z" />
<glyph unicode="&#xe6;" horiz-adv-x="1871" d="M129 420q0 106 41 203.5t112.5 171t166 116.5t202.5 43q115 0 197 -49t119 -135l16 160h176l-8 -82q55 49 129 77.5t162 28.5q86 0 157.5 -28.5t124 -80.5t81 -124t28.5 -158q0 -39 -6 -72.5t-17 -72.5h-700q-12 -129 48.5 -210t201.5 -81q106 0 165.5 44t88.5 103h180 q-18 -57 -57 -110t-96.5 -95t-131 -67t-161.5 -25q-104 0 -170 32t-107 75l-8 -84h-176l16 162q-55 -86 -148 -135.5t-206 -49.5q-96 0 -173 36t-132.5 96.5t-85 140.5t-29.5 170zM305 432q0 -61 19.5 -114.5t55.5 -93.5t89 -63.5t121 -23.5q76 0 139.5 30t109.5 79 t71.5 114.5t25.5 137.5q0 61 -19.5 115.5t-56.5 94.5t-90 63.5t-119 23.5q-76 0 -139 -30t-109.5 -80t-72 -115.5t-25.5 -137.5zM1126 553h533q12 113 -55.5 181.5t-184.5 68.5q-55 0 -105 -16.5t-89 -49t-64.5 -79t-34.5 -105.5z" />
<glyph unicode="&#xe7;" horiz-adv-x="1083" d="M133 414q0 100 34 197.5t101.5 174t165.5 122.5t228 46q104 0 178.5 -30.5t123 -81.5t70 -115.5t19.5 -134.5h-179q0 86 -54 144.5t-173 58.5q-86 0 -148.5 -32t-104.5 -83t-62.5 -117.5t-20.5 -136.5q0 -59 15.5 -112.5t49.5 -92.5t85 -61.5t125 -22.5q111 0 171 49.5 t91 132.5h178q-16 -68 -53 -130t-95.5 -108t-136 -75t-174.5 -29l-14 -122q35 41 94 41t105.5 -42t46.5 -124q0 -39 -13.5 -76t-44 -66.5t-80 -48t-120.5 -18.5q-16 0 -37 4t-40.5 20.5t-38.5 52t-36 101.5h109q4 -37 25.5 -59.5t58.5 -22.5q47 0 76.5 30.5t29.5 78.5 q0 39 -22.5 61.5t-61.5 22.5q-23 0 -45 -10.5t-41 -41.5h-92l25 230q-82 16 -141.5 57t-98.5 97.5t-58.5 127t-19.5 144.5z" />
<glyph unicode="&#xe8;" horiz-adv-x="1075" d="M133 418q0 111 37 209t102.5 170.5t158.5 114.5t204 42q90 0 163.5 -28.5t126 -79.5t81 -123t28.5 -158q0 -41 -6 -74.5t-16 -72.5h-699q-6 -59 4.5 -111.5t40 -92.5t80.5 -63.5t125 -23.5q106 0 165.5 44t88.5 103h180q-18 -59 -57 -112t-96.5 -94t-132 -66t-162.5 -25 q-106 0 -185 36t-130.5 95.5t-76 139.5t-24.5 170zM330 553h532q12 115 -54 182.5t-183 67.5q-111 0 -195 -63.5t-100 -186.5zM424 1311l98 139l482 -281l-99 -139z" />
<glyph unicode="&#xe9;" horiz-adv-x="1075" d="M133 418q0 111 37 209t102.5 170.5t158.5 114.5t204 42q90 0 163.5 -28.5t126 -79.5t81 -123t28.5 -158q0 -41 -6 -74.5t-16 -72.5h-699q-6 -59 4.5 -111.5t40 -92.5t80.5 -63.5t125 -23.5q106 0 165.5 44t88.5 103h180q-18 -59 -57 -112t-96.5 -94t-132 -66t-162.5 -25 q-106 0 -185 36t-130.5 95.5t-76 139.5t-24.5 170zM330 553h532q12 115 -54 182.5t-183 67.5q-111 0 -195 -63.5t-100 -186.5zM354 1169l539 281l70 -139l-539 -281z" />
<glyph unicode="&#xea;" horiz-adv-x="1075" d="M133 418q0 111 37 209t102.5 170.5t158.5 114.5t204 42q90 0 163.5 -28.5t126 -79.5t81 -123t28.5 -158q0 -41 -6 -74.5t-16 -72.5h-699q-6 -59 4.5 -111.5t40 -92.5t80.5 -63.5t125 -23.5q106 0 165.5 44t88.5 103h180q-18 -59 -57 -112t-96.5 -94t-132 -66t-162.5 -25 q-106 0 -185 36t-130.5 95.5t-76 139.5t-24.5 170zM301 1198l397 297l340 -297l-123 -125l-237 207l-277 -207zM330 553h532q12 115 -54 182.5t-183 67.5q-111 0 -195 -63.5t-100 -186.5z" />
<glyph unicode="&#xeb;" horiz-adv-x="1075" d="M133 418q0 111 37 209t102.5 170.5t158.5 114.5t204 42q90 0 163.5 -28.5t126 -79.5t81 -123t28.5 -158q0 -41 -6 -74.5t-16 -72.5h-699q-6 -59 4.5 -111.5t40 -92.5t80.5 -63.5t125 -23.5q106 0 165.5 44t88.5 103h180q-18 -59 -57 -112t-96.5 -94t-132 -66t-162.5 -25 q-106 0 -185 36t-130.5 95.5t-76 139.5t-24.5 170zM295 1237q0 66 47 111t111 45q57 0 94 -39t37 -92q0 -33 -13.5 -60.5t-36 -49.5t-51 -34t-59.5 -12q-55 0 -92 37t-37 94zM330 553h532q12 115 -54 182.5t-183 67.5q-111 0 -195 -63.5t-100 -186.5zM764 1237q0 66 47 111 t111 45q57 0 94 -38t37 -93q0 -66 -47.5 -111t-110.5 -45q-57 0 -94 38t-37 93z" />
<glyph unicode="&#xec;" horiz-adv-x="565" d="M127 1341l98 140l482 -281l-99 -139zM195 0l98 930h176l-98 -930h-176z" />
<glyph unicode="&#xed;" horiz-adv-x="565" d="M113 1200l538 281l70 -140l-539 -280zM193 0l98 930h178l-98 -930h-178z" />
<glyph unicode="&#xee;" horiz-adv-x="565" d="M39 1198l399 297l338 -297l-123 -125l-237 207l-277 -207zM195 0l96 930h178l-96 -930h-178z" />
<glyph unicode="&#xef;" horiz-adv-x="565" d="M35 1237q0 66 46 111t112 45q57 0 95 -38t38 -93q0 -66 -49.5 -111t-112.5 -45q-57 0 -93 38t-36 93zM176 0l98 930h179l-99 -930h-178zM506 1237q0 66 46 111t110 45q57 0 95 -38t38 -93q0 -66 -48.5 -111t-111.5 -45q-57 0 -93 38t-36 93z" />
<glyph unicode="&#xf0;" d="M135 420q0 106 41 203.5t113.5 171t170 116.5t210.5 43q29 0 48 -4t36 -20l-78 153l-244 -122l-55 133l229 118l-112 222h215l65 -136l191 97l57 -135l-180 -91l209 -401q31 -59 50 -124.5t19 -139.5q0 -104 -41 -199.5t-112.5 -168.5t-170.5 -116t-216 -43 q-104 0 -187.5 36t-140.5 96.5t-87 140.5t-30 170zM311 432q0 -61 19.5 -114.5t55.5 -93.5t89 -63.5t121 -23.5q76 0 139.5 30t109.5 79t71.5 114.5t25.5 137.5q0 61 -18.5 114.5t-55.5 94.5t-89 64.5t-120 23.5q-76 0 -139 -30t-109 -80t-73 -115.5t-27 -137.5z" />
<glyph unicode="&#xf1;" d="M160 0l98 930h178l-18 -164q51 86 139 137t211 51q90 0 156.5 -30.5t107.5 -92.5q37 -57 44 -123.5t-3 -158.5l-57 -549h-178l51 494q6 63 0 119.5t-29.5 96.5t-65.5 63.5t-106 23.5q-68 0 -121 -27t-91 -71t-59.5 -101t-27.5 -119l-51 -479h-178zM352 1333 q47 29 82 44.5t59.5 23.5t43 9t34.5 1q23 0 62 -8t82 -19.5t84 -19.5t69 -8q10 0 22.5 2t29 8t42 16.5t62.5 28.5l61 -115q-49 -31 -101 -57.5t-114 -26.5q-35 0 -73.5 8.5t-78.5 18.5t-78 18.5t-67 8.5q-33 0 -67.5 -12.5t-87.5 -39.5z" />
<glyph unicode="&#xf2;" horiz-adv-x="1146" d="M129 418q0 106 40 203.5t112.5 171t171 117.5t215.5 44q104 0 187 -35.5t140.5 -96t88 -141.5t30.5 -171q0 -106 -40 -202.5t-112.5 -170.5t-172 -117t-216.5 -43q-106 0 -189 35t-139.5 95.5t-86 140.5t-29.5 170zM305 432q0 -61 19.5 -114.5t55.5 -93.5t89 -63.5 t121 -23.5q76 0 139.5 30t109.5 79t71.5 114.5t25.5 137.5q0 61 -18.5 114.5t-55.5 94.5t-89 64.5t-120 23.5q-76 0 -139 -30t-109.5 -80t-73 -115.5t-26.5 -137.5zM428 1311l98 139l482 -281l-101 -139z" />
<glyph unicode="&#xf3;" horiz-adv-x="1146" d="M129 418q0 106 40 203.5t112.5 171t171 117.5t215.5 44q104 0 187 -35.5t140.5 -96t88 -141.5t30.5 -171q0 -106 -40 -202.5t-112.5 -170.5t-172 -117t-216.5 -43q-106 0 -189 35t-139.5 95.5t-86 140.5t-29.5 170zM305 432q0 -61 19.5 -114.5t55.5 -93.5t89 -63.5 t121 -23.5q76 0 139.5 30t109.5 79t71.5 114.5t25.5 137.5q0 61 -18.5 114.5t-55.5 94.5t-89 64.5t-120 23.5q-76 0 -139 -30t-109.5 -80t-73 -115.5t-26.5 -137.5zM354 1169l539 281l70 -139l-541 -281z" />
<glyph unicode="&#xf4;" horiz-adv-x="1146" d="M129 418q0 106 40 203.5t112.5 171t171 117.5t215.5 44q104 0 187 -35.5t140.5 -96t88 -141.5t30.5 -171q0 -106 -40 -202.5t-112.5 -170.5t-172 -117t-216.5 -43q-106 0 -189 35t-139.5 95.5t-86 140.5t-29.5 170zM305 432q0 -61 19.5 -114.5t55.5 -93.5t89 -63.5 t121 -23.5q76 0 139.5 30t109.5 79t71.5 114.5t25.5 137.5q0 61 -18.5 114.5t-55.5 94.5t-89 64.5t-120 23.5q-76 0 -139 -30t-109.5 -80t-73 -115.5t-26.5 -137.5zM332 1198l397 297l340 -297l-123 -125l-237 207l-277 -205z" />
<glyph unicode="&#xf5;" horiz-adv-x="1146" d="M129 418q0 106 40 203.5t112.5 171t171 117.5t215.5 44q104 0 187 -35.5t140.5 -96t88 -141.5t30.5 -171q0 -106 -40 -202.5t-112.5 -170.5t-172 -117t-216.5 -43q-106 0 -189 35t-139.5 95.5t-86 140.5t-29.5 170zM305 432q0 -61 19.5 -114.5t55.5 -93.5t89 -63.5 t121 -23.5q76 0 139.5 30t109.5 79t71.5 114.5t25.5 137.5q0 61 -18.5 114.5t-55.5 94.5t-89 64.5t-120 23.5q-76 0 -139 -30t-109.5 -80t-73 -115.5t-26.5 -137.5zM328 1294q47 29 81.5 44.5t59.5 23.5t43 9t35 1q23 0 61.5 -8t80.5 -19.5t83 -19.5t70 -8q10 0 22.5 2 t29.5 8t43 16.5t62 28.5l60 -115q-47 -31 -99.5 -57t-111.5 -26q-35 0 -75 8t-80 18t-76.5 18.5t-65.5 8.5q-33 0 -69 -12.5t-89 -36.5z" />
<glyph unicode="&#xf6;" horiz-adv-x="1146" d="M129 418q0 106 40 203.5t112.5 171t171 117.5t215.5 44q104 0 187 -35.5t140.5 -96t88 -141.5t30.5 -171q0 -106 -40 -202.5t-112.5 -170.5t-172 -117t-216.5 -43q-106 0 -189 35t-139.5 95.5t-86 140.5t-29.5 170zM305 432q0 -61 19.5 -114.5t55.5 -93.5t89 -63.5 t121 -23.5q76 0 139.5 30t109.5 79t71.5 114.5t25.5 137.5q0 61 -18.5 114.5t-55.5 94.5t-89 64.5t-120 23.5q-76 0 -139 -30t-109.5 -80t-73 -115.5t-26.5 -137.5zM324 1237q0 66 47 111t110 45q57 0 94 -38t37 -93q0 -66 -47 -111t-110 -45q-57 0 -94 38t-37 93zM795 1237 q0 33 13 60.5t34.5 49t50.5 34t59 12.5q57 0 94 -38t37 -93q0 -33 -13 -60.5t-35.5 -49.5t-51.5 -34t-59 -12q-57 0 -93 39t-36 92z" />
<glyph unicode="&#xf7;" horiz-adv-x="1177" d="M219 401l17 158h827l-16 -158h-828zM465 162q0 66 47 110.5t111 44.5q57 0 94 -37.5t37 -93.5q0 -66 -47.5 -110.5t-110.5 -44.5q-57 0 -94 38t-37 93zM530 793q0 66 47.5 110.5t110.5 44.5q57 0 94 -38t37 -93q0 -66 -47 -110.5t-110 -44.5q-57 0 -94.5 38t-37.5 93z " />
<glyph unicode="&#xf8;" horiz-adv-x="1146" d="M129 420q0 106 41 203.5t112.5 171t170 116.5t215.5 43q29 0 52 -3t58 -9l82 154l144 -66l-78 -147q92 -59 140 -157.5t48 -215.5q0 -106 -41 -202.5t-112.5 -170.5t-172 -117t-217.5 -43q-37 0 -65.5 4.5t-56.5 12.5l-84 -158l-144 66l80 153q-82 59 -127 155.5 t-45 209.5zM305 434q0 -66 21.5 -122t62.5 -95l307 574q-10 4 -21 4h-22q-76 0 -140 -30t-110.5 -79t-72 -114.5t-25.5 -137.5zM530 143q25 -6 58 -6q76 0 140.5 30t110.5 79t71.5 113.5t25.5 134.5t-24.5 129t-71.5 98z" />
<glyph unicode="&#xf9;" d="M179 216q-7 67 3 165l58 549h178l-51 -492q-6 -66 0 -121t28.5 -95t64.5 -63.5t105 -23.5q68 0 121 25.5t91 69.5t60.5 101.5t28.5 121.5l49 477h181l-99 -930h-178l19 166q-51 -86 -140.5 -137.5t-212.5 -51.5q-88 0 -155.5 30t-108.5 91q-35 51 -42 118zM420 1311 l100 139l481 -281l-100 -139z" />
<glyph unicode="&#xfa;" d="M179 216q-7 67 3 165l58 549h178l-51 -492q-6 -66 0 -121t28.5 -95t64.5 -63.5t105 -23.5q68 0 121 25.5t91 69.5t60.5 101.5t28.5 121.5l49 477h181l-99 -930h-178l19 166q-51 -86 -140.5 -137.5t-212.5 -51.5q-88 0 -155.5 30t-108.5 91q-35 51 -42 118zM397 1169 l539 281l70 -139l-539 -281z" />
<glyph unicode="&#xfb;" d="M179 216q-7 67 3 165l58 549h178l-51 -492q-6 -66 0 -121t28.5 -95t64.5 -63.5t105 -23.5q68 0 121 25.5t91 69.5t60.5 101.5t28.5 121.5l49 477h181l-99 -930h-178l19 166q-51 -86 -140.5 -137.5t-212.5 -51.5q-88 0 -155.5 30t-108.5 91q-35 51 -42 118zM326 1198 l397 297l340 -297l-125 -125l-236 207l-278 -207z" />
<glyph unicode="&#xfc;" d="M179 216q-7 67 3 165l58 549h178l-51 -492q-6 -66 0 -121t28.5 -95t64.5 -63.5t105 -23.5q68 0 121 25.5t91 69.5t60.5 101.5t28.5 121.5l49 477h181l-99 -930h-178l19 166q-51 -86 -140.5 -137.5t-212.5 -51.5q-88 0 -155.5 30t-108.5 91q-35 51 -42 118zM324 1237 q0 66 47 111t110 45q57 0 94 -38t37 -93q0 -66 -47 -111t-110 -45q-57 0 -94 38t-37 93zM795 1237q0 66 47 111t110 45q55 0 93 -38t38 -93q0 -66 -49 -111t-112 -45q-55 0 -91 38t-36 93z" />
<glyph unicode="&#xfd;" horiz-adv-x="1173" d="M131 -121h174q-10 -109 42 -177.5t194 -68.5q131 0 204.5 69t90.5 232l24 232q-53 -86 -140 -137.5t-212 -51.5q-96 0 -161.5 31t-102.5 88q-35 53 -42 121t3 170l57 543h178l-51 -488q-6 -66 -1 -122t26.5 -97t63.5 -64.5t110 -23.5q70 0 124 25.5t91 69.5t58.5 101.5 t27.5 121.5l49 477h180l-104 -996q-12 -123 -53 -209.5t-104.5 -142t-148 -81t-182.5 -25.5q-115 0 -193.5 30.5t-125.5 85t-64.5 128t-11.5 159.5zM418 1169l538 281l72 -139l-539 -281z" />
<glyph unicode="&#xfe;" horiz-adv-x="1216" d="M106 -504l203 1938h178l-69 -664q55 86 147 135t205 49q94 0 172 -35.5t133 -96t86 -140.5t31 -170q0 -106 -41 -202.5t-111.5 -170t-166 -118t-203.5 -44.5q-121 0 -201 52.5t-115 132.5l-69 -666h-179zM385 432q0 -61 19.5 -114.5t55.5 -93.5t88 -63.5t120 -23.5 q76 0 139 30t109.5 80t72 114.5t25.5 136.5q0 59 -18.5 113.5t-54.5 95.5t-88 64.5t-120 23.5q-74 0 -138.5 -30t-110.5 -79t-72.5 -114.5t-26.5 -139.5z" />
<glyph unicode="&#xff;" horiz-adv-x="1173" d="M131 -121h174q-10 -109 42 -177.5t194 -68.5q131 0 204.5 69t90.5 232l24 232q-53 -86 -140 -137.5t-212 -51.5q-96 0 -161.5 31t-102.5 88q-35 53 -42 121t3 170l57 543h178l-51 -488q-6 -66 -1 -122t26.5 -97t63.5 -64.5t110 -23.5q70 0 124 25.5t91 69.5t58.5 101.5 t27.5 121.5l49 477h180l-104 -996q-12 -123 -53 -209.5t-104.5 -142t-148 -81t-182.5 -25.5q-115 0 -193.5 30.5t-125.5 85t-64.5 128t-11.5 159.5zM365 1235q0 31 12 58.5t33.5 48t48 32.5t57.5 12q53 0 88 -36.5t35 -89.5q0 -61 -46 -104.5t-106 -43.5q-53 0 -87.5 35 t-34.5 88zM834 1235q0 63 45 107t106 44q55 0 90 -36.5t35 -89.5q0 -61 -46 -104.5t-108 -43.5q-53 0 -87.5 35t-34.5 88z" />
<glyph unicode="&#x100;" horiz-adv-x="1144" d="M10 0l645 1434h136l344 -1434h-197l-53 219h-582l-96 -219h-197zM377 1642l16 158h733l-16 -158h-733zM379 389h467l-154 739z" />
<glyph unicode="&#x101;" horiz-adv-x="1222" d="M129 420q0 106 41 203.5t112.5 171t166 116.5t202.5 43q115 0 197 -49t119 -135l16 160h176l-96 -930h-176l16 162q-55 -86 -148 -135.5t-206 -49.5q-96 0 -173 36t-132.5 96.5t-85 140.5t-29.5 170zM305 432q0 -61 19.5 -114.5t55.5 -93.5t89 -63.5t121 -23.5 q76 0 139.5 30t109.5 79t71.5 114.5t25.5 137.5q0 61 -18.5 114.5t-55.5 94.5t-89 64.5t-120 23.5q-76 0 -139 -30t-109.5 -80t-73 -115.5t-26.5 -137.5zM317 1169l17 160h733l-16 -160h-734z" />
<glyph unicode="&#x102;" horiz-adv-x="1144" d="M10 0l645 1434h136l344 -1434h-197l-53 219h-582l-96 -219h-197zM350 1825h168q16 -72 75.5 -111t151.5 -39q96 0 166 41t99 109h168q-16 -68 -58.5 -124t-104 -97t-135 -63.5t-149.5 -22.5q-78 0 -145.5 22.5t-117.5 63.5t-82 97t-36 124zM379 389h467l-154 739z" />
<glyph unicode="&#x103;" horiz-adv-x="1222" d="M129 420q0 106 41 203.5t112.5 171t166 116.5t202.5 43q115 0 197 -49t119 -135l16 160h176l-96 -930h-176l16 162q-55 -86 -148 -135.5t-206 -49.5q-96 0 -173 36t-132.5 96.5t-85 140.5t-29.5 170zM289 1434h168q16 -72 74.5 -111t150.5 -39q96 0 167 40t99 110h168 q-14 -68 -57 -124.5t-103.5 -98.5t-135.5 -64.5t-150 -22.5q-78 0 -145.5 23.5t-118 64.5t-82 97.5t-35.5 124.5zM305 432q0 -61 19.5 -114.5t55.5 -93.5t89 -63.5t121 -23.5q76 0 139.5 30t109.5 79t71.5 114.5t25.5 137.5q0 61 -18.5 114.5t-55.5 94.5t-89 64.5t-120 23.5 q-76 0 -139 -30t-109.5 -80t-73 -115.5t-26.5 -137.5z" />
<glyph unicode="&#x104;" horiz-adv-x="1144" d="M10 0l645 1434h136l344 -1434h-66q-59 -39 -102 -83t-43 -107q0 -45 27.5 -77t86.5 -32q27 0 62 7t65 20l-14 -131q-33 -10 -83 -20.5t-101 -10.5q-111 0 -165 52t-54 130q0 72 46 130.5t144 121.5l-53 219h-582l-96 -219h-197zM379 389h467l-154 739z" />
<glyph unicode="&#x105;" horiz-adv-x="1222" d="M129 420q0 106 41 203.5t112.5 171t166 116.5t202.5 43q115 0 197 -49t119 -135l16 160h176l-96 -930h-47q-57 -39 -100.5 -83t-43.5 -107q0 -45 27 -77t84 -32q27 0 63.5 7t67.5 20l-14 -131q-35 -10 -85 -20.5t-102 -10.5q-111 0 -164 52t-53 130q0 76 49.5 134.5 t141.5 117.5l16 162q-55 -86 -148 -135.5t-206 -49.5q-96 0 -173 36t-132.5 96.5t-85 140.5t-29.5 170zM305 432q0 -61 19.5 -114.5t55.5 -93.5t89 -63.5t121 -23.5q76 0 139.5 30t109.5 79t71.5 114.5t25.5 137.5q0 61 -18.5 114.5t-55.5 94.5t-89 64.5t-120 23.5 q-76 0 -139 -30t-109.5 -80t-73 -115.5t-26.5 -137.5z" />
<glyph unicode="&#x106;" horiz-adv-x="1587" d="M156 647q0 158 57 305.5t164.5 262t259 183t342.5 68.5q147 0 261 -42t192.5 -113.5t122.5 -170t51 -208.5h-197q-8 78 -40 145.5t-88 116.5t-135 76.5t-179 27.5q-141 0 -256 -54t-196 -143t-125 -204t-44 -235q0 -109 35 -204.5t100.5 -167t159.5 -113.5t213 -42 q88 0 166 23.5t140.5 64.5t110.5 97.5t79 121.5h204q-35 -94 -101.5 -180t-159.5 -151.5t-209.5 -104.5t-254.5 -39q-162 0 -286.5 54.5t-210.5 147.5t-131 217t-45 261zM682 1675l541 281l69 -141l-538 -281z" />
<glyph unicode="&#x107;" horiz-adv-x="1083" d="M133 414q0 100 34 197.5t101.5 174t165.5 122.5t228 46q104 0 178.5 -30.5t123 -81.5t70 -115.5t19.5 -134.5h-179q0 86 -54 144.5t-173 58.5q-86 0 -148.5 -32t-104.5 -83t-62.5 -117.5t-20.5 -136.5q0 -59 15.5 -112.5t49.5 -92.5t85 -61.5t125 -22.5q111 0 171 49.5 t91 132.5h178q-16 -72 -55 -133t-97.5 -108t-137.5 -74t-173 -27q-111 0 -191.5 36t-134 95.5t-79 139.5t-25.5 166zM362 1126l539 281l70 -139l-541 -281z" />
<glyph unicode="&#x108;" horiz-adv-x="1587" d="M156 647q0 158 57 305.5t164.5 262t259 183t342.5 68.5q147 0 261 -42t192.5 -113.5t122.5 -170t51 -208.5h-197q-8 78 -40 145.5t-88 116.5t-135 76.5t-179 27.5q-141 0 -256 -54t-196 -143t-125 -204t-44 -235q0 -109 35 -204.5t100.5 -167t159.5 -113.5t213 -42 q88 0 166 23.5t140.5 64.5t110.5 97.5t79 121.5h204q-35 -94 -101.5 -180t-159.5 -151.5t-209.5 -104.5t-254.5 -39q-162 0 -286.5 54.5t-210.5 147.5t-131 217t-45 261zM621 1665l399 297l338 -297l-125 -125l-236 207l-278 -205z" />
<glyph unicode="&#x109;" horiz-adv-x="1083" d="M133 414q0 100 34 197.5t101.5 174t165.5 122.5t228 46q104 0 178.5 -30.5t123 -81.5t70 -115.5t19.5 -134.5h-179q0 86 -54 144.5t-173 58.5q-86 0 -148.5 -32t-104.5 -83t-62.5 -117.5t-20.5 -136.5q0 -59 15.5 -112.5t49.5 -92.5t85 -61.5t125 -22.5q111 0 171 49.5 t91 132.5h178q-16 -72 -55 -133t-97.5 -108t-137.5 -74t-173 -27q-111 0 -191.5 36t-134 95.5t-79 139.5t-25.5 166zM301 1198l399 297l338 -297l-123 -125l-237 207l-277 -207z" />
<glyph unicode="&#x10a;" horiz-adv-x="1587" d="M156 647q0 158 57 305.5t164.5 262t259 183t342.5 68.5q147 0 261 -42t192.5 -113.5t122.5 -170t51 -208.5h-197q-8 78 -40 145.5t-88 116.5t-135 76.5t-179 27.5q-141 0 -256 -54t-196 -143t-125 -204t-44 -235q0 -109 35 -204.5t100.5 -167t159.5 -113.5t213 -42 q88 0 166 23.5t140.5 64.5t110.5 97.5t79 121.5h204q-35 -94 -101.5 -180t-159.5 -151.5t-209.5 -104.5t-254.5 -39q-162 0 -286.5 54.5t-210.5 147.5t-131 217t-45 261zM850 1729q0 33 13.5 61.5t35 50t50 33.5t59.5 12q57 0 94 -39t37 -92q0 -33 -13.5 -60.5t-36 -49 t-51 -34t-59.5 -12.5q-55 0 -92 37.5t-37 92.5z" />
<glyph unicode="&#x10b;" horiz-adv-x="1083" d="M133 414q0 100 34 197.5t101.5 174t165.5 122.5t228 46q104 0 178.5 -30.5t123 -81.5t70 -115.5t19.5 -134.5h-179q0 86 -54 144.5t-173 58.5q-86 0 -148.5 -32t-104.5 -83t-62.5 -117.5t-20.5 -136.5q0 -59 15.5 -112.5t49.5 -92.5t85 -61.5t125 -22.5q111 0 171 49.5 t91 132.5h178q-16 -72 -55 -133t-97.5 -108t-137.5 -74t-173 -27q-111 0 -191.5 36t-134 95.5t-79 139.5t-25.5 166zM541 1235q0 66 48 111t111 45q57 0 93 -38t36 -93q0 -66 -47 -111t-110 -45q-57 0 -94 38t-37 93z" />
<glyph unicode="&#x10c;" horiz-adv-x="1587" d="M156 647q0 158 57 305.5t164.5 262t259 183t342.5 68.5q147 0 261 -42t192.5 -113.5t122.5 -170t51 -208.5h-197q-8 78 -40 145.5t-88 116.5t-135 76.5t-179 27.5q-141 0 -256 -54t-196 -143t-125 -204t-44 -235q0 -109 35 -204.5t100.5 -167t159.5 -113.5t213 -42 q88 0 166 23.5t140.5 64.5t110.5 97.5t79 121.5h204q-35 -94 -101.5 -180t-159.5 -151.5t-209.5 -104.5t-254.5 -39q-162 0 -286.5 54.5t-210.5 147.5t-131 217t-45 261zM666 1837l108 123l207 -215l256 215l84 -123l-363 -297z" />
<glyph unicode="&#x10d;" horiz-adv-x="1083" d="M133 414q0 100 34 197.5t101.5 174t165.5 122.5t228 46q104 0 178.5 -30.5t123 -81.5t70 -115.5t19.5 -134.5h-179q0 86 -54 144.5t-173 58.5q-86 0 -148.5 -32t-104.5 -83t-62.5 -117.5t-20.5 -136.5q0 -59 15.5 -112.5t49.5 -92.5t85 -61.5t125 -22.5q111 0 171 49.5 t91 132.5h178q-16 -72 -55 -133t-97.5 -108t-137.5 -74t-173 -27q-111 0 -191.5 36t-134 95.5t-79 139.5t-25.5 166zM371 1370l108 125l207 -217l256 217l84 -125l-360 -297z" />
<glyph unicode="&#x10e;" horiz-adv-x="1427" d="M160 0l151 1434h443q166 0 290.5 -55.5t209.5 -145.5t128 -208t43 -243q0 -145 -57 -285.5t-163.5 -251t-259 -178t-343.5 -67.5h-442zM365 168h256q141 0 253.5 52t192.5 136t122 192.5t42 219.5q0 96 -32 186t-94.5 159t-154.5 111t-215 42h-256zM547 1837l110 123 l207 -215l256 215l82 -123l-360 -297z" />
<glyph unicode="&#x10f;" horiz-adv-x="1478" d="M129 420q0 106 41 203.5t112.5 171t166 116.5t202.5 43q115 0 197 -49t119 -135l69 664h176l-149 -1434h-176l16 162q-55 -86 -148 -135.5t-206 -49.5q-96 0 -173 36t-132.5 96.5t-85 140.5t-29.5 170zM305 432q0 -61 19.5 -114.5t55.5 -93.5t89 -63.5t121 -23.5 q76 0 139.5 30t109.5 79t71.5 114.5t25.5 137.5q0 61 -18.5 114.5t-55.5 94.5t-89 64.5t-120 23.5q-76 0 -139 -30t-109.5 -80t-73 -115.5t-26.5 -137.5zM1288 997l8 86q59 0 93 16.5t57 45.5q23 27 30 48t9 38q-14 -14 -53 -14q-53 0 -85 34.5t-32 87.5q0 63 44 107.5 t116 44.5q66 0 102.5 -45t36.5 -143q0 -152 -89 -229t-237 -77z" />
<glyph unicode="&#x110;" horiz-adv-x="1427" d="M-43 641l16 160h271l67 633h443q166 0 290.5 -55.5t209.5 -145.5t128 -208t43 -243q0 -145 -57 -285.5t-163.5 -251t-259 -178t-343.5 -67.5h-442l67 641h-270zM365 168h256q141 0 253.5 52t192.5 136t122 192.5t42 219.5q0 96 -32 186t-94.5 159t-154.5 111t-215 42 h-256l-49 -465h279l-17 -160h-278z" />
<glyph unicode="&#x111;" horiz-adv-x="1222" d="M129 420q0 106 41 203.5t112.5 171t166 116.5t202.5 43q115 0 197 -49t119 -135l32 307h-196l16 160h197l20 197h176l-20 -197h106l-16 -160h-106l-113 -1077h-176l16 162q-55 -86 -148 -135.5t-206 -49.5q-96 0 -173 36t-132.5 96.5t-85 140.5t-29.5 170zM305 432 q0 -61 19.5 -114.5t55.5 -93.5t89 -63.5t121 -23.5q76 0 139.5 30t109.5 79t71.5 114.5t25.5 137.5q0 61 -18.5 114.5t-55.5 94.5t-89 64.5t-120 23.5q-76 0 -139 -30t-109.5 -80t-73 -115.5t-26.5 -137.5z" />
<glyph unicode="&#x112;" horiz-adv-x="1114" d="M160 0l151 1434h805l-18 -168h-619l-49 -469h619l-19 -168h-618l-47 -461h618l-18 -168h-805zM362 1642l17 158h733l-16 -158h-734z" />
<glyph unicode="&#x113;" horiz-adv-x="1075" d="M133 418q0 111 37 209t102.5 170.5t158.5 114.5t204 42q90 0 163.5 -28.5t126 -79.5t81 -123t28.5 -158q0 -41 -6 -74.5t-16 -72.5h-699q-6 -59 4.5 -111.5t40 -92.5t80.5 -63.5t125 -23.5q106 0 165.5 44t88.5 103h180q-18 -59 -57 -112t-96.5 -94t-132 -66t-162.5 -25 q-106 0 -185 36t-130.5 95.5t-76 139.5t-24.5 170zM301 1227l16 159h734l-17 -159h-733zM330 553h532q12 115 -54 182.5t-183 67.5q-111 0 -195 -63.5t-100 -186.5z" />
<glyph unicode="&#x114;" horiz-adv-x="1114" d="M160 0l151 1434h805l-18 -168h-619l-49 -469h619l-19 -168h-618l-47 -461h618l-18 -168h-805zM336 1825h168q16 -72 75.5 -111t151.5 -39q94 0 165 40t99 110h168q-16 -68 -58 -124t-103.5 -98t-135 -64.5t-149.5 -22.5q-78 0 -145.5 23.5t-118 64.5t-82 97t-35.5 124z " />
<glyph unicode="&#x115;" horiz-adv-x="1075" d="M133 418q0 111 37 209t102.5 170.5t158.5 114.5t204 42q90 0 163.5 -28.5t126 -79.5t81 -123t28.5 -158q0 -41 -6 -74.5t-16 -72.5h-699q-6 -59 4.5 -111.5t40 -92.5t80.5 -63.5t125 -23.5q106 0 165.5 44t88.5 103h180q-18 -59 -57 -112t-96.5 -94t-132 -66t-162.5 -25 q-106 0 -185 36t-130.5 95.5t-76 139.5t-24.5 170zM276 1434h168q16 -72 76 -111t152 -39q96 0 165.5 40t98.5 110h168q-14 -68 -57 -124.5t-103.5 -98.5t-135.5 -64.5t-151 -22.5q-78 0 -145.5 23.5t-117.5 64.5t-81.5 97.5t-36.5 124.5zM330 553h532q12 115 -54 182.5 t-183 67.5q-111 0 -195 -63.5t-100 -186.5z" />
<glyph unicode="&#x116;" horiz-adv-x="1114" d="M160 0l151 1434h805l-18 -168h-619l-49 -469h619l-19 -168h-618l-47 -461h618l-18 -168h-805zM596 1731q0 66 47 110.5t111 44.5q57 0 94 -38t37 -93q0 -66 -47 -111t-111 -45q-57 0 -94 38.5t-37 93.5z" />
<glyph unicode="&#x117;" horiz-adv-x="1075" d="M133 418q0 111 37 209t102.5 170.5t158.5 114.5t204 42q90 0 163.5 -28.5t126 -79.5t81 -123t28.5 -158q0 -41 -6 -74.5t-16 -72.5h-699q-6 -59 4.5 -111.5t40 -92.5t80.5 -63.5t125 -23.5q106 0 165.5 44t88.5 103h180q-18 -59 -57 -112t-96.5 -94t-132 -66t-162.5 -25 q-106 0 -185 36t-130.5 95.5t-76 139.5t-24.5 170zM330 553h532q12 115 -54 182.5t-183 67.5q-111 0 -195 -63.5t-100 -186.5zM526 1235q0 66 47.5 111t110.5 45q57 0 94 -38t37 -93q0 -66 -47 -111t-111 -45q-57 0 -94 38t-37 93z" />
<glyph unicode="&#x118;" horiz-adv-x="1114" d="M160 0l151 1434h805l-18 -168h-619l-49 -469h619l-19 -168h-618l-47 -461h618l-18 -168q-53 -35 -98.5 -81t-45.5 -109q0 -45 26.5 -77t86.5 -32q27 0 61.5 7t67.5 20l-16 -131q-33 -10 -82.5 -20.5t-100.5 -10.5q-111 0 -165 52t-54 130q0 72 46 130.5t143 121.5h-674z " />
<glyph unicode="&#x119;" horiz-adv-x="1075" d="M133 416q0 113 36 211t102.5 170.5t158.5 114.5t205 42q90 0 163.5 -28.5t126 -79.5t81 -123t28.5 -158q0 -41 -6 -74.5t-16 -72.5h-699q-6 -59 4.5 -111.5t40 -92.5t80.5 -63.5t125 -23.5q106 0 165.5 44t88.5 103h180q-18 -53 -52 -103t-84 -90t-113.5 -66.5 t-139.5 -34.5q-49 -35 -81.5 -76t-32.5 -94q0 -45 27.5 -77t82.5 -32q27 0 64 7t67 20l-16 -131q-35 -10 -84 -20.5t-100 -10.5q-111 0 -164.5 52t-53.5 130q0 66 39 121t123 115q-88 10 -152.5 48t-107.5 95t-64.5 131t-21.5 158zM330 553h532q12 115 -54 182.5t-183 67.5 q-111 0 -195 -63.5t-100 -186.5z" />
<glyph unicode="&#x11a;" horiz-adv-x="1114" d="M160 0l151 1434h805l-18 -168h-619l-49 -469h619l-19 -168h-618l-47 -461h618l-18 -168h-805zM422 1837l108 123l209 -215l254 215l84 -123l-360 -297z" />
<glyph unicode="&#x11b;" horiz-adv-x="1075" d="M133 418q0 111 37 209t102.5 170.5t158.5 114.5t204 42q90 0 163.5 -28.5t126 -79.5t81 -123t28.5 -158q0 -41 -6 -74.5t-16 -72.5h-699q-6 -59 4.5 -111.5t40 -92.5t80.5 -63.5t125 -23.5q106 0 165.5 44t88.5 103h180q-18 -59 -57 -112t-96.5 -94t-132 -66t-162.5 -25 q-106 0 -185 36t-130.5 95.5t-76 139.5t-24.5 170zM330 553h532q12 115 -54 182.5t-183 67.5q-111 0 -195 -63.5t-100 -186.5zM354 1370l109 125l207 -217l256 217l84 -125l-361 -297z" />
<glyph unicode="&#x11c;" horiz-adv-x="1712" d="M154 639q0 160 59 309.5t166.5 264t256 184t329.5 69.5q123 0 225 -33.5t176 -92t116 -137.5t46 -169h-189q-8 55 -38.5 103.5t-81 84t-118 56t-151.5 20.5q-135 0 -246.5 -54t-191.5 -144t-123 -206t-43 -239q0 -102 31 -196t94.5 -166t158.5 -115t222 -43q106 0 192 31 t149.5 83t105.5 122.5t63 150.5h-338l16 168h691l-17 -168h-153q-33 -125 -99.5 -227t-160 -175t-213 -113t-261.5 -40q-170 0 -295.5 55.5t-209.5 148.5t-126 215t-42 253zM625 1669l401 297l336 -297l-123 -125l-235 209l-279 -207z" />
<glyph unicode="&#x11d;" horiz-adv-x="1218" d="M84 -119h180q0 -49 12.5 -94t45 -79t85 -54.5t132.5 -20.5q70 0 128 17.5t103 54.5t73.5 95.5t37.5 140.5l22 221q-51 -80 -142 -132.5t-210 -52.5q-96 0 -173 36t-132.5 96.5t-85 140.5t-29.5 170q0 106 41 203.5t111.5 171t165 116.5t202.5 43q121 0 202 -52t116 -132 l16 160h176l-104 -989q-12 -125 -57.5 -213t-114 -144.5t-159.5 -82t-198 -25.5q-133 0 -220 35.5t-138 93t-69.5 130t-16.5 146.5zM307 432q0 -59 18.5 -113.5t55.5 -94.5t89 -63.5t120 -23.5q76 0 139.5 30t109.5 79t72.5 114.5t26.5 137.5q0 61 -18.5 114.5t-55.5 94.5 t-89 64.5t-120 23.5q-76 0 -139 -30t-109.5 -80t-73 -115.5t-26.5 -137.5zM319 1198l400 297l338 -297l-125 -125l-236 207l-278 -207z" />
<glyph unicode="&#x11e;" horiz-adv-x="1712" d="M154 639q0 160 59 309.5t166.5 264t256 184t329.5 69.5q123 0 225 -33.5t176 -92t116 -137.5t46 -169h-189q-8 55 -38.5 103.5t-81 84t-118 56t-151.5 20.5q-135 0 -246.5 -54t-191.5 -144t-123 -206t-43 -239q0 -102 31 -196t94.5 -166t158.5 -115t222 -43q106 0 192 31 t149.5 83t105.5 122.5t63 150.5h-338l16 168h691l-17 -168h-153q-33 -125 -99.5 -227t-160 -175t-213 -113t-261.5 -40q-170 0 -295.5 55.5t-209.5 148.5t-126 215t-42 253zM598 1827h166q16 -72 76.5 -111t152.5 -39q94 0 164 40t98 110h170q-16 -68 -58 -124t-103.5 -98 t-135 -64.5t-149.5 -22.5q-78 0 -145.5 23.5t-118.5 64.5t-82 97t-35 124z" />
<glyph unicode="&#x11f;" horiz-adv-x="1218" d="M84 -119h180q0 -49 12.5 -94t45 -79t85 -54.5t132.5 -20.5q70 0 128 17.5t103 54.5t73.5 95.5t37.5 140.5l22 221q-51 -80 -142 -132.5t-210 -52.5q-96 0 -173 36t-132.5 96.5t-85 140.5t-29.5 170q0 106 41 203.5t111.5 171t165 116.5t202.5 43q121 0 202 -52t116 -132 l16 160h176l-104 -989q-12 -125 -57.5 -213t-114 -144.5t-159.5 -82t-198 -25.5q-133 0 -220 35.5t-138 93t-69.5 130t-16.5 146.5zM299 1434h168q16 -72 75.5 -111t151.5 -39q94 0 165 40t99 110h168q-14 -68 -57 -124.5t-103.5 -98.5t-135 -64.5t-150.5 -22.5 q-78 0 -145.5 23.5t-117.5 64.5t-82 97.5t-36 124.5zM307 432q0 -59 18.5 -113.5t55.5 -94.5t89 -63.5t120 -23.5q76 0 139.5 30t109.5 79t72.5 114.5t26.5 137.5q0 61 -18.5 114.5t-55.5 94.5t-89 64.5t-120 23.5q-76 0 -139 -30t-109.5 -80t-73 -115.5t-26.5 -137.5z" />
<glyph unicode="&#x120;" horiz-adv-x="1712" d="M154 639q0 160 59 309.5t166.5 264t256 184t329.5 69.5q123 0 225 -33.5t176 -92t116 -137.5t46 -169h-189q-8 55 -38.5 103.5t-81 84t-118 56t-151.5 20.5q-135 0 -246.5 -54t-191.5 -144t-123 -206t-43 -239q0 -102 31 -196t94.5 -166t158.5 -115t222 -43q106 0 192 31 t149.5 83t105.5 122.5t63 150.5h-338l16 168h691l-17 -168h-153q-33 -125 -99.5 -227t-160 -175t-213 -113t-261.5 -40q-170 0 -295.5 55.5t-209.5 148.5t-126 215t-42 253zM858 1731q0 66 47 110.5t111 44.5q57 0 94 -38t37 -93q0 -66 -47 -111t-111 -45q-57 0 -94 38.5 t-37 93.5z" />
<glyph unicode="&#x121;" horiz-adv-x="1218" d="M84 -119h180q0 -49 12.5 -94t45 -79t85 -54.5t132.5 -20.5q70 0 128 17.5t103 54.5t73.5 95.5t37.5 140.5l22 221q-51 -80 -142 -132.5t-210 -52.5q-96 0 -173 36t-132.5 96.5t-85 140.5t-29.5 170q0 106 41 203.5t111.5 171t165 116.5t202.5 43q121 0 202 -52t116 -132 l16 160h176l-104 -989q-12 -125 -57.5 -213t-114 -144.5t-159.5 -82t-198 -25.5q-133 0 -220 35.5t-138 93t-69.5 130t-16.5 146.5zM307 432q0 -59 18.5 -113.5t55.5 -94.5t89 -63.5t120 -23.5q76 0 139.5 30t109.5 79t72.5 114.5t26.5 137.5q0 61 -18.5 114.5t-55.5 94.5 t-89 64.5t-120 23.5q-76 0 -139 -30t-109.5 -80t-73 -115.5t-26.5 -137.5zM539 1235q0 66 47 111t110 45q57 0 94 -38t37 -93q0 -66 -47 -111t-110 -45q-57 0 -94 38t-37 93z" />
<glyph unicode="&#x122;" horiz-adv-x="1712" d="M154 639q0 160 59 309.5t166.5 264t256 184t329.5 69.5q123 0 225 -33.5t176 -92t116 -137.5t46 -169h-189q-8 55 -38.5 103.5t-81 84t-118 56t-151.5 20.5q-135 0 -246.5 -54t-191.5 -144t-123 -206t-43 -239q0 -102 31 -196t94.5 -166t158.5 -115t222 -43q106 0 192 31 t149.5 83t105.5 122.5t63 150.5h-338l16 168h691l-17 -168h-153q-33 -125 -99.5 -227t-160 -175t-213 -113t-261.5 -40q-170 0 -295.5 55.5t-209.5 148.5t-126 215t-42 253zM662 -469l6 74q41 0 71.5 10t53.5 37q14 16 21 35.5t11 36.5q-16 -12 -45 -13q-43 0 -70.5 30 t-27.5 73q0 53 39 90t94 37q49 0 83 -36t34 -122q0 -123 -74 -187.5t-196 -64.5z" />
<glyph unicode="&#x123;" horiz-adv-x="1218" d="M84 -119h180q0 -49 12.5 -94t45 -79t85 -54.5t132.5 -20.5q70 0 128 17.5t103 54.5t73.5 95.5t37.5 140.5l22 221q-51 -80 -142 -132.5t-210 -52.5q-96 0 -173 36t-132.5 96.5t-85 140.5t-29.5 170q0 106 41 203.5t111.5 171t165 116.5t202.5 43q121 0 202 -52t116 -132 l16 160h176l-104 -989q-12 -125 -57.5 -213t-114 -144.5t-159.5 -82t-198 -25.5q-133 0 -220 35.5t-138 93t-69.5 130t-16.5 146.5zM307 432q0 -59 18.5 -113.5t55.5 -94.5t89 -63.5t120 -23.5q76 0 139.5 30t109.5 79t72.5 114.5t26.5 137.5q0 61 -18.5 114.5t-55.5 94.5 t-89 64.5t-120 23.5q-76 0 -139 -30t-109.5 -80t-73 -115.5t-26.5 -137.5zM528 1274q0 145 86 225t240 80l-8 -86q-70 0 -100.5 -21.5t-47.5 -41.5q-18 -23 -26 -39.5t-15 -44.5q8 4 21.5 8t32.5 4q53 0 85.5 -35t32.5 -88q0 -61 -45 -106.5t-114 -45.5q-66 0 -104 46.5 t-38 144.5z" />
<glyph unicode="&#x124;" horiz-adv-x="1359" d="M160 0l151 1434h187l-68 -637h668l67 637h187l-152 -1434h-186l65 629h-667l-66 -629h-186zM485 1665l402 297l336 -297l-123 -125l-236 207l-278 -205z" />
<glyph unicode="&#x125;" d="M160 0l151 1434h178l-71 -668q51 86 139 137t211 51q90 0 156.5 -30.5t107.5 -92.5q37 -57 44 -123.5t-3 -158.5l-57 -549h-178l51 494q6 63 0 119.5t-29.5 96.5t-65.5 63.5t-106 23.5q-68 0 -121 -27t-91 -71t-59.5 -101t-27.5 -119l-51 -479h-178zM432 1665l402 297 l335 -297l-122 -125l-236 207l-279 -205z" />
<glyph unicode="&#x126;" horiz-adv-x="1359" d="M160 0l151 1434h187l-27 -248h668l26 248h187l-152 -1434h-186l65 629h-667l-66 -629h-186zM430 797h668l24 229h-667z" />
<glyph unicode="&#x127;" d="M113 1077l16 160h160l20 197h178l-20 -197h395l-16 -160h-395l-33 -311q51 86 139 137t211 51q182 0 262 -123q35 -51 44 -117.5t-1 -164.5l-57 -549h-178l51 494q6 63 0 119.5t-29.5 96.5t-65.5 63.5t-106 23.5q-68 0 -121 -27t-91 -71t-60.5 -101t-28.5 -119l-51 -479 h-176l112 1077h-159z" />
<glyph unicode="&#x128;" horiz-adv-x="512" d="M74 1745q47 29 81.5 44t59.5 23.5t43 9.5t35 1q23 0 61.5 -8.5t80.5 -19.5t83 -19.5t70 -8.5q10 0 22.5 2.5t29.5 8.5t43 16t62 29l60 -117q-80 -57 -137.5 -70.5t-79.5 -13.5q-29 0 -68 8t-79 19.5t-78.5 19.5t-65.5 8q-35 0 -69.5 -13t-88.5 -38zM160 0l151 1434h193 l-152 -1434h-192z" />
<glyph unicode="&#x129;" horiz-adv-x="565" d="M49 1272q47 29 82 44t59.5 23.5t43 9.5t34.5 1q23 0 62 -8.5t81 -19.5t83 -19.5t69 -8.5q10 0 22.5 2t30 8.5t43 16.5t62.5 29l57 -115q-84 -59 -137 -71.5t-76 -12.5q-35 0 -73.5 8t-78.5 18.5t-77 18.5t-66 8q-33 0 -68.5 -12t-86.5 -37zM195 0l96 930h176l-96 -930 h-176z" />
<glyph unicode="&#x12a;" horiz-adv-x="512" d="M61 1642l17 158h735l-16 -158h-736zM160 0l149 1434h193l-150 -1434h-192z" />
<glyph unicode="&#x12b;" horiz-adv-x="565" d="M39 1167l16 160h733l-16 -160h-733zM199 0l98 930h178l-98 -930h-178z" />
<glyph unicode="&#x12c;" horiz-adv-x="512" d="M35 1825h168q16 -72 76.5 -111t150.5 -39q96 0 166 41t98 109h170q-14 -68 -57 -124t-103.5 -97t-135 -63.5t-150.5 -22.5q-78 0 -145.5 22.5t-119 63.5t-83 97t-35.5 124zM160 0l151 1434h193l-152 -1434h-192z" />
<glyph unicode="&#x12d;" horiz-adv-x="565" d="M20 1434h168q16 -72 76 -111t152 -39q94 0 164.5 40t99.5 110h168q-14 -68 -57 -124.5t-103.5 -98.5t-135.5 -64.5t-151 -22.5q-78 0 -145.5 23.5t-117.5 64.5t-81.5 97.5t-36.5 124.5zM195 0l98 930h178l-98 -930h-178z" />
<glyph unicode="&#x12e;" horiz-adv-x="512" d="M-29 -252q0 72 46 130.5t143 121.5l149 1434h193l-150 -1434h-61q-53 -35 -98.5 -81t-45.5 -109q0 -45 27 -77t84 -32q27 0 61.5 7t67.5 20l-14 -131q-35 -10 -84 -20.5t-101 -10.5q-111 0 -164 53t-53 129z" />
<glyph unicode="&#x12f;" horiz-adv-x="565" d="M39 -252q0 72 46 130.5t144 121.5l97 930h176l-96 -930h-48q-57 -39 -100 -83t-43 -107q0 -45 27.5 -77t83.5 -32q27 0 63.5 7t67.5 20l-15 -131q-35 -10 -85 -20.5t-101 -10.5q-111 0 -164 52t-53 130zM307 1270q0 33 13.5 61.5t35 50t50 33.5t59.5 12q57 0 94 -38.5 t37 -94.5q0 -63 -47 -108t-111 -45q-59 0 -95 38t-36 91z" />
<glyph unicode="&#x130;" horiz-adv-x="512" d="M160 0l151 1434h193l-152 -1434h-192zM295 1731q0 66 47 110.5t111 44.5q57 0 94 -38t37 -93q0 -66 -47.5 -111t-110.5 -45q-57 0 -94 38.5t-37 93.5z" />
<glyph unicode="&#x131;" horiz-adv-x="471" d="M147 0l99 930h178l-98 -930h-179z" />
<glyph unicode="&#x132;" horiz-adv-x="1609" d="M160 0l151 1434h193l-152 -1434h-192zM588 455h188q-16 -145 50.5 -232.5t195.5 -87.5t208 88t95 232l102 979h189l-103 -979q-10 -104 -51 -194.5t-107.5 -155t-155.5 -101.5t-195 -37q-109 0 -191 37t-136 102.5t-76.5 154.5t-12.5 194z" />
<glyph unicode="&#x133;" horiz-adv-x="1126" d="M195 0l98 930h176l-98 -930h-176zM272 1270q0 66 48.5 111.5t111.5 45.5q57 0 93 -38.5t36 -94.5q0 -63 -46 -108t-109 -45q-59 0 -96.5 38t-37.5 91zM520 -498l17 150q33 -10 50 -13.5t34 -3.5q45 0 74.5 27t37.5 98l123 1170h178l-125 -1180q-16 -152 -82.5 -212 t-160.5 -60q-35 0 -77 7t-69 17zM838 1270q0 33 13 61.5t34.5 50t50.5 33.5t59 12q57 0 94 -38.5t37 -94.5q0 -63 -47 -108t-110 -45q-57 0 -94 38t-37 91z" />
<glyph unicode="&#x134;" horiz-adv-x="1097" d="M76 455h186q-14 -143 52.5 -231.5t195.5 -88.5t208 87t95 233l102 979h187l-103 -979q-10 -104 -51 -194.5t-106.5 -155t-154.5 -101.5t-195 -37q-109 0 -191 37t-136 102.5t-76.5 154.5t-12.5 194zM666 1663l401 297l336 -297l-123 -125l-236 209l-278 -207z" />
<glyph unicode="&#x135;" horiz-adv-x="561" d="M-43 -498l16 150q29 -10 48.5 -13.5t35.5 -3.5q47 0 75 30t36 95l123 1170h178l-125 -1180q-16 -152 -82.5 -212t-161.5 -60q-35 0 -77.5 7t-65.5 17zM51 1284l404 297l336 -297l-123 -125l-236 209l-278 -207z" />
<glyph unicode="&#x136;" horiz-adv-x="1208" d="M160 0l151 1434h187l-70 -652l672 652h235l-731 -717l580 -717h-236l-534 651l-68 -651h-186zM459 -446l8 73q51 0 78.5 12.5t44.5 34.5q14 16 22.5 36t10.5 36q-12 -12 -45 -12q-43 0 -70 29.5t-27 72.5q0 53 38 90t93 37q49 0 84 -36t35 -122q0 -117 -71.5 -184 t-200.5 -67z" />
<glyph unicode="&#x137;" horiz-adv-x="976" d="M160 0l151 1434h178l-98 -928l434 424h226l-473 -465l374 -465h-225l-344 422l-45 -422h-178zM334 -446l8 73q51 0 79 12.5t44 34.5q14 16 22.5 36t10.5 36q-12 -12 -45 -12q-43 0 -70 29.5t-27 72.5q0 53 38 90t93 37q49 0 84 -36t35 -122q0 -117 -71.5 -184t-200.5 -67 z" />
<glyph unicode="&#x138;" horiz-adv-x="976" d="M160 0l98 930h178l-45 -424l434 424h226l-473 -465l374 -465h-225l-344 422l-45 -422h-178z" />
<glyph unicode="&#x139;" horiz-adv-x="870" d="M160 0l151 1434h187l-133 -1266h469l-19 -168h-655zM190 1675l539 281l70 -141l-539 -281z" />
<glyph unicode="&#x13a;" horiz-adv-x="497" d="M127 1677l539 281l71 -139l-538 -281zM160 0l149 1434h178l-149 -1434h-178z" />
<glyph unicode="&#x13b;" horiz-adv-x="870" d="M160 0l151 1434h187l-133 -1266h469l-19 -168h-655zM293 -446l8 71q53 0 80 15.5t43 33.5q16 20 23.5 38t9.5 34q-12 -12 -45 -12q-43 0 -70 29.5t-27 72.5q0 53 38 90t93 37q51 0 85 -36t34 -122q0 -123 -73.5 -187t-198.5 -64z" />
<glyph unicode="&#x13c;" horiz-adv-x="497" d="M88 -446l8 73q49 0 77 12.5t44 34.5q14 16 22.5 36t10.5 36q-12 -12 -45 -12q-43 0 -69.5 29.5t-26.5 72.5q0 53 37.5 90t93.5 37q47 0 83.5 -34.5t36.5 -123.5q0 -119 -72.5 -185t-199.5 -66zM160 0l149 1434h178l-149 -1434h-178z" />
<glyph unicode="&#x13d;" horiz-adv-x="870" d="M115 1837l108 123l209 -215l254 215l86 -123l-360 -297zM160 0l149 1434h187l-134 -1266h469l-16 -168h-655z" />
<glyph unicode="&#x13e;" horiz-adv-x="753" d="M160 0l151 1434h178l-151 -1434h-178zM563 1001l10 86q59 0 92 17.5t56 44.5q33 41 39 86q-16 -12 -51 -12q-53 0 -87 33.5t-34 86.5q0 63 46 108.5t116 45.5q66 0 103.5 -46t37.5 -144q0 -145 -87 -225.5t-241 -80.5z" />
<glyph unicode="&#x13f;" horiz-adv-x="870" d="M160 0l151 1434h187l-133 -1266h469l-19 -168h-655zM600 594q0 33 13.5 61.5t35 50t50 34t59.5 12.5q57 0 94 -39t37 -92q0 -66 -49 -111t-113 -45q-55 0 -91 37t-36 92z" />
<glyph unicode="&#x140;" horiz-adv-x="698" d="M160 0l151 1434h178l-151 -1434h-178zM477 627q0 66 48 111.5t112 45.5q57 0 93 -38.5t36 -94.5q0 -63 -46 -108t-110 -45q-59 0 -96 38t-37 91z" />
<glyph unicode="&#x141;" horiz-adv-x="870" d="M113 506l18 172l105 45l75 711h187l-68 -633l352 151l-18 -172l-352 -151l-47 -461h469l-19 -168h-655l57 551z" />
<glyph unicode="&#x142;" horiz-adv-x="497" d="M57 502l19 172l164 84l71 676h193l-62 -574l176 88l-18 -170l-174 -90l-74 -688h-192l61 586z" />
<glyph unicode="&#x143;" horiz-adv-x="1357" d="M160 0l151 1434h207l529 -1108l116 1108h187l-152 -1434h-207l-528 1108l-117 -1108h-186zM561 1675l539 281l71 -141l-538 -281z" />
<glyph unicode="&#x144;" d="M160 0l98 930h178l-18 -164q51 86 139 137t211 51q90 0 156.5 -30.5t107.5 -92.5q37 -57 44 -123.5t-3 -158.5l-57 -549h-178l51 494q6 63 0 119.5t-29.5 96.5t-65.5 63.5t-106 23.5q-68 0 -121 -27t-91 -71t-59.5 -101t-27.5 -119l-51 -479h-178zM416 1169l538 281 l70 -139l-539 -281z" />
<glyph unicode="&#x145;" horiz-adv-x="1357" d="M160 0l151 1434h207l529 -1108l116 1108h187l-152 -1434h-207l-528 1108l-117 -1108h-186zM522 -446l8 71q53 0 80 15.5t43 33.5q16 20 23.5 38t9.5 34q-12 -12 -45 -12q-43 0 -69.5 29.5t-26.5 72.5q0 53 38 90t93 37q51 0 85 -36t34 -122q0 -123 -74 -187t-199 -64z " />
<glyph unicode="&#x146;" d="M160 0l98 930h178l-18 -164q51 86 139 137t211 51q90 0 156.5 -30.5t107.5 -92.5q37 -57 44 -123.5t-3 -158.5l-57 -549h-178l51 494q6 63 0 119.5t-29.5 96.5t-65.5 63.5t-106 23.5q-68 0 -121 -27t-91 -71t-59.5 -101t-27.5 -119l-51 -479h-178zM446 -446l9 73 q41 0 70.5 10.5t52.5 36.5q14 16 22 36t10 36q-12 -12 -45 -12q-43 0 -69.5 29.5t-26.5 72.5q0 53 38 90t93 37q49 0 84 -36t35 -122q0 -123 -73 -187t-200 -64z" />
<glyph unicode="&#x147;" horiz-adv-x="1357" d="M160 0l151 1434h207l529 -1108l116 1108h187l-152 -1434h-207l-528 1108l-117 -1108h-186zM551 1837l111 123l206 -215l256 215l82 -123l-360 -297z" />
<glyph unicode="&#x148;" d="M160 0l98 930h178l-18 -164q51 86 139 137t211 51q90 0 156.5 -30.5t107.5 -92.5q37 -57 44 -123.5t-3 -158.5l-57 -549h-178l51 494q6 63 0 119.5t-29.5 96.5t-65.5 63.5t-106 23.5q-68 0 -121 -27t-91 -71t-59.5 -101t-27.5 -119l-51 -479h-178zM438 1456l107 125 l209 -217l254 217l86 -125l-363 -297z" />
<glyph unicode="&#x149;" d="M160 0l98 930h178l-18 -164q51 86 139 137t211 51q90 0 156.5 -30.5t107.5 -92.5q37 -57 44 -123.5t-3 -158.5l-57 -549h-178l51 494q6 63 0 119.5t-29.5 96.5t-65.5 63.5t-106 23.5q-68 0 -121 -27t-91 -71t-59.5 -101t-27.5 -119l-51 -479h-178zM260 1083l6 74 q41 0 72 10.5t53 36.5q14 16 21.5 36t9.5 36q-10 -10 -41 -10q-45 0 -72.5 29.5t-27.5 72.5q0 51 38.5 89t96.5 38q49 0 81.5 -36t32.5 -122q0 -119 -70.5 -186.5t-199.5 -67.5z" />
<glyph unicode="&#x14a;" horiz-adv-x="1357" d="M160 0l151 1434h189l547 -1102l116 1102h185l-154 -1471q-10 -104 -52 -194.5t-107.5 -155t-153.5 -101t-193 -36.5q-117 0 -199.5 45t-140.5 127l135 119q41 -55 91.5 -88t127.5 -33q129 0 209 86t97 231l4 35l-549 1110l-117 -1108h-186z" />
<glyph unicode="&#x14b;" d="M160 0l98 930h178l-18 -164q51 86 139 137t211 51q90 0 156.5 -30.5t107.5 -92.5q37 -57 44 -123.5t-3 -158.5l-63 -608q-10 -100 -49 -185.5t-102.5 -148t-147.5 -97t-185 -34.5q-113 0 -190.5 42t-128.5 111l127 113q41 -49 86 -78t117 -29q125 0 202.5 83t91.5 223 l58 553q6 63 0 119.5t-29.5 96.5t-65.5 63.5t-106 23.5q-68 0 -121 -27t-91 -71t-59.5 -101t-27.5 -119l-51 -479h-178z" />
<glyph unicode="&#x14c;" horiz-adv-x="1644" d="M156 645q0 158 59 305.5t166.5 262t258.5 184t333 69.5q162 0 287.5 -55t209.5 -149.5t128 -216t44 -254.5q0 -158 -59 -306.5t-166.5 -263.5t-257.5 -184.5t-332 -69.5q-164 0 -288.5 56.5t-209.5 149.5t-129 216t-44 256zM350 659q0 -102 32 -196t94.5 -167t154.5 -117 t211 -44q133 0 244.5 54.5t191.5 144.5t124 204.5t44 237.5q0 102 -32 196.5t-94.5 167t-154.5 115.5t-211 43q-133 0 -243.5 -54t-190.5 -143t-125 -204t-45 -238zM631 1642l16 158h733l-16 -158h-733z" />
<glyph unicode="&#x14d;" horiz-adv-x="1146" d="M129 418q0 106 40 203.5t112.5 171t171 117.5t215.5 44q104 0 187 -35.5t140.5 -96t88 -141.5t30.5 -171q0 -106 -40 -202.5t-112.5 -170.5t-172 -117t-216.5 -43q-106 0 -189 35t-139.5 95.5t-86 140.5t-29.5 170zM305 432q0 -61 19.5 -114.5t55.5 -93.5t89 -63.5 t121 -23.5q76 0 139.5 30t109.5 79t71.5 114.5t25.5 137.5q0 61 -18.5 114.5t-55.5 94.5t-89 64.5t-120 23.5q-76 0 -139 -30t-109.5 -80t-73 -115.5t-26.5 -137.5zM328 1167l18 160h733l-18 -160h-733z" />
<glyph unicode="&#x14e;" horiz-adv-x="1644" d="M156 645q0 158 59 305.5t166.5 262t258.5 184t333 69.5q162 0 287.5 -55t209.5 -149.5t128 -216t44 -254.5q0 -158 -59 -306.5t-166.5 -263.5t-257.5 -184.5t-332 -69.5q-164 0 -288.5 56.5t-209.5 149.5t-129 216t-44 256zM350 659q0 -102 32 -196t94.5 -167t154.5 -117 t211 -44q133 0 244.5 54.5t191.5 144.5t124 204.5t44 237.5q0 102 -32 196.5t-94.5 167t-154.5 115.5t-211 43q-133 0 -243.5 -54t-190.5 -143t-125 -204t-45 -238zM602 1825h166q16 -72 76.5 -111t152.5 -39q94 0 164 40t99 110h170q-14 -68 -57.5 -124t-104 -98 t-135 -64.5t-150.5 -22.5q-78 0 -145.5 23.5t-117.5 64.5t-82 97t-36 124z" />
<glyph unicode="&#x14f;" horiz-adv-x="1146" d="M129 418q0 106 40 203.5t112.5 171t171 117.5t215.5 44q104 0 187 -35.5t140.5 -96t88 -141.5t30.5 -171q0 -106 -40 -202.5t-112.5 -170.5t-172 -117t-216.5 -43q-106 0 -189 35t-139.5 95.5t-86 140.5t-29.5 170zM305 432q0 -61 19.5 -114.5t55.5 -93.5t89 -63.5 t121 -23.5q76 0 139.5 30t109.5 79t71.5 114.5t25.5 137.5q0 61 -18.5 114.5t-55.5 94.5t-89 64.5t-120 23.5q-76 0 -139 -30t-109.5 -80t-73 -115.5t-26.5 -137.5zM309 1434h168q16 -72 74.5 -111t150.5 -39q96 0 167 40t100 110h168q-14 -68 -57.5 -124.5t-104 -98.5 t-135 -64.5t-150.5 -22.5q-78 0 -145.5 23.5t-117.5 64.5t-82 97.5t-36 124.5z" />
<glyph unicode="&#x150;" horiz-adv-x="1644" d="M156 645q0 158 59 305.5t166.5 262t258.5 184t333 69.5q162 0 287.5 -55t209.5 -149.5t128 -216t44 -254.5q0 -158 -59 -306.5t-166.5 -263.5t-257.5 -184.5t-332 -69.5q-164 0 -288.5 56.5t-209.5 149.5t-129 216t-44 256zM350 659q0 -102 32 -196t94.5 -167t154.5 -117 t211 -44q133 0 244.5 54.5t191.5 144.5t124 204.5t44 237.5q0 102 -32 196.5t-94.5 167t-154.5 115.5t-211 43q-133 0 -243.5 -54t-190.5 -143t-125 -204t-45 -238zM659 1667l291 340l150 -78l-355 -309zM1059 1667l291 340l149 -78l-356 -311z" />
<glyph unicode="&#x151;" horiz-adv-x="1146" d="M129 418q0 106 40 203.5t112.5 171t171 117.5t215.5 44q104 0 187 -35.5t140.5 -96t88 -141.5t30.5 -171q0 -106 -40 -202.5t-112.5 -170.5t-172 -117t-216.5 -43q-106 0 -189 35t-139.5 95.5t-86 140.5t-29.5 170zM305 432q0 -61 19.5 -114.5t55.5 -93.5t89 -63.5 t121 -23.5q76 0 139.5 30t109.5 79t71.5 114.5t25.5 137.5q0 61 -18.5 114.5t-55.5 94.5t-89 64.5t-120 23.5q-76 0 -139 -30t-109.5 -80t-73 -115.5t-26.5 -137.5zM365 1137l290 340l150 -80l-356 -310zM764 1137l291 340l149 -80l-356 -310z" />
<glyph unicode="&#x152;" horiz-adv-x="2320" d="M156 643q0 156 59 304.5t166.5 263t258.5 184t333 69.5q190 0 318 -72.5t204 -189.5l25 232h802l-18 -168h-616l-50 -469h617l-17 -168h-616l-49 -461h616l-18 -168h-803l25 225q-100 -117 -244.5 -189.5t-329.5 -72.5q-160 0 -282.5 56.5t-207.5 150.5t-129 217t-44 256 zM350 655q0 -102 32 -196t95.5 -166t154.5 -116t212 -44q133 0 243.5 54.5t190.5 143.5t124 203.5t44 237.5q0 102 -32 196.5t-94.5 167t-154.5 115.5t-211 43q-133 0 -243.5 -54t-190.5 -143t-125 -204t-45 -238z" />
<glyph unicode="&#x153;" horiz-adv-x="1871" d="M129 420q0 106 40 202.5t112.5 170t172 117.5t216.5 44q139 0 231 -57t143 -145q68 98 172.5 150t223.5 52q88 0 159.5 -28.5t124 -79.5t81 -124t28.5 -159q0 -39 -6 -72.5t-17 -72.5h-700q-6 -61 5 -114.5t42 -92.5t82 -61.5t123 -22.5q104 0 163.5 44t88.5 103h180 q-18 -59 -58 -112t-97.5 -94t-131 -66t-161.5 -25q-137 0 -226.5 56.5t-132.5 146.5q-70 -92 -177.5 -147.5t-240.5 -55.5q-104 0 -185 36t-138.5 96.5t-87 140.5t-29.5 170zM305 432q0 -61 19.5 -114.5t55.5 -93.5t88 -63.5t120 -23.5q74 0 138.5 29t110.5 78t72.5 114.5 t26.5 139.5q0 63 -19.5 117.5t-56.5 94.5t-89 62.5t-118 22.5q-76 0 -140 -30t-110.5 -80t-72 -115.5t-25.5 -137.5zM1126 553h533q12 115 -54.5 182.5t-183.5 67.5q-111 0 -194.5 -63.5t-100.5 -186.5z" />
<glyph unicode="&#x154;" horiz-adv-x="1241" d="M160 0l151 1434h504q104 0 186 -36t139.5 -96.5t87 -140.5t29.5 -170q0 -86 -26.5 -164.5t-74.5 -144.5t-115.5 -117t-151.5 -78l250 -487h-213l-238 457h-295l-47 -457h-186zM412 627h317q76 0 138.5 28.5t107.5 76.5t70.5 111.5t25.5 133.5q0 59 -18.5 111.5t-54 92.5 t-87 62.5t-114.5 22.5h-318zM500 1675l538 281l70 -141l-539 -281z" />
<glyph unicode="&#x155;" horiz-adv-x="747" d="M160 0l98 930h178l-20 -182q47 88 138 142t194 54q51 0 86 -14l-19 -164q-27 6 -44 8t-36 2q-162 0 -250 -100.5t-104 -267.5l-43 -408h-178zM221 1200l539 281l71 -140l-540 -280z" />
<glyph unicode="&#x156;" horiz-adv-x="1241" d="M160 0l151 1434h504q104 0 186 -36t139.5 -96.5t87 -140.5t29.5 -170q0 -86 -26.5 -164.5t-74.5 -144.5t-115.5 -117t-151.5 -78l250 -487h-213l-238 457h-295l-47 -457h-186zM412 627h317q76 0 138.5 28.5t107.5 76.5t70.5 111.5t25.5 133.5q0 59 -18.5 111.5t-54 92.5 t-87 62.5t-114.5 22.5h-318zM459 -446l8 71q43 0 73.5 10.5t49 26.5t27 35.5t8.5 36.5v9t-2 3q-6 -4 -14.5 -8t-28.5 -4q-43 0 -71 29.5t-28 74.5q0 51 38 88t93 37q51 0 85 -36t34 -122q0 -123 -73.5 -187t-198.5 -64z" />
<glyph unicode="&#x157;" horiz-adv-x="747" d="M88 -446l8 73q49 0 77 12.5t44 34.5q14 16 22.5 36t10.5 36q-12 -12 -45 -12q-43 0 -69.5 29.5t-26.5 72.5q0 53 37.5 90t93.5 37q47 0 83.5 -34.5t36.5 -123.5q0 -119 -72.5 -185t-199.5 -66zM160 0l98 930h178l-20 -182q47 88 138 142t194 54q51 0 86 -14l-19 -164 q-27 6 -44 8t-36 2q-162 0 -250 -100.5t-104 -267.5l-43 -408h-178z" />
<glyph unicode="&#x158;" horiz-adv-x="1241" d="M160 0l151 1434h504q104 0 186 -36t139.5 -96.5t87 -140.5t29.5 -170q0 -86 -26.5 -164.5t-74.5 -144.5t-115.5 -117t-151.5 -78l250 -487h-213l-238 457h-295l-47 -457h-186zM412 627h317q76 0 138.5 28.5t107.5 76.5t70.5 111.5t25.5 133.5q0 59 -18.5 111.5t-54 92.5 t-87 62.5t-114.5 22.5h-318zM453 1839l110 125l207 -215l256 215l82 -125l-360 -297z" />
<glyph unicode="&#x159;" horiz-adv-x="747" d="M160 0l98 930h178l-20 -182q47 88 138 142t194 54q51 0 86 -14l-19 -164q-27 6 -44 8t-36 2q-162 0 -250 -100.5t-104 -267.5l-43 -408h-178zM211 1458l108 123l207 -215l256 215l84 -123l-360 -297z" />
<glyph unicode="&#x15a;" horiz-adv-x="1169" d="M141 457h187q-16 -147 63.5 -234.5t224.5 -87.5q68 0 125.5 18.5t99.5 53.5t65.5 84t23.5 108q0 57 -20.5 95t-55.5 65t-79 45.5t-93 34.5q-90 31 -168 61.5t-136.5 73.5t-91 105.5t-32.5 154.5q0 100 39 181t105.5 136.5t154.5 85t184 29.5q100 0 181 -31.5t135.5 -89 t80 -138.5t15.5 -179h-186q10 129 -52.5 199.5t-187.5 70.5q-121 0 -201 -63.5t-80 -171.5q0 -53 19.5 -89t53.5 -61.5t78 -43t91 -33.5q84 -29 162 -60t138 -76t97 -110.5t37 -163.5q0 -104 -43 -189t-114.5 -145.5t-167 -92.5t-201.5 -32q-109 0 -197 34t-148.5 96.5 t-89 153.5t-16.5 206zM469 1675l541 281l67 -141l-538 -281z" />
<glyph unicode="&#x15b;" horiz-adv-x="925" d="M117 313h174q-12 -106 46 -150t155 -44q90 0 144 34.5t54 104.5q0 35 -16.5 56.5t-50 38t-87 32.5t-124.5 41q-45 16 -86 34.5t-72 44t-49.5 64.5t-18.5 95q0 72 30 126t81 91t116.5 55t137.5 18q82 0 147.5 -22.5t110.5 -64.5t66.5 -99t13.5 -127h-172q10 82 -34 126 t-136 44q-78 0 -133.5 -34t-55.5 -99q0 -31 13.5 -50.5t44 -34.5t78.5 -30.5t116 -38.5q43 -14 88 -31.5t81 -45t58.5 -69.5t22.5 -104q0 -72 -30.5 -127t-84 -93t-124 -57.5t-148.5 -19.5q-82 0 -150.5 20.5t-117.5 62.5t-74 105.5t-14 147.5zM289 1169l540 281l70 -139 l-541 -281z" />
<glyph unicode="&#x15c;" horiz-adv-x="1169" d="M141 457h187q-16 -147 63.5 -234.5t224.5 -87.5q68 0 125.5 18.5t99.5 53.5t65.5 84t23.5 108q0 57 -20.5 95t-55.5 65t-79 45.5t-93 34.5q-90 31 -168 61.5t-136.5 73.5t-91 105.5t-32.5 154.5q0 100 39 181t105.5 136.5t154.5 85t184 29.5q100 0 181 -31.5t135.5 -89 t80 -138.5t15.5 -179h-186q10 129 -52.5 199.5t-187.5 70.5q-121 0 -201 -63.5t-80 -171.5q0 -53 19.5 -89t53.5 -61.5t78 -43t91 -33.5q84 -29 162 -60t138 -76t97 -110.5t37 -163.5q0 -104 -43 -189t-114.5 -145.5t-167 -92.5t-201.5 -32q-109 0 -197 34t-148.5 96.5 t-89 153.5t-16.5 206zM399 1665l400 297l338 -297l-125 -125l-236 207l-278 -205z" />
<glyph unicode="&#x15d;" horiz-adv-x="925" d="M117 313h174q-12 -106 46 -150t155 -44q90 0 144 34.5t54 104.5q0 35 -16.5 56.5t-50 38t-87 32.5t-124.5 41q-45 16 -86 34.5t-72 44t-49.5 64.5t-18.5 95q0 72 30 126t81 91t116.5 55t137.5 18q82 0 147.5 -22.5t110.5 -64.5t66.5 -99t13.5 -127h-172q10 82 -34 126 t-136 44q-78 0 -133.5 -34t-55.5 -99q0 -31 13.5 -50.5t44 -34.5t78.5 -30.5t116 -38.5q43 -14 88 -31.5t81 -45t58.5 -69.5t22.5 -104q0 -72 -30.5 -127t-84 -93t-124 -57.5t-148.5 -19.5q-82 0 -150.5 20.5t-117.5 62.5t-74 105.5t-14 147.5zM219 1198l399 297l338 -297 l-122 -125l-238 207l-277 -207z" />
<glyph unicode="&#x15e;" horiz-adv-x="1169" d="M139 457h187q-8 -74 9 -133.5t55 -101.5t95.5 -64.5t130.5 -22.5q68 0 124.5 18.5t98.5 53.5t65.5 84t23.5 110q0 57 -20.5 96.5t-56.5 66t-82 44t-95 33.5q-88 29 -165 60.5t-134.5 74.5t-90 105.5t-32.5 152.5q0 98 39 178t104.5 136.5t154.5 87t187 30.5 q100 0 180 -30.5t134.5 -87t80 -138.5t17.5 -182h-186q10 129 -53.5 199.5t-188.5 70.5q-121 0 -200 -63.5t-79 -171.5q0 -51 19.5 -87t52.5 -62.5t77 -45t93 -34.5q86 -29 164 -61t138.5 -77t95 -109.5t34.5 -160.5q0 -98 -37 -178t-101.5 -139.5t-152.5 -95.5t-192 -44 l-12 -114q35 41 92 41q59 0 106 -44.5t47 -115.5q0 -41 -16 -80t-46 -68.5t-70 -48t-85 -18.5q-20 0 -52 6t-62.5 24.5t-53 53.5t-24.5 94h108q4 -37 24.5 -59.5t59.5 -22.5q47 0 78 30.5t31 78.5q0 41 -24.5 62.5t-61.5 21.5q-23 0 -44.5 -10.5t-41.5 -41.5h-94l22 213 q-90 10 -164 48t-124 100.5t-73.5 147.5t-13.5 190z" />
<glyph unicode="&#x15f;" horiz-adv-x="925" d="M115 313h174q-10 -106 47 -150t153 -44q90 0 144.5 34.5t54.5 102.5q0 37 -17.5 58.5t-52 39t-86 32.5t-120.5 40q-49 16 -90 35.5t-72 46.5t-48.5 63.5t-17.5 92.5q0 72 31 126t81 91t116.5 55t138.5 18q82 0 147.5 -22.5t109.5 -64.5t65.5 -99t15.5 -127h-172 q8 82 -35 126t-135 44q-78 0 -133.5 -34t-55.5 -99q0 -31 13.5 -50.5t44 -34.5t79 -30.5t115.5 -38.5q47 -16 92.5 -33.5t80 -45t56 -68.5t21.5 -103q0 -72 -29.5 -125t-79 -89.5t-114 -57t-133.5 -22.5l-12 -123q6 8 14 14q10 10 20 12l2 2l19 6q2 0 3 1.5t3 1.5h4q4 0 8 1 t8 1h13q35 0 63 -15l17 -8l4 -4q10 -10 13 -12t11 -4q4 0 4 -9l15 -20q4 -4 4 -3t0 -3q4 -4 3 -6t7 -19q4 -6 6 -26q2 -10 2 -19.5v-19.5v-9q0 -6 -1 -11t-3 -11l-2 -8q-2 -6 -5 -16.5t-9 -20.5q-6 -14 -12.5 -24.5t-14.5 -20.5q-12 -16 -20.5 -25.5t-18.5 -15.5l-6 -4 q-10 -8 -13 -8t-7 -5q-4 -2 -3 -2t-12 -6q-6 -4 -15 -7l-15 -5q-16 -4 -23 -4q-4 0 -14.5 -2t-22.5 -2h-16q-4 0 -4 1t-6 1q-16 0 -29 4l-12 4q-8 2 -8.5 3t-4.5 1q-6 0 -14 4q-20 10 -24.5 15.5t-14.5 11.5t-9 6t-3 4q-10 10 -17.5 20.5t-13.5 24.5q-4 8 -6 15.5t-2 11.5 q-4 10 -5 23.5t-3 27.5h108q4 -23 5 -24t3 -7q2 -4 2 -3t0 -3l5 -8q2 -4 10 -12l10 -11l10 -6q8 -4 15 -4q2 -2 6 -2q4 -2 10 -2h8q4 0 8 1t9 1q10 2 12 2q4 2 8 2t2 1t2 1l10 4q4 2 12.5 9.5t14.5 13.5q12 10 11 13t3 9q2 4 5 5.5t3 5.5q0 6 3 8q4 6 3 11t1 11l2 9 q2 8 0 17t-6 17t-7.5 14.5t-13.5 16.5q-4 4 -2 4t-2 0l-10 8q-4 2 -5 3t-6 1q-6 0 -8 2h-4q-4 0 -10 1.5t-12 1.5t-12.5 -1.5t-10.5 -1.5h-4q-6 0 -12 -3t-13 -7v-2h-4l-14 -14l-6 -8q-2 0 -2 -2l-6 -13h-92l22 226q-66 10 -119 35.5t-90 66.5t-54.5 97.5t-8.5 129.5z" />
<glyph unicode="&#x160;" horiz-adv-x="1169" d="M141 457h187q-16 -147 63.5 -234.5t224.5 -87.5q68 0 125.5 18.5t99.5 53.5t65.5 84t23.5 108q0 57 -20.5 95t-55.5 65t-79 45.5t-93 34.5q-86 29 -164 59.5t-136 73.5t-93 106.5t-35 157.5q0 100 40 180t107.5 135.5t155.5 85t184 29.5q100 0 180 -31.5t134.5 -89 t79 -138.5t14.5 -179h-186q10 129 -52.5 199.5t-187.5 70.5q-121 0 -201 -63.5t-80 -171.5q0 -53 19.5 -89t53.5 -61.5t78 -43t91 -33.5q84 -29 162 -60t138 -76t97 -110.5t37 -163.5q0 -104 -43 -189t-114.5 -145.5t-167 -92.5t-201.5 -32q-109 0 -197 34t-148.5 96.5 t-89 153.5t-16.5 206zM465 1862l108 125l207 -215l256 215l84 -125l-360 -297z" />
<glyph unicode="&#x161;" horiz-adv-x="925" d="M117 313h174q-12 -106 46 -150t155 -44q90 0 144 34.5t54 104.5q0 35 -16.5 56.5t-50 38t-87 32.5t-124.5 41q-45 16 -86 34.5t-72 44t-49.5 64.5t-18.5 95q0 72 30 126t81 91t116.5 55t137.5 18q82 0 147.5 -22.5t110.5 -64.5t66.5 -99t13.5 -127h-172q10 82 -34 126 t-136 44q-78 0 -133.5 -34t-55.5 -99q0 -31 13.5 -50.5t44 -34.5t78.5 -30.5t116 -38.5q43 -14 88 -31.5t81 -45t58.5 -69.5t22.5 -104q0 -72 -30.5 -127t-84 -93t-124 -57.5t-148.5 -19.5q-82 0 -150.5 20.5t-117.5 62.5t-74 105.5t-14 147.5zM281 1358l108 123l207 -215 l254 215l86 -123l-361 -297z" />
<glyph unicode="&#x162;" horiz-adv-x="978" d="M158 1266l18 168h930l-19 -168h-372l-133 -1266h-187l133 1266h-370zM334 -446l8 71q84 0 121 37t37 74v8t-2 2q-6 -4 -15.5 -8t-27.5 -4q-43 0 -71 29.5t-28 74.5q0 51 37 88t94 37q53 0 86 -39t33 -121q0 -123 -73.5 -186t-198.5 -63z" />
<glyph unicode="&#x163;" horiz-adv-x="696" d="M123 780l16 150h172l33 313h178l-33 -313h242l-16 -150h-242l-45 -428q-6 -68 1 -107.5t25.5 -61t45 -27.5t61.5 -6q29 0 65 2t56 6l-16 -158q-27 -4 -72 -8t-92 -4q-43 0 -92.5 8t-90 40t-63.5 97.5t-10 179.5l49 467h-172zM182 -446l8 73q41 0 71 10.5t52 36.5 q14 16 22.5 36t10.5 36q-12 -12 -45 -12q-43 0 -69.5 29.5t-26.5 72.5q0 53 38 90t93 37q49 0 84 -36t35 -122q0 -123 -73 -187t-200 -64z" />
<glyph unicode="&#x164;" horiz-adv-x="978" d="M158 1266l18 168h930l-19 -168h-372l-133 -1266h-187l133 1266h-370zM354 1839l111 125l207 -215l254 215l84 -125l-361 -297z" />
<glyph unicode="&#x165;" horiz-adv-x="1024" d="M123 780l16 150h172l33 313h178l-33 -313h242l-16 -150h-242l-45 -428q-6 -68 1 -107.5t25.5 -61t45 -27.5t61.5 -6q29 0 65 2t56 6l-16 -158q-27 -4 -72 -8t-92 -4q-43 0 -92.5 8t-90 40t-63.5 97.5t-10 179.5l49 467h-172zM723 967l8 86q68 0 99.5 19.5t48.5 41.5 q20 25 27 45.5t12 40.5q-14 -14 -52 -14q-53 0 -87 35t-34 88q0 63 45.5 107t116.5 44q66 0 103 -45t37 -143q0 -152 -88.5 -228.5t-235.5 -76.5z" />
<glyph unicode="&#x166;" horiz-adv-x="978" d="M158 1266l18 168h930l-19 -168h-372l-25 -242h277l-17 -158h-276l-92 -866h-187l92 866h-270l16 158h271l24 242h-370z" />
<glyph unicode="&#x167;" horiz-adv-x="696" d="M84 414l16 151h172l23 215h-172l14 150h172l35 313h178l-35 -313h242l-14 -150h-242l-22 -215h241l-16 -151h-242l-6 -62q-6 -68 0 -107.5t24.5 -61t45 -27.5t61.5 -6q29 0 66 2t57 6l-16 -158q-29 -4 -73 -8t-91 -4q-43 0 -92.5 8t-89 40t-63.5 97.5t-11 179.5l10 101 h-172z" />
<glyph unicode="&#x168;" horiz-adv-x="1288" d="M195 465l102 969h186l-102 -969q-6 -66 9.5 -126t51 -105.5t90 -72t125.5 -26.5q70 0 131.5 26.5t107.5 70.5t74.5 104.5t35.5 128.5l102 969h186l-102 -969q-10 -102 -55 -192.5t-118 -158t-170 -107.5t-210 -40q-115 0 -202 40t-144 107.5t-83 157.5t-15 193zM461 1745 q47 29 80.5 44t59.5 23.5t44.5 9.5t34.5 1q23 0 61.5 -8.5t80.5 -19.5t83 -19.5t70 -8.5q10 0 22.5 2.5t28.5 8.5t42 16t65 29l57 -117q-41 -31 -78 -47.5t-66.5 -24.5t-50 -10t-28.5 -2q-27 0 -65 8t-79 19.5t-78.5 19.5t-64.5 8q-33 0 -69 -13t-87 -38z" />
<glyph unicode="&#x169;" d="M179 216q-7 67 3 165l58 549h178l-51 -492q-6 -66 0 -121t28.5 -95t64.5 -63.5t105 -23.5q68 0 121 25.5t91 69.5t60.5 101.5t28.5 121.5l49 477h181l-99 -930h-178l19 166q-51 -86 -140.5 -137.5t-212.5 -51.5q-88 0 -155.5 30t-108.5 91q-35 51 -42 118zM344 1272 q47 29 82 44t59.5 23.5t43 9.5t34.5 1q23 0 62 -8.5t81 -19.5t82.5 -19.5t69.5 -8.5q10 0 22.5 2t30 8.5t43 16.5t62.5 29l59 -117q-80 -57 -137 -70.5t-80 -13.5q-29 0 -67.5 8t-78.5 19.5t-79 19.5t-66 8q-35 0 -69.5 -13t-87.5 -38z" />
<glyph unicode="&#x16a;" horiz-adv-x="1288" d="M195 465l102 969h186l-102 -969q-6 -66 9.5 -126t51 -105.5t90 -72t125.5 -26.5q70 0 131.5 26.5t107.5 70.5t74.5 104.5t35.5 128.5l102 969h186l-102 -969q-10 -102 -55 -192.5t-118 -158t-170 -107.5t-210 -40q-115 0 -202 40t-144 107.5t-83 157.5t-15 193zM449 1642 l16 158h733l-16 -158h-733z" />
<glyph unicode="&#x16b;" d="M179 216q-7 67 3 165l58 549h178l-51 -492q-6 -66 0 -121t28.5 -95t64.5 -63.5t105 -23.5q68 0 121 25.5t91 69.5t60.5 101.5t28.5 121.5l49 477h181l-99 -930h-178l19 166q-51 -86 -140.5 -137.5t-212.5 -51.5q-88 0 -155.5 30t-108.5 91q-35 51 -42 118zM334 1167 l16 160h733l-16 -160h-733z" />
<glyph unicode="&#x16c;" horiz-adv-x="1288" d="M195 465l102 969h186l-102 -969q-6 -66 9.5 -126t51 -105.5t90 -72t125.5 -26.5q70 0 131.5 26.5t107.5 70.5t74.5 104.5t35.5 128.5l102 969h186l-102 -969q-10 -102 -55 -192.5t-118 -158t-170 -107.5t-210 -40q-115 0 -202 40t-144 107.5t-83 157.5t-15 193zM422 1829 h168q16 -72 75.5 -111t151.5 -39q94 0 165 40t99 110h168q-14 -68 -57 -124t-103.5 -98t-135 -64.5t-150.5 -22.5q-78 0 -145.5 23.5t-118 64.5t-82 97t-35.5 124z" />
<glyph unicode="&#x16d;" d="M179 216q-7 67 3 165l58 549h178l-51 -492q-6 -66 0 -121t28.5 -95t64.5 -63.5t105 -23.5q68 0 121 25.5t91 69.5t60.5 101.5t28.5 121.5l49 477h181l-99 -930h-178l19 166q-51 -86 -140.5 -137.5t-212.5 -51.5q-88 0 -155.5 30t-108.5 91q-35 51 -42 118zM315 1434h168 q16 -72 74.5 -111t151.5 -39q96 0 166.5 40t99.5 110h168q-16 -68 -58.5 -124.5t-103.5 -98.5t-135 -64.5t-150 -22.5q-78 0 -145.5 23.5t-117.5 64.5t-82 97.5t-36 124.5z" />
<glyph unicode="&#x16e;" horiz-adv-x="1288" d="M195 465l102 969h186l-102 -969q-6 -66 9.5 -126t51 -105.5t90 -72t125.5 -26.5q70 0 131.5 26.5t107.5 70.5t74.5 104.5t35.5 128.5l102 969h186l-102 -969q-10 -102 -55 -192.5t-118 -158t-170 -107.5t-210 -40q-115 0 -202 40t-144 107.5t-83 157.5t-15 193zM573 1726 q0 55 24 104.5t61.5 87.5t88 59.5t105.5 21.5q49 0 91 -18.5t73 -49t47 -72.5t16 -90q0 -55 -22.5 -105t-61.5 -87t-88 -59.5t-104 -22.5q-49 0 -91 18.5t-73 50t-48.5 73.5t-17.5 89zM707 1739q0 -47 31.5 -79t78.5 -32q53 0 92 39t39 92q0 47 -30.5 79t-77.5 32 q-53 0 -93 -40t-40 -91z" />
<glyph unicode="&#x16f;" d="M179 216q-7 67 3 165l58 549h178l-51 -492q-6 -66 0 -121t28.5 -95t64.5 -63.5t105 -23.5q68 0 121 25.5t91 69.5t60.5 101.5t28.5 121.5l49 477h181l-99 -930h-178l19 166q-51 -86 -140.5 -137.5t-212.5 -51.5q-88 0 -155.5 30t-108.5 91q-35 51 -42 118zM457 1307 q0 55 22.5 104t61.5 87t88 59.5t104 21.5q49 0 91 -18.5t73 -49t48.5 -72.5t17.5 -89q0 -55 -22.5 -105.5t-61.5 -87.5t-89.5 -59.5t-105.5 -22.5q-49 0 -91 18.5t-71.5 49.5t-47 72.5t-17.5 91.5zM588 1317q0 -45 30.5 -77t77.5 -32q53 0 94 38t41 91q0 47 -31.5 79 t-78.5 32q-53 0 -93 -39t-40 -92z" />
<glyph unicode="&#x170;" horiz-adv-x="1288" d="M195 465l102 969h186l-102 -969q-6 -66 9.5 -126t51 -105.5t90 -72t125.5 -26.5q70 0 131.5 26.5t107.5 70.5t74.5 104.5t35.5 128.5l102 969h186l-102 -969q-10 -102 -55 -192.5t-118 -158t-170 -107.5t-210 -40q-115 0 -202 40t-144 107.5t-83 157.5t-15 193zM487 1610 l291 340l150 -78l-357 -309zM887 1610l291 340l149 -78l-356 -309z" />
<glyph unicode="&#x171;" d="M179 216q-7 67 3 165l58 549h178l-51 -492q-6 -66 0 -121t28.5 -95t64.5 -63.5t105 -23.5q68 0 121 25.5t91 69.5t60.5 101.5t28.5 121.5l49 477h181l-99 -930h-178l19 166q-51 -86 -140.5 -137.5t-212.5 -51.5q-88 0 -155.5 30t-108.5 91q-35 51 -42 118zM350 1100 l291 340l150 -78l-357 -309zM750 1100l290 340l150 -78l-356 -309z" />
<glyph unicode="&#x172;" horiz-adv-x="1288" d="M195 465l102 969h186l-102 -969q-6 -66 9.5 -126t51 -105.5t90 -72t125.5 -26.5q70 0 131.5 26.5t107.5 70.5t74.5 104.5t35.5 128.5l102 969h186l-102 -969q-10 -96 -51 -182t-107.5 -153t-154.5 -110t-193 -51q-43 -33 -70.5 -72.5t-27.5 -89.5q0 -43 26.5 -74.5 t83.5 -31.5q27 0 63 7t68 20l-16 -131q-35 -10 -84 -20.5t-100 -10.5q-111 0 -164 52t-53 130q0 63 35.5 116.5t113.5 108.5q-94 12 -166.5 56.5t-121 111t-69 149.5t-9.5 175z" />
<glyph unicode="&#x173;" d="M179 216q-7 67 3 165l58 549h178l-51 -492q-6 -66 0 -121t28.5 -95t64.5 -63.5t105 -23.5q68 0 121 25.5t91 69.5t60.5 101.5t28.5 121.5l49 477h181l-99 -930h-47q-59 -39 -101 -83t-42 -107q0 -45 26.5 -77t86.5 -32q27 0 61.5 7t65.5 20l-15 -131q-33 -10 -83 -20.5 t-101 -10.5q-111 0 -165 52t-54 130q0 72 46 130.5t144 121.5l19 166q-51 -86 -140.5 -137.5t-212.5 -51.5q-88 0 -155.5 30t-108.5 91q-35 51 -42 118z" />
<glyph unicode="&#x174;" horiz-adv-x="1974" d="M164 1434h196l244 -1110l465 1110h141l232 -1110l477 1110h197l-643 -1434h-138l-231 1110l-463 -1110h-139zM795 1665l399 297l338 -297l-125 -125l-236 207l-276 -205z" />
<glyph unicode="&#x175;" horiz-adv-x="1503" d="M106 930h191l162 -656l303 656h176l162 -656l303 656h190l-458 -930h-123l-183 735l-337 -735h-123zM508 1198l399 297l338 -297l-125 -125l-235 207l-279 -207z" />
<glyph unicode="&#x176;" horiz-adv-x="1193" d="M172 1434h217l350 -670l408 670h205l-873 -1434h-205l349 569zM406 1665l399 297l338 -297l-125 -125l-236 207l-276 -205z" />
<glyph unicode="&#x177;" horiz-adv-x="1173" d="M131 -121h174q-10 -109 42 -177.5t194 -68.5q131 0 204.5 69t90.5 232l24 232q-53 -86 -140 -137.5t-212 -51.5q-96 0 -161.5 31t-102.5 88q-35 53 -42 121t3 170l57 543h178l-51 -488q-6 -66 -1 -122t26.5 -97t63.5 -64.5t110 -23.5q70 0 124 25.5t91 69.5t58.5 101.5 t27.5 121.5l49 477h180l-104 -996q-12 -123 -53 -209.5t-104.5 -142t-148 -81t-182.5 -25.5q-115 0 -193.5 30.5t-125.5 85t-64.5 128t-11.5 159.5zM342 1198l401 297l336 -297l-123 -125l-235 207l-279 -207z" />
<glyph unicode="&#x178;" horiz-adv-x="1193" d="M172 1434h217l350 -670l408 670h205l-873 -1434h-205l349 569zM459 1714q0 63 44 107.5t105 44.5q53 0 89 -37t36 -90q0 -61 -45 -104.5t-106 -43.5q-55 0 -89 35t-34 88zM928 1714q0 31 12 58.5t33.5 48t48.5 33t57 12.5q55 0 89 -37t34 -90q0 -61 -44 -104.5 t-105 -43.5q-55 0 -90 35t-35 88z" />
<glyph unicode="&#x179;" d="M29 0l929 1266h-753l18 168h1067l-930 -1266h803l-18 -168h-1116zM469 1679l541 281l69 -141l-538 -281z" />
<glyph unicode="&#x17a;" horiz-adv-x="888" d="M49 0l580 772h-482l17 158h782l-579 -770h499l-16 -160h-801zM270 1167l539 281l72 -139l-539 -281z" />
<glyph unicode="&#x17b;" d="M29 0l929 1266h-753l18 168h1067l-930 -1266h803l-18 -168h-1116zM621 1731q0 66 47 110.5t110 44.5q55 0 93 -38t38 -93q0 -33 -13 -60.5t-35.5 -49t-51.5 -34t-59 -12.5q-55 0 -92 38.5t-37 93.5z" />
<glyph unicode="&#x17c;" horiz-adv-x="888" d="M49 0l580 772h-482l17 158h782l-579 -770h499l-16 -160h-801zM434 1235q0 66 47 111t109 45q57 0 94 -38t37 -93q0 -66 -48 -111t-112 -45q-55 0 -91 38t-36 93z" />
<glyph unicode="&#x17d;" d="M29 0l929 1266h-753l18 168h1067l-930 -1266h803l-18 -168h-1116zM461 1806l108 123l207 -215l256 215l84 -123l-362 -297z" />
<glyph unicode="&#x17e;" horiz-adv-x="888" d="M49 0l580 772h-482l17 158h782l-579 -770h499l-16 -160h-801zM274 1329l111 123l205 -215l256 215l84 -123l-361 -297z" />
<glyph unicode="&#x17f;" horiz-adv-x="710" d="M125 780l16 150h201l16 162q12 125 54.5 196.5t93.5 106.5t104.5 43t89.5 8q55 0 87 -7t51 -18l-17 -151q-23 8 -46 12t-64 4q-25 0 -52.5 -4t-52 -21.5t-43 -53.5t-24.5 -97l-117 -1110h-178l82 780h-201z" />
<glyph unicode="&#x192;" horiz-adv-x="872" d="M-172 -403l43 151q23 -8 46.5 -12t53.5 -4q57 0 94 16t58.5 41t33 56.5t21.5 62.5l250 872h-199l41 150h201l45 162q35 127 89 197.5t112.5 105.5t114 43t92.5 8q45 0 75.5 -5t55.5 -20l-43 -151q-23 8 -45.5 12t-59.5 4q-29 0 -58.5 -5t-57 -22.5t-52 -52.5t-41.5 -96 l-51 -180h268l-41 -150h-268l-239 -854q-37 -129 -91.5 -199.5t-113 -105.5t-111.5 -42t-86 -7q-59 0 -89 7t-48 18z" />
<glyph unicode="&#x1fa;" horiz-adv-x="1144" d="M10 0l639 1421q-59 33 -59 109q0 61 47 106t108 45q53 0 90 -37t37 -90q0 -43 -22.5 -77.5t-56.5 -51.5l342 -1425h-197l-53 219h-582l-96 -219h-197zM379 389h467l-154 739zM444 1698l541 280l45 -90l-538 -280zM668 1536q0 -23 15 -39t42 -16q29 0 48.5 19.5t19.5 47.5 q0 23 -15.5 40.5t-40.5 17.5q-29 0 -49 -20.5t-20 -49.5z" />
<glyph unicode="&#x1fb;" horiz-adv-x="1222" d="M129 420q0 106 41 203.5t112.5 171t166 116.5t202.5 43q115 0 197 -49t119 -135l16 160h176l-96 -930h-176l16 162q-55 -86 -148 -135.5t-206 -49.5q-96 0 -173 36t-132.5 96.5t-85 140.5t-29.5 170zM305 432q0 -61 19.5 -114.5t55.5 -93.5t89 -63.5t121 -23.5 q76 0 139.5 29t109.5 78t71.5 114.5t25.5 139.5q0 63 -20.5 117.5t-57.5 94.5t-89 62.5t-118 22.5q-74 0 -137 -30t-109.5 -80t-73 -115.5t-26.5 -137.5zM414 1597l538 281l70 -141l-541 -281zM436 1225q0 55 22.5 104t61.5 87t88.5 59.5t104.5 21.5q49 0 91 -18.5t72.5 -49 t48 -72.5t17.5 -89q0 -55 -22.5 -105.5t-61.5 -87.5t-88 -59.5t-104 -22.5q-49 0 -91.5 18.5t-73 50.5t-48 74t-17.5 89zM567 1235q0 -45 31 -77t78 -32q53 0 94 39t41 92q0 45 -30.5 77t-78.5 32q-53 0 -94 -39t-41 -92z" />
<glyph unicode="&#x1fc;" horiz-adv-x="1771" d="M4 0l858 1434h903l-18 -168h-617l-49 -469h617l-19 -168h-616l-47 -461h616l-18 -168h-805l22 221h-493l-129 -221h-205zM436 389h414l90 856zM913 1675l539 281l72 -141l-539 -281z" />
<glyph unicode="&#x1fd;" horiz-adv-x="1871" d="M129 420q0 106 41 203.5t112.5 171t166 116.5t202.5 43q115 0 197 -49t119 -135l16 160h176l-8 -82q55 49 129 77.5t162 28.5q86 0 157.5 -28.5t124 -80.5t81 -124t28.5 -158q0 -39 -6 -72.5t-17 -72.5h-700q-12 -129 48.5 -210t201.5 -81q106 0 165.5 44t88.5 103h180 q-18 -57 -57 -110t-96.5 -95t-131 -67t-161.5 -25q-104 0 -170 32t-107 75l-8 -84h-176l16 162q-55 -86 -148 -135.5t-206 -49.5q-96 0 -173 36t-132.5 96.5t-85 140.5t-29.5 170zM305 432q0 -61 19.5 -114.5t55.5 -93.5t89 -63.5t121 -23.5q76 0 139.5 30t109.5 79 t71.5 114.5t25.5 137.5q0 61 -19.5 115.5t-56.5 94.5t-90 63.5t-119 23.5q-76 0 -139 -30t-109.5 -80t-72 -115.5t-25.5 -137.5zM758 1143l540 280l68 -139l-539 -280zM1126 553h533q12 113 -55.5 181.5t-184.5 68.5q-55 0 -105 -16.5t-89 -49t-64.5 -79t-34.5 -105.5z" />
<glyph unicode="&#x1fe;" horiz-adv-x="1644" d="M156 647q0 158 59 305.5t166.5 262t259.5 183t334 68.5q59 0 109.5 -7t97.5 -21l96 178l154 -68l-95 -176q74 -43 131.5 -106.5t96.5 -140t58 -164t19 -175.5q0 -156 -59 -303t-166.5 -262t-260.5 -184.5t-337 -69.5q-121 0 -217 33l-84 -164l-153 66l86 164 q-145 90 -220 246.5t-75 334.5zM350 662q0 -127 48 -241t141 -185l559 1044q-61 18 -137 18q-135 0 -248 -54t-194 -143t-125 -203.5t-44 -235.5zM686 158q35 -10 73 -16.5t81 -6.5q135 0 246.5 54.5t191.5 143.5t124 203.5t44 235.5q0 129 -50 246t-149 184zM700 1673 l541 281l70 -139l-541 -281z" />
<glyph unicode="&#x1ff;" horiz-adv-x="1146" d="M129 420q0 106 41 203.5t112.5 171t170 116.5t215.5 43q29 0 52 -3t58 -9l82 154l144 -66l-78 -147q92 -59 140 -157.5t48 -215.5q0 -106 -41 -202.5t-112.5 -170.5t-172 -117t-217.5 -43q-37 0 -65.5 4.5t-56.5 12.5l-84 -158l-144 66l80 153q-82 59 -127 155.5 t-45 209.5zM305 434q0 -66 21.5 -122t62.5 -95l307 574q-10 4 -21 4h-22q-76 0 -140 -30t-110.5 -79t-72 -114.5t-25.5 -137.5zM397 1169l539 281l72 -139l-541 -281zM530 143q25 -6 58 -6q76 0 140.5 30t110.5 79t71.5 113.5t25.5 134.5t-24.5 129t-71.5 98z" />
<glyph unicode="&#x218;" horiz-adv-x="1169" d="M141 457h187q-16 -147 63.5 -234.5t224.5 -87.5q68 0 125.5 18.5t99.5 53.5t65.5 84t23.5 108q0 57 -20.5 95t-55.5 65t-79 45.5t-93 34.5q-90 31 -168 61.5t-136.5 73.5t-91 105.5t-32.5 154.5q0 100 39 181t105.5 136.5t154.5 85t184 29.5q100 0 181 -31.5t135.5 -89 t80 -138.5t15.5 -179h-186q10 129 -52.5 199.5t-187.5 70.5q-121 0 -201 -63.5t-80 -171.5q0 -53 19.5 -89t53.5 -61.5t78 -43t91 -33.5q84 -29 162 -60t138 -76t97 -110.5t37 -163.5q0 -104 -43 -189t-114.5 -145.5t-167 -92.5t-201.5 -32q-109 0 -197 34t-148.5 96.5 t-89 153.5t-16.5 206zM432 -469l8 74q88 0 123 35.5t35 70.5v9.5t-2 3.5q-6 -4 -14.5 -8.5t-28.5 -4.5q-43 0 -70.5 30t-27.5 75q0 51 37.5 88t93.5 37q49 0 84 -36t35 -122q0 -123 -73 -187.5t-200 -64.5z" />
<glyph unicode="&#x219;" horiz-adv-x="925" d="M117 313h174q-12 -106 46 -150t155 -44q90 0 144 34.5t54 104.5q0 35 -16.5 56.5t-50 38t-87 32.5t-124.5 41q-45 16 -86 34.5t-72 44t-49.5 64.5t-18.5 95q0 72 30 126t81 91t116.5 55t137.5 18q82 0 147.5 -22.5t110.5 -64.5t66.5 -99t13.5 -127h-172q10 82 -34 126 t-136 44q-78 0 -133.5 -34t-55.5 -99q0 -31 13.5 -50.5t44 -34.5t78.5 -30.5t116 -38.5q43 -14 88 -31.5t81 -45t58.5 -69.5t22.5 -104q0 -72 -30.5 -127t-84 -93t-124 -57.5t-148.5 -19.5q-82 0 -150.5 20.5t-117.5 62.5t-74 105.5t-14 147.5zM315 -444l7 73q86 0 122 49 q16 18 23.5 37t11.5 35q-8 -4 -18 -8t-27 -4q-43 0 -69.5 29.5t-26.5 74.5q0 51 36 88t93 37q53 0 86 -38t33 -119q0 -119 -71 -186.5t-200 -67.5z" />
<glyph unicode="&#x21a;" horiz-adv-x="978" d="M158 1266l18 168h930l-19 -168h-372l-133 -1266h-187l133 1266h-370zM334 -446l8 71q84 0 121 37t37 74v8t-2 2q-6 -4 -15.5 -8t-27.5 -4q-43 0 -71 29.5t-28 74.5q0 51 37 88t94 37q53 0 86 -39t33 -121q0 -123 -73.5 -186t-198.5 -63z" />
<glyph unicode="&#x21b;" horiz-adv-x="696" d="M123 780l16 150h172l33 313h178l-33 -313h242l-16 -150h-242l-45 -428q-6 -68 1 -107.5t25.5 -61t45 -27.5t61.5 -6q29 0 65 2t56 6l-16 -158q-27 -4 -72 -8t-92 -4q-43 0 -92.5 8t-90 40t-63.5 97.5t-10 179.5l49 467h-172zM182 -446l8 73q41 0 71 10.5t52 36.5 q14 16 22.5 36t10.5 36q-12 -12 -45 -12q-43 0 -69.5 29.5t-26.5 72.5q0 53 38 90t93 37q49 0 84 -36t35 -122q0 -123 -73 -187t-200 -64z" />
<glyph unicode="&#x2bc;" horiz-adv-x="550" d="M242 1022l10 84q61 0 93 18.5t54 44.5q18 23 26.5 44.5t10.5 41.5q-10 -14 -49 -14q-53 0 -87 35t-34 88q0 61 45 106.5t117 45.5q66 0 102.5 -46.5t36.5 -144.5q0 -150 -87 -226.5t-238 -76.5z" />
<glyph unicode="&#x2c6;" horiz-adv-x="960" d="M256 1427l399 297l338 -297l-123 -124l-237 206l-277 -204z" />
<glyph unicode="&#x2c7;" horiz-adv-x="874" d="M270 1534l109 125l207 -215l256 215l84 -125l-361 -297z" />
<glyph unicode="&#x2d8;" horiz-adv-x="1099" d="M317 1743h168q16 -72 74.5 -111t151.5 -39q96 0 166.5 40t99.5 110h168q-14 -68 -57.5 -124t-103.5 -98t-135 -64.5t-151 -22.5q-78 0 -145.5 23.5t-117.5 64.5t-81.5 97t-36.5 124z" />
<glyph unicode="&#x2d9;" horiz-adv-x="991" d="M489 1296q0 33 13.5 61.5t35 50.5t50 34t59.5 12q57 0 94 -39t37 -94q0 -63 -48 -108.5t-112 -45.5q-57 0 -93 38t-36 91z" />
<glyph unicode="&#x2da;" horiz-adv-x="1042" d="M420 1438q0 55 23.5 104t61.5 87t88 59.5t105 21.5q49 0 91 -18.5t73 -49t47.5 -72.5t16.5 -89q0 -55 -22.5 -105.5t-61.5 -87.5t-88 -59.5t-105 -22.5q-49 0 -91 18.5t-72.5 50.5t-48 74t-17.5 89zM551 1450q0 -45 31.5 -78t79.5 -33q53 0 93 40t40 94q0 45 -31 76.5 t-78 31.5q-27 0 -51.5 -11t-43 -29.5t-29.5 -42t-11 -48.5z" />
<glyph unicode="&#x2db;" horiz-adv-x="999" d="M272 -252q0 76 49.5 134.5t141.5 117.5h129q-57 -39 -100 -83t-43 -107q0 -45 27.5 -77t80.5 -32q27 0 64.5 7t68.5 20l-14 -131q-35 -10 -85 -20.5t-102 -10.5q-111 0 -164 52t-53 130z" />
<glyph unicode="&#x2dc;" horiz-adv-x="1019" d="M295 1356q47 29 82 44t59.5 23.5t43 9.5t34.5 1q23 0 61.5 -8.5t80.5 -19.5t83 -19.5t70 -8.5q10 0 22.5 2t30 8.5t43 16.5t62.5 29l57 -115q-51 -35 -101.5 -59.5t-109.5 -24.5q-35 0 -75 8t-80 18.5t-76.5 18.5t-65.5 8q-33 0 -68.5 -12t-87.5 -37z" />
<glyph unicode="&#x2dd;" horiz-adv-x="1007" d="M272 1163l291 340l148 -78l-355 -309zM672 1163l291 340l147 -78l-354 -309z" />
<glyph unicode="&#x394;" horiz-adv-x="1144" d="M10 0l645 1434h136l344 -1434h-1125zM287 168h608l-203 960z" />
<glyph unicode="&#x3a9;" horiz-adv-x="1470" d="M135 0l19 168h374l7 57q-84 31 -151 83t-113 122t-70.5 155t-24.5 177q0 137 51.5 263t144.5 222t224 153.5t289 57.5q141 0 249.5 -46t182.5 -125t111.5 -183.5t37.5 -220.5q0 -111 -32.5 -213.5t-95 -189.5t-151.5 -152.5t-202 -102.5l-6 -57h375l-19 -168h-522l35 328 q104 20 185 72.5t135.5 126t83 163.5t28.5 182q0 86 -25.5 163t-77 133.5t-129.5 89t-182 32.5q-119 0 -212 -42t-157.5 -113.5t-99.5 -164.5t-35 -198q0 -80 20.5 -152.5t61.5 -132t102.5 -101.5t145.5 -58l-35 -328h-522z" />
<glyph unicode="&#x3bc;" horiz-adv-x="1177" d="M106 -504l152 1434h176l-51 -492q-6 -66 0 -121t30.5 -96t66.5 -63.5t106 -22.5q68 0 121 25.5t90 69.5t59.5 101.5t28.5 121.5l49 477h180l-98 -930h-178l16 166q-53 -88 -142 -138.5t-202 -50.5q-111 0 -168 58l-57 -539h-179z" />
<glyph unicode="&#x3c0;" horiz-adv-x="1177" d="M180 772l17 158h981l-17 -158h-129l-82 -772h-176l82 772h-371l-82 -772h-176l82 772h-129z" />
<glyph unicode="&#x1e80;" horiz-adv-x="1974" d="M164 1434h196l244 -1110l465 1110h141l232 -1110l477 1110h197l-643 -1434h-138l-231 1110l-463 -1110h-139zM883 1815l98 141l479 -281l-98 -141z" />
<glyph unicode="&#x1e81;" horiz-adv-x="1503" d="M106 930h191l162 -656l303 656h176l162 -656l303 656h190l-458 -930h-123l-183 735l-337 -735h-123zM594 1311l98 139l479 -281l-98 -139z" />
<glyph unicode="&#x1e82;" horiz-adv-x="1974" d="M164 1434h196l244 -1110l465 1110h141l232 -1110l477 1110h197l-643 -1434h-138l-231 1110l-463 -1110h-139zM866 1675l541 281l70 -141l-541 -281z" />
<glyph unicode="&#x1e83;" horiz-adv-x="1503" d="M106 930h191l162 -656l303 656h176l162 -656l303 656h190l-458 -930h-123l-183 735l-337 -735h-123zM578 1169l540 281l70 -139l-541 -281z" />
<glyph unicode="&#x1e84;" horiz-adv-x="1974" d="M164 1434h196l244 -1110l465 1110h141l232 -1110l477 1110h197l-643 -1434h-138l-231 1110l-463 -1110h-139zM799 1737q0 61 45 105t104 44q55 0 91 -35.5t36 -89.5q0 -31 -12 -58.5t-33.5 -47t-49.5 -31.5t-58 -12q-55 0 -89 36t-34 89zM1268 1737q0 61 46 105t105 44 q55 0 90 -35.5t35 -89.5q0 -61 -46 -105t-105 -44q-55 0 -90 36t-35 89z" />
<glyph unicode="&#x1e85;" horiz-adv-x="1503" d="M106 930h191l162 -656l303 656h176l162 -656l303 656h190l-458 -930h-123l-183 735l-337 -735h-123zM510 1237q0 61 45 105t104 44q55 0 91 -35.5t36 -88.5q0 -31 -12 -58.5t-33.5 -47t-49 -32t-58.5 -12.5q-55 0 -89 36t-34 89zM979 1237q0 61 46 105t105 44 q53 0 89 -35.5t36 -88.5q0 -61 -46 -105.5t-105 -44.5q-53 0 -89 36t-36 89z" />
<glyph unicode="&#x1ef2;" horiz-adv-x="1193" d="M172 1434h217l350 -670l408 670h205l-873 -1434h-205l349 569zM492 1815l100 141l479 -281l-100 -141z" />
<glyph unicode="&#x1ef3;" horiz-adv-x="1173" d="M131 -121h174q-10 -109 42 -177.5t194 -68.5q131 0 204.5 69t90.5 232l24 232q-53 -86 -140 -137.5t-212 -51.5q-96 0 -161.5 31t-102.5 88q-35 53 -42 121t3 170l57 543h178l-51 -488q-6 -66 -1 -122t26.5 -97t63.5 -64.5t110 -23.5q70 0 124 25.5t91 69.5t58.5 101.5 t27.5 121.5l49 477h180l-104 -996q-12 -123 -53 -209.5t-104.5 -142t-148 -81t-182.5 -25.5q-115 0 -193.5 30.5t-125.5 85t-64.5 128t-11.5 159.5zM426 1311l98 139l482 -281l-99 -139z" />
<glyph unicode="&#x2000;" horiz-adv-x="1003" />
<glyph unicode="&#x2001;" horiz-adv-x="2007" />
<glyph unicode="&#x2002;" horiz-adv-x="1003" />
<glyph unicode="&#x2003;" horiz-adv-x="2007" />
<glyph unicode="&#x2004;" horiz-adv-x="669" />
<glyph unicode="&#x2005;" horiz-adv-x="501" />
<glyph unicode="&#x2006;" horiz-adv-x="334" />
<glyph unicode="&#x2007;" horiz-adv-x="334" />
<glyph unicode="&#x2008;" horiz-adv-x="250" />
<glyph unicode="&#x2009;" horiz-adv-x="401" />
<glyph unicode="&#x200a;" horiz-adv-x="111" />
<glyph unicode="&#x2010;" horiz-adv-x="602" d="M115 504l16 160h479l-16 -160h-479z" />
<glyph unicode="&#x2011;" horiz-adv-x="602" d="M115 504l16 160h479l-16 -160h-479z" />
<glyph unicode="&#x2012;" horiz-adv-x="602" d="M115 504l16 160h479l-16 -160h-479z" />
<glyph unicode="&#x2013;" horiz-adv-x="1030" d="M156 504l16 160h825l-16 -160h-825z" />
<glyph unicode="&#x2014;" horiz-adv-x="2060" d="M156 504l16 160h1856l-17 -160h-1855z" />
<glyph unicode="&#x2018;" horiz-adv-x="550" d="M250 1210q0 145 86 225.5t239 80.5l-8 -86q-59 0 -93 -16.5t-56 -45.5q-18 -23 -27.5 -46.5t-11.5 -39.5q18 14 53 14q53 0 86 -34.5t33 -87.5q0 -63 -45 -107.5t-115 -44.5q-66 0 -103.5 45t-37.5 143z" />
<glyph unicode="&#x2019;" horiz-adv-x="550" d="M242 1022l10 84q61 0 93 18.5t54 44.5q18 23 26.5 44.5t10.5 41.5q-10 -14 -49 -14q-53 0 -87 35t-34 88q0 61 45 106.5t117 45.5q66 0 102.5 -46.5t36.5 -144.5q0 -150 -87 -226.5t-238 -76.5z" />
<glyph unicode="&#x201a;" horiz-adv-x="550" d="M111 -242l8 86q68 0 100.5 19.5t48.5 42.5q33 43 37 86q-10 -14 -51 -15q-53 0 -86 35t-33 88q0 61 44 107.5t116 46.5q66 0 102.5 -46t36.5 -145q0 -152 -88 -228.5t-235 -76.5z" />
<glyph unicode="&#x201c;" horiz-adv-x="909" d="M250 1210q0 145 86 225.5t239 80.5l-8 -86q-59 0 -93 -16.5t-56 -45.5q-18 -23 -27.5 -46.5t-11.5 -39.5q18 14 53 14q53 0 86 -34.5t33 -87.5q0 -63 -45 -107.5t-115 -44.5q-66 0 -103.5 45t-37.5 143zM608 1210q0 152 88 229t236 77l-8 -86q-66 0 -97.5 -19.5 t-50.5 -42.5q-18 -23 -26.5 -42t-12.5 -44q14 14 51 14q53 0 87 -34.5t34 -87.5q0 -63 -45 -107.5t-116 -44.5q-66 0 -103 45t-37 143z" />
<glyph unicode="&#x201d;" horiz-adv-x="909" d="M242 1022l10 84q61 0 93 18.5t54 44.5q18 23 26.5 44.5t10.5 41.5q-10 -14 -49 -14q-53 0 -87 35t-34 88q0 61 45 106.5t117 45.5q66 0 102.5 -46.5t36.5 -144.5q0 -150 -87 -226.5t-238 -76.5zM598 1022l10 84q70 0 100.5 21.5t47.5 41.5q16 23 26.5 42.5t12.5 43.5 q-14 -14 -52 -14q-53 0 -85.5 35t-32.5 88q0 61 45 106.5t114 45.5q66 0 104 -46.5t38 -144.5q0 -147 -87 -225t-241 -78z" />
<glyph unicode="&#x201e;" horiz-adv-x="909" d="M111 -242l8 86q68 0 100.5 19.5t48.5 42.5q33 43 37 86q-10 -14 -51 -15q-53 0 -86 35t-33 88q0 61 44 107.5t116 46.5q66 0 102.5 -46t36.5 -145q0 -152 -88 -228.5t-235 -76.5zM467 -242l8 86q66 0 98.5 19.5t51.5 42.5q20 25 28.5 46t10.5 40q-14 -14 -54 -15 q-53 0 -84.5 35t-31.5 88q0 63 44 108.5t113 45.5q66 0 104 -46t38 -145q0 -145 -86 -225t-240 -80z" />
<glyph unicode="&#x2020;" horiz-adv-x="909" d="M195 776l16 158h254l57 534h178l-57 -534h252l-16 -158h-252l-121 -1149h-178l121 1149h-254z" />
<glyph unicode="&#x2021;" horiz-adv-x="909" d="M115 18l16 156h254l64 606h-254l16 154h254l55 534h178l-55 -534h252l-16 -154h-252l-64 -606h252l-16 -156h-252l-41 -391h-178l41 391h-254z" />
<glyph unicode="&#x2022;" horiz-adv-x="712" d="M184 618q0 53 21.5 100.5t58.5 83.5t84 56.5t101 20.5q94 0 154.5 -63.5t60.5 -156.5q0 -53 -21.5 -100t-57.5 -82t-84 -55.5t-100 -20.5q-96 0 -156.5 62.5t-60.5 154.5z" />
<glyph unicode="&#x2026;" horiz-adv-x="1923" d="M131 121q0 66 47 110.5t111 44.5q57 0 94 -38.5t37 -92.5q0 -33 -13.5 -60.5t-36 -49t-51 -33.5t-59.5 -12q-55 0 -92 37t-37 94zM831 119q0 33 13.5 60.5t35 49t50 33.5t59.5 12q57 0 94 -37.5t37 -93.5q0 -33 -13 -60.5t-35.5 -49t-51.5 -33.5t-59 -12q-57 0 -93.5 39 t-36.5 92zM1532 117q0 66 47 110.5t111 44.5q55 0 93 -37.5t38 -93.5q0 -33 -13.5 -60.5t-36 -49t-51 -33.5t-59.5 -12q-57 0 -93 38t-36 93z" />
<glyph unicode="&#x202f;" horiz-adv-x="401" />
<glyph unicode="&#x2030;" horiz-adv-x="2600" d="M227 901l29 277q6 57 32.5 106t67.5 86t96.5 57.5t118.5 20.5q68 0 119 -21.5t85 -59.5t48.5 -88t7.5 -105l-30 -277q-6 -55 -32 -104.5t-68 -86t-97 -58t-121 -21.5t-117 22.5t-83.5 59t-47 87t-8.5 105.5zM373 901q-6 -61 27.5 -105t99.5 -44t108.5 44t48.5 105l29 273 q6 61 -27.5 106t-99.5 45t-108.5 -45t-49.5 -106zM406 -12l1056 1542l135 -82l-1060 -1542zM1206 258l29 277q6 57 32.5 106t67.5 86t96.5 57.5t118.5 20.5q68 0 119 -21.5t85 -59.5t48.5 -88t7.5 -106l-30 -276q-6 -55 -32 -104.5t-68 -86t-97 -58t-121 -21.5t-117 22.5 t-83.5 59t-47 87t-8.5 105.5zM1352 258q-6 -61 27.5 -105t99.5 -44t108.5 44t48.5 105l27 272q6 61 -26.5 106.5t-98.5 45.5t-110 -45t-50 -107zM1923 258l29 277q6 55 30.5 104t66.5 86t97.5 58.5t120.5 21.5q68 0 118 -21.5t84 -59.5t48 -88t8 -106l-28 -276 q-6 -55 -32 -104.5t-67 -86t-97 -58t-122 -21.5t-117 22.5t-83.5 59t-47 87t-8.5 105.5zM2068 258q-6 -61 28 -105t99 -44q66 0 109 44t49 105l27 272q6 61 -27 106.5t-98 45.5q-66 0 -110 -45t-50 -107z" />
<glyph unicode="&#x2039;" horiz-adv-x="565" d="M139 543l13 108l436 342l-19 -176l-280 -221l233 -221l-18 -174z" />
<glyph unicode="&#x203a;" horiz-adv-x="565" d="M102 201l19 174l280 221l-233 221l18 176l365 -342l-10 -108z" />
<glyph unicode="&#x2044;" horiz-adv-x="444" d="M-297 -2l1057 1542l135 -82l-1059 -1542z" />
<glyph unicode="&#x205f;" horiz-adv-x="501" />
<glyph unicode="&#x20ac;" horiz-adv-x="1214" d="M76 487l47 138h96l19 182h-127l49 135h92l2 23q8 98 52 187t116 156.5t167 107.5t208 40q104 0 188 -36t140.5 -96t86 -142t27.5 -174h-188q0 57 -18.5 108t-53.5 89t-86 59.5t-115 21.5q-70 0 -129 -25.5t-103 -69.5t-72 -102.5t-34 -123.5l-2 -23h469l-49 -135h-434 l-18 -182h464l-47 -138h-432l-2 -20q-6 -66 8.5 -124t49 -102t88 -70t122.5 -26q70 0 129.5 26t103.5 70t72.5 102t34.5 124h187q-10 -98 -55.5 -187.5t-116 -157t-165.5 -106.5t-206 -39q-113 0 -199 39t-142 106.5t-81.5 157t-15.5 187.5l2 20h-129z" />
<glyph unicode="&#x2113;" horiz-adv-x="829" d="M51 383l228 158l53 497q23 203 99.5 316.5t225.5 113.5q131 0 194.5 -84t63.5 -219q0 -98 -32.5 -186t-95 -171t-153.5 -166t-208 -171l-14 -141q-6 -72 7 -111t37.5 -59.5t55.5 -24.5t55 -4q57 0 99.5 9.5t78.5 29.5l-6 -145q-33 -20 -72.5 -34t-115.5 -14 q-111 0 -170 30t-87 81t-32 116.5t-4 137.5v8l-141 -102zM446 666q86 72 146.5 133t97.5 118.5t54.5 115t17.5 122.5q0 78 -25 125t-84 47q-74 0 -112.5 -73.5t-51.5 -184.5z" />
<glyph unicode="&#x2116;" horiz-adv-x="2189" d="M160 0l151 1434h207l529 -1108l116 1108h187l-152 -1434h-207l-528 1108l-117 -1108h-186zM1354 440l16 160h821l-16 -160h-821zM1415 1016q0 88 33 167t93.5 138t143 95t183.5 36q88 0 157.5 -28.5t117.5 -78t73 -116t25 -139.5q0 -86 -33 -166t-93.5 -139.5 t-143.5 -95.5t-183 -36q-90 0 -159.5 29t-117 79t-72 115.5t-24.5 139.5zM1593 1028q0 -92 55.5 -155.5t155.5 -63.5q55 0 102.5 21.5t82 58.5t54 85t19.5 103q0 92 -55 155.5t-156 63.5q-55 0 -102 -21.5t-82 -58t-54.5 -85t-19.5 -103.5z" />
<glyph unicode="&#x2122;" horiz-adv-x="1660" d="M221 1331l10 103h541l-10 -103h-215l-78 -731h-113l78 731h-213zM840 600l88 834h178l164 -619l291 619h168l-89 -834h-110l69 660l-313 -660h-82l-178 684l-74 -684h-112z" />
<glyph unicode="&#x2126;" horiz-adv-x="1470" d="M135 0l19 168h374l7 57q-84 31 -151 83t-113 122t-70.5 155t-24.5 177q0 137 51.5 263t144.5 222t224 153.5t289 57.5q141 0 249.5 -46t182.5 -125t111.5 -183.5t37.5 -220.5q0 -111 -32.5 -213.5t-95 -189.5t-151.5 -152.5t-202 -102.5l-6 -57h375l-19 -168h-522l35 328 q104 20 185 72.5t135.5 126t83 163.5t28.5 182q0 86 -25.5 163t-77 133.5t-129.5 89t-182 32.5q-119 0 -212 -42t-157.5 -113.5t-99.5 -164.5t-35 -198q0 -80 20.5 -152.5t61.5 -132t102.5 -101.5t145.5 -58l-35 -328h-522z" />
<glyph unicode="&#x212e;" horiz-adv-x="1075" d="M133 418q0 113 37 210t103.5 169.5t158.5 114.5t203 42q90 0 163.5 -27.5t126 -79.5t81 -125t28.5 -161q0 -29 -3 -46t-7 -38h-680l-39 -371q45 -41 107.5 -62t140.5 -21q76 0 139.5 19t112.5 51t84 74t53 87h47q-23 -55 -62.5 -105.5t-97 -88t-129 -60.5t-155.5 -23 q-106 0 -184 36t-128.5 96.5t-75 140.5t-24.5 168zM348 522h483l35 314q-96 73 -229 73q-72 0 -137.5 -20.5t-118.5 -57.5z" />
<glyph unicode="&#x2190;" horiz-adv-x="1177" d="M-53 717l532 442l88 -106l-321 -262h1145l-17 -148h-1143l267 -260l-113 -109z" />
<glyph unicode="&#x2191;" horiz-adv-x="1177" d="M248 950l493 484l392 -484l-119 -100l-232 295l-120 -1145h-148l121 1141l-291 -291z" />
<glyph unicode="&#x2192;" horiz-adv-x="1177" d="M-61 643l16 148h1143l-264 260l108 108l440 -442l-532 -443l-86 107l319 262h-1144z" />
<glyph unicode="&#x2193;" horiz-adv-x="1177" d="M199 485l116 99l232 -295l121 1145h147l-121 -1143l291 293l98 -99l-493 -485z" />
<glyph unicode="&#x2196;" horiz-adv-x="1177" d="M143 567l43 656l650 -29l-21 -147l-391 22l725 -807l-115 -104l-725 807l-18 -390z" />
<glyph unicode="&#x2197;" horiz-adv-x="1177" d="M84 262l889 807l-391 -22l10 147l657 29l-96 -656l-147 8l65 392l-893 -809z" />
<glyph unicode="&#x2198;" horiz-adv-x="1177" d="M180 1171l115 105l723 -807l18 391l148 6l-39 -655l-653 29l22 147l391 -22z" />
<glyph unicode="&#x2199;" horiz-adv-x="1177" d="M80 211l96 655l146 -6l-64 -393l895 809l92 -105l-891 -806l391 22l-10 -147z" />
<glyph unicode="&#x2202;" horiz-adv-x="1177" d="M145 381q0 104 39 199.5t108.5 167t162.5 114.5t204 43q102 0 185.5 -39t134.5 -114l2 16q20 160 10 263.5t-43 163.5t-86 84t-121 24q-78 0 -138 -26t-103 -71t-68.5 -107.5t-34.5 -133.5h-186q10 104 53 195t112.5 160t166 107.5t213.5 38.5q125 0 205.5 -46t126 -129 t62.5 -197.5t17 -251.5q0 -240 -42 -407t-116.5 -271.5t-180 -151.5t-234.5 -47q-117 0 -202 35t-140 92.5t-81 133t-26 155.5zM319 397q0 -117 70 -191.5t209 -74.5q68 0 126 21.5t106.5 72.5t82 137.5t50.5 212.5q-45 86 -125 126t-174 40q-80 0 -144.5 -27.5 t-108.5 -74.5t-68 -109.5t-24 -132.5z" />
<glyph unicode="&#x2206;" horiz-adv-x="1144" d="M10 0l645 1434h136l344 -1434h-1125zM287 168h608l-203 960z" />
<glyph unicode="&#x220f;" horiz-adv-x="1320" d="M100 -504l207 1964h-129l17 166h1271l-16 -166h-129l-207 -1964h-186l207 1964h-641l-207 -1964h-187z" />
<glyph unicode="&#x2211;" horiz-adv-x="1177" d="M-6 -504l18 174l826 899l-637 897l16 160h1063l-16 -166h-828l637 -868l-825 -914h827l-18 -182h-1063z" />
<glyph unicode="&#x2212;" horiz-adv-x="1177" d="M229 506l17 158h827l-16 -158h-828z" />
<glyph unicode="&#x221a;" horiz-adv-x="1404" d="M39 315l16 160h373l150 -647l794 1798h197l-957 -2105h-135l-196 794h-242z" />
<glyph unicode="&#x221e;" horiz-adv-x="1699" d="M113 553q0 84 31.5 166t90 145.5t141.5 102.5t185 39q111 0 204 -54.5t165 -189.5q96 129 198.5 186.5t219.5 57.5q88 0 155.5 -30t113.5 -81t70.5 -118.5t24.5 -143.5q0 -90 -32.5 -172t-91 -145.5t-142.5 -100.5t-184 -37q-117 0 -208 56.5t-161 187.5 q-102 -139 -205.5 -191.5t-208.5 -52.5q-90 0 -158.5 32t-114.5 84t-69.5 119.5t-23.5 139.5zM281 567q0 -94 56 -161.5t157 -67.5q188 0 325 254q-86 254 -272 254q-57 0 -106.5 -22.5t-84 -61.5t-55 -89t-20.5 -106zM1004 592q84 -254 272 -254q59 0 108.5 23.5t84 61.5 t54 88t19.5 105q0 94 -56.5 162t-156.5 68q-188 0 -325 -254z" />
<glyph unicode="&#x222b;" horiz-adv-x="585" d="M-43 -500l16 150q29 -10 48.5 -13.5t35.5 -3.5q47 0 75 30t34 95l168 1598q16 152 82.5 211t158.5 59q29 0 74 -5t74 -17l-16 -152q-31 10 -49.5 14t-34.5 4q-49 0 -76 -29.5t-35 -97.5l-168 -1595q-16 -152 -82.5 -212t-161.5 -60q-35 0 -77.5 7t-65.5 17z" />
<glyph unicode="&#x2248;" horiz-adv-x="1177" d="M162 266l16 158q57 61 119.5 86t114.5 25q53 0 112.5 -19.5t118.5 -46.5q66 -29 119 -51.5t102 -22.5q63 0 124 36t106 77l-17 -156q-55 -59 -116.5 -86.5t-120.5 -27.5q-53 0 -104.5 19t-112.5 50q-47 23 -105.5 46.5t-120.5 23.5q-72 0 -129 -34t-106 -77zM199 590 l16 155q55 63 116.5 88t114.5 25t114 -19.5t120 -45.5q78 -35 125 -54.5t92 -19.5q66 0 126 34.5t107 75.5l-16 -155q-55 -59 -118.5 -87t-123.5 -28q-55 0 -104 19.5t-111 50.5q-47 23 -105 46t-122 23q-63 0 -117.5 -27.5t-113.5 -80.5z" />
<glyph unicode="&#x2260;" horiz-adv-x="1177" d="M211 336l16 160h260l101 172h-342l16 157h412l129 230h198l-129 -230h218l-17 -157h-287l-100 -172h369l-17 -160h-438l-127 -230h-199l129 230h-192z" />
<glyph unicode="&#x2264;" horiz-adv-x="1177" d="M186 49l17 160h817l-16 -160h-818zM266 815l15 129l847 297l-16 -166l-582 -194l541 -197l-18 -164z" />
<glyph unicode="&#x2265;" horiz-adv-x="1177" d="M186 49l17 160h817l-16 -160h-818zM236 520l18 164l582 197l-541 194l16 166l787 -297l-15 -129z" />
<glyph unicode="&#x25ca;" horiz-adv-x="972" d="M96 811l484 815h159l310 -815l-482 -811h-159zM281 811l225 -623l358 623q-6 16 -23.5 64.5t-41 112t-48 135t-48 135t-41 111.5t-23.5 65z" />
<glyph unicode="&#xe000;" horiz-adv-x="931" d="M0 0v932h932v-932h-932z" />
<glyph unicode="&#xfb01;" horiz-adv-x="1275" d="M125 780l16 150h201l16 162q12 125 54.5 196.5t93.5 106.5t104.5 43t89.5 8q55 0 87 -7t51 -18l-17 -151q-23 8 -46 12t-64 4q-25 0 -52.5 -4t-52 -21.5t-43 -53.5t-24.5 -97l-19 -180h266l-16 -150h-266l-82 -780h-178l82 780h-201zM903 0l98 930h179l-99 -930h-178z M989 1268q0 63 45 107t107 44q53 0 89 -36.5t36 -90.5q0 -61 -46 -104t-108 -43q-53 0 -88 35t-35 88z" />
<glyph unicode="&#xfb02;" horiz-adv-x="1208" d="M125 780l16 150h201l16 162q12 125 54.5 196.5t93.5 106.5t104.5 43t89.5 8q55 0 87 -7t51 -18l-17 -151q-23 8 -46 12t-64 4q-25 0 -52.5 -4t-52 -21.5t-43 -53.5t-24.5 -97l-19 -180h266l-16 -150h-266l-82 -780h-178l82 780h-201zM870 0l152 1434h178l-151 -1434h-179 z" />
<glyph horiz-adv-x="1482" d="M147 606q0 27 3.5 70t11.5 82t20.5 67.5t28.5 28.5q8 0 15 -7t13.5 -16.5t12.5 -16.5t10 -7q2 0 9.5 46t27.5 115.5t60 151.5t110 151.5t172.5 116t249.5 46.5q145 0 239.5 -46.5t148.5 -116t77.5 -151.5t30 -151.5t3 -115.5t-0.5 -46q4 0 11 7t14 16.5t16.5 16.5t17.5 7 q16 0 22.5 -35t6.5 -69q0 -29 -4.5 -71t-12.5 -82t-21.5 -68.5t-33.5 -28.5q-16 0 -23.5 12t-9.5 16q-14 -41 -35.5 -95t-54.5 -113.5t-80 -117t-111.5 -102.5t-151.5 -72.5t-198 -27.5q-162 0 -259 55.5t-152.5 137t-77 173t-31.5 164.5q-4 -8 -12 -16q-14 -14 -27 -14 q-10 0 -17 11t-11 26.5t-5.5 34t-1.5 34.5zM383 788q18 -27 43 -47q23 -18 54.5 -32.5t74.5 -14.5q51 0 89 20.5t61 45.5q27 29 45 65q-8 14 -23 29q-12 12 -33.5 25.5t-52.5 23.5q14 -12 23.5 -32.5t9.5 -43.5q0 -47 -35 -78.5t-82 -31.5q-37 0 -64.5 24.5t-27.5 73.5 q0 23 6 41t23 33q-31 -10 -51.5 -26.5t-34.5 -33.5q-16 -20 -25 -41zM489 377q4 -59 37 -105q29 -41 85.5 -72.5t162.5 -31.5q104 0 162.5 30.5t84.5 69.5t27 72t-12 37q-4 2 -17 4t-46 14q12 18 21.5 40t9.5 50q0 12 -2.5 29.5t-8.5 33t-14 27t-21 11.5q-8 0 -18 -6.5 t-10 -24.5q0 -6 4 -10q8 -10 12 -19.5t4 -31.5q0 -18 -4 -39t-18 -41q-33 16 -63 30.5t-77 14.5t-80.5 -14.5t-66.5 -30.5q-8 16 -8 49t7 50t22 32q6 2 6 16q0 25 -23 25q-16 0 -28.5 -15.5t-21.5 -37t-14.5 -44t-5.5 -38.5q0 -10 2.5 -26.5t10.5 -29.5q-23 -8 -46.5 -13 t-52.5 -5zM903 825q10 -37 33 -65q18 -25 50 -45.5t85 -20.5q43 0 78 14.5t61 32.5q29 20 54 47q-8 23 -21 43q-10 16 -27.5 35t-46.5 29q20 -27 21 -64q0 -51 -35 -82.5t-80 -31.5q-43 0 -69.5 26.5t-26.5 65.5q0 16 8 40.5t31 43.5q-31 -10 -52.5 -21.5t-35.5 -21.5 q-16 -12 -27 -25z" />
<glyph horiz-adv-x="479" d="M111 -178l8 74q47 0 73.5 13t47.5 36q29 35 32 71q-12 -12 -45 -12q-43 0 -69.5 29.5t-26.5 72.5q0 53 38 90t93 37q47 0 84 -34.5t37 -122.5q0 -119 -72.5 -186.5t-199.5 -67.5z" />
<glyph horiz-adv-x="479" d="M264 1372q0 117 72 185.5t201 68.5l-9 -74q-57 0 -82.5 -16t-39.5 -33q-10 -10 -18.5 -26.5t-12.5 -44.5q12 12 43 12q43 0 70.5 -30t27.5 -73q0 -53 -38 -90t-93 -37q-47 0 -84 35t-37 123z" />
</font>
</defs>
</svg>
